<?xml version="1.0" encoding="UTF-8"?>
<svg width="802px" height="206px" viewBox="0 0 802 206" version="1.1" xmlns="http://www.w3.org/2000/svg" xmlns:xlink="http://www.w3.org/1999/xlink">
    <title>Group 8</title>
    <g id="Page-1" stroke="none" stroke-width="1" fill="none" fill-rule="evenodd">
        <g id="10x-ver-4" transform="translate(-377.000000, -414.000000)" fill-rule="nonzero">
            <g id="Group-8" transform="translate(377.000000, 414.790000)">
                <path d="M207.943391,66.8792199 L207.983855,69.6329987 L207.983855,135.367001 C207.983855,227.15712 74.9032292,228.323306 72.2416167,138.128153 L72.2011535,135.367001 L72.2011535,69.6329987 C72.2011535,-22.4079132 205.281779,-23.0800375 207.943391,66.8792199 Z M43.5720608,2.24830007 L43.5720608,191.098707 L73.4645211,191.098707 L73.4645211,203.005026 L1.13686838e-13,203.005026 L1.13686838e-13,191.098707 L29.8924603,191.098707 L29.8924603,14.4079449 L1.13686838e-13,14.4079449 L1.13686838e-13,2.24830007 L43.5720608,2.24830007 Z M85.6598892,67.3834637 L85.627428,69.6329987 L85.627428,135.367001 C85.627428,210.604804 192.38987,211.108897 194.525119,137.616687 L194.55758,135.367001 L194.55758,69.6329987 C194.55758,-5.10321856 87.795138,-6.09886548 85.6598892,67.3834637 Z" id="Combined-Shape-Copy" fill="#D20900"></path>
                <path d="M278.72,104 L278.72,57.44 L295.84,57.44 L295.84,46.88 L249.04,46.88 L249.04,57.44 L266.16,57.44 L266.16,104 L278.72,104 Z M313.093333,104 L313.093333,46.88 L300.533333,46.88 L300.533333,104 L313.093333,104 Z M334.026667,104 L334.026667,63.92 L334.186667,63.92 L348.186667,104 L357.866667,104 L371.866667,63.52 L372.026667,63.52 L372.026667,104 L383.786667,104 L383.786667,46.88 L366.106667,46.88 L353.466667,86.16 L353.306667,86.16 L339.946667,46.88 L322.266667,46.88 L322.266667,104 L334.026667,104 Z M436.32,104 L436.32,93.44 L405.52,93.44 L405.52,79.44 L433.2,79.44 L433.2,69.68 L405.52,69.68 L405.52,57.44 L435.68,57.44 L435.68,46.88 L392.96,46.88 L392.96,104 L436.32,104 Z M463.653333,105.28 C467.546667,105.28 470.973333,104.826667 473.933333,103.92 C476.893333,103.013333 479.373333,101.746667 481.373333,100.12 C483.373333,98.4933333 484.88,96.56 485.893333,94.32 C486.906667,92.08 487.413333,89.6533333 487.413333,87.04 C487.413333,83.84 486.733333,81.2133333 485.373333,79.16 C484.013333,77.1066667 482.4,75.4666667 480.533333,74.24 C478.666667,73.0133333 476.786667,72.12 474.893333,71.56 C473,71 471.52,70.6133333 470.453333,70.4 C466.88,69.4933333 463.986667,68.7466667 461.773333,68.16 C459.56,67.5733333 457.826667,66.9866667 456.573333,66.4 C455.32,65.8133333 454.48,65.1733333 454.053333,64.48 C453.626667,63.7866667 453.413333,62.88 453.413333,61.76 C453.413333,60.5333333 453.68,59.52 454.213333,58.72 C454.746667,57.92 455.426667,57.2533333 456.253333,56.72 C457.08,56.1866667 458,55.8133333 459.013333,55.6 C460.026667,55.3866667 461.04,55.28 462.053333,55.28 C463.6,55.28 465.026667,55.4133333 466.333333,55.68 C467.64,55.9466667 468.8,56.4 469.813333,57.04 C470.826667,57.68 471.64,58.56 472.253333,59.68 C472.866667,60.8 473.226667,62.2133333 473.333333,63.92 L485.493333,63.92 C485.493333,60.6133333 484.866667,57.8 483.613333,55.48 C482.36,53.16 480.666667,51.2533333 478.533333,49.76 C476.4,48.2666667 473.96,47.1866667 471.213333,46.52 C468.466667,45.8533333 465.6,45.52 462.613333,45.52 C460.053333,45.52 457.493333,45.8666667 454.933333,46.56 C452.373333,47.2533333 450.08,48.32 448.053333,49.76 C446.026667,51.2 444.386667,53 443.133333,55.16 C441.88,57.32 441.253333,59.8666667 441.253333,62.8 C441.253333,65.4133333 441.746667,67.64 442.733333,69.48 C443.72,71.32 445.013333,72.8533333 446.613333,74.08 C448.213333,75.3066667 450.026667,76.3066667 452.053333,77.08 C454.08,77.8533333 456.16,78.5066667 458.293333,79.04 C460.373333,79.6266667 462.426667,80.16 464.453333,80.64 C466.48,81.12 468.293333,81.68 469.893333,82.32 C471.493333,82.96 472.786667,83.76 473.773333,84.72 C474.76,85.68 475.253333,86.9333333 475.253333,88.48 C475.253333,89.92 474.88,91.1066667 474.133333,92.04 C473.386667,92.9733333 472.453333,93.7066667 471.333333,94.24 C470.213333,94.7733333 469.013333,95.1333333 467.733333,95.32 C466.453333,95.5066667 465.253333,95.6 464.133333,95.6 C462.48,95.6 460.88,95.4 459.333333,95 C457.786667,94.6 456.44,93.9866667 455.293333,93.16 C454.146667,92.3333333 453.226667,91.2533333 452.533333,89.92 C451.84,88.5866667 451.493333,86.96 451.493333,85.04 L439.333333,85.04 C439.28,88.56 439.92,91.6 441.253333,94.16 C442.586667,96.72 444.386667,98.8266667 446.653333,100.48 C448.92,102.133333 451.533333,103.346667 454.493333,104.12 C457.453333,104.893333 460.506667,105.28 463.653333,105.28 Z" id="TIMES" fill="#090909"></path>
                <path d="M269.28,168 L269.28,150.32 L287.064,150.32 L287.064,147.304 L269.28,147.304 L269.28,133.888 L289.3,133.888 L289.3,130.872 L265.744,130.872 L265.744,168 L269.28,168 Z M318.350667,168 L318.350667,164.984 L295.990667,164.984 L295.990667,150.32 L316.686667,150.32 L316.686667,147.304 L295.990667,147.304 L295.990667,133.888 L318.090667,133.888 L318.090667,130.872 L292.454667,130.872 L292.454667,168 L318.350667,168 Z M332.477333,168 L341.837333,134.772 L341.941333,134.772 L351.353333,168 L355.097333,168 L365.341333,130.872 L361.805333,130.872 L353.329333,163.372 L353.225333,163.372 L344.125333,130.872 L339.705333,130.872 L330.657333,163.372 L330.553333,163.372 L322.129333,130.872 L318.333333,130.872 L328.629333,168 L332.477333,168 Z M393.924,168 L393.924,164.984 L371.564,164.984 L371.564,150.32 L392.26,150.32 L392.26,147.304 L371.564,147.304 L371.564,133.888 L393.664,133.888 L393.664,130.872 L368.028,130.872 L368.028,168 L393.924,168 Z M401.186667,168 L401.186667,151.516 L414.602667,151.516 C416.266667,151.446667 417.575333,151.724 418.528667,152.348 C419.482,152.972 420.21,153.795333 420.712667,154.818 C421.215333,155.840667 421.544667,157.002 421.700667,158.302 C421.856667,159.602 421.969333,160.910667 422.038667,162.228 C422.073333,162.609333 422.108,163.06 422.142667,163.58 C422.177333,164.1 422.220667,164.628667 422.272667,165.166 C422.324667,165.703333 422.411333,166.223333 422.532667,166.726 C422.654,167.228667 422.818667,167.653333 423.026667,168 L426.926667,168 C426.545333,167.549333 426.242,166.916667 426.016667,166.102 C425.791333,165.287333 425.626667,164.420667 425.522667,163.502 C425.418667,162.583333 425.349333,161.673333 425.314667,160.772 C425.28,159.870667 425.245333,159.108 425.210667,158.484 C425.141333,157.374667 424.994,156.343333 424.768667,155.39 C424.543333,154.436667 424.179333,153.596 423.676667,152.868 C423.174,152.14 422.524,151.542 421.726667,151.074 C420.929333,150.606 419.924,150.285333 418.710667,150.112 L418.710667,150.008 C421.102667,149.522667 422.905333,148.413333 424.118667,146.68 C425.332,144.946667 425.938667,142.901333 425.938667,140.544 C425.938667,138.88 425.635333,137.432667 425.028667,136.202 C424.422,134.971333 423.607333,133.966 422.584667,133.186 C421.562,132.406 420.366,131.825333 418.996667,131.444 C417.627333,131.062667 416.18,130.872 414.654667,130.872 L397.650667,130.872 L397.650667,168 L401.186667,168 Z M414.394667,148.5 L401.186667,148.5 L401.186667,133.888 L414.394667,133.888 C417.098667,133.888 419.109333,134.546667 420.426667,135.864 C421.744,137.181333 422.402667,138.984 422.402667,141.272 C422.402667,142.416 422.186,143.43 421.752667,144.314 C421.319333,145.198 420.738667,145.952 420.010667,146.576 C419.282667,147.2 418.433333,147.676667 417.462667,148.006 C416.492,148.335333 415.469333,148.5 414.394667,148.5 Z M468.7,168 L468.7,164.984 L447.9,164.984 L447.9,130.872 L444.364,130.872 L444.364,168 L468.7,168 Z M474.870667,168 L474.870667,130.872 L471.334667,130.872 L471.334667,168 L474.870667,168 Z M484.889333,168 L484.889333,136.592 L484.993333,136.592 L506.625333,168 L510.577333,168 L510.577333,130.872 L507.041333,130.872 L507.041333,162.28 L506.937333,162.28 L485.305333,130.872 L481.353333,130.872 L481.353333,168 L484.889333,168 Z M542.696,168 L542.696,164.984 L520.336,164.984 L520.336,150.32 L541.032,150.32 L541.032,147.304 L520.336,147.304 L520.336,133.888 L542.436,133.888 L542.436,130.872 L516.8,130.872 L516.8,168 L542.696,168 Z M559.370667,168.728 C561.554667,168.728 563.426667,168.528667 564.986667,168.13 C566.546667,167.731333 567.855333,167.211333 568.912667,166.57 C569.97,165.928667 570.802,165.209333 571.408667,164.412 C572.015333,163.614667 572.483333,162.826 572.812667,162.046 C573.142,161.266 573.35,160.529333 573.436667,159.836 C573.523333,159.142667 573.566667,158.588 573.566667,158.172 C573.566667,156.646667 573.315333,155.346667 572.812667,154.272 C572.31,153.197333 571.616667,152.287333 570.732667,151.542 C569.848667,150.796667 568.826,150.172667 567.664667,149.67 C566.503333,149.167333 565.264,148.742667 563.946667,148.396 L554.898667,146.16 C554.136,145.986667 553.416667,145.761333 552.740667,145.484 C552.064667,145.206667 551.466667,144.842667 550.946667,144.392 C550.426667,143.941333 550.019333,143.395333 549.724667,142.754 C549.43,142.112667 549.282667,141.358667 549.282667,140.492 C549.282667,139.105333 549.542667,137.944 550.062667,137.008 C550.582667,136.072 551.267333,135.318 552.116667,134.746 C552.966,134.174 553.954,133.758 555.080667,133.498 C556.207333,133.238 557.377333,133.108 558.590667,133.108 C559.908,133.108 561.164667,133.29 562.360667,133.654 C563.556667,134.018 564.614,134.555333 565.532667,135.266 C566.451333,135.976667 567.196667,136.860667 567.768667,137.918 C568.340667,138.975333 568.661333,140.214667 568.730667,141.636 L572.266667,141.636 C572.266667,139.729333 571.894,138.056667 571.148667,136.618 C570.403333,135.179333 569.406667,133.974667 568.158667,133.004 C566.910667,132.033333 565.454667,131.305333 563.790667,130.82 C562.126667,130.334667 560.376,130.092 558.538667,130.092 C555.938667,130.092 553.806667,130.464667 552.142667,131.21 C550.478667,131.955333 549.17,132.865333 548.216667,133.94 C547.263333,135.014667 546.613333,136.158667 546.266667,137.372 C545.92,138.585333 545.746667,139.642667 545.746667,140.544 C545.746667,142 545.980667,143.230667 546.448667,144.236 C546.916667,145.241333 547.532,146.090667 548.294667,146.784 C549.057333,147.477333 549.95,148.032 550.972667,148.448 C551.995333,148.864 553.044,149.210667 554.118667,149.488 L562.386667,151.516 C563.253333,151.724 564.137333,151.992667 565.038667,152.322 C565.94,152.651333 566.763333,153.076 567.508667,153.596 C568.254,154.116 568.860667,154.757333 569.328667,155.52 C569.796667,156.282667 570.030667,157.184 570.030667,158.224 C570.030667,159.576 569.701333,160.728667 569.042667,161.682 C568.384,162.635333 567.560667,163.415333 566.572667,164.022 C565.584667,164.628667 564.518667,165.070667 563.374667,165.348 C562.230667,165.625333 561.173333,165.764 560.202667,165.764 C558.504,165.764 556.909333,165.599333 555.418667,165.27 C553.928,164.940667 552.636667,164.394667 551.544667,163.632 C550.452667,162.869333 549.594667,161.846667 548.970667,160.564 C548.346667,159.281333 548.052,157.686667 548.086667,155.78 L544.550667,155.78 C544.446667,158.068 544.75,160.026667 545.460667,161.656 C546.171333,163.285333 547.185333,164.62 548.502667,165.66 C549.82,166.7 551.414667,167.471333 553.286667,167.974 C555.158667,168.476667 557.186667,168.728 559.370667,168.728 Z M606.76,168.728 C609.672,168.728 612.22,168.199333 614.404,167.142 C616.588,166.084667 618.408,164.672 619.864,162.904 C621.32,161.136 622.412,159.090667 623.14,156.768 C623.868,154.445333 624.232,152.001333 624.232,149.436 C624.232,146.870667 623.868,144.426667 623.14,142.104 C622.412,139.781333 621.32,137.727333 619.864,135.942 C618.408,134.156667 616.588,132.735333 614.404,131.678 C612.22,130.620667 609.672,130.092 606.76,130.092 C603.848,130.092 601.291333,130.620667 599.09,131.678 C596.888667,132.735333 595.06,134.156667 593.604,135.942 C592.148,137.727333 591.056,139.781333 590.328,142.104 C589.6,144.426667 589.236,146.870667 589.236,149.436 C589.236,152.001333 589.6,154.445333 590.328,156.768 C591.056,159.090667 592.148,161.136 593.604,162.904 C595.06,164.672 596.888667,166.084667 599.09,167.142 C601.291333,168.199333 603.848,168.728 606.76,168.728 Z M606.76,165.764 C604.298667,165.764 602.184,165.296 600.416,164.36 C598.648,163.424 597.200667,162.184667 596.074,160.642 C594.947333,159.099333 594.115333,157.348667 593.578,155.39 C593.040667,153.431333 592.772,151.446667 592.772,149.436 C592.772,147.390667 593.040667,145.397333 593.578,143.456 C594.115333,141.514667 594.947333,139.772667 596.074,138.23 C597.200667,136.687333 598.648,135.448 600.416,134.512 C602.184,133.576 604.298667,133.108 606.76,133.108 C609.221333,133.108 611.327333,133.576 613.078,134.512 C614.828667,135.448 616.267333,136.687333 617.394,138.23 C618.520667,139.772667 619.352667,141.514667 619.89,143.456 C620.427333,145.397333 620.696,147.390667 620.696,149.436 C620.696,151.446667 620.427333,153.431333 619.89,155.39 C619.352667,157.348667 618.520667,159.099333 617.394,160.642 C616.267333,162.184667 614.828667,163.424 613.078,164.36 C611.327333,165.296 609.221333,165.764 606.76,165.764 Z M632.066667,168 L632.066667,150.32 L649.850667,150.32 L649.850667,147.304 L632.066667,147.304 L632.066667,133.888 L652.086667,133.888 L652.086667,130.872 L628.530667,130.872 L628.530667,168 L632.066667,168 Z M684.24,168.728 C686.424,168.728 688.408667,168.381333 690.194,167.688 C691.979333,166.994667 693.530667,166.006667 694.848,164.724 C696.165333,163.441333 697.24,161.881333 698.072,160.044 C698.904,158.206667 699.441333,156.144 699.684,153.856 L696.148,153.856 C695.974667,155.52 695.576,157.071333 694.952,158.51 C694.328,159.948667 693.513333,161.205333 692.508,162.28 C691.502667,163.354667 690.306667,164.204 688.92,164.828 C687.533333,165.452 685.973333,165.764 684.24,165.764 C681.778667,165.764 679.664,165.296 677.896,164.36 C676.128,163.424 674.680667,162.184667 673.554,160.642 C672.427333,159.099333 671.595333,157.348667 671.058,155.39 C670.520667,153.431333 670.252,151.446667 670.252,149.436 C670.252,147.390667 670.520667,145.397333 671.058,143.456 C671.595333,141.514667 672.427333,139.772667 673.554,138.23 C674.680667,136.687333 676.128,135.448 677.896,134.512 C679.664,133.576 681.778667,133.108 684.24,133.108 C685.592,133.108 686.883333,133.307333 688.114,133.706 C689.344667,134.104667 690.471333,134.685333 691.494,135.448 C692.516667,136.210667 693.383333,137.155333 694.094,138.282 C694.804667,139.408667 695.316,140.682667 695.628,142.104 L699.164,142.104 C698.921333,140.162667 698.340667,138.446667 697.422,136.956 C696.503333,135.465333 695.359333,134.208667 693.99,133.186 C692.620667,132.163333 691.095333,131.392 689.414,130.872 C687.732667,130.352 686.008,130.092 684.24,130.092 C681.328,130.092 678.771333,130.620667 676.57,131.678 C674.368667,132.735333 672.54,134.156667 671.084,135.942 C669.628,137.727333 668.536,139.781333 667.808,142.104 C667.08,144.426667 666.716,146.870667 666.716,149.436 C666.716,152.001333 667.08,154.445333 667.808,156.768 C668.536,159.090667 669.628,161.136 671.084,162.904 C672.54,164.672 674.368667,166.084667 676.57,167.142 C678.771333,168.199333 681.328,168.728 684.24,168.728 Z M719.426667,168.728 C722.338667,168.728 724.886667,168.199333 727.070667,167.142 C729.254667,166.084667 731.074667,164.672 732.530667,162.904 C733.986667,161.136 735.078667,159.090667 735.806667,156.768 C736.534667,154.445333 736.898667,152.001333 736.898667,149.436 C736.898667,146.870667 736.534667,144.426667 735.806667,142.104 C735.078667,139.781333 733.986667,137.727333 732.530667,135.942 C731.074667,134.156667 729.254667,132.735333 727.070667,131.678 C724.886667,130.620667 722.338667,130.092 719.426667,130.092 C716.514667,130.092 713.958,130.620667 711.756667,131.678 C709.555333,132.735333 707.726667,134.156667 706.270667,135.942 C704.814667,137.727333 703.722667,139.781333 702.994667,142.104 C702.266667,144.426667 701.902667,146.870667 701.902667,149.436 C701.902667,152.001333 702.266667,154.445333 702.994667,156.768 C703.722667,159.090667 704.814667,161.136 706.270667,162.904 C707.726667,164.672 709.555333,166.084667 711.756667,167.142 C713.958,168.199333 716.514667,168.728 719.426667,168.728 Z M719.426667,165.764 C716.965333,165.764 714.850667,165.296 713.082667,164.36 C711.314667,163.424 709.867333,162.184667 708.740667,160.642 C707.614,159.099333 706.782,157.348667 706.244667,155.39 C705.707333,153.431333 705.438667,151.446667 705.438667,149.436 C705.438667,147.390667 705.707333,145.397333 706.244667,143.456 C706.782,141.514667 707.614,139.772667 708.740667,138.23 C709.867333,136.687333 711.314667,135.448 713.082667,134.512 C714.850667,133.576 716.965333,133.108 719.426667,133.108 C721.888,133.108 723.994,133.576 725.744667,134.512 C727.495333,135.448 728.934,136.687333 730.060667,138.23 C731.187333,139.772667 732.019333,141.514667 732.556667,143.456 C733.094,145.397333 733.362667,147.390667 733.362667,149.436 C733.362667,151.446667 733.094,153.431333 732.556667,155.39 C732.019333,157.348667 731.187333,159.099333 730.060667,160.642 C728.934,162.184667 727.495333,163.424 725.744667,164.36 C723.994,165.296 721.888,165.764 719.426667,165.764 Z M754.041333,168 C759.692,167.861333 763.947333,166.275333 766.807333,163.242 C769.667333,160.208667 771.097333,155.606667 771.097333,149.436 C771.097333,143.265333 769.667333,138.663333 766.807333,135.63 C763.947333,132.596667 759.692,131.010667 754.041333,130.872 L741.197333,130.872 L741.197333,168 L754.041333,168 Z M752.273333,164.984 L744.733333,164.984 L744.733333,133.888 L752.273333,133.888 C754.942667,133.888 757.239333,134.174 759.163333,134.746 C761.087333,135.318 762.673333,136.228 763.921333,137.476 C765.169333,138.724 766.088,140.336 766.677333,142.312 C767.266667,144.288 767.561333,146.662667 767.561333,149.436 C767.561333,152.209333 767.266667,154.584 766.677333,156.56 C766.088,158.536 765.169333,160.148 763.921333,161.396 C762.673333,162.644 761.087333,163.554 759.163333,164.126 C757.239333,164.698 754.942667,164.984 752.273333,164.984 Z M801.5,168 L801.5,164.984 L779.14,164.984 L779.14,150.32 L799.836,150.32 L799.836,147.304 L779.14,147.304 L779.14,133.888 L801.24,133.888 L801.24,130.872 L775.604,130.872 L775.604,168 L801.5,168 Z" id="FEWERLINESOFCODE" fill="#090909"></path>
            </g>
        </g>
    </g>
</svg>