<?xml version="1.0" encoding="UTF-8"?>
<svg width="628px" height="360px" viewBox="0 0 628 360" version="1.1" xmlns="http://www.w3.org/2000/svg" xmlns:xlink="http://www.w3.org/1999/xlink">
    <title>Group 8</title>
    <defs>
        <path d="M17.9471964,-8.88659547e-15 L529.552804,7.25088215e-16 C535.793435,-4.21297134e-16 538.056438,0.649779278 540.33792,1.86992893 C542.619401,3.09007857 544.409921,4.88059859 545.630071,7.16208008 C546.850221,9.44356156 547.5,11.7065652 547.5,17.9471964 L547.5,261.052804 C547.5,267.293435 546.850221,269.556438 545.630071,271.83792 C544.409921,274.119401 542.619401,275.909921 540.33792,277.130071 C538.056438,278.350221 535.793435,279 529.552804,279 L17.9471964,279 C11.7065652,279 9.44356156,278.350221 7.16208008,277.130071 C4.88059859,275.909921 3.09007857,274.119401 1.86992893,271.83792 C0.649779278,269.556438 2.80864756e-16,267.293435 -4.83392144e-16,261.052804 L4.83392144e-16,17.9471964 C-2.80864756e-16,11.7065652 0.649779278,9.44356156 1.86992893,7.16208008 C3.09007857,4.88059859 4.88059859,3.09007857 7.16208008,1.86992893 C9.44356156,0.649779278 11.7065652,5.16336788e-15 17.9471964,-8.88659547e-15 Z" id="path-1"></path>
        <filter x="-11.2%" y="-19.2%" width="124.3%" height="147.7%" filterUnits="objectBoundingBox" id="filter-2">
            <feMorphology radius="1" operator="erode" in="SourceAlpha" result="shadowSpreadOuter1"></feMorphology>
            <feOffset dx="5" dy="13" in="shadowSpreadOuter1" result="shadowOffsetOuter1"></feOffset>
            <feGaussianBlur stdDeviation="21" in="shadowOffsetOuter1" result="shadowBlurOuter1"></feGaussianBlur>
            <feColorMatrix values="0 0 0 0 0   0 0 0 0 0   0 0 0 0 0  0 0 0 0.366777753 0" type="matrix" in="shadowBlurOuter1"></feColorMatrix>
        </filter>
    </defs>
    <g id="Page-1" stroke="none" stroke-width="1" fill="none" fill-rule="evenodd">
        <g id="A-query" transform="translate(-872.000000, -126.000000)">
            <g id="Group-8" transform="translate(907.500000, 153.465169)">
                <g id="Rectangle">
                    <use fill="black" fill-opacity="1" filter="url(#filter-2)" xlink:href="#path-1"></use>
                    <use fill="#141414" fill-rule="evenodd" xlink:href="#path-1"></use>
                </g>
                <g id="Group-7" transform="translate(26.500000, 29.101122)">
                    <g id="SELECT-items.name,-C-Copy" transform="translate(48.354490, 6.288000)" fill-rule="nonzero">
                        <path d="M4.72,11.904 C7.024,11.904 8.432,10.576 8.432,8.912 C8.432,7.36 7.408,6.64 6.112,6.112 L4.64,5.472 C3.744,5.104 2.768,4.736 2.768,3.728 C2.768,2.784 3.584,2.192 4.848,2.192 C5.888,2.192 6.688,2.576 7.376,3.184 L8.08,2.32 C7.312,1.552 6.16,1.024 4.848,1.024 C2.848,1.024 1.408,2.208 1.408,3.808 C1.408,5.344 2.624,6.096 3.68,6.512 L5.184,7.168 C6.256,7.616 7.072,7.952 7.072,9.024 C7.072,10.048 6.224,10.736 4.736,10.736 C3.584,10.736 2.496,10.208 1.712,9.424 L0.912,10.352 C1.856,11.296 3.184,11.904 4.72,11.904 Z M17.92,11.712 L17.92,10.576 L12.624,10.576 L12.624,6.768 L16.96,6.768 L16.96,5.632 L12.624,5.632 L12.624,2.336 L17.76,2.336 L17.76,1.216 L11.28,1.216 L11.28,11.712 L17.92,11.712 Z M27.696,11.712 L27.696,10.576 L22.496,10.576 L22.496,1.216 L21.184,1.216 L21.184,11.712 L27.696,11.712 Z M37.12,11.712 L37.12,10.576 L31.824,10.576 L31.824,6.768 L36.16,6.768 L36.16,5.632 L31.824,5.632 L31.824,2.336 L36.96,2.336 L36.96,1.216 L30.48,1.216 L30.48,11.712 L37.12,11.712 Z M43.904,11.904 C45.248,11.904 46.272,11.344 47.104,10.384 L46.336,9.568 C45.664,10.32 44.944,10.736 43.984,10.736 C41.968,10.736 40.672,9.072 40.672,6.432 C40.672,3.824 41.968,2.192 43.984,2.192 C44.864,2.192 45.552,2.576 46.096,3.152 L46.848,2.304 C46.24,1.632 45.248,1.024 43.984,1.024 C41.248,1.024 39.296,3.088 39.296,6.464 C39.296,9.888 41.264,11.904 43.904,11.904 Z M53.312,11.712 L53.312,2.336 L56.768,2.336 L56.768,1.216 L48.512,1.216 L48.512,2.336 L51.968,2.336 L51.968,11.712 L53.312,11.712 Z" id="SELECT" fill="#5CE5FC"></path>
                        <path d="M72.608,2.336 C73.2,2.336 73.664,1.936 73.664,1.328 C73.664,0.704 73.2,0.304 72.608,0.304 C72,0.304 71.552,0.704 71.552,1.328 C71.552,1.936 72,2.336 72.608,2.336 Z M73.408,11.712 L73.408,3.936 L68.48,3.936 L68.48,5.008 L72.096,5.008 L72.096,11.712 L73.408,11.712 Z M82.928,11.904 C83.776,11.904 84.672,11.696 85.36,11.44 L85.088,10.48 C84.544,10.688 83.952,10.832 83.216,10.832 C81.712,10.832 81.248,10.096 81.248,8.704 L81.248,5.008 L85.056,5.008 L85.056,3.936 L81.248,3.936 L81.248,1.76 L80.16,1.76 L79.984,3.936 L77.744,4.016 L77.744,5.008 L79.936,5.008 L79.936,8.688 C79.936,10.608 80.672,11.904 82.928,11.904 Z M91.52,11.904 C92.768,11.904 93.744,11.488 94.512,10.992 L94.048,10.128 C93.328,10.576 92.592,10.848 91.68,10.848 C89.984,10.848 88.8,9.792 88.704,8.112 L94.784,8.112 C94.816,7.92 94.832,7.664 94.832,7.392 C94.832,5.2 93.52,3.744 91.296,3.744 C89.28,3.744 87.344,5.296 87.344,7.84 C87.344,10.384 89.216,11.904 91.52,11.904 Z M93.616,7.248 L88.688,7.248 C88.88,5.68 90.048,4.784 91.312,4.784 C92.752,4.784 93.616,5.664 93.616,7.248 Z M98.064,11.712 L98.064,6.08 C98.464,5.28 98.816,4.88 99.36,4.88 C99.936,4.88 100.24,5.344 100.24,6.256 L100.24,11.712 L101.296,11.712 L101.296,6.08 C101.696,5.28 102.064,4.88 102.624,4.88 C103.2,4.88 103.472,5.344 103.472,6.256 L103.472,11.712 L104.736,11.712 L104.736,6.144 C104.736,4.592 104.112,3.744 103.04,3.744 C102.176,3.744 101.664,4.272 101.2,5.088 C101.008,4.192 100.512,3.744 99.728,3.744 C98.848,3.744 98.368,4.24 97.984,4.96 L97.936,4.96 L97.824,3.936 L96.8,3.936 L96.8,11.712 L98.064,11.712 Z M110.4,11.904 C112.624,11.904 113.856,10.848 113.856,9.584 C113.856,8.4 112.848,7.792 110.752,7.264 C109.344,6.912 108.384,6.528 108.384,5.888 C108.384,5.28 108.848,4.768 110.304,4.768 C111.264,4.768 112.096,5.104 112.784,5.584 L113.424,4.736 C112.656,4.208 111.472,3.744 110.304,3.744 C108.16,3.744 107.04,4.704 107.04,5.952 C107.04,7.056 108.4,7.76 110,8.16 C111.904,8.624 112.528,9.056 112.528,9.664 C112.528,10.336 111.84,10.88 110.448,10.88 C109.056,10.88 108.096,10.464 107.232,9.824 L106.592,10.688 C107.536,11.344 108.88,11.904 110.4,11.904 Z M119.84,11.904 C120.56,11.904 121.136,11.36 121.136,10.56 C121.136,9.744 120.56,9.2 119.84,9.2 C119.12,9.2 118.544,9.744 118.544,10.56 C118.544,11.36 119.12,11.904 119.84,11.904 Z M127.44,11.712 L127.44,6.288 C128.352,5.344 128.976,4.88 129.904,4.88 C131.184,4.88 131.696,5.584 131.696,7.056 L131.696,11.712 L133.008,11.712 L133.008,6.88 C133.008,4.832 132.16,3.744 130.32,3.744 C129.104,3.744 128.208,4.4 127.392,5.264 L127.328,5.264 L127.216,3.936 L126.128,3.936 L126.128,11.712 L127.44,11.712 Z M138.176,11.904 C139.28,11.904 140.384,11.328 141.248,10.656 L141.296,10.656 L141.408,11.712 L142.48,11.712 L142.48,6.944 C142.48,5.008 141.456,3.744 139.328,3.744 C137.968,3.744 136.656,4.352 135.872,4.864 L136.384,5.76 C137.104,5.312 138.096,4.832 139.104,4.832 C140.608,4.832 141.136,5.728 141.168,6.784 C137.152,7.104 135.536,7.952 135.536,9.696 C135.536,11.088 136.72,11.904 138.176,11.904 Z M138.528,10.848 C137.632,10.848 136.816,10.48 136.816,9.6 C136.816,8.576 137.84,7.92 141.168,7.648 L141.168,9.696 C140.288,10.432 139.408,10.848 138.528,10.848 Z M146.064,11.712 L146.064,6.08 C146.464,5.28 146.816,4.88 147.36,4.88 C147.936,4.88 148.24,5.344 148.24,6.256 L148.24,11.712 L149.296,11.712 L149.296,6.08 C149.696,5.28 150.064,4.88 150.624,4.88 C151.2,4.88 151.472,5.344 151.472,6.256 L151.472,11.712 L152.736,11.712 L152.736,6.144 C152.736,4.592 152.112,3.744 151.04,3.744 C150.176,3.744 149.664,4.272 149.2,5.088 C149.008,4.192 148.512,3.744 147.728,3.744 C146.848,3.744 146.368,4.24 145.984,4.96 L145.936,4.96 L145.824,3.936 L144.8,3.936 L144.8,11.712 L146.064,11.712 Z M158.72,11.904 C159.968,11.904 160.944,11.488 161.712,10.992 L161.248,10.128 C160.528,10.576 159.792,10.848 158.88,10.848 C157.184,10.848 156,9.792 155.904,8.112 L161.984,8.112 C162.016,7.92 162.032,7.664 162.032,7.392 C162.032,5.2 160.72,3.744 158.496,3.744 C156.48,3.744 154.544,5.296 154.544,7.84 C154.544,10.384 156.416,11.904 158.72,11.904 Z M160.816,7.248 L155.888,7.248 C156.08,5.68 157.248,4.784 158.512,4.784 C159.952,4.784 160.816,5.664 160.816,7.248 Z" id="items.name" fill="#FFFFFF"></path>
                        <path d="M166.56,15.12 C168.32,14.464 169.376,13.152 169.376,11.28 C169.376,10.032 168.88,9.232 167.936,9.232 C167.248,9.232 166.656,9.664 166.656,10.448 C166.656,11.248 167.216,11.648 167.904,11.648 C168,11.648 168.112,11.632 168.208,11.616 C168.16,12.88 167.504,13.696 166.192,14.288 L166.56,15.12 Z" id="," fill="#5CE5FC"></path>
                        <path d="M187.904,11.904 C189.248,11.904 190.272,11.344 191.104,10.384 L190.336,9.568 C189.664,10.32 188.944,10.736 187.984,10.736 C185.968,10.736 184.672,9.072 184.672,6.432 C184.672,3.824 185.968,2.192 187.984,2.192 C188.864,2.192 189.552,2.576 190.096,3.152 L190.848,2.304 C190.24,1.632 189.248,1.024 187.984,1.024 C185.248,1.024 183.296,3.088 183.296,6.464 C183.296,9.888 185.264,11.904 187.904,11.904 Z M196.64,11.904 C199.008,11.904 200.672,9.792 200.672,6.416 C200.672,3.072 199.008,1.024 196.64,1.024 C194.272,1.024 192.608,3.056 192.608,6.416 C192.608,9.792 194.272,11.904 196.64,11.904 Z M196.64,10.736 C195.04,10.736 193.984,9.04 193.984,6.416 C193.984,3.808 195.04,2.192 196.64,2.192 C198.24,2.192 199.296,3.808 199.296,6.416 C199.296,9.04 198.24,10.736 196.64,10.736 Z M206.256,11.904 C208.304,11.904 209.776,10.752 209.776,7.744 L209.776,1.216 L208.48,1.216 L208.48,7.776 C208.48,9.952 207.52,10.736 206.256,10.736 C204.992,10.736 204.048,9.952 204.048,7.776 L204.048,1.216 L202.704,1.216 L202.704,7.744 C202.704,10.752 204.192,11.904 206.256,11.904 Z M213.632,11.712 L213.632,6.224 C213.632,5.136 213.504,4.016 213.456,2.944 L213.488,2.944 L214.544,5.088 L217.952,11.712 L219.312,11.712 L219.312,1.216 L218.048,1.216 L218.048,6.656 C218.048,7.76 218.176,8.944 218.224,9.984 L218.192,9.984 L217.136,7.84 L213.728,1.216 L212.368,1.216 L212.368,11.712 L213.632,11.712 Z M226.112,11.712 L226.112,2.336 L229.568,2.336 L229.568,1.216 L221.312,1.216 L221.312,2.336 L224.768,2.336 L224.768,11.712 L226.112,11.712 Z" id="COUNT" fill="#00D639"></path>
                        <path d="M237.168,14.528 L237.888,13.856 C235.744,12.048 234.752,9.952 234.752,7.264 C234.752,4.576 235.744,2.48 237.888,0.672 L237.168,1.27897692e-13 C234.944,1.728 233.568,4.176 233.568,7.264 C233.568,10.352 234.944,12.8 237.168,14.528 Z" id="(" fill="#FFFFFF"></path>
                        <polygon id="*" fill="#5CE5FC" points="246.288 6.656 246.96 6.192 245.568 3.92 247.776 2.928 247.52 2.192 245.2 2.832 245.024 0.32 244.256 0.32 244.08 2.848 241.76 2.192 241.504 2.928 243.712 3.92 242.32 6.192 242.992 6.656 244.64 4.56"></polygon>
                        <path d="M252.112,14.528 C254.336,12.8 255.712,10.352 255.712,7.264 C255.712,4.176 254.336,1.728 252.112,1.27897692e-13 L251.392,0.672 C253.536,2.48 254.528,4.576 254.528,7.264 C254.528,9.952 253.536,12.048 251.392,13.856 L252.112,14.528 Z" id=")" fill="#FFFFFF"></path>
                        <path d="M3.328,53.712 L3.328,49.008 L7.632,49.008 L7.632,47.888 L3.328,47.888 L3.328,44.336 L8.416,44.336 L8.416,43.216 L2,43.216 L2,53.712 L3.328,53.712 Z M12.368,53.712 L12.368,49.28 L14.24,49.28 L16.768,53.712 L18.288,53.712 L15.616,49.136 C17.04,48.768 17.968,47.792 17.968,46.16 C17.968,43.984 16.432,43.216 14.304,43.216 L11.04,43.216 L11.04,53.712 L12.368,53.712 Z M14.112,48.192 L12.368,48.192 L12.368,44.288 L14.112,44.288 C15.744,44.288 16.64,44.784 16.64,46.16 C16.64,47.52 15.744,48.192 14.112,48.192 Z M23.84,53.904 C26.208,53.904 27.872,51.792 27.872,48.416 C27.872,45.072 26.208,43.024 23.84,43.024 C21.472,43.024 19.808,45.056 19.808,48.416 C19.808,51.792 21.472,53.904 23.84,53.904 Z M23.84,52.736 C22.24,52.736 21.184,51.04 21.184,48.416 C21.184,45.808 22.24,44.192 23.84,44.192 C25.44,44.192 26.496,45.808 26.496,48.416 C26.496,51.04 25.44,52.736 23.84,52.736 Z M31.056,53.712 L31.056,47.808 C31.056,46.944 30.944,45.424 30.88,44.576 L30.928,44.576 L31.632,46.816 L33.072,50.864 L33.792,50.864 L35.232,46.816 L35.92,44.576 L35.968,44.576 C35.904,45.424 35.808,46.944 35.808,47.808 L35.808,53.712 L36.944,53.712 L36.944,43.216 L35.472,43.216 L34,47.68 L33.488,49.376 L33.424,49.376 L32.896,47.68 L31.408,43.216 L29.936,43.216 L29.936,53.712 L31.056,53.712 Z" id="FROM" fill="#5CE5FC"></path>
                        <path d="M69.968,53.712 L69.968,49.28 L71.84,49.28 L74.368,53.712 L75.888,53.712 L73.216,49.136 C74.64,48.768 75.568,47.792 75.568,46.16 C75.568,43.984 74.032,43.216 71.904,43.216 L68.64,43.216 L68.64,53.712 L69.968,53.712 Z M71.712,48.192 L69.968,48.192 L69.968,44.288 L71.712,44.288 C73.344,44.288 74.24,44.784 74.24,46.16 C74.24,47.52 73.344,48.192 71.712,48.192 Z M85.12,53.712 L85.12,52.576 L79.824,52.576 L79.824,48.768 L84.16,48.768 L84.16,47.632 L79.824,47.632 L79.824,44.336 L84.96,44.336 L84.96,43.216 L78.48,43.216 L78.48,53.712 L85.12,53.712 Z M88.112,53.712 L89.12,50.512 L92.928,50.512 L93.92,53.712 L95.328,53.712 L91.792,43.216 L90.288,43.216 L86.752,53.712 L88.112,53.712 Z M92.592,49.44 L89.456,49.44 L89.952,47.84 C90.32,46.672 90.656,45.52 90.992,44.304 L91.056,44.304 C91.392,45.52 91.728,46.672 92.096,47.84 L92.592,49.44 Z M99.824,53.712 C102.928,53.712 104.624,51.76 104.624,48.416 C104.624,45.088 102.928,43.216 99.76,43.216 L97.2,43.216 L97.2,53.712 L99.824,53.712 Z M99.68,52.624 L98.528,52.624 L98.528,44.304 L99.68,44.304 C102.064,44.304 103.248,45.776 103.248,48.416 C103.248,51.072 102.064,52.624 99.68,52.624 Z" id="READ" fill="#F65086"></path>
                        <path d="M112.368,56.528 L113.088,55.856 C110.944,54.048 109.952,51.952 109.952,49.264 C109.952,46.576 110.944,44.48 113.088,42.672 L112.368,42 C110.144,43.728 108.768,46.176 108.768,49.264 C108.768,52.352 110.144,54.8 112.368,56.528 Z M118,48.112 C118.688,48.112 119.168,47.616 119.168,46.88 C119.168,46.208 118.704,45.728 118.048,45.728 C117.904,45.728 117.76,45.76 117.616,45.824 C117.696,44.72 118.288,43.872 119.28,43.296 L118.848,42.528 C117.408,43.264 116.56,44.592 116.56,46.192 C116.56,47.392 117.152,48.112 118,48.112 Z M121.664,48.112 C122.352,48.112 122.848,47.616 122.848,46.88 C122.848,46.208 122.384,45.728 121.712,45.728 C121.568,45.728 121.424,45.76 121.28,45.824 C121.36,44.72 121.952,43.872 122.96,43.296 L122.528,42.528 C121.088,43.264 120.224,44.592 120.224,46.192 C120.224,47.392 120.832,48.112 121.664,48.112 Z M129.6,53.904 C131.824,53.904 133.056,52.848 133.056,51.584 C133.056,50.4 132.048,49.792 129.952,49.264 C128.544,48.912 127.584,48.528 127.584,47.888 C127.584,47.28 128.048,46.768 129.504,46.768 C130.464,46.768 131.296,47.104 131.984,47.584 L132.624,46.736 C131.856,46.208 130.672,45.744 129.504,45.744 C127.36,45.744 126.24,46.704 126.24,47.952 C126.24,49.056 127.6,49.76 129.2,50.16 C131.104,50.624 131.728,51.056 131.728,51.664 C131.728,52.336 131.04,52.88 129.648,52.88 C128.256,52.88 127.296,52.464 126.432,51.824 L125.792,52.688 C126.736,53.344 128.08,53.904 129.6,53.904 Z M138.832,53.904 C140.864,53.904 142.528,52.8 142.528,50.992 C142.528,49.584 141.36,48.688 140,48.4 L140,48.336 C141.264,47.92 142.176,47.136 142.176,45.904 C142.176,44.256 140.72,43.312 138.8,43.312 C137.488,43.312 136.384,43.856 135.536,44.592 L136.24,45.424 C136.912,44.816 137.792,44.384 138.752,44.384 C140,44.384 140.832,45.008 140.832,46 C140.832,47.072 139.904,47.904 137.488,47.904 L137.488,48.912 C140.176,48.912 141.2,49.728 141.2,50.944 C141.2,52.08 140.144,52.816 138.752,52.816 C137.44,52.816 136.496,52.24 135.824,51.6 L135.152,52.464 C135.904,53.216 137.072,53.904 138.832,53.904 Z M148.64,48.176 C149.36,48.176 149.936,47.632 149.936,46.816 C149.936,46.016 149.36,45.472 148.64,45.472 C147.92,45.472 147.344,46.016 147.344,46.816 C147.344,47.632 147.92,48.176 148.64,48.176 Z M148.64,53.904 C149.36,53.904 149.936,53.36 149.936,52.56 C149.936,51.744 149.36,51.2 148.64,51.2 C147.92,51.2 147.344,51.744 147.344,52.56 C147.344,53.36 147.92,53.904 148.64,53.904 Z M156.208,56.272 L161.456,42.352 L160.272,42.352 L155.024,56.272 L156.208,56.272 Z M165.808,56.272 L171.056,42.352 L169.872,42.352 L164.624,56.272 L165.808,56.272 Z M177.44,53.904 C178.16,53.904 178.736,53.36 178.736,52.56 C178.736,51.744 178.16,51.2 177.44,51.2 C176.72,51.2 176.144,51.744 176.144,52.56 C176.144,53.36 176.72,53.904 177.44,53.904 Z M187.04,53.904 C187.76,53.904 188.336,53.36 188.336,52.56 C188.336,51.744 187.76,51.2 187.04,51.2 C186.32,51.2 185.744,51.744 185.744,52.56 C185.744,53.36 186.32,53.904 187.04,53.904 Z M196.64,53.904 C197.36,53.904 197.936,53.36 197.936,52.56 C197.936,51.744 197.36,51.2 196.64,51.2 C195.92,51.2 195.344,51.744 195.344,52.56 C195.344,53.36 195.92,53.904 196.64,53.904 Z M204.208,56.272 L209.456,42.352 L208.272,42.352 L203.024,56.272 L204.208,56.272 Z M216.608,44.336 C217.2,44.336 217.664,43.936 217.664,43.328 C217.664,42.704 217.2,42.304 216.608,42.304 C216,42.304 215.552,42.704 215.552,43.328 C215.552,43.936 216,44.336 216.608,44.336 Z M217.408,53.712 L217.408,45.936 L212.48,45.936 L212.48,47.008 L216.096,47.008 L216.096,53.712 L217.408,53.712 Z M226.928,53.904 C227.776,53.904 228.672,53.696 229.36,53.44 L229.088,52.48 C228.544,52.688 227.952,52.832 227.216,52.832 C225.712,52.832 225.248,52.096 225.248,50.704 L225.248,47.008 L229.056,47.008 L229.056,45.936 L225.248,45.936 L225.248,43.76 L224.16,43.76 L223.984,45.936 L221.744,46.016 L221.744,47.008 L223.936,47.008 L223.936,50.688 C223.936,52.608 224.672,53.904 226.928,53.904 Z M235.52,53.904 C236.768,53.904 237.744,53.488 238.512,52.992 L238.048,52.128 C237.328,52.576 236.592,52.848 235.68,52.848 C233.984,52.848 232.8,51.792 232.704,50.112 L238.784,50.112 C238.816,49.92 238.832,49.664 238.832,49.392 C238.832,47.2 237.52,45.744 235.296,45.744 C233.28,45.744 231.344,47.296 231.344,49.84 C231.344,52.384 233.216,53.904 235.52,53.904 Z M237.616,49.248 L232.688,49.248 C232.88,47.68 234.048,46.784 235.312,46.784 C236.752,46.784 237.616,47.664 237.616,49.248 Z M242.064,53.712 L242.064,48.08 C242.464,47.28 242.816,46.88 243.36,46.88 C243.936,46.88 244.24,47.344 244.24,48.256 L244.24,53.712 L245.296,53.712 L245.296,48.08 C245.696,47.28 246.064,46.88 246.624,46.88 C247.2,46.88 247.472,47.344 247.472,48.256 L247.472,53.712 L248.736,53.712 L248.736,48.144 C248.736,46.592 248.112,45.744 247.04,45.744 C246.176,45.744 245.664,46.272 245.2,47.088 C245.008,46.192 244.512,45.744 243.728,45.744 C242.848,45.744 242.368,46.24 241.984,46.96 L241.936,46.96 L241.824,45.936 L240.8,45.936 L240.8,53.712 L242.064,53.712 Z M254.4,53.904 C256.624,53.904 257.856,52.848 257.856,51.584 C257.856,50.4 256.848,49.792 254.752,49.264 C253.344,48.912 252.384,48.528 252.384,47.888 C252.384,47.28 252.848,46.768 254.304,46.768 C255.264,46.768 256.096,47.104 256.784,47.584 L257.424,46.736 C256.656,46.208 255.472,45.744 254.304,45.744 C252.16,45.744 251.04,46.704 251.04,47.952 C251.04,49.056 252.4,49.76 254,50.16 C255.904,50.624 256.528,51.056 256.528,51.664 C256.528,52.336 255.84,52.88 254.448,52.88 C253.056,52.88 252.096,52.464 251.232,51.824 L250.592,52.688 C251.536,53.344 252.88,53.904 254.4,53.904 Z M263.84,53.904 C264.56,53.904 265.136,53.36 265.136,52.56 C265.136,51.744 264.56,51.2 263.84,51.2 C263.12,51.2 262.544,51.744 262.544,52.56 C262.544,53.36 263.12,53.904 263.84,53.904 Z M274.176,53.904 C275.328,53.904 276.416,53.456 277.264,52.688 L276.688,51.84 C276.032,52.384 275.232,52.816 274.272,52.816 C272.48,52.816 271.28,51.616 271.28,49.84 C271.28,48.048 272.512,46.832 274.304,46.832 C275.12,46.832 275.792,47.168 276.432,47.728 L277.088,46.88 C276.448,46.256 275.52,45.744 274.256,45.744 C271.904,45.744 269.92,47.232 269.92,49.84 C269.92,52.416 271.744,53.904 274.176,53.904 Z M283.2,53.904 C285.424,53.904 286.656,52.848 286.656,51.584 C286.656,50.4 285.648,49.792 283.552,49.264 C282.144,48.912 281.184,48.528 281.184,47.888 C281.184,47.28 281.648,46.768 283.104,46.768 C284.064,46.768 284.896,47.104 285.584,47.584 L286.224,46.736 C285.456,46.208 284.272,45.744 283.104,45.744 C280.96,45.744 279.84,46.704 279.84,47.952 C279.84,49.056 281.2,49.76 282.8,50.16 C284.704,50.624 285.328,51.056 285.328,51.664 C285.328,52.336 284.64,52.88 283.248,52.88 C281.856,52.88 280.896,52.464 280.032,51.824 L279.392,52.688 C280.336,53.344 281.68,53.904 283.2,53.904 Z M293.408,53.712 L296.624,45.936 L295.36,45.936 L293.568,50.352 C293.248,51.136 292.992,51.904 292.72,52.64 L292.656,52.64 C292.384,51.904 292.096,51.136 291.776,50.352 L289.984,45.936 L288.656,45.936 L291.936,53.712 L293.408,53.712 Z M299.52,48.112 C300.96,47.376 301.808,46.064 301.808,44.464 C301.808,43.248 301.216,42.528 300.368,42.528 C299.68,42.528 299.2,43.04 299.2,43.776 C299.2,44.448 299.664,44.912 300.32,44.912 C300.464,44.912 300.608,44.88 300.736,44.816 C300.672,45.936 300.08,46.784 299.088,47.344 L299.52,48.112 Z M303.184,48.112 C304.624,47.376 305.488,46.064 305.488,44.464 C305.488,43.248 304.88,42.528 304.048,42.528 C303.36,42.528 302.864,43.04 302.864,43.776 C302.864,44.448 303.328,44.912 304,44.912 C304.128,44.912 304.272,44.88 304.4,44.832 C304.336,45.936 303.728,46.784 302.752,47.344 L303.184,48.112 Z M309.712,56.528 C311.936,54.8 313.312,52.352 313.312,49.264 C313.312,46.176 311.936,43.728 309.712,42 L308.992,42.672 C311.136,44.48 312.128,46.576 312.128,49.264 C312.128,51.952 311.136,54.048 308.992,55.856 L309.712,56.528 Z" id="(“s3://.../items.csv”)" fill="#FFFFFF"></path>
                        <path d="M328.112,53.712 L329.12,50.512 L332.928,50.512 L333.92,53.712 L335.328,53.712 L331.792,43.216 L330.288,43.216 L326.752,53.712 L328.112,53.712 Z M332.592,49.44 L329.456,49.44 L329.952,47.84 C330.32,46.672 330.656,45.52 330.992,44.304 L331.056,44.304 C331.392,45.52 331.728,46.672 332.096,47.84 L332.592,49.44 Z M340.72,53.904 C343.024,53.904 344.432,52.576 344.432,50.912 C344.432,49.36 343.408,48.64 342.112,48.112 L340.64,47.472 C339.744,47.104 338.768,46.736 338.768,45.728 C338.768,44.784 339.584,44.192 340.848,44.192 C341.888,44.192 342.688,44.576 343.376,45.184 L344.08,44.32 C343.312,43.552 342.16,43.024 340.848,43.024 C338.848,43.024 337.408,44.208 337.408,45.808 C337.408,47.344 338.624,48.096 339.68,48.512 L341.184,49.168 C342.256,49.616 343.072,49.952 343.072,51.024 C343.072,52.048 342.224,52.736 340.736,52.736 C339.584,52.736 338.496,52.208 337.712,51.424 L336.912,52.352 C337.856,53.296 339.184,53.904 340.72,53.904 Z" id="AS" fill="#5CE5FC"></path>
                        <path d="M360.608,44.336 C361.2,44.336 361.664,43.936 361.664,43.328 C361.664,42.704 361.2,42.304 360.608,42.304 C360,42.304 359.552,42.704 359.552,43.328 C359.552,43.936 360,44.336 360.608,44.336 Z M361.408,53.712 L361.408,45.936 L356.48,45.936 L356.48,47.008 L360.096,47.008 L360.096,53.712 L361.408,53.712 Z M370.928,53.904 C371.776,53.904 372.672,53.696 373.36,53.44 L373.088,52.48 C372.544,52.688 371.952,52.832 371.216,52.832 C369.712,52.832 369.248,52.096 369.248,50.704 L369.248,47.008 L373.056,47.008 L373.056,45.936 L369.248,45.936 L369.248,43.76 L368.16,43.76 L367.984,45.936 L365.744,46.016 L365.744,47.008 L367.936,47.008 L367.936,50.688 C367.936,52.608 368.672,53.904 370.928,53.904 Z M379.52,53.904 C380.768,53.904 381.744,53.488 382.512,52.992 L382.048,52.128 C381.328,52.576 380.592,52.848 379.68,52.848 C377.984,52.848 376.8,51.792 376.704,50.112 L382.784,50.112 C382.816,49.92 382.832,49.664 382.832,49.392 C382.832,47.2 381.52,45.744 379.296,45.744 C377.28,45.744 375.344,47.296 375.344,49.84 C375.344,52.384 377.216,53.904 379.52,53.904 Z M381.616,49.248 L376.688,49.248 C376.88,47.68 378.048,46.784 379.312,46.784 C380.752,46.784 381.616,47.664 381.616,49.248 Z M386.064,53.712 L386.064,48.08 C386.464,47.28 386.816,46.88 387.36,46.88 C387.936,46.88 388.24,47.344 388.24,48.256 L388.24,53.712 L389.296,53.712 L389.296,48.08 C389.696,47.28 390.064,46.88 390.624,46.88 C391.2,46.88 391.472,47.344 391.472,48.256 L391.472,53.712 L392.736,53.712 L392.736,48.144 C392.736,46.592 392.112,45.744 391.04,45.744 C390.176,45.744 389.664,46.272 389.2,47.088 C389.008,46.192 388.512,45.744 387.728,45.744 C386.848,45.744 386.368,46.24 385.984,46.96 L385.936,46.96 L385.824,45.936 L384.8,45.936 L384.8,53.712 L386.064,53.712 Z M398.4,53.904 C400.624,53.904 401.856,52.848 401.856,51.584 C401.856,50.4 400.848,49.792 398.752,49.264 C397.344,48.912 396.384,48.528 396.384,47.888 C396.384,47.28 396.848,46.768 398.304,46.768 C399.264,46.768 400.096,47.104 400.784,47.584 L401.424,46.736 C400.656,46.208 399.472,45.744 398.304,45.744 C396.16,45.744 395.04,46.704 395.04,47.952 C395.04,49.056 396.4,49.76 398,50.16 C399.904,50.624 400.528,51.056 400.528,51.664 C400.528,52.336 399.84,52.88 398.448,52.88 C397.056,52.88 396.096,52.464 395.232,51.824 L394.592,52.688 C395.536,53.344 396.88,53.904 398.4,53.904 Z" id="items" fill="#FFFFFF"></path>
                        <path d="M406.56,57.12 C408.32,56.464 409.376,55.152 409.376,53.28 C409.376,52.032 408.88,51.232 407.936,51.232 C407.248,51.232 406.656,51.664 406.656,52.448 C406.656,53.248 407.216,53.648 407.904,53.648 C408,53.648 408.112,53.632 408.208,53.616 C408.16,54.88 407.504,55.696 406.192,56.288 L406.56,57.12 Z" id="," fill="#5CE5FC"></path>
                        <path d="M69.968,82.712 L69.968,78.28 L71.84,78.28 L74.368,82.712 L75.888,82.712 L73.216,78.136 C74.64,77.768 75.568,76.792 75.568,75.16 C75.568,72.984 74.032,72.216 71.904,72.216 L68.64,72.216 L68.64,82.712 L69.968,82.712 Z M71.712,77.192 L69.968,77.192 L69.968,73.288 L71.712,73.288 C73.344,73.288 74.24,73.784 74.24,75.16 C74.24,76.52 73.344,77.192 71.712,77.192 Z M85.12,82.712 L85.12,81.576 L79.824,81.576 L79.824,77.768 L84.16,77.768 L84.16,76.632 L79.824,76.632 L79.824,73.336 L84.96,73.336 L84.96,72.216 L78.48,72.216 L78.48,82.712 L85.12,82.712 Z M88.112,82.712 L89.12,79.512 L92.928,79.512 L93.92,82.712 L95.328,82.712 L91.792,72.216 L90.288,72.216 L86.752,82.712 L88.112,82.712 Z M92.592,78.44 L89.456,78.44 L89.952,76.84 C90.32,75.672 90.656,74.52 90.992,73.304 L91.056,73.304 C91.392,74.52 91.728,75.672 92.096,76.84 L92.592,78.44 Z M99.824,82.712 C102.928,82.712 104.624,80.76 104.624,77.416 C104.624,74.088 102.928,72.216 99.76,72.216 L97.2,72.216 L97.2,82.712 L99.824,82.712 Z M99.68,81.624 L98.528,81.624 L98.528,73.304 L99.68,73.304 C102.064,73.304 103.248,74.776 103.248,77.416 C103.248,80.072 102.064,81.624 99.68,81.624 Z M114.08,84.952 L114.08,83.816 L106.4,83.816 L106.4,84.952 L114.08,84.952 Z M119.84,82.904 C122.208,82.904 123.872,80.792 123.872,77.416 C123.872,74.072 122.208,72.024 119.84,72.024 C117.472,72.024 115.808,74.056 115.808,77.416 C115.808,80.792 117.472,82.904 119.84,82.904 Z M119.84,81.736 C118.24,81.736 117.184,80.04 117.184,77.416 C117.184,74.808 118.24,73.192 119.84,73.192 C121.44,73.192 122.496,74.808 122.496,77.416 C122.496,80.04 121.44,81.736 119.84,81.736 Z M127.568,82.712 L127.568,78.28 L129.44,78.28 L131.968,82.712 L133.488,82.712 L130.816,78.136 C132.24,77.768 133.168,76.792 133.168,75.16 C133.168,72.984 131.632,72.216 129.504,72.216 L126.24,72.216 L126.24,82.712 L127.568,82.712 Z M129.312,77.192 L127.568,77.192 L127.568,73.288 L129.312,73.288 C130.944,73.288 131.84,73.784 131.84,75.16 C131.84,76.52 130.944,77.192 129.312,77.192 Z M136.112,82.712 L137.12,79.512 L140.928,79.512 L141.92,82.712 L143.328,82.712 L139.792,72.216 L138.288,72.216 L134.752,82.712 L136.112,82.712 Z M140.592,78.44 L137.456,78.44 L137.952,76.84 C138.32,75.672 138.656,74.52 138.992,73.304 L139.056,73.304 C139.392,74.52 139.728,75.672 140.096,76.84 L140.592,78.44 Z M149.504,82.904 C150.848,82.904 151.872,82.344 152.704,81.384 L151.936,80.568 C151.264,81.32 150.544,81.736 149.584,81.736 C147.568,81.736 146.272,80.072 146.272,77.432 C146.272,74.824 147.568,73.192 149.584,73.192 C150.464,73.192 151.152,73.576 151.696,74.152 L152.448,73.304 C151.84,72.632 150.848,72.024 149.584,72.024 C146.848,72.024 144.896,74.088 144.896,77.464 C144.896,80.888 146.864,82.904 149.504,82.904 Z M162.096,82.712 L162.096,81.576 L156.896,81.576 L156.896,72.216 L155.584,72.216 L155.584,82.712 L162.096,82.712 Z M171.52,82.712 L171.52,81.576 L166.224,81.576 L166.224,77.768 L170.56,77.768 L170.56,76.632 L166.224,76.632 L166.224,73.336 L171.36,73.336 L171.36,72.216 L164.88,72.216 L164.88,82.712 L171.52,82.712 Z" id="READ_ORACLE" fill="#F94D85"></path>
                        <path d="M179.568,85.528 L180.288,84.856 C178.144,83.048 177.152,80.952 177.152,78.264 C177.152,75.576 178.144,73.48 180.288,71.672 L179.568,71 C177.344,72.728 175.968,75.176 175.968,78.264 C175.968,81.352 177.344,83.8 179.568,85.528 Z M185.648,77.08 L186.064,73.48 L186.08,71.72 L184.32,71.72 L184.352,73.48 L184.752,77.08 L185.648,77.08 Z M189.328,77.08 L189.728,73.48 L189.76,71.72 L188,71.72 L188.016,73.48 L188.432,77.08 L189.328,77.08 Z M196.64,82.904 C198.688,82.904 200.48,81.416 200.48,78.84 C200.48,76.232 198.688,74.744 196.64,74.744 C194.592,74.744 192.8,76.232 192.8,78.84 C192.8,81.416 194.592,82.904 196.64,82.904 Z M196.64,81.816 C195.152,81.816 194.16,80.616 194.16,78.84 C194.16,77.048 195.152,75.832 196.64,75.832 C198.128,75.832 199.12,77.048 199.12,78.84 C199.12,80.616 198.128,81.816 196.64,81.816 Z M205.088,82.712 L205.088,78.152 C206.016,76.536 207.12,75.928 208.288,75.928 C208.896,75.928 209.2,76.008 209.744,76.2 L210.016,75.064 C209.536,74.824 209.072,74.744 208.496,74.744 C207.056,74.744 205.84,75.528 205.024,76.776 L204.976,76.776 L204.864,74.936 L203.776,74.936 L203.776,82.712 L205.088,82.712 Z M214.976,82.904 C216.08,82.904 217.184,82.328 218.048,81.656 L218.096,81.656 L218.208,82.712 L219.28,82.712 L219.28,77.944 C219.28,76.008 218.256,74.744 216.128,74.744 C214.768,74.744 213.456,75.352 212.672,75.864 L213.184,76.76 C213.904,76.312 214.896,75.832 215.904,75.832 C217.408,75.832 217.936,76.728 217.968,77.784 C213.952,78.104 212.336,78.952 212.336,80.696 C212.336,82.088 213.52,82.904 214.976,82.904 Z M215.328,81.848 C214.432,81.848 213.616,81.48 213.616,80.6 C213.616,79.576 214.64,78.92 217.968,78.648 L217.968,80.696 C217.088,81.432 216.208,81.848 215.328,81.848 Z M225.44,82.904 C227.712,82.904 229.104,80.968 229.104,77.576 C229.104,74.152 227.712,72.312 225.44,72.312 C223.168,72.312 221.776,74.152 221.776,77.576 C221.776,80.968 223.168,82.904 225.44,82.904 Z M225.44,81.848 C224.016,81.848 223.008,80.504 223.008,77.576 C223.008,74.632 224.016,73.368 225.44,73.368 C226.864,73.368 227.872,74.632 227.872,77.576 C227.872,80.504 226.864,81.848 225.44,81.848 Z M225.44,78.536 C225.968,78.536 226.432,78.136 226.432,77.464 C226.432,76.808 225.968,76.408 225.44,76.408 C224.912,76.408 224.448,76.808 224.448,77.464 C224.448,78.136 224.912,78.536 225.44,78.536 Z M238.688,82.712 L238.688,81.624 L236.016,81.624 L236.016,72.504 L235.04,72.504 C234.4,72.84 233.616,73.096 232.528,73.256 L232.528,74.104 L234.704,74.104 L234.704,81.624 L231.808,81.624 L231.808,82.712 L238.688,82.712 Z M243.248,77.08 L243.664,73.48 L243.68,71.72 L241.92,71.72 L241.952,73.48 L242.352,77.08 L243.248,77.08 Z M246.928,77.08 L247.328,73.48 L247.36,71.72 L245.6,71.72 L245.616,73.48 L246.032,77.08 L246.928,77.08 Z M252.96,86.12 C254.72,85.464 255.776,84.152 255.776,82.28 C255.776,81.032 255.28,80.232 254.336,80.232 C253.648,80.232 253.056,80.664 253.056,81.448 C253.056,82.248 253.616,82.648 254.304,82.648 C254.4,82.648 254.512,82.632 254.608,82.616 C254.56,83.88 253.904,84.696 252.592,85.288 L252.96,86.12 Z M272.048,77.08 L272.464,73.48 L272.48,71.72 L270.72,71.72 L270.752,73.48 L271.152,77.08 L272.048,77.08 Z M275.728,77.08 L276.128,73.48 L276.16,71.72 L274.4,71.72 L274.416,73.48 L274.832,77.08 L275.728,77.08 Z M283.2,82.904 C285.424,82.904 286.656,81.848 286.656,80.584 C286.656,79.4 285.648,78.792 283.552,78.264 C282.144,77.912 281.184,77.528 281.184,76.888 C281.184,76.28 281.648,75.768 283.104,75.768 C284.064,75.768 284.896,76.104 285.584,76.584 L286.224,75.736 C285.456,75.208 284.272,74.744 283.104,74.744 C280.96,74.744 279.84,75.704 279.84,76.952 C279.84,78.056 281.2,78.76 282.8,79.16 C284.704,79.624 285.328,80.056 285.328,80.664 C285.328,81.336 284.64,81.88 283.248,81.88 C281.856,81.88 280.896,81.464 280.032,80.824 L279.392,81.688 C280.336,82.344 281.68,82.904 283.2,82.904 Z M291.776,82.904 C292.88,82.904 293.984,82.328 294.848,81.656 L294.896,81.656 L295.008,82.712 L296.08,82.712 L296.08,77.944 C296.08,76.008 295.056,74.744 292.928,74.744 C291.568,74.744 290.256,75.352 289.472,75.864 L289.984,76.76 C290.704,76.312 291.696,75.832 292.704,75.832 C294.208,75.832 294.736,76.728 294.768,77.784 C290.752,78.104 289.136,78.952 289.136,80.696 C289.136,82.088 290.32,82.904 291.776,82.904 Z M292.128,81.848 C291.232,81.848 290.416,81.48 290.416,80.6 C290.416,79.576 291.44,78.92 294.768,78.648 L294.768,80.696 C293.888,81.432 293.008,81.848 292.128,81.848 Z M303.936,82.904 C304.784,82.904 305.328,82.696 306.032,82.44 L305.696,81.448 C305.12,81.704 304.672,81.816 304.224,81.816 C303.296,81.816 302.704,81.336 302.704,80.2 L302.704,71.32 L298.736,71.32 L298.736,72.392 L301.392,72.392 L301.392,80.104 C301.392,81.944 302.288,82.904 303.936,82.904 Z M312.32,82.904 C313.568,82.904 314.544,82.488 315.312,81.992 L314.848,81.128 C314.128,81.576 313.392,81.848 312.48,81.848 C310.784,81.848 309.6,80.792 309.504,79.112 L315.584,79.112 C315.616,78.92 315.632,78.664 315.632,78.392 C315.632,76.2 314.32,74.744 312.096,74.744 C310.08,74.744 308.144,76.296 308.144,78.84 C308.144,81.384 310.016,82.904 312.32,82.904 Z M314.416,78.248 L309.488,78.248 C309.68,76.68 310.848,75.784 312.112,75.784 C313.552,75.784 314.416,76.664 314.416,78.248 Z M321.6,82.904 C323.824,82.904 325.056,81.848 325.056,80.584 C325.056,79.4 324.048,78.792 321.952,78.264 C320.544,77.912 319.584,77.528 319.584,76.888 C319.584,76.28 320.048,75.768 321.504,75.768 C322.464,75.768 323.296,76.104 323.984,76.584 L324.624,75.736 C323.856,75.208 322.672,74.744 321.504,74.744 C319.36,74.744 318.24,75.704 318.24,76.952 C318.24,78.056 319.6,78.76 321.2,79.16 C323.104,79.624 323.728,80.056 323.728,80.664 C323.728,81.336 323.04,81.88 321.648,81.88 C320.256,81.88 319.296,81.464 318.432,80.824 L317.792,81.688 C318.736,82.344 320.08,82.904 321.6,82.904 Z M329.648,77.08 L330.064,73.48 L330.08,71.72 L328.32,71.72 L328.352,73.48 L328.752,77.08 L329.648,77.08 Z M333.328,77.08 L333.728,73.48 L333.76,71.72 L332,71.72 L332.016,73.48 L332.432,77.08 L333.328,77.08 Z M338.512,85.528 C340.736,83.8 342.112,81.352 342.112,78.264 C342.112,75.176 340.736,72.728 338.512,71 L337.792,71.672 C339.936,73.48 340.928,75.576 340.928,78.264 C340.928,80.952 339.936,83.048 337.792,84.856 L338.512,85.528 Z" id="(&quot;ora01&quot;,&quot;sales&quot;)" fill="#FFFFFF"></path>
                        <path d="M356.912,82.712 L357.92,79.512 L361.728,79.512 L362.72,82.712 L364.128,82.712 L360.592,72.216 L359.088,72.216 L355.552,82.712 L356.912,82.712 Z M361.392,78.44 L358.256,78.44 L358.752,76.84 C359.12,75.672 359.456,74.52 359.792,73.304 L359.856,73.304 C360.192,74.52 360.528,75.672 360.896,76.84 L361.392,78.44 Z M369.52,82.904 C371.824,82.904 373.232,81.576 373.232,79.912 C373.232,78.36 372.208,77.64 370.912,77.112 L369.44,76.472 C368.544,76.104 367.568,75.736 367.568,74.728 C367.568,73.784 368.384,73.192 369.648,73.192 C370.688,73.192 371.488,73.576 372.176,74.184 L372.88,73.32 C372.112,72.552 370.96,72.024 369.648,72.024 C367.648,72.024 366.208,73.208 366.208,74.808 C366.208,76.344 367.424,77.096 368.48,77.512 L369.984,78.168 C371.056,78.616 371.872,78.952 371.872,80.024 C371.872,81.048 371.024,81.736 369.536,81.736 C368.384,81.736 367.296,81.208 366.512,80.424 L365.712,81.352 C366.656,82.296 367.984,82.904 369.52,82.904 Z" id="AS" fill="#5CE5FC"></path>
                        <path d="M388.8,82.904 C391.024,82.904 392.256,81.848 392.256,80.584 C392.256,79.4 391.248,78.792 389.152,78.264 C387.744,77.912 386.784,77.528 386.784,76.888 C386.784,76.28 387.248,75.768 388.704,75.768 C389.664,75.768 390.496,76.104 391.184,76.584 L391.824,75.736 C391.056,75.208 389.872,74.744 388.704,74.744 C386.56,74.744 385.44,75.704 385.44,76.952 C385.44,78.056 386.8,78.76 388.4,79.16 C390.304,79.624 390.928,80.056 390.928,80.664 C390.928,81.336 390.24,81.88 388.848,81.88 C387.456,81.88 386.496,81.464 385.632,80.824 L384.992,81.688 C385.936,82.344 387.28,82.904 388.8,82.904 Z M397.376,82.904 C398.48,82.904 399.584,82.328 400.448,81.656 L400.496,81.656 L400.608,82.712 L401.68,82.712 L401.68,77.944 C401.68,76.008 400.656,74.744 398.528,74.744 C397.168,74.744 395.856,75.352 395.072,75.864 L395.584,76.76 C396.304,76.312 397.296,75.832 398.304,75.832 C399.808,75.832 400.336,76.728 400.368,77.784 C396.352,78.104 394.736,78.952 394.736,80.696 C394.736,82.088 395.92,82.904 397.376,82.904 Z M397.728,81.848 C396.832,81.848 396.016,81.48 396.016,80.6 C396.016,79.576 397.04,78.92 400.368,78.648 L400.368,80.696 C399.488,81.432 398.608,81.848 397.728,81.848 Z M409.536,82.904 C410.384,82.904 410.928,82.696 411.632,82.44 L411.296,81.448 C410.72,81.704 410.272,81.816 409.824,81.816 C408.896,81.816 408.304,81.336 408.304,80.2 L408.304,71.32 L404.336,71.32 L404.336,72.392 L406.992,72.392 L406.992,80.104 C406.992,81.944 407.888,82.904 409.536,82.904 Z M417.92,82.904 C419.168,82.904 420.144,82.488 420.912,81.992 L420.448,81.128 C419.728,81.576 418.992,81.848 418.08,81.848 C416.384,81.848 415.2,80.792 415.104,79.112 L421.184,79.112 C421.216,78.92 421.232,78.664 421.232,78.392 C421.232,76.2 419.92,74.744 417.696,74.744 C415.68,74.744 413.744,76.296 413.744,78.84 C413.744,81.384 415.616,82.904 417.92,82.904 Z M420.016,78.248 L415.088,78.248 C415.28,76.68 416.448,75.784 417.712,75.784 C419.152,75.784 420.016,76.664 420.016,78.248 Z M427.2,82.904 C429.424,82.904 430.656,81.848 430.656,80.584 C430.656,79.4 429.648,78.792 427.552,78.264 C426.144,77.912 425.184,77.528 425.184,76.888 C425.184,76.28 425.648,75.768 427.104,75.768 C428.064,75.768 428.896,76.104 429.584,76.584 L430.224,75.736 C429.456,75.208 428.272,74.744 427.104,74.744 C424.96,74.744 423.84,75.704 423.84,76.952 C423.84,78.056 425.2,78.76 426.8,79.16 C428.704,79.624 429.328,80.056 429.328,80.664 C429.328,81.336 428.64,81.88 427.248,81.88 C425.856,81.88 424.896,81.464 424.032,80.824 L423.392,81.688 C424.336,82.344 425.68,82.904 427.2,82.904 Z" id="sales" fill="#FFFFFF"></path>
                        <path d="M435.36,86.12 C437.12,85.464 438.176,84.152 438.176,82.28 C438.176,81.032 437.68,80.232 436.736,80.232 C436.048,80.232 435.456,80.664 435.456,81.448 C435.456,82.248 436.016,82.648 436.704,82.648 C436.8,82.648 436.912,82.632 437.008,82.616 C436.96,83.88 436.304,84.696 434.992,85.288 L435.36,86.12 Z M3.056,124.712 L4.208,120.312 C4.368,119.688 4.496,119.048 4.624,118.424 L4.672,118.424 C4.784,119.048 4.912,119.688 5.056,120.312 L6.256,124.712 L7.728,124.712 L9.28,114.2 L8.016,114.2 L7.216,120.792 L6.992,123.384 L6.992,123.384 L6.928,123.384 C6.704,122.52 6.464,121.64 6.272,120.792 L5.168,116.92 L4.224,116.92 L3.12,120.792 C2.912,121.656 2.672,122.52 2.448,123.384 L2.4,123.384 C2.336,122.52 2.224,121.672 2.176,120.792 L1.328,114.2 L2.84217094e-14,114.2 L1.616,124.712 L3.056,124.712 Z M12.048,124.712 L12.048,119.768 L16.432,119.768 L16.432,124.712 L17.776,124.712 L17.776,114.216 L16.432,114.216 L16.432,118.616 L12.048,118.616 L12.048,114.216 L10.704,114.216 L10.704,124.712 L12.048,124.712 Z M27.52,124.712 L27.52,123.576 L22.224,123.576 L22.224,119.768 L26.56,119.768 L26.56,118.632 L22.224,118.632 L22.224,115.336 L27.36,115.336 L27.36,114.216 L20.88,114.216 L20.88,124.712 L27.52,124.712 Z M31.568,124.712 L31.568,120.28 L33.44,120.28 L35.968,124.712 L37.488,124.712 L34.816,120.136 C36.24,119.768 37.168,118.792 37.168,117.16 C37.168,114.984 35.632,114.216 33.504,114.216 L30.24,114.216 L30.24,124.712 L31.568,124.712 Z M33.312,119.192 L31.568,119.192 L31.568,115.288 L33.312,115.288 C34.944,115.288 35.84,115.784 35.84,117.16 C35.84,118.52 34.944,119.192 33.312,119.192 Z M46.72,124.712 L46.72,123.576 L41.424,123.576 L41.424,119.768 L45.76,119.768 L45.76,118.632 L41.424,118.632 L41.424,115.336 L46.56,115.336 L46.56,114.216 L40.08,114.216 L40.08,124.712 L46.72,124.712 Z" id=",WHERE" fill="#5CE5FC"></path>
                        <path d="M72.608,115.336 C73.2,115.336 73.664,114.936 73.664,114.328 C73.664,113.704 73.2,113.304 72.608,113.304 C72,113.304 71.552,113.704 71.552,114.328 C71.552,114.936 72,115.336 72.608,115.336 Z M73.408,124.712 L73.408,116.936 L68.48,116.936 L68.48,118.008 L72.096,118.008 L72.096,124.712 L73.408,124.712 Z M82.928,124.904 C83.776,124.904 84.672,124.696 85.36,124.44 L85.088,123.48 C84.544,123.688 83.952,123.832 83.216,123.832 C81.712,123.832 81.248,123.096 81.248,121.704 L81.248,118.008 L85.056,118.008 L85.056,116.936 L81.248,116.936 L81.248,114.76 L80.16,114.76 L79.984,116.936 L77.744,117.016 L77.744,118.008 L79.936,118.008 L79.936,121.688 C79.936,123.608 80.672,124.904 82.928,124.904 Z M91.52,124.904 C92.768,124.904 93.744,124.488 94.512,123.992 L94.048,123.128 C93.328,123.576 92.592,123.848 91.68,123.848 C89.984,123.848 88.8,122.792 88.704,121.112 L94.784,121.112 C94.816,120.92 94.832,120.664 94.832,120.392 C94.832,118.2 93.52,116.744 91.296,116.744 C89.28,116.744 87.344,118.296 87.344,120.84 C87.344,123.384 89.216,124.904 91.52,124.904 Z M93.616,120.248 L88.688,120.248 C88.88,118.68 90.048,117.784 91.312,117.784 C92.752,117.784 93.616,118.664 93.616,120.248 Z M98.064,124.712 L98.064,119.08 C98.464,118.28 98.816,117.88 99.36,117.88 C99.936,117.88 100.24,118.344 100.24,119.256 L100.24,124.712 L101.296,124.712 L101.296,119.08 C101.696,118.28 102.064,117.88 102.624,117.88 C103.2,117.88 103.472,118.344 103.472,119.256 L103.472,124.712 L104.736,124.712 L104.736,119.144 C104.736,117.592 104.112,116.744 103.04,116.744 C102.176,116.744 101.664,117.272 101.2,118.088 C101.008,117.192 100.512,116.744 99.728,116.744 C98.848,116.744 98.368,117.24 97.984,117.96 L97.936,117.96 L97.824,116.936 L96.8,116.936 L96.8,124.712 L98.064,124.712 Z M110.4,124.904 C112.624,124.904 113.856,123.848 113.856,122.584 C113.856,121.4 112.848,120.792 110.752,120.264 C109.344,119.912 108.384,119.528 108.384,118.888 C108.384,118.28 108.848,117.768 110.304,117.768 C111.264,117.768 112.096,118.104 112.784,118.584 L113.424,117.736 C112.656,117.208 111.472,116.744 110.304,116.744 C108.16,116.744 107.04,117.704 107.04,118.952 C107.04,120.056 108.4,120.76 110,121.16 C111.904,121.624 112.528,122.056 112.528,122.664 C112.528,123.336 111.84,123.88 110.448,123.88 C109.056,123.88 108.096,123.464 107.232,122.824 L106.592,123.688 C107.536,124.344 108.88,124.904 110.4,124.904 Z M119.84,124.904 C120.56,124.904 121.136,124.36 121.136,123.56 C121.136,122.744 120.56,122.2 119.84,122.2 C119.12,122.2 118.544,122.744 118.544,123.56 C118.544,124.36 119.12,124.904 119.84,124.904 Z M130.208,115.336 C130.8,115.336 131.264,114.936 131.264,114.328 C131.264,113.704 130.8,113.304 130.208,113.304 C129.6,113.304 129.152,113.704 129.152,114.328 C129.152,114.936 129.6,115.336 130.208,115.336 Z M131.008,124.712 L131.008,116.936 L126.08,116.936 L126.08,118.008 L129.696,118.008 L129.696,124.712 L131.008,124.712 Z M138.576,124.904 C139.536,124.904 140.464,124.344 141.104,123.688 L141.152,123.688 L141.264,124.712 L142.352,124.712 L142.352,113.32 L141.04,113.32 L141.04,116.312 L141.088,117.752 C140.368,117.128 139.68,116.744 138.736,116.744 C136.896,116.744 135.2,118.312 135.2,120.84 C135.2,123.432 136.544,124.904 138.576,124.904 Z M138.848,123.8 C137.408,123.8 136.56,122.68 136.56,120.824 C136.56,119.048 137.648,117.848 138.992,117.848 C139.664,117.848 140.336,118.104 141.04,118.76 L141.04,122.632 C140.352,123.4 139.616,123.8 138.848,123.8 Z" id="items.id" fill="#FFFFFF"></path>
                        <path d="M161.68,118.536 L161.68,117.544 L154.8,117.544 L154.8,118.536 L161.68,118.536 Z M161.68,121.96 L161.68,120.968 L154.8,120.968 L154.8,121.96 L161.68,121.96 Z" id="=" fill="#5CE5FC"></path>
                        <path d="M177.6,124.904 C179.824,124.904 181.056,123.848 181.056,122.584 C181.056,121.4 180.048,120.792 177.952,120.264 C176.544,119.912 175.584,119.528 175.584,118.888 C175.584,118.28 176.048,117.768 177.504,117.768 C178.464,117.768 179.296,118.104 179.984,118.584 L180.624,117.736 C179.856,117.208 178.672,116.744 177.504,116.744 C175.36,116.744 174.24,117.704 174.24,118.952 C174.24,120.056 175.6,120.76 177.2,121.16 C179.104,121.624 179.728,122.056 179.728,122.664 C179.728,123.336 179.04,123.88 177.648,123.88 C176.256,123.88 175.296,123.464 174.432,122.824 L173.792,123.688 C174.736,124.344 176.08,124.904 177.6,124.904 Z M186.176,124.904 C187.28,124.904 188.384,124.328 189.248,123.656 L189.296,123.656 L189.408,124.712 L190.48,124.712 L190.48,119.944 C190.48,118.008 189.456,116.744 187.328,116.744 C185.968,116.744 184.656,117.352 183.872,117.864 L184.384,118.76 C185.104,118.312 186.096,117.832 187.104,117.832 C188.608,117.832 189.136,118.728 189.168,119.784 C185.152,120.104 183.536,120.952 183.536,122.696 C183.536,124.088 184.72,124.904 186.176,124.904 Z M186.528,123.848 C185.632,123.848 184.816,123.48 184.816,122.6 C184.816,121.576 185.84,120.92 189.168,120.648 L189.168,122.696 C188.288,123.432 187.408,123.848 186.528,123.848 Z M198.336,124.904 C199.184,124.904 199.728,124.696 200.432,124.44 L200.096,123.448 C199.52,123.704 199.072,123.816 198.624,123.816 C197.696,123.816 197.104,123.336 197.104,122.2 L197.104,113.32 L193.136,113.32 L193.136,114.392 L195.792,114.392 L195.792,122.104 C195.792,123.944 196.688,124.904 198.336,124.904 Z M206.72,124.904 C207.968,124.904 208.944,124.488 209.712,123.992 L209.248,123.128 C208.528,123.576 207.792,123.848 206.88,123.848 C205.184,123.848 204,122.792 203.904,121.112 L209.984,121.112 C210.016,120.92 210.032,120.664 210.032,120.392 C210.032,118.2 208.72,116.744 206.496,116.744 C204.48,116.744 202.544,118.296 202.544,120.84 C202.544,123.384 204.416,124.904 206.72,124.904 Z M208.816,120.248 L203.888,120.248 C204.08,118.68 205.248,117.784 206.512,117.784 C207.952,117.784 208.816,118.664 208.816,120.248 Z M216,124.904 C218.224,124.904 219.456,123.848 219.456,122.584 C219.456,121.4 218.448,120.792 216.352,120.264 C214.944,119.912 213.984,119.528 213.984,118.888 C213.984,118.28 214.448,117.768 215.904,117.768 C216.864,117.768 217.696,118.104 218.384,118.584 L219.024,117.736 C218.256,117.208 217.072,116.744 215.904,116.744 C213.76,116.744 212.64,117.704 212.64,118.952 C212.64,120.056 214,120.76 215.6,121.16 C217.504,121.624 218.128,122.056 218.128,122.664 C218.128,123.336 217.44,123.88 216.048,123.88 C214.656,123.88 213.696,123.464 212.832,122.824 L212.192,123.688 C213.136,124.344 214.48,124.904 216,124.904 Z M225.44,124.904 C226.16,124.904 226.736,124.36 226.736,123.56 C226.736,122.744 226.16,122.2 225.44,122.2 C224.72,122.2 224.144,122.744 224.144,123.56 C224.144,124.36 224.72,124.904 225.44,124.904 Z M235.808,115.336 C236.4,115.336 236.864,114.936 236.864,114.328 C236.864,113.704 236.4,113.304 235.808,113.304 C235.2,113.304 234.752,113.704 234.752,114.328 C234.752,114.936 235.2,115.336 235.808,115.336 Z M236.608,124.712 L236.608,116.936 L231.68,116.936 L231.68,118.008 L235.296,118.008 L235.296,124.712 L236.608,124.712 Z M246.128,124.904 C246.976,124.904 247.872,124.696 248.56,124.44 L248.288,123.48 C247.744,123.688 247.152,123.832 246.416,123.832 C244.912,123.832 244.448,123.096 244.448,121.704 L244.448,118.008 L248.256,118.008 L248.256,116.936 L244.448,116.936 L244.448,114.76 L243.36,114.76 L243.184,116.936 L240.944,117.016 L240.944,118.008 L243.136,118.008 L243.136,121.688 C243.136,123.608 243.872,124.904 246.128,124.904 Z M254.72,124.904 C255.968,124.904 256.944,124.488 257.712,123.992 L257.248,123.128 C256.528,123.576 255.792,123.848 254.88,123.848 C253.184,123.848 252,122.792 251.904,121.112 L257.984,121.112 C258.016,120.92 258.032,120.664 258.032,120.392 C258.032,118.2 256.72,116.744 254.496,116.744 C252.48,116.744 250.544,118.296 250.544,120.84 C250.544,123.384 252.416,124.904 254.72,124.904 Z M256.816,120.248 L251.888,120.248 C252.08,118.68 253.248,117.784 254.512,117.784 C255.952,117.784 256.816,118.664 256.816,120.248 Z M261.264,124.712 L261.264,119.08 C261.664,118.28 262.016,117.88 262.56,117.88 C263.136,117.88 263.44,118.344 263.44,119.256 L263.44,124.712 L264.496,124.712 L264.496,119.08 C264.896,118.28 265.264,117.88 265.824,117.88 C266.4,117.88 266.672,118.344 266.672,119.256 L266.672,124.712 L267.936,124.712 L267.936,119.144 C267.936,117.592 267.312,116.744 266.24,116.744 C265.376,116.744 264.864,117.272 264.4,118.088 C264.208,117.192 263.712,116.744 262.928,116.744 C262.048,116.744 261.568,117.24 261.184,117.96 L261.136,117.96 L261.024,116.936 L260,116.936 L260,124.712 L261.264,124.712 Z M277.28,126.952 L277.28,125.816 L269.6,125.816 L269.6,126.952 L277.28,126.952 Z M283.808,115.336 C284.4,115.336 284.864,114.936 284.864,114.328 C284.864,113.704 284.4,113.304 283.808,113.304 C283.2,113.304 282.752,113.704 282.752,114.328 C282.752,114.936 283.2,115.336 283.808,115.336 Z M284.608,124.712 L284.608,116.936 L279.68,116.936 L279.68,118.008 L283.296,118.008 L283.296,124.712 L284.608,124.712 Z M292.176,124.904 C293.136,124.904 294.064,124.344 294.704,123.688 L294.752,123.688 L294.864,124.712 L295.952,124.712 L295.952,113.32 L294.64,113.32 L294.64,116.312 L294.688,117.752 C293.968,117.128 293.28,116.744 292.336,116.744 C290.496,116.744 288.8,118.312 288.8,120.84 C288.8,123.432 290.144,124.904 292.176,124.904 Z M292.448,123.8 C291.008,123.8 290.16,122.68 290.16,120.824 C290.16,119.048 291.248,117.848 292.592,117.848 C293.264,117.848 293.936,118.104 294.64,118.76 L294.64,122.632 C293.952,123.4 293.216,123.8 292.448,123.8 Z" id="sales.item_id" fill="#FFFFFF"></path>
                        <path d="M1.712,166.712 L2.72,163.512 L6.528,163.512 L7.52,166.712 L8.928,166.712 L5.392,156.216 L3.888,156.216 L0.352,166.712 L1.712,166.712 Z M6.192,162.44 L3.056,162.44 L3.552,160.84 C3.92,159.672 4.256,158.52 4.592,157.304 L4.656,157.304 C4.992,158.52 5.328,159.672 5.696,160.84 L6.192,162.44 Z M12.032,166.712 L12.032,161.224 C12.032,160.136 11.904,159.016 11.856,157.944 L11.888,157.944 L12.944,160.088 L16.352,166.712 L17.712,166.712 L17.712,156.216 L16.448,156.216 L16.448,161.656 C16.448,162.76 16.576,163.944 16.624,164.984 L16.592,164.984 L15.536,162.84 L12.128,156.216 L10.768,156.216 L10.768,166.712 L12.032,166.712 Z M23.024,166.712 C26.128,166.712 27.824,164.76 27.824,161.416 C27.824,158.088 26.128,156.216 22.96,156.216 L20.4,156.216 L20.4,166.712 L23.024,166.712 Z M22.88,165.624 L21.728,165.624 L21.728,157.304 L22.88,157.304 C25.264,157.304 26.448,158.776 26.448,161.416 C26.448,164.072 25.264,165.624 22.88,165.624 Z" id="AND" fill="#5CE5FC"></path>
                        <path d="M72,166.904 C74.224,166.904 75.456,165.848 75.456,164.584 C75.456,163.4 74.448,162.792 72.352,162.264 C70.944,161.912 69.984,161.528 69.984,160.888 C69.984,160.28 70.448,159.768 71.904,159.768 C72.864,159.768 73.696,160.104 74.384,160.584 L75.024,159.736 C74.256,159.208 73.072,158.744 71.904,158.744 C69.76,158.744 68.64,159.704 68.64,160.952 C68.64,162.056 70,162.76 71.6,163.16 C73.504,163.624 74.128,164.056 74.128,164.664 C74.128,165.336 73.44,165.88 72.048,165.88 C70.656,165.88 69.696,165.464 68.832,164.824 L68.192,165.688 C69.136,166.344 70.48,166.904 72,166.904 Z M80.576,166.904 C81.68,166.904 82.784,166.328 83.648,165.656 L83.696,165.656 L83.808,166.712 L84.88,166.712 L84.88,161.944 C84.88,160.008 83.856,158.744 81.728,158.744 C80.368,158.744 79.056,159.352 78.272,159.864 L78.784,160.76 C79.504,160.312 80.496,159.832 81.504,159.832 C83.008,159.832 83.536,160.728 83.568,161.784 C79.552,162.104 77.936,162.952 77.936,164.696 C77.936,166.088 79.12,166.904 80.576,166.904 Z M80.928,165.848 C80.032,165.848 79.216,165.48 79.216,164.6 C79.216,163.576 80.24,162.92 83.568,162.648 L83.568,164.696 C82.688,165.432 81.808,165.848 80.928,165.848 Z M92.736,166.904 C93.584,166.904 94.128,166.696 94.832,166.44 L94.496,165.448 C93.92,165.704 93.472,165.816 93.024,165.816 C92.096,165.816 91.504,165.336 91.504,164.2 L91.504,155.32 L87.536,155.32 L87.536,156.392 L90.192,156.392 L90.192,164.104 C90.192,165.944 91.088,166.904 92.736,166.904 Z M101.12,166.904 C102.368,166.904 103.344,166.488 104.112,165.992 L103.648,165.128 C102.928,165.576 102.192,165.848 101.28,165.848 C99.584,165.848 98.4,164.792 98.304,163.112 L104.384,163.112 C104.416,162.92 104.432,162.664 104.432,162.392 C104.432,160.2 103.12,158.744 100.896,158.744 C98.88,158.744 96.944,160.296 96.944,162.84 C96.944,165.384 98.816,166.904 101.12,166.904 Z M103.216,162.248 L98.288,162.248 C98.48,160.68 99.648,159.784 100.912,159.784 C102.352,159.784 103.216,160.664 103.216,162.248 Z M110.4,166.904 C112.624,166.904 113.856,165.848 113.856,164.584 C113.856,163.4 112.848,162.792 110.752,162.264 C109.344,161.912 108.384,161.528 108.384,160.888 C108.384,160.28 108.848,159.768 110.304,159.768 C111.264,159.768 112.096,160.104 112.784,160.584 L113.424,159.736 C112.656,159.208 111.472,158.744 110.304,158.744 C108.16,158.744 107.04,159.704 107.04,160.952 C107.04,162.056 108.4,162.76 110,163.16 C111.904,163.624 112.528,164.056 112.528,164.664 C112.528,165.336 111.84,165.88 110.448,165.88 C109.056,165.88 108.096,165.464 107.232,164.824 L106.592,165.688 C107.536,166.344 108.88,166.904 110.4,166.904 Z M119.84,166.904 C120.56,166.904 121.136,166.36 121.136,165.56 C121.136,164.744 120.56,164.2 119.84,164.2 C119.12,164.2 118.544,164.744 118.544,165.56 C118.544,166.36 119.12,166.904 119.84,166.904 Z M128.976,166.904 C129.936,166.904 130.864,166.344 131.504,165.688 L131.552,165.688 L131.664,166.712 L132.752,166.712 L132.752,155.32 L131.44,155.32 L131.44,158.312 L131.488,159.752 C130.768,159.128 130.08,158.744 129.136,158.744 C127.296,158.744 125.6,160.312 125.6,162.84 C125.6,165.432 126.944,166.904 128.976,166.904 Z M129.248,165.8 C127.808,165.8 126.96,164.68 126.96,162.824 C126.96,161.048 128.048,159.848 129.392,159.848 C130.064,159.848 130.736,160.104 131.44,160.76 L131.44,164.632 C130.752,165.4 130.016,165.8 129.248,165.8 Z M138.176,166.904 C139.28,166.904 140.384,166.328 141.248,165.656 L141.296,165.656 L141.408,166.712 L142.48,166.712 L142.48,161.944 C142.48,160.008 141.456,158.744 139.328,158.744 C137.968,158.744 136.656,159.352 135.872,159.864 L136.384,160.76 C137.104,160.312 138.096,159.832 139.104,159.832 C140.608,159.832 141.136,160.728 141.168,161.784 C137.152,162.104 135.536,162.952 135.536,164.696 C135.536,166.088 136.72,166.904 138.176,166.904 Z M138.528,165.848 C137.632,165.848 136.816,165.48 136.816,164.6 C136.816,163.576 137.84,162.92 141.168,162.648 L141.168,164.696 C140.288,165.432 139.408,165.848 138.528,165.848 Z M150.128,166.904 C150.976,166.904 151.872,166.696 152.56,166.44 L152.288,165.48 C151.744,165.688 151.152,165.832 150.416,165.832 C148.912,165.832 148.448,165.096 148.448,163.704 L148.448,160.008 L152.256,160.008 L152.256,158.936 L148.448,158.936 L148.448,156.76 L147.36,156.76 L147.184,158.936 L144.944,159.016 L144.944,160.008 L147.136,160.008 L147.136,163.688 C147.136,165.608 147.872,166.904 150.128,166.904 Z M158.72,166.904 C159.968,166.904 160.944,166.488 161.712,165.992 L161.248,165.128 C160.528,165.576 159.792,165.848 158.88,165.848 C157.184,165.848 156,164.792 155.904,163.112 L161.984,163.112 C162.016,162.92 162.032,162.664 162.032,162.392 C162.032,160.2 160.72,158.744 158.496,158.744 C156.48,158.744 154.544,160.296 154.544,162.84 C154.544,165.384 156.416,166.904 158.72,166.904 Z M160.816,162.248 L155.888,162.248 C156.08,160.68 157.248,159.784 158.512,159.784 C159.952,159.784 160.816,160.664 160.816,162.248 Z" id="sales.date" fill="#FFFFFF"></path>
                        <path d="M174.352,166.264 L180.32,162.216 L180.32,161.224 L174.352,157.176 L174.352,158.44 L179.168,161.688 L179.168,161.752 L174.352,165 L174.352,166.264 Z M194.432,166.712 L194.432,161.224 C194.432,160.136 194.304,159.016 194.256,157.944 L194.288,157.944 L195.344,160.088 L198.752,166.712 L200.112,166.712 L200.112,156.216 L198.848,156.216 L198.848,161.656 C198.848,162.76 198.976,163.944 199.024,164.984 L198.992,164.984 L197.936,162.84 L194.528,156.216 L193.168,156.216 L193.168,166.712 L194.432,166.712 Z M206.24,166.904 C208.608,166.904 210.272,164.792 210.272,161.416 C210.272,158.072 208.608,156.024 206.24,156.024 C203.872,156.024 202.208,158.056 202.208,161.416 C202.208,164.792 203.872,166.904 206.24,166.904 Z M206.24,165.736 C204.64,165.736 203.584,164.04 203.584,161.416 C203.584,158.808 204.64,157.192 206.24,157.192 C207.84,157.192 208.896,158.808 208.896,161.416 C208.896,164.04 207.84,165.736 206.24,165.736 Z M214.256,166.712 L215.408,162.312 C215.568,161.688 215.696,161.048 215.824,160.424 L215.872,160.424 C215.984,161.048 216.112,161.688 216.256,162.312 L217.456,166.712 L218.928,166.712 L220.48,156.2 L219.216,156.2 L218.416,162.792 L218.192,165.384 L218.192,165.384 L218.128,165.384 C217.904,164.52 217.664,163.64 217.472,162.792 L216.368,158.92 L215.424,158.92 L214.32,162.792 L214.103111,163.656 L214.103111,163.656 L213.648,165.384 L213.648,165.384 L213.6,165.384 C213.536,164.52 213.424,163.672 213.376,162.792 L212.528,156.2 L211.2,156.2 L212.816,166.712 L214.256,166.712 Z M227.568,169.528 L228.288,168.856 C226.144,167.048 225.152,164.952 225.152,162.264 C225.152,159.576 226.144,157.48 228.288,155.672 L227.568,155 C225.344,156.728 223.968,159.176 223.968,162.264 C223.968,165.352 225.344,167.8 227.568,169.528 Z M232.912,169.528 C235.136,167.8 236.512,165.352 236.512,162.264 C236.512,159.176 235.136,156.728 232.912,155 L232.192,155.672 C234.336,157.48 235.328,159.576 235.328,162.264 C235.328,164.952 234.336,167.048 232.192,168.856 L232.912,169.528 Z M256.896,162.6 L256.896,161.448 L251.584,161.448 L251.584,162.6 L256.896,162.6 Z M276.72,166.712 L276.72,165.576 L274.112,165.576 L274.112,157.336 L276.72,157.336 L276.72,156.216 L270.16,156.216 L270.16,157.336 L272.768,157.336 L272.768,165.576 L270.16,165.576 L270.16,166.712 L276.72,166.712 Z M280.832,166.712 L280.832,161.224 C280.832,160.136 280.704,159.016 280.656,157.944 L280.688,157.944 L281.744,160.088 L285.152,166.712 L286.512,166.712 L286.512,156.216 L285.248,156.216 L285.248,161.656 C285.248,162.76 285.376,163.944 285.424,164.984 L285.392,164.984 L284.336,162.84 L280.928,156.216 L279.568,156.216 L279.568,166.712 L280.832,166.712 Z M293.312,166.712 L293.312,157.336 L296.768,157.336 L296.768,156.216 L288.512,156.216 L288.512,157.336 L291.968,157.336 L291.968,166.712 L293.312,166.712 Z M305.92,166.712 L305.92,165.576 L300.624,165.576 L300.624,161.768 L304.96,161.768 L304.96,160.632 L300.624,160.632 L300.624,157.336 L305.76,157.336 L305.76,156.216 L299.28,156.216 L299.28,166.712 L305.92,166.712 Z M309.968,166.712 L309.968,162.28 L311.84,162.28 L314.368,166.712 L315.888,166.712 L313.216,162.136 C314.64,161.768 315.568,160.792 315.568,159.16 C315.568,156.984 314.032,156.216 311.904,156.216 L308.64,156.216 L308.64,166.712 L309.968,166.712 Z M311.712,161.192 L309.968,161.192 L309.968,157.288 L311.712,157.288 C313.344,157.288 314.24,157.784 314.24,159.16 C314.24,160.52 313.344,161.192 311.712,161.192 Z M322.224,166.712 L325.552,156.216 L324.192,156.216 L322.512,161.88 C322.16,163.128 321.888,164.12 321.504,165.352 L321.44,165.352 C321.312,164.941333 321.198222,164.557333 321.089778,164.18163 L320.771556,163.061037 C320.664889,162.683556 320.554667,162.296 320.432,161.88 L318.736,156.216 L317.328,156.216 L320.672,166.712 L322.224,166.712 Z M328.112,166.712 L329.12,163.512 L332.928,163.512 L333.92,166.712 L335.328,166.712 L331.792,156.216 L330.288,156.216 L326.752,166.712 L328.112,166.712 Z M332.592,162.44 L329.456,162.44 L329.952,160.84 C330.32,159.672 330.656,158.52 330.992,157.304 L331.056,157.304 C331.392,158.52 331.728,159.672 332.096,160.84 L332.592,162.44 Z M344.496,166.712 L344.496,165.576 L339.296,165.576 L339.296,156.216 L337.984,156.216 L337.984,166.712 L344.496,166.712 Z" id="&gt;NOW()-INTERVAL" fill="#5CE5FC"></path>
                        <path d="M358.448,161.08 L358.864,157.48 L358.88,155.72 L357.12,155.72 L357.152,157.48 L357.552,161.08 L358.448,161.08 Z M362.128,161.08 L362.528,157.48 L362.56,155.72 L360.8,155.72 L360.816,157.48 L361.232,161.08 L362.128,161.08 Z M373.088,166.712 L373.088,165.624 L370.416,165.624 L370.416,156.504 L369.44,156.504 C368.8,156.84 368.016,157.096 366.928,157.256 L366.928,158.104 L369.104,158.104 L369.104,165.624 L366.208,165.624 L366.208,166.712 L373.088,166.712 Z M387.056,166.712 L388.208,162.312 C388.368,161.688 388.496,161.048 388.624,160.424 L388.672,160.424 C388.784,161.048 388.912,161.688 389.056,162.312 L390.256,166.712 L391.728,166.712 L393.28,156.2 L392.016,156.2 L391.216,162.792 L390.992,165.384 L390.992,165.384 L390.928,165.384 C390.704,164.52 390.464,163.64 390.272,162.792 L389.168,158.92 L388.224,158.92 L387.12,162.792 C386.912,163.656 386.672,164.52 386.448,165.384 L386.4,165.384 C386.336,164.52 386.224,163.672 386.176,162.792 L385.328,156.2 L384,156.2 L385.616,166.712 L387.056,166.712 Z M401.92,166.712 L401.92,165.576 L396.624,165.576 L396.624,161.768 L400.96,161.768 L400.96,160.632 L396.624,160.632 L396.624,157.336 L401.76,157.336 L401.76,156.216 L395.28,156.216 L395.28,166.712 L401.92,166.712 Z M411.52,166.712 L411.52,165.576 L406.224,165.576 L406.224,161.768 L410.56,161.768 L410.56,160.632 L406.224,160.632 L406.224,157.336 L411.36,157.336 L411.36,156.216 L404.88,156.216 L404.88,166.712 L411.52,166.712 Z M415.552,166.712 L415.552,163.384 L417.376,161.256 L420.416,166.712 L421.904,166.712 L418.208,160.216 L421.52,156.216 L420.016,156.216 L415.6,161.48 L415.552,161.48 L415.552,156.216 L414.208,156.216 L414.208,166.712 L415.552,166.712 Z M425.648,161.08 L426.064,157.48 L426.08,155.72 L424.32,155.72 L424.352,157.48 L424.752,161.08 L425.648,161.08 Z M429.328,161.08 L429.728,157.48 L429.76,155.72 L428,155.72 L428.016,157.48 L428.432,161.08 L429.328,161.08 Z" id="&quot;1WEEK&quot;" fill="#FFFFFF"></path>
                        <path d="M5.232,208.904 C6.592,208.904 7.696,208.36 8.368,207.688 L8.368,203.272 L5.04,203.272 L5.04,204.376 L7.136,204.376 L7.136,207.112 C6.736,207.496 6.048,207.736 5.312,207.736 C3.248,207.736 2.08,206.072 2.08,203.432 C2.08,200.824 3.376,199.192 5.344,199.192 C6.352,199.192 6.976,199.608 7.488,200.152 L8.24,199.304 C7.648,198.68 6.736,198.024 5.344,198.024 C2.624,198.024 0.688,200.072 0.688,203.464 C0.688,206.888 2.592,208.904 5.232,208.904 Z M12.368,208.712 L12.368,204.28 L14.24,204.28 L16.768,208.712 L18.288,208.712 L15.616,204.136 C17.04,203.768 17.968,202.792 17.968,201.16 C17.968,198.984 16.432,198.216 14.304,198.216 L11.04,198.216 L11.04,208.712 L12.368,208.712 Z M14.112,203.192 L12.368,203.192 L12.368,199.288 L14.112,199.288 C15.744,199.288 16.64,199.784 16.64,201.16 C16.64,202.52 15.744,203.192 14.112,203.192 Z M23.84,208.904 C26.208,208.904 27.872,206.792 27.872,203.416 C27.872,200.072 26.208,198.024 23.84,198.024 C21.472,198.024 19.808,200.056 19.808,203.416 C19.808,206.792 21.472,208.904 23.84,208.904 Z M23.84,207.736 C22.24,207.736 21.184,206.04 21.184,203.416 C21.184,200.808 22.24,199.192 23.84,199.192 C25.44,199.192 26.496,200.808 26.496,203.416 C26.496,206.04 25.44,207.736 23.84,207.736 Z M33.456,208.904 C35.504,208.904 36.976,207.752 36.976,204.744 L36.976,198.216 L35.68,198.216 L35.68,204.776 C35.68,206.952 34.72,207.736 33.456,207.736 C32.192,207.736 31.248,206.952 31.248,204.776 L31.248,198.216 L29.904,198.216 L29.904,204.744 C29.904,207.752 31.392,208.904 33.456,208.904 Z M41.2,208.712 L41.2,204.552 L43.088,204.552 C45.392,204.552 46.96,203.512 46.96,201.304 C46.96,199 45.408,198.216 43.088,198.216 L39.872,198.216 L39.872,208.712 L41.2,208.712 Z M42.912,203.464 L41.2,203.464 L41.2,199.288 L42.912,199.288 C44.736,199.288 45.632,199.784 45.632,201.304 C45.632,202.792 44.752,203.464 42.912,203.464 Z M71.808,208.712 C74.144,208.712 75.76,207.704 75.76,205.64 C75.76,204.2 74.864,203.368 73.328,203.128 L73.328,203.064 C74.56,202.744 75.168,201.816 75.168,200.776 C75.168,198.936 73.712,198.216 71.568,198.216 L68.688,198.216 L68.688,208.712 L71.808,208.712 Z M71.344,202.696 L70.032,202.696 L70.032,199.272 L71.408,199.272 C73.024,199.272 73.856,199.752 73.856,200.888 C73.856,202.056 73.136,202.696 71.344,202.696 Z M71.616,207.656 L70.032,207.656 L70.032,203.688 L71.616,203.688 C73.456,203.688 74.448,204.28 74.448,205.576 C74.448,207 73.408,207.656 71.616,207.656 Z M82.112,208.712 L82.112,204.968 L85.632,198.216 L84.256,198.216 L82.736,201.32 C82.336,202.136 81.92,202.936 81.504,203.784 L81.44,203.784 C81.008,202.936 80.64,202.136 80.24,201.336 L78.656,198.216 L77.248,198.216 L80.768,204.968 L80.768,208.712 L82.112,208.712 Z" id="GROUPBY" fill="#5CE5FC"></path>
                        <path d="M101.408,199.336 C102,199.336 102.464,198.936 102.464,198.328 C102.464,197.704 102,197.304 101.408,197.304 C100.8,197.304 100.352,197.704 100.352,198.328 C100.352,198.936 100.8,199.336 101.408,199.336 Z M102.208,208.712 L102.208,200.936 L97.28,200.936 L97.28,202.008 L100.896,202.008 L100.896,208.712 L102.208,208.712 Z M111.728,208.904 C112.576,208.904 113.472,208.696 114.16,208.44 L113.888,207.48 C113.344,207.688 112.752,207.832 112.016,207.832 C110.512,207.832 110.048,207.096 110.048,205.704 L110.048,202.008 L113.856,202.008 L113.856,200.936 L110.048,200.936 L110.048,198.76 L108.96,198.76 L108.784,200.936 L106.544,201.016 L106.544,202.008 L108.736,202.008 L108.736,205.688 C108.736,207.608 109.472,208.904 111.728,208.904 Z M120.32,208.904 C121.568,208.904 122.544,208.488 123.312,207.992 L122.848,207.128 C122.128,207.576 121.392,207.848 120.48,207.848 C118.784,207.848 117.6,206.792 117.504,205.112 L123.584,205.112 C123.616,204.92 123.632,204.664 123.632,204.392 C123.632,202.2 122.32,200.744 120.096,200.744 C118.08,200.744 116.144,202.296 116.144,204.84 C116.144,207.384 118.016,208.904 120.32,208.904 Z M122.416,204.248 L117.488,204.248 C117.68,202.68 118.848,201.784 120.112,201.784 C121.552,201.784 122.416,202.664 122.416,204.248 Z M126.864,208.712 L126.864,203.08 C127.264,202.28 127.616,201.88 128.16,201.88 C128.736,201.88 129.04,202.344 129.04,203.256 L129.04,208.712 L130.096,208.712 L130.096,203.08 C130.496,202.28 130.864,201.88 131.424,201.88 C132,201.88 132.272,202.344 132.272,203.256 L132.272,208.712 L133.536,208.712 L133.536,203.144 C133.536,201.592 132.912,200.744 131.84,200.744 C130.976,200.744 130.464,201.272 130,202.088 C129.808,201.192 129.312,200.744 128.528,200.744 C127.648,200.744 127.168,201.24 126.784,201.96 L126.736,201.96 L126.624,200.936 L125.6,200.936 L125.6,208.712 L126.864,208.712 Z M139.2,208.904 C141.424,208.904 142.656,207.848 142.656,206.584 C142.656,205.4 141.648,204.792 139.552,204.264 C138.144,203.912 137.184,203.528 137.184,202.888 C137.184,202.28 137.648,201.768 139.104,201.768 C140.064,201.768 140.896,202.104 141.584,202.584 L142.224,201.736 C141.456,201.208 140.272,200.744 139.104,200.744 C136.96,200.744 135.84,201.704 135.84,202.952 C135.84,204.056 137.2,204.76 138.8,205.16 C140.704,205.624 141.328,206.056 141.328,206.664 C141.328,207.336 140.64,207.88 139.248,207.88 C137.856,207.88 136.896,207.464 136.032,206.824 L135.392,207.688 C136.336,208.344 137.68,208.904 139.2,208.904 Z M148.64,208.904 C149.36,208.904 149.936,208.36 149.936,207.56 C149.936,206.744 149.36,206.2 148.64,206.2 C147.92,206.2 147.344,206.744 147.344,207.56 C147.344,208.36 147.92,208.904 148.64,208.904 Z M156.24,208.712 L156.24,203.288 C157.152,202.344 157.776,201.88 158.704,201.88 C159.984,201.88 160.496,202.584 160.496,204.056 L160.496,208.712 L161.808,208.712 L161.808,203.88 C161.808,201.832 160.96,200.744 159.12,200.744 C157.904,200.744 157.008,201.4 156.192,202.264 L156.128,202.264 L156.016,200.936 L154.928,200.936 L154.928,208.712 L156.24,208.712 Z M166.976,208.904 C168.08,208.904 169.184,208.328 170.048,207.656 L170.096,207.656 L170.208,208.712 L171.28,208.712 L171.28,203.944 C171.28,202.008 170.256,200.744 168.128,200.744 C166.768,200.744 165.456,201.352 164.672,201.864 L165.184,202.76 C165.904,202.312 166.896,201.832 167.904,201.832 C169.408,201.832 169.936,202.728 169.968,203.784 C165.952,204.104 164.336,204.952 164.336,206.696 C164.336,208.088 165.52,208.904 166.976,208.904 Z M167.328,207.848 C166.432,207.848 165.616,207.48 165.616,206.6 C165.616,205.576 166.64,204.92 169.968,204.648 L169.968,206.696 C169.088,207.432 168.208,207.848 167.328,207.848 Z M174.864,208.712 L174.864,203.08 C175.264,202.28 175.616,201.88 176.16,201.88 C176.736,201.88 177.04,202.344 177.04,203.256 L177.04,208.712 L178.096,208.712 L178.096,203.08 C178.496,202.28 178.864,201.88 179.424,201.88 C180,201.88 180.272,202.344 180.272,203.256 L180.272,208.712 L181.536,208.712 L181.536,203.144 C181.536,201.592 180.912,200.744 179.84,200.744 C178.976,200.744 178.464,201.272 178,202.088 C177.808,201.192 177.312,200.744 176.528,200.744 C175.648,200.744 175.168,201.24 174.784,201.96 L174.736,201.96 L174.624,200.936 L173.6,200.936 L173.6,208.712 L174.864,208.712 Z M187.52,208.904 C188.768,208.904 189.744,208.488 190.512,207.992 L190.048,207.128 C189.328,207.576 188.592,207.848 187.68,207.848 C185.984,207.848 184.8,206.792 184.704,205.112 L190.784,205.112 C190.816,204.92 190.832,204.664 190.832,204.392 C190.832,202.2 189.52,200.744 187.296,200.744 C185.28,200.744 183.344,202.296 183.344,204.84 C183.344,207.384 185.216,208.904 187.52,208.904 Z M189.616,204.248 L184.688,204.248 C184.88,202.68 186.048,201.784 187.312,201.784 C188.752,201.784 189.616,202.664 189.616,204.248 Z" id="items.name" fill="#FFFFFF"></path>
                    </g>
                    <text id="1-2-3-4-5-6-7-8-9-10" font-family="SourceCodePro-Regular, Source Code Pro" font-size="18" font-weight="normal" line-spacing="22" fill="#5B595C">
                        <tspan x="10.8" y="18">1</tspan>
                        <tspan x="10.8" y="40">2</tspan>
                        <tspan x="10.8" y="62">3</tspan>
                        <tspan x="10.8" y="84">4</tspan>
                        <tspan x="10.8" y="106">5</tspan>
                        <tspan x="10.8" y="128">6</tspan>
                        <tspan x="10.8" y="150">7</tspan>
                        <tspan x="10.8" y="172">8</tspan>
                        <tspan x="10.8" y="194">9</tspan>
                        <tspan x="0" y="216">10</tspan>
                    </text>
                </g>
            </g>
        </g>
    </g>
</svg>