<?xml version="1.0" encoding="UTF-8"?>
<svg width="30px" height="30px" viewBox="0 0 30 30" version="1.1" xmlns="http://www.w3.org/2000/svg" xmlns:xlink="http://www.w3.org/1999/xlink">
    <title>api</title>
    <g id="Page-1" stroke="none" stroke-width="1" fill="none" fill-rule="evenodd">
        <g id="Features-+-Footer" transform="translate(-590.000000, -824.000000)" fill="#D81505" fill-rule="nonzero">
            <g id="Check-icon-badge-Copy-7" transform="translate(575.000000, 809.139336)">
                <g id="api" transform="translate(15.500000, 15.500000)">
                    <path d="M16.765627,26.28125 C16.7644413,25.381469 16.2309139,24.5676619 15.40625,24.20775 L15.40625,19.03125 L13.59375,19.03125 L13.59375,24.20775 C12.5563164,24.6605243 12.0122371,25.8095124 12.3193742,26.8989801 C12.6265113,27.9884478 13.6906125,28.6840659 14.811777,28.5282994 C15.9329415,28.3725329 16.7671132,27.4131824 16.765627,26.28125 L16.765627,26.28125 Z" id="Path"></path>
                    <path d="M7.25,21.3748125 L5.35503125,23.2697812 C4.42893825,22.9083164 3.37538939,23.1927979 2.75710682,23.9712783 C2.13882426,24.7497587 2.10025993,25.8403584 2.66201184,26.6605657 C3.22376375,27.4807729 4.25458745,27.8389592 5.20389876,27.5438098 C6.15321008,27.2486605 6.79921744,26.3691326 6.796875,25.375 C6.79595242,25.0927361 6.74152252,24.8132063 6.63646875,24.5512188 L8.79696875,22.3907188 C8.96693537,22.2208035 9.0625,21.9903328 9.0625,21.75 L9.0625,16.3125 L7.25,16.3125 L7.25,21.3748125 Z" id="Path"></path>
                    <path d="M25.3269687,23.2697813 C24.7867025,23.0558859 24.185235,23.0558859 23.6449687,23.2697813 L21.75,21.3748125 L21.75,16.3125 L19.9375,16.3125 L19.9375,21.75 C19.9375,21.9903328 20.0330646,22.2208035 20.2030312,22.3907188 L22.3635313,24.5512188 C21.8991748,25.7233305 22.4728928,27.0499534 23.6449853,27.5143583 C24.8170778,27.9787631 26.1437245,27.4051 26.6081778,26.2330267 C27.0726311,25.0609534 26.4990229,23.734283 25.3269688,23.2697813 L25.3269687,23.2697813 Z" id="Path"></path>
                    <path d="M0,12.5669688 L0,14.5 L9.96875,14.5 C9.96875,11.9974597 11.9974597,9.96875 14.5,9.96875 C17.0025403,9.96875 19.03125,11.9974597 19.03125,14.5 L29,14.5 L29,12.5669688 L24.8375937,12.0467813 C24.5767621,10.9441855 24.1397739,9.89088492 23.5434688,8.92746875 L26.1199375,5.61875 L23.3857813,2.8800625 L20.0725313,5.45653125 C19.1091151,4.86022607 18.0558145,4.42323792 16.9532188,4.16240625 L16.4330312,0 L12.5669688,0 L12.0467813,4.16240625 C10.9441855,4.42323792 9.89088492,4.86022607 8.92746875,5.45653125 L5.61875,2.8800625 L2.8800625,5.61875 L5.45653125,8.92746875 C4.86022607,9.89088492 4.42323792,10.9441855 4.16240625,12.0467813 L0,12.5669688 Z" id="Path"></path>
                </g>
            </g>
        </g>
    </g>
</svg>