<?xml version="1.0" encoding="UTF-8"?>
<svg width="1411px" height="560px" viewBox="0 0 1411 560" version="1.1" xmlns="http://www.w3.org/2000/svg" xmlns:xlink="http://www.w3.org/1999/xlink">
    <title>Group 4</title>
    <g id="Page-1" stroke="none" stroke-width="1" fill="none" fill-rule="evenodd">
        <g id="Jobs" transform="translate(-101.000000, -160.000000)">
            <g id="Group-4" transform="translate(806.057554, 439.741211) scale(-1, 1) translate(-806.057554, -439.741211) translate(101.057554, 160.241211)">
                <g id="Group-Copy-3" opacity="0.247969658" transform="translate(1058.437500, 485.221528) scale(-1, -1) translate(-1058.437500, -485.221528) translate(707.937500, 412.221528)" stroke="#979797">
                    <rect id="Rectangle-4" transform="translate(679.081597, 22.147569) rotate(-90.000000) translate(-679.081597, -22.147569) " x="658.401042" y="1.46701389" width="41.3611111" height="41.3611111" rx="2"></rect>
                    <path d="M698.261669,52.7239583 C698.675123,52.7239583 699.04925,52.8932863 699.320517,53.164554 C699.592929,53.4369658 699.762153,53.8124806 699.762153,54.2244426 L699.762153,54.2244426 L699.762153,92.5845852 C699.762153,92.9980398 699.592825,93.3721664 699.321557,93.6434342 C699.049145,93.915846 698.67363,94.0850694 698.261669,94.0850694 L698.261669,94.0850694 L659.901526,94.0850694 C659.488071,94.0850694 659.113945,93.9157415 658.842677,93.6444737 C658.570265,93.3720619 658.401042,92.9965471 658.401042,92.5845852 L658.401042,92.5845852 L658.401042,54.2244426 C658.401042,53.810988 658.57037,53.4368614 658.841637,53.1655936 C659.114049,52.8931818 659.489564,52.7239583 659.901526,52.7239583 L659.901526,52.7239583 Z" id="Rectangle-4-Copy" transform="translate(679.081597, 73.404514) rotate(-90.000000) translate(-679.081597, -73.404514) "></path>
                    <path d="M647.428335,52.0885417 C647.84179,52.0885417 648.215916,52.2578696 648.487184,52.5291374 C648.759596,52.8015492 648.928819,53.177064 648.928819,53.5890259 L648.928819,53.5890259 L648.928819,91.9491685 C648.928819,92.3626231 648.759491,92.7367497 648.488224,93.0080175 C648.215812,93.2804293 647.840297,93.4496528 647.428335,93.4496528 L647.428335,93.4496528 L609.068193,93.4496528 C608.654738,93.4496528 608.280611,93.2803248 608.009344,93.0090571 C607.736932,92.7366453 607.567708,92.3611305 607.567708,91.9491685 L607.567708,91.9491685 L607.567708,53.5890259 C607.567708,53.1755713 607.737036,52.8014447 608.008304,52.5301769 C608.280716,52.2577652 608.656231,52.0885417 609.068193,52.0885417 L609.068193,52.0885417 Z" id="Rectangle-4-Copy-5" transform="translate(628.248264, 72.769097) rotate(-90.000000) translate(-628.248264, -72.769097) "></path>
                    <path d="M698.261669,103.980903 C698.675123,103.980903 699.04925,104.150231 699.320517,104.421498 C699.592929,104.69391 699.762153,105.069425 699.762153,105.481387 L699.762153,105.481387 L699.762153,143.84153 C699.762153,144.254984 699.592825,144.629111 699.321557,144.900379 C699.049145,145.17279 698.67363,145.342014 698.261669,145.342014 L698.261669,145.342014 L659.901526,145.342014 C659.488071,145.342014 659.113945,145.172686 658.842677,144.901418 C658.570265,144.629006 658.401042,144.253492 658.401042,143.84153 L658.401042,143.84153 L658.401042,105.481387 C658.401042,105.067932 658.57037,104.693806 658.841637,104.422538 C659.114049,104.150126 659.489564,103.980903 659.901526,103.980903 L659.901526,103.980903 Z" id="Rectangle-4-Copy-8" transform="translate(679.081597, 124.661458) rotate(-90.000000) translate(-679.081597, -124.661458) "></path>
                    <path d="M394.320696,52.0885417 C394.734151,52.0885417 395.108278,52.2578696 395.379545,52.5291374 C395.651957,52.8015492 395.821181,53.177064 395.821181,53.5890259 L395.821181,53.5890259 L395.821181,91.9491685 C395.821181,92.3626231 395.651853,92.7367497 395.380585,93.0080175 C395.108173,93.2804293 394.732658,93.4496528 394.320696,93.4496528 L394.320696,93.4496528 L355.960554,93.4496528 C355.547099,93.4496528 355.172972,93.2803248 354.901705,93.0090571 C354.629293,92.7366453 354.460069,92.3611305 354.460069,91.9491685 L354.460069,91.9491685 L354.460069,53.5890259 C354.460069,53.1755713 354.629397,52.8014447 354.900665,52.5301769 C355.173077,52.2577652 355.548592,52.0885417 355.960554,52.0885417 L355.960554,52.0885417 Z" id="Rectangle-4-Copy-32" transform="translate(375.140625, 72.769097) rotate(-90.000000) translate(-375.140625, -72.769097) "></path>
                    <rect id="Rectangle-4-Copy-31" transform="translate(425.973958, 124.661458) rotate(-90.000000) translate(-425.973958, -124.661458) " x="405.293403" y="103.980903" width="41.3611111" height="41.3611111" rx="2"></rect>
                    <rect id="Rectangle-4-Copy-48" transform="translate(21.425347, 122.543403) rotate(-90.000000) translate(-21.425347, -122.543403) " x="0.744791667" y="101.862847" width="41.3611111" height="41.3611111" rx="2"></rect>
                </g>
                <g id="Group-Copy-2" opacity="0.247969658" transform="translate(429.000000, 459.721528) scale(-1, -1) translate(-429.000000, -459.721528) translate(205.000000, 412.221528)" stroke="#979797">
                    <path d="M445.15403,1.72395833 C445.567484,1.72395833 445.941611,1.8932863 446.212879,2.16455404 C446.48529,2.43696584 446.654514,2.81248065 446.654514,3.2244426 L446.654514,3.2244426 L446.654514,41.5845852 C446.654514,41.9980398 446.485186,42.3721664 446.213918,42.6434342 C445.941506,42.915846 445.565992,43.0850694 445.15403,43.0850694 L445.15403,43.0850694 L406.793887,43.0850694 C406.380432,43.0850694 406.006306,42.9157415 405.735038,42.6444737 C405.462626,42.3720619 405.293403,41.9965471 405.293403,41.5845852 L405.293403,41.5845852 L405.293403,3.2244426 C405.293403,2.81098798 405.462731,2.43686136 405.733998,2.16559362 C406.00641,1.89318182 406.381925,1.72395833 406.793887,1.72395833 L406.793887,1.72395833 Z" id="Rectangle-4-Copy-33" transform="translate(425.973958, 22.404514) rotate(-90.000000) translate(-425.973958, -22.404514) "></path>
                    <path d="M394.320696,1.08854167 C394.734151,1.08854167 395.108278,1.25786963 395.379545,1.52913738 C395.651957,1.80154917 395.821181,2.17706398 395.821181,2.58902593 L395.821181,2.58902593 L395.821181,40.9491685 C395.821181,41.3626231 395.651853,41.7367497 395.380585,42.0080175 C395.108173,42.2804293 394.732658,42.4496528 394.320696,42.4496528 L394.320696,42.4496528 L355.960554,42.4496528 C355.547099,42.4496528 355.172972,42.2803248 354.901705,42.0090571 C354.629293,41.7366453 354.460069,41.3611305 354.460069,40.9491685 L354.460069,40.9491685 L354.460069,2.58902593 C354.460069,2.17557131 354.629397,1.8014447 354.900665,1.53017695 C355.173077,1.25776516 355.548592,1.08854167 355.960554,1.08854167 L355.960554,1.08854167 Z" id="Rectangle-4-Copy-32" transform="translate(375.140625, 21.769097) rotate(-90.000000) translate(-375.140625, -21.769097) "></path>
                    <rect id="Rectangle-4-Copy-31" transform="translate(425.973958, 73.661458) rotate(-90.000000) translate(-425.973958, -73.661458) " x="405.293403" y="52.9809028" width="41.3611111" height="41.3611111" rx="2"></rect>
                    <rect id="Rectangle-4-Copy-48" transform="translate(21.425347, 71.543403) rotate(-90.000000) translate(-21.425347, -71.543403) " x="0.744791667" y="50.8628472" width="41.3611111" height="41.3611111" rx="2"></rect>
                </g>
                <g id="Group-Copy" opacity="0.247969658" transform="translate(1058.937500, 200.871528) scale(-1, -1) translate(-1058.937500, -200.871528) translate(707.937500, 0.371528)" stroke="#979797">
                    <rect id="Rectangle-4" transform="translate(680.081597, 277.147569) rotate(-90.000000) translate(-680.081597, -277.147569) " x="659.401042" y="256.467014" width="41.3611111" height="41.3611111" rx="2"></rect>
                    <path d="M699.261669,205.210069 C699.675123,205.210069 700.04925,205.379397 700.320517,205.650665 C700.592929,205.923077 700.762153,206.298592 700.762153,206.710554 L700.762153,206.710554 L700.762153,245.070696 C700.762153,245.484151 700.592825,245.858278 700.321557,246.129545 C700.049145,246.401957 699.67363,246.571181 699.261669,246.571181 L699.261669,246.571181 L660.901526,246.571181 C660.488071,246.571181 660.113945,246.401853 659.842677,246.130585 C659.570265,245.858173 659.401042,245.482658 659.401042,245.070696 L659.401042,245.070696 L659.401042,206.710554 C659.401042,206.297099 659.57037,205.922972 659.841637,205.651705 C660.114049,205.379293 660.489564,205.210069 660.901526,205.210069 L660.901526,205.210069 Z" id="Rectangle-4-Copy-2" transform="translate(680.081597, 225.890625) rotate(-90.000000) translate(-680.081597, -225.890625) "></path>
                    <rect id="Rectangle-4-Copy-4" transform="translate(629.248264, 275.876736) rotate(-90.000000) translate(-629.248264, -275.876736) " x="608.567708" y="255.196181" width="41.3611111" height="41.3611111" rx="2"></rect>
                    <path d="M699.261669,307.723958 C699.675123,307.723958 700.04925,307.893286 700.320517,308.164554 C700.592929,308.436966 700.762153,308.812481 700.762153,309.224443 L700.762153,309.224443 L700.762153,347.584585 C700.762153,347.99804 700.592825,348.372166 700.321557,348.643434 C700.049145,348.915846 699.67363,349.085069 699.261669,349.085069 L699.261669,349.085069 L660.901526,349.085069 C660.488071,349.085069 660.113945,348.915741 659.842677,348.644474 C659.570265,348.372062 659.401042,347.996547 659.401042,347.584585 L659.401042,347.584585 L659.401042,309.224443 C659.401042,308.810988 659.57037,308.436861 659.841637,308.165594 C660.114049,307.893182 660.489564,307.723958 660.901526,307.723958 L660.901526,307.723958 Z" id="Rectangle-4-Copy" transform="translate(680.081597, 328.404514) rotate(-90.000000) translate(-680.081597, -328.404514) "></path>
                    <path d="M648.428335,307.088542 C648.84179,307.088542 649.215916,307.25787 649.487184,307.529137 C649.759596,307.801549 649.928819,308.177064 649.928819,308.589026 L649.928819,308.589026 L649.928819,346.949169 C649.928819,347.362623 649.759491,347.73675 649.488224,348.008017 C649.215812,348.280429 648.840297,348.449653 648.428335,348.449653 L648.428335,348.449653 L610.068193,348.449653 C609.654738,348.449653 609.280611,348.280325 609.009344,348.009057 C608.736932,347.736645 608.567708,347.36113 608.567708,346.949169 L608.567708,346.949169 L608.567708,308.589026 C608.567708,308.175571 608.737036,307.801445 609.008304,307.530177 C609.280716,307.257765 609.656231,307.088542 610.068193,307.088542 L610.068193,307.088542 Z" id="Rectangle-4-Copy-5" transform="translate(629.248264, 327.769097) rotate(-90.000000) translate(-629.248264, -327.769097) "></path>
                    <path d="M699.261669,358.980903 C699.675123,358.980903 700.04925,359.150231 700.320517,359.421498 C700.592929,359.69391 700.762153,360.069425 700.762153,360.481387 L700.762153,360.481387 L700.762153,398.84153 C700.762153,399.254984 700.592825,399.629111 700.321557,399.900379 C700.049145,400.17279 699.67363,400.342014 699.261669,400.342014 L699.261669,400.342014 L660.901526,400.342014 C660.488071,400.342014 660.113945,400.172686 659.842677,399.901418 C659.570265,399.629006 659.401042,399.253492 659.401042,398.84153 L659.401042,398.84153 L659.401042,360.481387 C659.401042,360.067932 659.57037,359.693806 659.841637,359.422538 C660.114049,359.150126 660.489564,358.980903 660.901526,358.980903 L660.901526,358.980903 Z" id="Rectangle-4-Copy-8" transform="translate(680.081597, 379.661458) rotate(-90.000000) translate(-680.081597, -379.661458) "></path>
                    <path d="M648.428335,204.362847 C648.84179,204.362847 649.215916,204.532175 649.487184,204.803443 C649.759596,205.075855 649.928819,205.45137 649.928819,205.863331 L649.928819,205.863331 L649.928819,244.223474 C649.928819,244.636929 649.759491,245.011055 649.488224,245.282323 C649.215812,245.554735 648.840297,245.723958 648.428335,245.723958 L648.428335,245.723958 L610.068193,245.723958 C609.654738,245.723958 609.280611,245.55463 609.009344,245.283363 C608.736932,245.010951 608.567708,244.635436 608.567708,244.223474 L608.567708,244.223474 L608.567708,205.863331 C608.567708,205.449877 608.737036,205.07575 609.008304,204.804483 C609.280716,204.532071 609.656231,204.362847 610.068193,204.362847 L610.068193,204.362847 Z" id="Rectangle-4-Copy-3" transform="translate(629.248264, 225.043403) rotate(-90.000000) translate(-629.248264, -225.043403) "></path>
                    <rect id="Rectangle-4-Copy-7" transform="translate(680.081597, 123.376736) rotate(-90.000000) translate(-680.081597, -123.376736) " x="659.401042" y="102.696181" width="41.3611111" height="41.3611111" rx="2"></rect>
                    <path d="M699.261669,153.953125 C699.675123,153.953125 700.04925,154.122453 700.320517,154.393721 C700.592929,154.666133 700.762153,155.041647 700.762153,155.453609 L700.762153,155.453609 L700.762153,193.813752 C700.762153,194.227206 700.592825,194.601333 700.321557,194.872601 C700.049145,195.145013 699.67363,195.314236 699.261669,195.314236 L699.261669,195.314236 L660.901526,195.314236 C660.488071,195.314236 660.113945,195.144908 659.842677,194.87364 C659.570265,194.601229 659.401042,194.225714 659.401042,193.813752 L659.401042,193.813752 L659.401042,155.453609 C659.401042,155.040155 659.57037,154.666028 659.841637,154.39476 C660.114049,154.122348 660.489564,153.953125 660.901526,153.953125 L660.901526,153.953125 Z" id="Rectangle-4-Copy-9" transform="translate(680.081597, 174.633681) rotate(-90.000000) translate(-680.081597, -174.633681) "></path>
                    <path d="M648.428335,153.529514 C648.84179,153.529514 649.215916,153.698842 649.487184,153.97011 C649.759596,154.242521 649.928819,154.618036 649.928819,155.029998 L649.928819,155.029998 L649.928819,193.390141 C649.928819,193.803595 649.759491,194.177722 649.488224,194.44899 C649.215812,194.721402 648.840297,194.890625 648.428335,194.890625 L648.428335,194.890625 L610.068193,194.890625 C609.654738,194.890625 609.280611,194.721297 609.009344,194.450029 C608.736932,194.177617 608.567708,193.802103 608.567708,193.390141 L608.567708,193.390141 L608.567708,155.029998 C608.567708,154.616544 608.737036,154.242417 609.008304,153.971149 C609.280716,153.698737 609.656231,153.529514 610.068193,153.529514 L610.068193,153.529514 Z" id="Rectangle-4-Copy-6" transform="translate(629.248264, 174.210069) rotate(-90.000000) translate(-629.248264, -174.210069) "></path>
                    <path d="M597.595002,102.696181 C598.008456,102.696181 598.382583,102.865509 598.653851,103.136776 C598.926263,103.409188 599.095486,103.784703 599.095486,104.196665 L599.095486,104.196665 L599.095486,142.556807 C599.095486,142.970262 598.926158,143.344389 598.65489,143.615656 C598.382479,143.888068 598.006964,144.057292 597.595002,144.057292 L597.595002,144.057292 L559.234859,144.057292 C558.821405,144.057292 558.447278,143.887964 558.17601,143.616696 C557.903598,143.344284 557.734375,142.968769 557.734375,142.556807 L557.734375,142.556807 L557.734375,104.196665 C557.734375,103.78321 557.903703,103.409084 558.174971,103.137816 C558.447383,102.865404 558.822897,102.696181 559.234859,102.696181 L559.234859,102.696181 Z" id="Rectangle-4-Copy-12" transform="translate(578.414931, 123.376736) rotate(-90.000000) translate(-578.414931, -123.376736) "></path>
                    <path d="M648.428335,102.696181 C648.84179,102.696181 649.215916,102.865509 649.487184,103.136776 C649.759596,103.409188 649.928819,103.784703 649.928819,104.196665 L649.928819,104.196665 L649.928819,142.556807 C649.928819,142.970262 649.759491,143.344389 649.488224,143.615656 C649.215812,143.888068 648.840297,144.057292 648.428335,144.057292 L648.428335,144.057292 L610.068193,144.057292 C609.654738,144.057292 609.280611,143.887964 609.009344,143.616696 C608.736932,143.344284 608.567708,142.968769 608.567708,142.556807 L608.567708,142.556807 L608.567708,104.196665 C608.567708,103.78321 608.737036,103.409084 609.008304,103.137816 C609.280716,102.865404 609.656231,102.696181 610.068193,102.696181 L610.068193,102.696181 Z" id="Rectangle-4-Copy-17" transform="translate(629.248264, 123.376736) rotate(-90.000000) translate(-629.248264, -123.376736) "></path>
                    <rect id="Rectangle-4-Copy-11" transform="translate(578.414931, 174.210069) rotate(-90.000000) translate(-578.414931, -174.210069) " x="557.734375" y="153.529514" width="41.3611111" height="41.3611111" rx="2"></rect>
                    <path d="M546.761669,102.696181 C547.175123,102.696181 547.54925,102.865509 547.820517,103.136776 C548.092929,103.409188 548.262153,103.784703 548.262153,104.196665 L548.262153,104.196665 L548.262153,142.556807 C548.262153,142.970262 548.092825,143.344389 547.821557,143.615656 C547.549145,143.888068 547.17363,144.057292 546.761669,144.057292 L546.761669,144.057292 L508.401526,144.057292 C507.988071,144.057292 507.613945,143.887964 507.342677,143.616696 C507.070265,143.344284 506.901042,142.968769 506.901042,142.556807 L506.901042,142.556807 L506.901042,104.196665 C506.901042,103.78321 507.07037,103.409084 507.341637,103.137816 C507.614049,102.865404 507.989564,102.696181 508.401526,102.696181 L508.401526,102.696181 Z" id="Rectangle-4-Copy-10" transform="translate(527.581597, 123.376736) rotate(-90.000000) translate(-527.581597, -123.376736) "></path>
                    <rect id="Rectangle-4-Copy-19" transform="translate(680.081597, 72.543403) rotate(-90.000000) translate(-680.081597, -72.543403) " x="659.401042" y="51.8628472" width="41.3611111" height="41.3611111" rx="2"></rect>
                    <path d="M446.15403,205.210069 C446.567484,205.210069 446.941611,205.379397 447.212879,205.650665 C447.48529,205.923077 447.654514,206.298592 447.654514,206.710554 L447.654514,206.710554 L447.654514,245.070696 C447.654514,245.484151 447.485186,245.858278 447.213918,246.129545 C446.941506,246.401957 446.565992,246.571181 446.15403,246.571181 L446.15403,246.571181 L407.793887,246.571181 C407.380432,246.571181 407.006306,246.401853 406.735038,246.130585 C406.462626,245.858173 406.293403,245.482658 406.293403,245.070696 L406.293403,245.070696 L406.293403,206.710554 C406.293403,206.297099 406.462731,205.922972 406.733998,205.651705 C407.00641,205.379293 407.381925,205.210069 407.793887,205.210069 L407.793887,205.210069 Z" id="Rectangle-4-Copy-35" transform="translate(426.973958, 225.890625) rotate(-90.000000) translate(-426.973958, -225.890625) "></path>
                    <path d="M395.320696,255.196181 C395.734151,255.196181 396.108278,255.365509 396.379545,255.636776 C396.651957,255.909188 396.821181,256.284703 396.821181,256.696665 L396.821181,256.696665 L396.821181,295.056807 C396.821181,295.470262 396.651853,295.844389 396.380585,296.115656 C396.108173,296.388068 395.732658,296.557292 395.320696,296.557292 L395.320696,296.557292 L356.960554,296.557292 C356.547099,296.557292 356.172972,296.387964 355.901705,296.116696 C355.629293,295.844284 355.460069,295.468769 355.460069,295.056807 L355.460069,295.056807 L355.460069,256.696665 C355.460069,256.28321 355.629397,255.909084 355.900665,255.637816 C356.173077,255.365404 356.548592,255.196181 356.960554,255.196181 L356.960554,255.196181 Z" id="Rectangle-4-Copy-34" transform="translate(376.140625, 275.876736) rotate(-90.000000) translate(-376.140625, -275.876736) "></path>
                    <rect id="Rectangle-4-Copy-31" transform="translate(426.973958, 379.661458) rotate(-90.000000) translate(-426.973958, -379.661458) " x="406.293403" y="358.980903" width="41.3611111" height="41.3611111" rx="2"></rect>
                    <rect id="Rectangle-4-Copy-30" transform="translate(376.140625, 225.043403) rotate(-90.000000) translate(-376.140625, -225.043403) " x="355.460069" y="204.362847" width="41.3611111" height="41.3611111" rx="2"></rect>
                    <path d="M446.15403,102.696181 C446.567484,102.696181 446.941611,102.865509 447.212879,103.136776 C447.48529,103.409188 447.654514,103.784703 447.654514,104.196665 L447.654514,104.196665 L447.654514,142.556807 C447.654514,142.970262 447.485186,143.344389 447.213918,143.615656 C446.941506,143.888068 446.565992,144.057292 446.15403,144.057292 L446.15403,144.057292 L407.793887,144.057292 C407.380432,144.057292 407.006306,143.887964 406.735038,143.616696 C406.462626,143.344284 406.293403,142.968769 406.293403,142.556807 L406.293403,142.556807 L406.293403,104.196665 C406.293403,103.78321 406.462731,103.409084 406.733998,103.137816 C407.00641,102.865404 407.381925,102.696181 407.793887,102.696181 L407.793887,102.696181 Z" id="Rectangle-4-Copy-29" transform="translate(426.973958, 123.376736) rotate(-90.000000) translate(-426.973958, -123.376736) "></path>
                    <rect id="Rectangle-4-Copy-28" transform="translate(426.973958, 174.633681) rotate(-90.000000) translate(-426.973958, -174.633681) " x="406.293403" y="153.953125" width="41.3611111" height="41.3611111" rx="2"></rect>
                    <path d="M395.320696,102.696181 C395.734151,102.696181 396.108278,102.865509 396.379545,103.136776 C396.651957,103.409188 396.821181,103.784703 396.821181,104.196665 L396.821181,104.196665 L396.821181,142.556807 C396.821181,142.970262 396.651853,143.344389 396.380585,143.615656 C396.108173,143.888068 395.732658,144.057292 395.320696,144.057292 L395.320696,144.057292 L356.960554,144.057292 C356.547099,144.057292 356.172972,143.887964 355.901705,143.616696 C355.629293,143.344284 355.460069,142.968769 355.460069,142.556807 L355.460069,142.556807 L355.460069,104.196665 C355.460069,103.78321 355.629397,103.409084 355.900665,103.137816 C356.173077,102.865404 356.548592,102.696181 356.960554,102.696181 L356.960554,102.696181 Z" id="Rectangle-4-Copy-26" transform="translate(376.140625, 123.376736) rotate(-90.000000) translate(-376.140625, -123.376736) "></path>
                    <path d="M395.320696,51.8628472 C395.734151,51.8628472 396.108278,52.0321752 396.379545,52.3034429 C396.651957,52.5758547 396.821181,52.9513695 396.821181,53.3633315 L396.821181,53.3633315 L396.821181,91.7234741 C396.821181,92.1369287 396.651853,92.5110553 396.380585,92.7823231 C396.108173,93.0547348 395.732658,93.2239583 395.320696,93.2239583 L395.320696,93.2239583 L356.960554,93.2239583 C356.547099,93.2239583 356.172972,93.0546304 355.901705,92.7833626 C355.629293,92.5109508 355.460069,92.135436 355.460069,91.7234741 L355.460069,91.7234741 L355.460069,53.3633315 C355.460069,52.9498769 355.629397,52.5757503 355.900665,52.3044825 C356.173077,52.0320707 356.548592,51.8628472 356.960554,51.8628472 L356.960554,51.8628472 Z" id="Rectangle-4-Copy-25" transform="translate(376.140625, 72.543403) rotate(-90.000000) translate(-376.140625, -72.543403) "></path>
                    <rect id="Rectangle-4-Copy-24" transform="translate(426.973958, 72.543403) rotate(-90.000000) translate(-426.973958, -72.543403) " x="406.293403" y="51.8628472" width="41.3611111" height="41.3611111" rx="2"></rect>
                    <path d="M597.595002,1.02951389 C598.008456,1.02951389 598.382583,1.19884185 598.653851,1.4701096 C598.926263,1.74252139 599.095486,2.1180362 599.095486,2.52999815 L599.095486,2.52999815 L599.095486,40.8901407 C599.095486,41.3035954 598.926158,41.677722 598.65489,41.9489897 C598.382479,42.2214015 598.006964,42.390625 597.595002,42.390625 L597.595002,42.390625 L559.234859,42.390625 C558.821405,42.390625 558.447278,42.221297 558.17601,41.9500293 C557.903598,41.6776175 557.734375,41.3021027 557.734375,40.8901407 L557.734375,40.8901407 L557.734375,2.52999815 C557.734375,2.11654353 557.903703,1.74241692 558.174971,1.47114917 C558.447383,1.19873738 558.822897,1.02951389 559.234859,1.02951389 L559.234859,1.02951389 Z" id="Rectangle-4-Copy-15" transform="translate(578.414931, 21.710069) rotate(-90.000000) translate(-578.414931, -21.710069) "></path>
                    <path d="M648.428335,1.02951389 C648.84179,1.02951389 649.215916,1.19884185 649.487184,1.4701096 C649.759596,1.74252139 649.928819,2.1180362 649.928819,2.52999815 L649.928819,2.52999815 L649.928819,40.8901407 C649.928819,41.3035954 649.759491,41.677722 649.488224,41.9489897 C649.215812,42.2214015 648.840297,42.390625 648.428335,42.390625 L648.428335,42.390625 L610.068193,42.390625 C609.654738,42.390625 609.280611,42.221297 609.009344,41.9500293 C608.736932,41.6776175 608.567708,41.3021027 608.567708,40.8901407 L608.567708,40.8901407 L608.567708,2.52999815 C608.567708,2.11654353 608.737036,1.74241692 609.008304,1.47114917 C609.280716,1.19873738 609.656231,1.02951389 610.068193,1.02951389 L610.068193,1.02951389 Z" id="Rectangle-4-Copy-18" transform="translate(629.248264, 21.710069) rotate(-90.000000) translate(-629.248264, -21.710069) "></path>
                    <path d="M698.202641,1.02951389 C698.616095,1.02951389 698.990222,1.19884185 699.26149,1.4701096 C699.533902,1.74252139 699.703125,2.1180362 699.703125,2.52999815 L699.703125,2.52999815 L699.703125,40.8901407 C699.703125,41.3035954 699.533797,41.677722 699.262529,41.9489897 C698.990117,42.2214015 698.614603,42.390625 698.202641,42.390625 L698.202641,42.390625 L659.842498,42.390625 C659.429044,42.390625 659.054917,42.221297 658.783649,41.9500293 C658.511237,41.6776175 658.342014,41.3021027 658.342014,40.8901407 L658.342014,40.8901407 L658.342014,2.52999815 C658.342014,2.11654353 658.511342,1.74241692 658.78261,1.47114917 C659.055021,1.19873738 659.430536,1.02951389 659.842498,1.02951389 L659.842498,1.02951389 Z" id="Rectangle-4-Copy-63" transform="translate(679.022569, 21.710069) rotate(-90.000000) translate(-679.022569, -21.710069) "></path>
                    <path d="M597.595002,51.8628472 C598.008456,51.8628472 598.382583,52.0321752 598.653851,52.3034429 C598.926263,52.5758547 599.095486,52.9513695 599.095486,53.3633315 L599.095486,53.3633315 L599.095486,91.7234741 C599.095486,92.1369287 598.926158,92.5110553 598.65489,92.7823231 C598.382479,93.0547348 598.006964,93.2239583 597.595002,93.2239583 L597.595002,93.2239583 L559.234859,93.2239583 C558.821405,93.2239583 558.447278,93.0546304 558.17601,92.7833626 C557.903598,92.5109508 557.734375,92.135436 557.734375,91.7234741 L557.734375,91.7234741 L557.734375,53.3633315 C557.734375,52.9498769 557.903703,52.5757503 558.174971,52.3044825 C558.447383,52.0320707 558.822897,51.8628472 559.234859,51.8628472 L559.234859,51.8628472 Z" id="Rectangle-4-Copy-14" transform="translate(578.414931, 72.543403) rotate(-90.000000) translate(-578.414931, -72.543403) "></path>
                    <path d="M496.987363,51.8628472 C497.400818,51.8628472 497.774944,52.0321752 498.046212,52.3034429 C498.318624,52.5758547 498.487847,52.9513695 498.487847,53.3633315 L498.487847,53.3633315 L498.487847,91.7234741 C498.487847,92.1369287 498.318519,92.5110553 498.047252,92.7823231 C497.77484,93.0547348 497.399325,93.2239583 496.987363,93.2239583 L496.987363,93.2239583 L458.62722,93.2239583 C458.213766,93.2239583 457.839639,93.0546304 457.568371,92.7833626 C457.29596,92.5109508 457.126736,92.135436 457.126736,91.7234741 L457.126736,91.7234741 L457.126736,53.3633315 C457.126736,52.9498769 457.296064,52.5757503 457.567332,52.3044825 C457.839744,52.0320707 458.215258,51.8628472 458.62722,51.8628472 L458.62722,51.8628472 Z" id="Rectangle-4-Copy-20" transform="translate(477.807292, 72.543403) rotate(-90.000000) translate(-477.807292, -72.543403) "></path>
                    <rect id="Rectangle-4-Copy-23" transform="translate(426.973958, 21.710069) rotate(-90.000000) translate(-426.973958, -21.710069) " x="406.293403" y="1.02951389" width="41.3611111" height="41.3611111" rx="2"></rect>
                    <path d="M496.987363,1.02951389 C497.400818,1.02951389 497.774944,1.19884185 498.046212,1.4701096 C498.318624,1.74252139 498.487847,2.1180362 498.487847,2.52999815 L498.487847,2.52999815 L498.487847,40.8901407 C498.487847,41.3035954 498.318519,41.677722 498.047252,41.9489897 C497.77484,42.2214015 497.399325,42.390625 496.987363,42.390625 L496.987363,42.390625 L458.62722,42.390625 C458.213766,42.390625 457.839639,42.221297 457.568371,41.9500293 C457.29596,41.6776175 457.126736,41.3021027 457.126736,40.8901407 L457.126736,40.8901407 L457.126736,2.52999815 C457.126736,2.11654353 457.296064,1.74241692 457.567332,1.47114917 C457.839744,1.19873738 458.215258,1.02951389 458.62722,1.02951389 L458.62722,1.02951389 Z" id="Rectangle-4-Copy-22" transform="translate(477.807292, 21.710069) rotate(-90.000000) translate(-477.807292, -21.710069) "></path>
                    <path d="M341.31028,1.02951389 C341.723734,1.02951389 342.097861,1.19884185 342.369129,1.4701096 C342.64154,1.74252139 342.810764,2.1180362 342.810764,2.52999815 L342.810764,2.52999815 L342.810764,40.8901407 C342.810764,41.3035954 342.641436,41.677722 342.370168,41.9489897 C342.097756,42.2214015 341.722242,42.390625 341.31028,42.390625 L341.31028,42.390625 L302.950137,42.390625 C302.536682,42.390625 302.162556,42.221297 301.891288,41.9500293 C301.618876,41.6776175 301.449653,41.3021027 301.449653,40.8901407 L301.449653,40.8901407 L301.449653,2.52999815 C301.449653,2.11654353 301.618981,1.74241692 301.890248,1.47114917 C302.16266,1.19873738 302.538175,1.02951389 302.950137,1.02951389 L302.950137,1.02951389 Z" id="Rectangle-4-Copy-56" transform="translate(322.130208, 21.710069) rotate(-90.000000) translate(-322.130208, -21.710069) "></path>
                    <path d="M239.643613,1.02951389 C240.057068,1.02951389 240.431194,1.19884185 240.702462,1.4701096 C240.974874,1.74252139 241.144097,2.1180362 241.144097,2.52999815 L241.144097,2.52999815 L241.144097,40.8901407 C241.144097,41.3035954 240.974769,41.677722 240.703502,41.9489897 C240.43109,42.2214015 240.055575,42.390625 239.643613,42.390625 L239.643613,42.390625 L201.28347,42.390625 C200.870016,42.390625 200.495889,42.221297 200.224621,41.9500293 C199.95221,41.6776175 199.782986,41.3021027 199.782986,40.8901407 L199.782986,40.8901407 L199.782986,2.52999815 C199.782986,2.11654353 199.952314,1.74241692 200.223582,1.47114917 C200.495994,1.19873738 200.871508,1.02951389 201.28347,1.02951389 L201.28347,1.02951389 Z" id="Rectangle-4-Copy-55" transform="translate(220.463542, 21.710069) rotate(-90.000000) translate(-220.463542, -21.710069) "></path>
                    <rect id="Rectangle-4-Copy-50" transform="translate(119.855903, 21.710069) rotate(-90.000000) translate(-119.855903, -21.710069) " x="99.1753472" y="1.02951389" width="41.3611111" height="41.3611111" rx="2"></rect>
                    <rect id="Rectangle-4-Copy-27" transform="translate(69.022569, 21.710069) rotate(-90.000000) translate(-69.022569, -21.710069) " x="48.3420139" y="1.02951389" width="41.3611111" height="41.3611111" rx="2"></rect>
                    <path d="M344.487363,204.362847 C344.900818,204.362847 345.274944,204.532175 345.546212,204.803443 C345.818624,205.075855 345.987847,205.45137 345.987847,205.863331 L345.987847,205.863331 L345.987847,244.223474 C345.987847,244.636929 345.818519,245.011055 345.547252,245.282323 C345.27484,245.554735 344.899325,245.723958 344.487363,245.723958 L344.487363,245.723958 L306.12722,245.723958 C305.713766,245.723958 305.339639,245.55463 305.068371,245.283363 C304.79596,245.010951 304.626736,244.635436 304.626736,244.223474 L304.626736,244.223474 L304.626736,205.863331 C304.626736,205.449877 304.796064,205.07575 305.067332,204.804483 C305.339744,204.532071 305.715258,204.362847 306.12722,204.362847 L306.12722,204.362847 Z" id="Rectangle-4-Copy-54" transform="translate(325.307292, 225.043403) rotate(-90.000000) translate(-325.307292, -225.043403) "></path>
                    <rect id="Rectangle-4-Copy-53" transform="translate(223.640625, 225.043403) rotate(-90.000000) translate(-223.640625, -225.043403) " x="202.960069" y="204.362847" width="41.3611111" height="41.3611111" rx="2"></rect>
                    <rect id="Rectangle-4-Copy-52" transform="translate(274.473958, 225.043403) rotate(-90.000000) translate(-274.473958, -225.043403) " x="253.793403" y="204.362847" width="41.3611111" height="41.3611111" rx="2"></rect>
                    <rect id="Rectangle-4-Copy-51" transform="translate(172.807292, 225.043403) rotate(-90.000000) translate(-172.807292, -225.043403) " x="152.126736" y="204.362847" width="41.3611111" height="41.3611111" rx="2"></rect>
                    <path d="M344.487363,153.529514 C344.900818,153.529514 345.274944,153.698842 345.546212,153.97011 C345.818624,154.242521 345.987847,154.618036 345.987847,155.029998 L345.987847,155.029998 L345.987847,193.390141 C345.987847,193.803595 345.818519,194.177722 345.547252,194.44899 C345.27484,194.721402 344.899325,194.890625 344.487363,194.890625 L344.487363,194.890625 L306.12722,194.890625 C305.713766,194.890625 305.339639,194.721297 305.068371,194.450029 C304.79596,194.177617 304.626736,193.802103 304.626736,193.390141 L304.626736,193.390141 L304.626736,155.029998 C304.626736,154.616544 304.796064,154.242417 305.067332,153.971149 C305.339744,153.698737 305.715258,153.529514 306.12722,153.529514 L306.12722,153.529514 Z" id="Rectangle-4-Copy-49" transform="translate(325.307292, 174.210069) rotate(-90.000000) translate(-325.307292, -174.210069) "></path>
                    <rect id="Rectangle-4-Copy-48" transform="translate(22.425347, 377.543403) rotate(-90.000000) translate(-22.425347, -377.543403) " x="1.74479167" y="356.862847" width="41.3611111" height="41.3611111" rx="2"></rect>
                    <rect id="Rectangle-4-Copy-45" transform="translate(72.199653, 174.210069) rotate(-90.000000) translate(-72.199653, -174.210069) " x="51.5190972" y="153.529514" width="41.3611111" height="41.3611111" rx="2"></rect>
                    <path d="M242.820696,102.696181 C243.234151,102.696181 243.608278,102.865509 243.879545,103.136776 C244.151957,103.409188 244.321181,103.784703 244.321181,104.196665 L244.321181,104.196665 L244.321181,142.556807 C244.321181,142.970262 244.151853,143.344389 243.880585,143.615656 C243.608173,143.888068 243.232658,144.057292 242.820696,144.057292 L242.820696,144.057292 L204.460554,144.057292 C204.047099,144.057292 203.672972,143.887964 203.401705,143.616696 C203.129293,143.344284 202.960069,142.968769 202.960069,142.556807 L202.960069,142.556807 L202.960069,104.196665 C202.960069,103.78321 203.129397,103.409084 203.400665,103.137816 C203.673077,102.865404 204.048592,102.696181 204.460554,102.696181 L204.460554,102.696181 Z" id="Rectangle-4-Copy-44" transform="translate(223.640625, 123.376736) rotate(-90.000000) translate(-223.640625, -123.376736) "></path>
                    <path d="M191.987363,102.166667 C192.400818,102.166667 192.774944,102.335995 193.046212,102.607262 C193.318624,102.879674 193.487847,103.255189 193.487847,103.667151 L193.487847,103.667151 L193.487847,142.027294 C193.487847,142.440748 193.318519,142.814875 193.047252,143.086142 C192.77484,143.358554 192.399325,143.527778 191.987363,143.527778 L191.987363,143.527778 L153.62722,143.527778 C153.213766,143.527778 152.839639,143.35845 152.568371,143.087182 C152.29596,142.81477 152.126736,142.439255 152.126736,142.027294 L152.126736,142.027294 L152.126736,103.667151 C152.126736,103.253696 152.296064,102.87957 152.567332,102.608302 C152.839744,102.33589 153.215258,102.166667 153.62722,102.166667 L153.62722,102.166667 Z" id="Rectangle-4-Copy-43" transform="translate(172.807292, 122.847222) rotate(-90.000000) translate(-172.807292, -122.847222) "></path>
                    <path d="M242.820696,153.529514 C243.234151,153.529514 243.608278,153.698842 243.879545,153.97011 C244.151957,154.242521 244.321181,154.618036 244.321181,155.029998 L244.321181,155.029998 L244.321181,193.390141 C244.321181,193.803595 244.151853,194.177722 243.880585,194.44899 C243.608173,194.721402 243.232658,194.890625 242.820696,194.890625 L242.820696,194.890625 L204.460554,194.890625 C204.047099,194.890625 203.672972,194.721297 203.401705,194.450029 C203.129293,194.177617 202.960069,193.802103 202.960069,193.390141 L202.960069,193.390141 L202.960069,155.029998 C202.960069,154.616544 203.129397,154.242417 203.400665,153.971149 C203.673077,153.698737 204.048592,153.529514 204.460554,153.529514 L204.460554,153.529514 Z" id="Rectangle-4-Copy-42" transform="translate(223.640625, 174.210069) rotate(-90.000000) translate(-223.640625, -174.210069) "></path>
                    <path d="M91.3797241,306.029514 C91.7931787,306.029514 92.1673053,306.198842 92.4385731,306.47011 C92.7109848,306.742521 92.8802083,307.118036 92.8802083,307.529998 L92.8802083,307.529998 L92.8802083,345.890141 C92.8802083,346.303595 92.7108804,346.677722 92.4396126,346.94899 C92.1672008,347.221402 91.791686,347.390625 91.3797241,347.390625 L91.3797241,347.390625 L53.0195815,347.390625 C52.6061269,347.390625 52.2320003,347.221297 51.9607325,346.950029 C51.6883207,346.677617 51.5190972,346.302103 51.5190972,345.890141 L51.5190972,345.890141 L51.5190972,307.529998 C51.5190972,307.116544 51.6884252,306.742417 51.9596929,306.471149 C52.2321047,306.198737 52.6076195,306.029514 53.0195815,306.029514 L53.0195815,306.029514 Z" id="Rectangle-4-Copy-41" transform="translate(72.199653, 326.710069) rotate(-90.000000) translate(-72.199653, -326.710069) "></path>
                    <path d="M141.15403,255.196181 C141.567484,255.196181 141.941611,255.365509 142.212879,255.636776 C142.48529,255.909188 142.654514,256.284703 142.654514,256.696665 L142.654514,256.696665 L142.654514,295.056807 C142.654514,295.470262 142.485186,295.844389 142.213918,296.115656 C141.941506,296.388068 141.565992,296.557292 141.15403,296.557292 L141.15403,296.557292 L102.793887,296.557292 C102.380432,296.557292 102.006306,296.387964 101.735038,296.116696 C101.462626,295.844284 101.293403,295.468769 101.293403,295.056807 L101.293403,295.056807 L101.293403,256.696665 C101.293403,256.28321 101.462731,255.909084 101.733998,255.637816 C102.00641,255.365404 102.381925,255.196181 102.793887,255.196181 L102.793887,255.196181 Z" id="Rectangle-4-Copy-40" transform="translate(121.973958, 275.876736) rotate(-90.000000) translate(-121.973958, -275.876736) "></path>
                    <path d="M91.3797241,102.696181 C91.7931787,102.696181 92.1673053,102.865509 92.4385731,103.136776 C92.7109848,103.409188 92.8802083,103.784703 92.8802083,104.196665 L92.8802083,104.196665 L92.8802083,142.556807 C92.8802083,142.970262 92.7108804,143.344389 92.4396126,143.615656 C92.1672008,143.888068 91.791686,144.057292 91.3797241,144.057292 L91.3797241,144.057292 L53.0195815,144.057292 C52.6061269,144.057292 52.2320003,143.887964 51.9607325,143.616696 C51.6883207,143.344284 51.5190972,142.968769 51.5190972,142.556807 L51.5190972,142.556807 L51.5190972,104.196665 C51.5190972,103.78321 51.6884252,103.409084 51.9596929,103.137816 C52.2321047,102.865404 52.6076195,102.696181 53.0195815,102.696181 L53.0195815,102.696181 Z" id="Rectangle-4-Copy-39" transform="translate(72.199653, 123.376736) rotate(-90.000000) translate(-72.199653, -123.376736) "></path>
                    <rect id="Rectangle-4-Copy-38" transform="translate(123.032986, 123.376736) rotate(-90.000000) translate(-123.032986, -123.376736) " x="102.352431" y="102.696181" width="41.3611111" height="41.3611111" rx="2"></rect>
                    <rect id="Rectangle-4-Copy-37" transform="translate(21.366319, 123.376736) rotate(-90.000000) translate(-21.366319, -123.376736) " x="0.685763889" y="102.696181" width="41.3611111" height="41.3611111" rx="2"></rect>
                    <rect id="Rectangle-4-Copy-62" transform="translate(322.130208, 72.543403) rotate(-90.000000) translate(-322.130208, -72.543403) " x="301.449653" y="51.8628472" width="41.3611111" height="41.3611111" rx="2"></rect>
                    <rect id="Rectangle-4-Copy-61" transform="translate(271.296875, 72.013889) rotate(-90.000000) translate(-271.296875, -72.013889) " x="250.616319" y="51.3333333" width="41.3611111" height="41.3611111" rx="2"></rect>
                    <rect id="Rectangle-4-Copy-60" transform="translate(170.689236, 72.543403) rotate(-90.000000) translate(-170.689236, -72.543403) " x="150.008681" y="51.8628472" width="41.3611111" height="41.3611111" rx="2"></rect>
                    <path d="M139.035974,51.8628472 C139.449429,51.8628472 139.823555,52.0321752 140.094823,52.3034429 C140.367235,52.5758547 140.536458,52.9513695 140.536458,53.3633315 L140.536458,53.3633315 L140.536458,91.7234741 C140.536458,92.1369287 140.36713,92.5110553 140.095863,92.7823231 C139.823451,93.0547348 139.447936,93.2239583 139.035974,93.2239583 L139.035974,93.2239583 L100.675831,93.2239583 C100.262377,93.2239583 99.8882503,93.0546304 99.6169825,92.7833626 C99.3445707,92.5109508 99.1753472,92.135436 99.1753472,91.7234741 L99.1753472,91.7234741 L99.1753472,53.3633315 C99.1753472,52.9498769 99.3446752,52.5757503 99.6159429,52.3044825 C99.8883547,52.0320707 100.26387,51.8628472 100.675831,51.8628472 L100.675831,51.8628472 Z" id="Rectangle-4-Copy-58" transform="translate(119.855903, 72.543403) rotate(-90.000000) translate(-119.855903, -72.543403) "></path>
                </g>
                <g id="Group" opacity="0.247969658" transform="translate(0.000000, 0.371528)" stroke="#979797">
                    <rect id="Rectangle-4" transform="translate(680.081597, 277.147569) rotate(-90.000000) translate(-680.081597, -277.147569) " x="659.401042" y="256.467014" width="41.3611111" height="41.3611111" rx="2"></rect>
                    <path d="M699.261669,205.210069 C699.675123,205.210069 700.04925,205.379397 700.320517,205.650665 C700.592929,205.923077 700.762153,206.298592 700.762153,206.710554 L700.762153,206.710554 L700.762153,245.070696 C700.762153,245.484151 700.592825,245.858278 700.321557,246.129545 C700.049145,246.401957 699.67363,246.571181 699.261669,246.571181 L699.261669,246.571181 L660.901526,246.571181 C660.488071,246.571181 660.113945,246.401853 659.842677,246.130585 C659.570265,245.858173 659.401042,245.482658 659.401042,245.070696 L659.401042,245.070696 L659.401042,206.710554 C659.401042,206.297099 659.57037,205.922972 659.841637,205.651705 C660.114049,205.379293 660.489564,205.210069 660.901526,205.210069 L660.901526,205.210069 Z" id="Rectangle-4-Copy-2" transform="translate(680.081597, 225.890625) rotate(-90.000000) translate(-680.081597, -225.890625) "></path>
                    <path d="M648.428335,255.196181 C648.84179,255.196181 649.215916,255.365509 649.487184,255.636776 C649.759596,255.909188 649.928819,256.284703 649.928819,256.696665 L649.928819,256.696665 L649.928819,295.056807 C649.928819,295.470262 649.759491,295.844389 649.488224,296.115656 C649.215812,296.388068 648.840297,296.557292 648.428335,296.557292 L648.428335,296.557292 L610.068193,296.557292 C609.654738,296.557292 609.280611,296.387964 609.009344,296.116696 C608.736932,295.844284 608.567708,295.468769 608.567708,295.056807 L608.567708,295.056807 L608.567708,256.696665 C608.567708,256.28321 608.737036,255.909084 609.008304,255.637816 C609.280716,255.365404 609.656231,255.196181 610.068193,255.196181 L610.068193,255.196181 Z" id="Rectangle-4-Copy-4" transform="translate(629.248264, 275.876736) rotate(-90.000000) translate(-629.248264, -275.876736) "></path>
                    <path d="M699.261669,307.723958 C699.675123,307.723958 700.04925,307.893286 700.320517,308.164554 C700.592929,308.436966 700.762153,308.812481 700.762153,309.224443 L700.762153,309.224443 L700.762153,347.584585 C700.762153,347.99804 700.592825,348.372166 700.321557,348.643434 C700.049145,348.915846 699.67363,349.085069 699.261669,349.085069 L699.261669,349.085069 L660.901526,349.085069 C660.488071,349.085069 660.113945,348.915741 659.842677,348.644474 C659.570265,348.372062 659.401042,347.996547 659.401042,347.584585 L659.401042,347.584585 L659.401042,309.224443 C659.401042,308.810988 659.57037,308.436861 659.841637,308.165594 C660.114049,307.893182 660.489564,307.723958 660.901526,307.723958 L660.901526,307.723958 Z" id="Rectangle-4-Copy" transform="translate(680.081597, 328.404514) rotate(-90.000000) translate(-680.081597, -328.404514) "></path>
                    <path d="M648.428335,307.088542 C648.84179,307.088542 649.215916,307.25787 649.487184,307.529137 C649.759596,307.801549 649.928819,308.177064 649.928819,308.589026 L649.928819,308.589026 L649.928819,346.949169 C649.928819,347.362623 649.759491,347.73675 649.488224,348.008017 C649.215812,348.280429 648.840297,348.449653 648.428335,348.449653 L648.428335,348.449653 L610.068193,348.449653 C609.654738,348.449653 609.280611,348.280325 609.009344,348.009057 C608.736932,347.736645 608.567708,347.36113 608.567708,346.949169 L608.567708,346.949169 L608.567708,308.589026 C608.567708,308.175571 608.737036,307.801445 609.008304,307.530177 C609.280716,307.257765 609.656231,307.088542 610.068193,307.088542 L610.068193,307.088542 Z" id="Rectangle-4-Copy-5" transform="translate(629.248264, 327.769097) rotate(-90.000000) translate(-629.248264, -327.769097) "></path>
                    <path d="M699.261669,358.980903 C699.675123,358.980903 700.04925,359.150231 700.320517,359.421498 C700.592929,359.69391 700.762153,360.069425 700.762153,360.481387 L700.762153,360.481387 L700.762153,398.84153 C700.762153,399.254984 700.592825,399.629111 700.321557,399.900379 C700.049145,400.17279 699.67363,400.342014 699.261669,400.342014 L699.261669,400.342014 L660.901526,400.342014 C660.488071,400.342014 660.113945,400.172686 659.842677,399.901418 C659.570265,399.629006 659.401042,399.253492 659.401042,398.84153 L659.401042,398.84153 L659.401042,360.481387 C659.401042,360.067932 659.57037,359.693806 659.841637,359.422538 C660.114049,359.150126 660.489564,358.980903 660.901526,358.980903 L660.901526,358.980903 Z" id="Rectangle-4-Copy-8" transform="translate(680.081597, 379.661458) rotate(-90.000000) translate(-680.081597, -379.661458) "></path>
                    <path d="M648.428335,204.362847 C648.84179,204.362847 649.215916,204.532175 649.487184,204.803443 C649.759596,205.075855 649.928819,205.45137 649.928819,205.863331 L649.928819,205.863331 L649.928819,244.223474 C649.928819,244.636929 649.759491,245.011055 649.488224,245.282323 C649.215812,245.554735 648.840297,245.723958 648.428335,245.723958 L648.428335,245.723958 L610.068193,245.723958 C609.654738,245.723958 609.280611,245.55463 609.009344,245.283363 C608.736932,245.010951 608.567708,244.635436 608.567708,244.223474 L608.567708,244.223474 L608.567708,205.863331 C608.567708,205.449877 608.737036,205.07575 609.008304,204.804483 C609.280716,204.532071 609.656231,204.362847 610.068193,204.362847 L610.068193,204.362847 Z" id="Rectangle-4-Copy-3" transform="translate(629.248264, 225.043403) rotate(-90.000000) translate(-629.248264, -225.043403) "></path>
                    <path d="M699.261669,102.696181 C699.675123,102.696181 700.04925,102.865509 700.320517,103.136776 C700.592929,103.409188 700.762153,103.784703 700.762153,104.196665 L700.762153,104.196665 L700.762153,142.556807 C700.762153,142.970262 700.592825,143.344389 700.321557,143.615656 C700.049145,143.888068 699.67363,144.057292 699.261669,144.057292 L699.261669,144.057292 L660.901526,144.057292 C660.488071,144.057292 660.113945,143.887964 659.842677,143.616696 C659.570265,143.344284 659.401042,142.968769 659.401042,142.556807 L659.401042,142.556807 L659.401042,104.196665 C659.401042,103.78321 659.57037,103.409084 659.841637,103.137816 C660.114049,102.865404 660.489564,102.696181 660.901526,102.696181 L660.901526,102.696181 Z" id="Rectangle-4-Copy-7" transform="translate(680.081597, 123.376736) rotate(-90.000000) translate(-680.081597, -123.376736) "></path>
                    <rect id="Rectangle-4-Copy-9" transform="translate(680.081597, 174.633681) rotate(-90.000000) translate(-680.081597, -174.633681) " x="659.401042" y="153.953125" width="41.3611111" height="41.3611111" rx="2"></rect>
                    <path d="M648.428335,153.529514 C648.84179,153.529514 649.215916,153.698842 649.487184,153.97011 C649.759596,154.242521 649.928819,154.618036 649.928819,155.029998 L649.928819,155.029998 L649.928819,193.390141 C649.928819,193.803595 649.759491,194.177722 649.488224,194.44899 C649.215812,194.721402 648.840297,194.890625 648.428335,194.890625 L648.428335,194.890625 L610.068193,194.890625 C609.654738,194.890625 609.280611,194.721297 609.009344,194.450029 C608.736932,194.177617 608.567708,193.802103 608.567708,193.390141 L608.567708,193.390141 L608.567708,155.029998 C608.567708,154.616544 608.737036,154.242417 609.008304,153.971149 C609.280716,153.698737 609.656231,153.529514 610.068193,153.529514 L610.068193,153.529514 Z" id="Rectangle-4-Copy-6" transform="translate(629.248264, 174.210069) rotate(-90.000000) translate(-629.248264, -174.210069) "></path>
                    <path d="M597.595002,102.696181 C598.008456,102.696181 598.382583,102.865509 598.653851,103.136776 C598.926263,103.409188 599.095486,103.784703 599.095486,104.196665 L599.095486,104.196665 L599.095486,142.556807 C599.095486,142.970262 598.926158,143.344389 598.65489,143.615656 C598.382479,143.888068 598.006964,144.057292 597.595002,144.057292 L597.595002,144.057292 L559.234859,144.057292 C558.821405,144.057292 558.447278,143.887964 558.17601,143.616696 C557.903598,143.344284 557.734375,142.968769 557.734375,142.556807 L557.734375,142.556807 L557.734375,104.196665 C557.734375,103.78321 557.903703,103.409084 558.174971,103.137816 C558.447383,102.865404 558.822897,102.696181 559.234859,102.696181 L559.234859,102.696181 Z" id="Rectangle-4-Copy-12" transform="translate(578.414931, 123.376736) rotate(-90.000000) translate(-578.414931, -123.376736) "></path>
                    <path d="M648.428335,102.696181 C648.84179,102.696181 649.215916,102.865509 649.487184,103.136776 C649.759596,103.409188 649.928819,103.784703 649.928819,104.196665 L649.928819,104.196665 L649.928819,142.556807 C649.928819,142.970262 649.759491,143.344389 649.488224,143.615656 C649.215812,143.888068 648.840297,144.057292 648.428335,144.057292 L648.428335,144.057292 L610.068193,144.057292 C609.654738,144.057292 609.280611,143.887964 609.009344,143.616696 C608.736932,143.344284 608.567708,142.968769 608.567708,142.556807 L608.567708,142.556807 L608.567708,104.196665 C608.567708,103.78321 608.737036,103.409084 609.008304,103.137816 C609.280716,102.865404 609.656231,102.696181 610.068193,102.696181 L610.068193,102.696181 Z" id="Rectangle-4-Copy-17" transform="translate(629.248264, 123.376736) rotate(-90.000000) translate(-629.248264, -123.376736) "></path>
                    <rect id="Rectangle-4-Copy-11" transform="translate(578.414931, 174.210069) rotate(-90.000000) translate(-578.414931, -174.210069) " x="557.734375" y="153.529514" width="41.3611111" height="41.3611111" rx="2"></rect>
                    <path d="M546.761669,102.696181 C547.175123,102.696181 547.54925,102.865509 547.820517,103.136776 C548.092929,103.409188 548.262153,103.784703 548.262153,104.196665 L548.262153,104.196665 L548.262153,142.556807 C548.262153,142.970262 548.092825,143.344389 547.821557,143.615656 C547.549145,143.888068 547.17363,144.057292 546.761669,144.057292 L546.761669,144.057292 L508.401526,144.057292 C507.988071,144.057292 507.613945,143.887964 507.342677,143.616696 C507.070265,143.344284 506.901042,142.968769 506.901042,142.556807 L506.901042,142.556807 L506.901042,104.196665 C506.901042,103.78321 507.07037,103.409084 507.341637,103.137816 C507.614049,102.865404 507.989564,102.696181 508.401526,102.696181 L508.401526,102.696181 Z" id="Rectangle-4-Copy-10" transform="translate(527.581597, 123.376736) rotate(-90.000000) translate(-527.581597, -123.376736) "></path>
                    <path d="M648.428335,51.8628472 C648.84179,51.8628472 649.215916,52.0321752 649.487184,52.3034429 C649.759596,52.5758547 649.928819,52.9513695 649.928819,53.3633315 L649.928819,53.3633315 L649.928819,91.7234741 C649.928819,92.1369287 649.759491,92.5110553 649.488224,92.7823231 C649.215812,93.0547348 648.840297,93.2239583 648.428335,93.2239583 L648.428335,93.2239583 L610.068193,93.2239583 C609.654738,93.2239583 609.280611,93.0546304 609.009344,92.7833626 C608.736932,92.5109508 608.567708,92.135436 608.567708,91.7234741 L608.567708,91.7234741 L608.567708,53.3633315 C608.567708,52.9498769 608.737036,52.5757503 609.008304,52.3044825 C609.280716,52.0320707 609.656231,51.8628472 610.068193,51.8628472 L610.068193,51.8628472 Z" id="Rectangle-4-Copy-16" transform="translate(629.248264, 72.543403) rotate(-90.000000) translate(-629.248264, -72.543403) "></path>
                    <path d="M699.261669,51.8628472 C699.675123,51.8628472 700.04925,52.0321752 700.320517,52.3034429 C700.592929,52.5758547 700.762153,52.9513695 700.762153,53.3633315 L700.762153,53.3633315 L700.762153,91.7234741 C700.762153,92.1369287 700.592825,92.5110553 700.321557,92.7823231 C700.049145,93.0547348 699.67363,93.2239583 699.261669,93.2239583 L699.261669,93.2239583 L660.901526,93.2239583 C660.488071,93.2239583 660.113945,93.0546304 659.842677,92.7833626 C659.570265,92.5109508 659.401042,92.135436 659.401042,91.7234741 L659.401042,91.7234741 L659.401042,53.3633315 C659.401042,52.9498769 659.57037,52.5757503 659.841637,52.3044825 C660.114049,52.0320707 660.489564,51.8628472 660.901526,51.8628472 L660.901526,51.8628472 Z" id="Rectangle-4-Copy-19" transform="translate(680.081597, 72.543403) rotate(-90.000000) translate(-680.081597, -72.543403) "></path>
                    <rect id="Rectangle-4-Copy-35" transform="translate(426.973958, 225.890625) rotate(-90.000000) translate(-426.973958, -225.890625) " x="406.293403" y="205.210069" width="41.3611111" height="41.3611111" rx="2"></rect>
                    <path d="M395.320696,255.196181 C395.734151,255.196181 396.108278,255.365509 396.379545,255.636776 C396.651957,255.909188 396.821181,256.284703 396.821181,256.696665 L396.821181,256.696665 L396.821181,295.056807 C396.821181,295.470262 396.651853,295.844389 396.380585,296.115656 C396.108173,296.388068 395.732658,296.557292 395.320696,296.557292 L395.320696,296.557292 L356.960554,296.557292 C356.547099,296.557292 356.172972,296.387964 355.901705,296.116696 C355.629293,295.844284 355.460069,295.468769 355.460069,295.056807 L355.460069,295.056807 L355.460069,256.696665 C355.460069,256.28321 355.629397,255.909084 355.900665,255.637816 C356.173077,255.365404 356.548592,255.196181 356.960554,255.196181 L356.960554,255.196181 Z" id="Rectangle-4-Copy-34" transform="translate(376.140625, 275.876736) rotate(-90.000000) translate(-376.140625, -275.876736) "></path>
                    <rect id="Rectangle-4-Copy-33" transform="translate(426.973958, 328.404514) rotate(-90.000000) translate(-426.973958, -328.404514) " x="406.293403" y="307.723958" width="41.3611111" height="41.3611111" rx="2"></rect>
                    <rect id="Rectangle-4-Copy-32" transform="translate(376.140625, 327.769097) rotate(-90.000000) translate(-376.140625, -327.769097) " x="355.460069" y="307.088542" width="41.3611111" height="41.3611111" rx="2"></rect>
                    <path d="M446.15403,358.980903 C446.567484,358.980903 446.941611,359.150231 447.212879,359.421498 C447.48529,359.69391 447.654514,360.069425 447.654514,360.481387 L447.654514,360.481387 L447.654514,398.84153 C447.654514,399.254984 447.485186,399.629111 447.213918,399.900379 C446.941506,400.17279 446.565992,400.342014 446.15403,400.342014 L446.15403,400.342014 L407.793887,400.342014 C407.380432,400.342014 407.006306,400.172686 406.735038,399.901418 C406.462626,399.629006 406.293403,399.253492 406.293403,398.84153 L406.293403,398.84153 L406.293403,360.481387 C406.293403,360.067932 406.462731,359.693806 406.733998,359.422538 C407.00641,359.150126 407.381925,358.980903 407.793887,358.980903 L407.793887,358.980903 Z" id="Rectangle-4-Copy-31" transform="translate(426.973958, 379.661458) rotate(-90.000000) translate(-426.973958, -379.661458) "></path>
                    <path d="M395.320696,204.362847 C395.734151,204.362847 396.108278,204.532175 396.379545,204.803443 C396.651957,205.075855 396.821181,205.45137 396.821181,205.863331 L396.821181,205.863331 L396.821181,244.223474 C396.821181,244.636929 396.651853,245.011055 396.380585,245.282323 C396.108173,245.554735 395.732658,245.723958 395.320696,245.723958 L395.320696,245.723958 L356.960554,245.723958 C356.547099,245.723958 356.172972,245.55463 355.901705,245.283363 C355.629293,245.010951 355.460069,244.635436 355.460069,244.223474 L355.460069,244.223474 L355.460069,205.863331 C355.460069,205.449877 355.629397,205.07575 355.900665,204.804483 C356.173077,204.532071 356.548592,204.362847 356.960554,204.362847 L356.960554,204.362847 Z" id="Rectangle-4-Copy-30" transform="translate(376.140625, 225.043403) rotate(-90.000000) translate(-376.140625, -225.043403) "></path>
                    <path d="M446.15403,102.696181 C446.567484,102.696181 446.941611,102.865509 447.212879,103.136776 C447.48529,103.409188 447.654514,103.784703 447.654514,104.196665 L447.654514,104.196665 L447.654514,142.556807 C447.654514,142.970262 447.485186,143.344389 447.213918,143.615656 C446.941506,143.888068 446.565992,144.057292 446.15403,144.057292 L446.15403,144.057292 L407.793887,144.057292 C407.380432,144.057292 407.006306,143.887964 406.735038,143.616696 C406.462626,143.344284 406.293403,142.968769 406.293403,142.556807 L406.293403,142.556807 L406.293403,104.196665 C406.293403,103.78321 406.462731,103.409084 406.733998,103.137816 C407.00641,102.865404 407.381925,102.696181 407.793887,102.696181 L407.793887,102.696181 Z" id="Rectangle-4-Copy-29" transform="translate(426.973958, 123.376736) rotate(-90.000000) translate(-426.973958, -123.376736) "></path>
                    <path d="M446.15403,153.953125 C446.567484,153.953125 446.941611,154.122453 447.212879,154.393721 C447.48529,154.666133 447.654514,155.041647 447.654514,155.453609 L447.654514,155.453609 L447.654514,193.813752 C447.654514,194.227206 447.485186,194.601333 447.213918,194.872601 C446.941506,195.145013 446.565992,195.314236 446.15403,195.314236 L446.15403,195.314236 L407.793887,195.314236 C407.380432,195.314236 407.006306,195.144908 406.735038,194.87364 C406.462626,194.601229 406.293403,194.225714 406.293403,193.813752 L406.293403,193.813752 L406.293403,155.453609 C406.293403,155.040155 406.462731,154.666028 406.733998,154.39476 C407.00641,154.122348 407.381925,153.953125 407.793887,153.953125 L407.793887,153.953125 Z" id="Rectangle-4-Copy-28" transform="translate(426.973958, 174.633681) rotate(-90.000000) translate(-426.973958, -174.633681) "></path>
                    <rect id="Rectangle-4-Copy-26" transform="translate(376.140625, 123.376736) rotate(-90.000000) translate(-376.140625, -123.376736) " x="355.460069" y="102.696181" width="41.3611111" height="41.3611111" rx="2"></rect>
                    <rect id="Rectangle-4-Copy-25" transform="translate(376.140625, 72.543403) rotate(-90.000000) translate(-376.140625, -72.543403) " x="355.460069" y="51.8628472" width="41.3611111" height="41.3611111" rx="2"></rect>
                    <path d="M597.595002,1.02951389 C598.008456,1.02951389 598.382583,1.19884185 598.653851,1.4701096 C598.926263,1.74252139 599.095486,2.1180362 599.095486,2.52999815 L599.095486,2.52999815 L599.095486,40.8901407 C599.095486,41.3035954 598.926158,41.677722 598.65489,41.9489897 C598.382479,42.2214015 598.006964,42.390625 597.595002,42.390625 L597.595002,42.390625 L559.234859,42.390625 C558.821405,42.390625 558.447278,42.221297 558.17601,41.9500293 C557.903598,41.6776175 557.734375,41.3021027 557.734375,40.8901407 L557.734375,40.8901407 L557.734375,2.52999815 C557.734375,2.11654353 557.903703,1.74241692 558.174971,1.47114917 C558.447383,1.19873738 558.822897,1.02951389 559.234859,1.02951389 L559.234859,1.02951389 Z" id="Rectangle-4-Copy-15" transform="translate(578.414931, 21.710069) rotate(-90.000000) translate(-578.414931, -21.710069) "></path>
                    <path d="M648.428335,1.02951389 C648.84179,1.02951389 649.215916,1.19884185 649.487184,1.4701096 C649.759596,1.74252139 649.928819,2.1180362 649.928819,2.52999815 L649.928819,2.52999815 L649.928819,40.8901407 C649.928819,41.3035954 649.759491,41.677722 649.488224,41.9489897 C649.215812,42.2214015 648.840297,42.390625 648.428335,42.390625 L648.428335,42.390625 L610.068193,42.390625 C609.654738,42.390625 609.280611,42.221297 609.009344,41.9500293 C608.736932,41.6776175 608.567708,41.3021027 608.567708,40.8901407 L608.567708,40.8901407 L608.567708,2.52999815 C608.567708,2.11654353 608.737036,1.74241692 609.008304,1.47114917 C609.280716,1.19873738 609.656231,1.02951389 610.068193,1.02951389 L610.068193,1.02951389 Z" id="Rectangle-4-Copy-18" transform="translate(629.248264, 21.710069) rotate(-90.000000) translate(-629.248264, -21.710069) "></path>
                    <path d="M698.202641,1.02951389 C698.616095,1.02951389 698.990222,1.19884185 699.26149,1.4701096 C699.533902,1.74252139 699.703125,2.1180362 699.703125,2.52999815 L699.703125,2.52999815 L699.703125,40.8901407 C699.703125,41.3035954 699.533797,41.677722 699.262529,41.9489897 C698.990117,42.2214015 698.614603,42.390625 698.202641,42.390625 L698.202641,42.390625 L659.842498,42.390625 C659.429044,42.390625 659.054917,42.221297 658.783649,41.9500293 C658.511237,41.6776175 658.342014,41.3021027 658.342014,40.8901407 L658.342014,40.8901407 L658.342014,2.52999815 C658.342014,2.11654353 658.511342,1.74241692 658.78261,1.47114917 C659.055021,1.19873738 659.430536,1.02951389 659.842498,1.02951389 L659.842498,1.02951389 Z" id="Rectangle-4-Copy-63" transform="translate(679.022569, 21.710069) rotate(-90.000000) translate(-679.022569, -21.710069) "></path>
                    <path d="M597.595002,51.8628472 C598.008456,51.8628472 598.382583,52.0321752 598.653851,52.3034429 C598.926263,52.5758547 599.095486,52.9513695 599.095486,53.3633315 L599.095486,53.3633315 L599.095486,91.7234741 C599.095486,92.1369287 598.926158,92.5110553 598.65489,92.7823231 C598.382479,93.0547348 598.006964,93.2239583 597.595002,93.2239583 L597.595002,93.2239583 L559.234859,93.2239583 C558.821405,93.2239583 558.447278,93.0546304 558.17601,92.7833626 C557.903598,92.5109508 557.734375,92.135436 557.734375,91.7234741 L557.734375,91.7234741 L557.734375,53.3633315 C557.734375,52.9498769 557.903703,52.5757503 558.174971,52.3044825 C558.447383,52.0320707 558.822897,51.8628472 559.234859,51.8628472 L559.234859,51.8628472 Z" id="Rectangle-4-Copy-14" transform="translate(578.414931, 72.543403) rotate(-90.000000) translate(-578.414931, -72.543403) "></path>
                    <rect id="Rectangle-4-Copy-20" transform="translate(477.807292, 72.543403) rotate(-90.000000) translate(-477.807292, -72.543403) " x="457.126736" y="51.8628472" width="41.3611111" height="41.3611111" rx="2"></rect>
                    <path d="M546.761669,1.02951389 C547.175123,1.02951389 547.54925,1.19884185 547.820517,1.4701096 C548.092929,1.74252139 548.262153,2.1180362 548.262153,2.52999815 L548.262153,2.52999815 L548.262153,40.8901407 C548.262153,41.3035954 548.092825,41.677722 547.821557,41.9489897 C547.549145,42.2214015 547.17363,42.390625 546.761669,42.390625 L546.761669,42.390625 L508.401526,42.390625 C507.988071,42.390625 507.613945,42.221297 507.342677,41.9500293 C507.070265,41.6776175 506.901042,41.3021027 506.901042,40.8901407 L506.901042,40.8901407 L506.901042,2.52999815 C506.901042,2.11654353 507.07037,1.74241692 507.341637,1.47114917 C507.614049,1.19873738 507.989564,1.02951389 508.401526,1.02951389 L508.401526,1.02951389 Z" id="Rectangle-4-Copy-13" transform="translate(527.581597, 21.710069) rotate(-90.000000) translate(-527.581597, -21.710069) "></path>
                    <rect id="Rectangle-4-Copy-23" transform="translate(426.973958, 21.710069) rotate(-90.000000) translate(-426.973958, -21.710069) " x="406.293403" y="1.02951389" width="41.3611111" height="41.3611111" rx="2"></rect>
                    <path d="M496.987363,1.02951389 C497.400818,1.02951389 497.774944,1.19884185 498.046212,1.4701096 C498.318624,1.74252139 498.487847,2.1180362 498.487847,2.52999815 L498.487847,2.52999815 L498.487847,40.8901407 C498.487847,41.3035954 498.318519,41.677722 498.047252,41.9489897 C497.77484,42.2214015 497.399325,42.390625 496.987363,42.390625 L496.987363,42.390625 L458.62722,42.390625 C458.213766,42.390625 457.839639,42.221297 457.568371,41.9500293 C457.29596,41.6776175 457.126736,41.3021027 457.126736,40.8901407 L457.126736,40.8901407 L457.126736,2.52999815 C457.126736,2.11654353 457.296064,1.74241692 457.567332,1.47114917 C457.839744,1.19873738 458.215258,1.02951389 458.62722,1.02951389 L458.62722,1.02951389 Z" id="Rectangle-4-Copy-22" transform="translate(477.807292, 21.710069) rotate(-90.000000) translate(-477.807292, -21.710069) "></path>
                    <rect id="Rectangle-4-Copy-21" transform="translate(376.140625, 21.710069) rotate(-90.000000) translate(-376.140625, -21.710069) " x="355.460069" y="1.02951389" width="41.3611111" height="41.3611111" rx="2"></rect>
                    <path d="M290.476946,1.02951389 C290.890401,1.02951389 291.264528,1.19884185 291.535795,1.4701096 C291.808207,1.74252139 291.977431,2.1180362 291.977431,2.52999815 L291.977431,2.52999815 L291.977431,40.8901407 C291.977431,41.3035954 291.808103,41.677722 291.536835,41.9489897 C291.264423,42.2214015 290.888908,42.390625 290.476946,42.390625 L290.476946,42.390625 L252.116804,42.390625 C251.703349,42.390625 251.329222,42.221297 251.057955,41.9500293 C250.785543,41.6776175 250.616319,41.3021027 250.616319,40.8901407 L250.616319,40.8901407 L250.616319,2.52999815 C250.616319,2.11654353 250.785647,1.74241692 251.056915,1.47114917 C251.329327,1.19873738 251.704842,1.02951389 252.116804,1.02951389 L252.116804,1.02951389 Z" id="Rectangle-4-Copy-57" transform="translate(271.296875, 21.710069) rotate(-90.000000) translate(-271.296875, -21.710069) "></path>
                    <path d="M341.31028,1.02951389 C341.723734,1.02951389 342.097861,1.19884185 342.369129,1.4701096 C342.64154,1.74252139 342.810764,2.1180362 342.810764,2.52999815 L342.810764,2.52999815 L342.810764,40.8901407 C342.810764,41.3035954 342.641436,41.677722 342.370168,41.9489897 C342.097756,42.2214015 341.722242,42.390625 341.31028,42.390625 L341.31028,42.390625 L302.950137,42.390625 C302.536682,42.390625 302.162556,42.221297 301.891288,41.9500293 C301.618876,41.6776175 301.449653,41.3021027 301.449653,40.8901407 L301.449653,40.8901407 L301.449653,2.52999815 C301.449653,2.11654353 301.618981,1.74241692 301.890248,1.47114917 C302.16266,1.19873738 302.538175,1.02951389 302.950137,1.02951389 L302.950137,1.02951389 Z" id="Rectangle-4-Copy-56" transform="translate(322.130208, 21.710069) rotate(-90.000000) translate(-322.130208, -21.710069) "></path>
                    <path d="M239.643613,1.02951389 C240.057068,1.02951389 240.431194,1.19884185 240.702462,1.4701096 C240.974874,1.74252139 241.144097,2.1180362 241.144097,2.52999815 L241.144097,2.52999815 L241.144097,40.8901407 C241.144097,41.3035954 240.974769,41.677722 240.703502,41.9489897 C240.43109,42.2214015 240.055575,42.390625 239.643613,42.390625 L239.643613,42.390625 L201.28347,42.390625 C200.870016,42.390625 200.495889,42.221297 200.224621,41.9500293 C199.95221,41.6776175 199.782986,41.3021027 199.782986,40.8901407 L199.782986,40.8901407 L199.782986,2.52999815 C199.782986,2.11654353 199.952314,1.74241692 200.223582,1.47114917 C200.495994,1.19873738 200.871508,1.02951389 201.28347,1.02951389 L201.28347,1.02951389 Z" id="Rectangle-4-Copy-55" transform="translate(220.463542, 21.710069) rotate(-90.000000) translate(-220.463542, -21.710069) "></path>
                    <path d="M139.035974,1.02951389 C139.449429,1.02951389 139.823555,1.19884185 140.094823,1.4701096 C140.367235,1.74252139 140.536458,2.1180362 140.536458,2.52999815 L140.536458,2.52999815 L140.536458,40.8901407 C140.536458,41.3035954 140.36713,41.677722 140.095863,41.9489897 C139.823451,42.2214015 139.447936,42.390625 139.035974,42.390625 L139.035974,42.390625 L100.675831,42.390625 C100.262377,42.390625 99.8882503,42.221297 99.6169825,41.9500293 C99.3445707,41.6776175 99.1753472,41.3021027 99.1753472,40.8901407 L99.1753472,40.8901407 L99.1753472,2.52999815 C99.1753472,2.11654353 99.3446752,1.74241692 99.6159429,1.47114917 C99.8883547,1.19873738 100.26387,1.02951389 100.675831,1.02951389 L100.675831,1.02951389 Z" id="Rectangle-4-Copy-50" transform="translate(119.855903, 21.710069) rotate(-90.000000) translate(-119.855903, -21.710069) "></path>
                    <path d="M189.869307,1.02951389 C190.282762,1.02951389 190.656889,1.19884185 190.928156,1.4701096 C191.200568,1.74252139 191.369792,2.1180362 191.369792,2.52999815 L191.369792,2.52999815 L191.369792,40.8901407 C191.369792,41.3035954 191.200464,41.677722 190.929196,41.9489897 C190.656784,42.2214015 190.281269,42.390625 189.869307,42.390625 L189.869307,42.390625 L151.509165,42.390625 C151.09571,42.390625 150.721584,42.221297 150.450316,41.9500293 C150.177904,41.6776175 150.008681,41.3021027 150.008681,40.8901407 L150.008681,40.8901407 L150.008681,2.52999815 C150.008681,2.11654353 150.178009,1.74241692 150.449276,1.47114917 C150.721688,1.19873738 151.097203,1.02951389 151.509165,1.02951389 L151.509165,1.02951389 Z" id="Rectangle-4-Copy-36" transform="translate(170.689236, 21.710069) rotate(-90.000000) translate(-170.689236, -21.710069) "></path>
                    <path d="M88.2026407,1.02951389 C88.6160954,1.02951389 88.990222,1.19884185 89.2614897,1.4701096 C89.5339015,1.74252139 89.703125,2.1180362 89.703125,2.52999815 L89.703125,2.52999815 L89.703125,40.8901407 C89.703125,41.3035954 89.533797,41.677722 89.2625293,41.9489897 C88.9901175,42.2214015 88.6146027,42.390625 88.2026407,42.390625 L88.2026407,42.390625 L49.8424982,42.390625 C49.4290435,42.390625 49.0549169,42.221297 48.7836492,41.9500293 C48.5112374,41.6776175 48.3420139,41.3021027 48.3420139,40.8901407 L48.3420139,40.8901407 L48.3420139,2.52999815 C48.3420139,2.11654353 48.5113419,1.74241692 48.7826096,1.47114917 C49.0550214,1.19873738 49.4305362,1.02951389 49.8424982,1.02951389 L49.8424982,1.02951389 Z" id="Rectangle-4-Copy-27" transform="translate(69.022569, 21.710069) rotate(-90.000000) translate(-69.022569, -21.710069) "></path>
                    <path d="M344.487363,204.362847 C344.900818,204.362847 345.274944,204.532175 345.546212,204.803443 C345.818624,205.075855 345.987847,205.45137 345.987847,205.863331 L345.987847,205.863331 L345.987847,244.223474 C345.987847,244.636929 345.818519,245.011055 345.547252,245.282323 C345.27484,245.554735 344.899325,245.723958 344.487363,245.723958 L344.487363,245.723958 L306.12722,245.723958 C305.713766,245.723958 305.339639,245.55463 305.068371,245.283363 C304.79596,245.010951 304.626736,244.635436 304.626736,244.223474 L304.626736,244.223474 L304.626736,205.863331 C304.626736,205.449877 304.796064,205.07575 305.067332,204.804483 C305.339744,204.532071 305.715258,204.362847 306.12722,204.362847 L306.12722,204.362847 Z" id="Rectangle-4-Copy-54" transform="translate(325.307292, 225.043403) rotate(-90.000000) translate(-325.307292, -225.043403) "></path>
                    <path d="M242.820696,204.362847 C243.234151,204.362847 243.608278,204.532175 243.879545,204.803443 C244.151957,205.075855 244.321181,205.45137 244.321181,205.863331 L244.321181,205.863331 L244.321181,244.223474 C244.321181,244.636929 244.151853,245.011055 243.880585,245.282323 C243.608173,245.554735 243.232658,245.723958 242.820696,245.723958 L242.820696,245.723958 L204.460554,245.723958 C204.047099,245.723958 203.672972,245.55463 203.401705,245.283363 C203.129293,245.010951 202.960069,244.635436 202.960069,244.223474 L202.960069,244.223474 L202.960069,205.863331 C202.960069,205.449877 203.129397,205.07575 203.400665,204.804483 C203.673077,204.532071 204.048592,204.362847 204.460554,204.362847 L204.460554,204.362847 Z" id="Rectangle-4-Copy-53" transform="translate(223.640625, 225.043403) rotate(-90.000000) translate(-223.640625, -225.043403) "></path>
                    <path d="M293.65403,204.362847 C294.067484,204.362847 294.441611,204.532175 294.712879,204.803443 C294.98529,205.075855 295.154514,205.45137 295.154514,205.863331 L295.154514,205.863331 L295.154514,244.223474 C295.154514,244.636929 294.985186,245.011055 294.713918,245.282323 C294.441506,245.554735 294.065992,245.723958 293.65403,245.723958 L293.65403,245.723958 L255.293887,245.723958 C254.880432,245.723958 254.506306,245.55463 254.235038,245.283363 C253.962626,245.010951 253.793403,244.635436 253.793403,244.223474 L253.793403,244.223474 L253.793403,205.863331 C253.793403,205.449877 253.962731,205.07575 254.233998,204.804483 C254.50641,204.532071 254.881925,204.362847 255.293887,204.362847 L255.293887,204.362847 Z" id="Rectangle-4-Copy-52" transform="translate(274.473958, 225.043403) rotate(-90.000000) translate(-274.473958, -225.043403) "></path>
                    <rect id="Rectangle-4-Copy-51" transform="translate(172.807292, 225.043403) rotate(-90.000000) translate(-172.807292, -225.043403) " x="152.126736" y="204.362847" width="41.3611111" height="41.3611111" rx="2"></rect>
                    <path d="M344.487363,153.529514 C344.900818,153.529514 345.274944,153.698842 345.546212,153.97011 C345.818624,154.242521 345.987847,154.618036 345.987847,155.029998 L345.987847,155.029998 L345.987847,193.390141 C345.987847,193.803595 345.818519,194.177722 345.547252,194.44899 C345.27484,194.721402 344.899325,194.890625 344.487363,194.890625 L344.487363,194.890625 L306.12722,194.890625 C305.713766,194.890625 305.339639,194.721297 305.068371,194.450029 C304.79596,194.177617 304.626736,193.802103 304.626736,193.390141 L304.626736,193.390141 L304.626736,155.029998 C304.626736,154.616544 304.796064,154.242417 305.067332,153.971149 C305.339744,153.698737 305.715258,153.529514 306.12722,153.529514 L306.12722,153.529514 Z" id="Rectangle-4-Copy-49" transform="translate(325.307292, 174.210069) rotate(-90.000000) translate(-325.307292, -174.210069) "></path>
                    <path d="M41.6054185,356.862847 C42.0188731,356.862847 42.3929997,357.032175 42.6642675,357.303443 C42.9366793,357.575855 43.1059028,357.95137 43.1059028,358.363331 L43.1059028,358.363331 L43.1059028,396.723474 C43.1059028,397.136929 42.9365748,397.511055 42.6653071,397.782323 C42.3928953,398.054735 42.0173805,398.223958 41.6054185,398.223958 L41.6054185,398.223958 L3.24527593,398.223958 C2.83182131,398.223958 2.4576947,398.05463 2.18642695,397.783363 C1.91401516,397.510951 1.74479167,397.135436 1.74479167,396.723474 L1.74479167,396.723474 L1.74479167,358.363331 C1.74479167,357.949877 1.91411963,357.57575 2.18538738,357.304483 C2.45779917,357.032071 2.83331398,356.862847 3.24527593,356.862847 L3.24527593,356.862847 Z" id="Rectangle-4-Copy-48" transform="translate(22.425347, 377.543403) rotate(-90.000000) translate(-22.425347, -377.543403) "></path>
                    <path d="M40.5463907,153.529514 C40.9598454,153.529514 41.333972,153.698842 41.6052397,153.97011 C41.8776515,154.242521 42.046875,154.618036 42.046875,155.029998 L42.046875,155.029998 L42.046875,193.390141 C42.046875,193.803595 41.877547,194.177722 41.6062793,194.44899 C41.3338675,194.721402 40.9583527,194.890625 40.5463907,194.890625 L40.5463907,194.890625 L2.18624815,194.890625 C1.77279353,194.890625 1.39866692,194.721297 1.12739917,194.450029 C0.85498738,194.177617 0.685763889,193.802103 0.685763889,193.390141 L0.685763889,193.390141 L0.685763889,155.029998 C0.685763889,154.616544 0.855091853,154.242417 1.1263596,153.971149 C1.39877139,153.698737 1.7742862,153.529514 2.18624815,153.529514 L2.18624815,153.529514 Z" id="Rectangle-4-Copy-46" transform="translate(21.366319, 174.210069) rotate(-90.000000) translate(-21.366319, -174.210069) "></path>
                    <path d="M91.3797241,153.529514 C91.7931787,153.529514 92.1673053,153.698842 92.4385731,153.97011 C92.7109848,154.242521 92.8802083,154.618036 92.8802083,155.029998 L92.8802083,155.029998 L92.8802083,193.390141 C92.8802083,193.803595 92.7108804,194.177722 92.4396126,194.44899 C92.1672008,194.721402 91.791686,194.890625 91.3797241,194.890625 L91.3797241,194.890625 L53.0195815,194.890625 C52.6061269,194.890625 52.2320003,194.721297 51.9607325,194.450029 C51.6883207,194.177617 51.5190972,193.802103 51.5190972,193.390141 L51.5190972,193.390141 L51.5190972,155.029998 C51.5190972,154.616544 51.6884252,154.242417 51.9596929,153.971149 C52.2321047,153.698737 52.6076195,153.529514 53.0195815,153.529514 L53.0195815,153.529514 Z" id="Rectangle-4-Copy-45" transform="translate(72.199653, 174.210069) rotate(-90.000000) translate(-72.199653, -174.210069) "></path>
                    <path d="M242.820696,102.696181 C243.234151,102.696181 243.608278,102.865509 243.879545,103.136776 C244.151957,103.409188 244.321181,103.784703 244.321181,104.196665 L244.321181,104.196665 L244.321181,142.556807 C244.321181,142.970262 244.151853,143.344389 243.880585,143.615656 C243.608173,143.888068 243.232658,144.057292 242.820696,144.057292 L242.820696,144.057292 L204.460554,144.057292 C204.047099,144.057292 203.672972,143.887964 203.401705,143.616696 C203.129293,143.344284 202.960069,142.968769 202.960069,142.556807 L202.960069,142.556807 L202.960069,104.196665 C202.960069,103.78321 203.129397,103.409084 203.400665,103.137816 C203.673077,102.865404 204.048592,102.696181 204.460554,102.696181 L204.460554,102.696181 Z" id="Rectangle-4-Copy-44" transform="translate(223.640625, 123.376736) rotate(-90.000000) translate(-223.640625, -123.376736) "></path>
                    <rect id="Rectangle-4-Copy-43" transform="translate(172.807292, 122.847222) rotate(-90.000000) translate(-172.807292, -122.847222) " x="152.126736" y="102.166667" width="41.3611111" height="41.3611111" rx="2"></rect>
                    <path d="M242.820696,153.529514 C243.234151,153.529514 243.608278,153.698842 243.879545,153.97011 C244.151957,154.242521 244.321181,154.618036 244.321181,155.029998 L244.321181,155.029998 L244.321181,193.390141 C244.321181,193.803595 244.151853,194.177722 243.880585,194.44899 C243.608173,194.721402 243.232658,194.890625 242.820696,194.890625 L242.820696,194.890625 L204.460554,194.890625 C204.047099,194.890625 203.672972,194.721297 203.401705,194.450029 C203.129293,194.177617 202.960069,193.802103 202.960069,193.390141 L202.960069,193.390141 L202.960069,155.029998 C202.960069,154.616544 203.129397,154.242417 203.400665,153.971149 C203.673077,153.698737 204.048592,153.529514 204.460554,153.529514 L204.460554,153.529514 Z" id="Rectangle-4-Copy-42" transform="translate(223.640625, 174.210069) rotate(-90.000000) translate(-223.640625, -174.210069) "></path>
                    <path d="M91.3797241,306.029514 C91.7931787,306.029514 92.1673053,306.198842 92.4385731,306.47011 C92.7109848,306.742521 92.8802083,307.118036 92.8802083,307.529998 L92.8802083,307.529998 L92.8802083,345.890141 C92.8802083,346.303595 92.7108804,346.677722 92.4396126,346.94899 C92.1672008,347.221402 91.791686,347.390625 91.3797241,347.390625 L91.3797241,347.390625 L53.0195815,347.390625 C52.6061269,347.390625 52.2320003,347.221297 51.9607325,346.950029 C51.6883207,346.677617 51.5190972,346.302103 51.5190972,345.890141 L51.5190972,345.890141 L51.5190972,307.529998 C51.5190972,307.116544 51.6884252,306.742417 51.9596929,306.471149 C52.2321047,306.198737 52.6076195,306.029514 53.0195815,306.029514 L53.0195815,306.029514 Z" id="Rectangle-4-Copy-41" transform="translate(72.199653, 326.710069) rotate(-90.000000) translate(-72.199653, -326.710069) "></path>
                    <path d="M141.15403,255.196181 C141.567484,255.196181 141.941611,255.365509 142.212879,255.636776 C142.48529,255.909188 142.654514,256.284703 142.654514,256.696665 L142.654514,256.696665 L142.654514,295.056807 C142.654514,295.470262 142.485186,295.844389 142.213918,296.115656 C141.941506,296.388068 141.565992,296.557292 141.15403,296.557292 L141.15403,296.557292 L102.793887,296.557292 C102.380432,296.557292 102.006306,296.387964 101.735038,296.116696 C101.462626,295.844284 101.293403,295.468769 101.293403,295.056807 L101.293403,295.056807 L101.293403,256.696665 C101.293403,256.28321 101.462731,255.909084 101.733998,255.637816 C102.00641,255.365404 102.381925,255.196181 102.793887,255.196181 L102.793887,255.196181 Z" id="Rectangle-4-Copy-40" transform="translate(121.973958, 275.876736) rotate(-90.000000) translate(-121.973958, -275.876736) "></path>
                    <path d="M91.3797241,102.696181 C91.7931787,102.696181 92.1673053,102.865509 92.4385731,103.136776 C92.7109848,103.409188 92.8802083,103.784703 92.8802083,104.196665 L92.8802083,104.196665 L92.8802083,142.556807 C92.8802083,142.970262 92.7108804,143.344389 92.4396126,143.615656 C92.1672008,143.888068 91.791686,144.057292 91.3797241,144.057292 L91.3797241,144.057292 L53.0195815,144.057292 C52.6061269,144.057292 52.2320003,143.887964 51.9607325,143.616696 C51.6883207,143.344284 51.5190972,142.968769 51.5190972,142.556807 L51.5190972,142.556807 L51.5190972,104.196665 C51.5190972,103.78321 51.6884252,103.409084 51.9596929,103.137816 C52.2321047,102.865404 52.6076195,102.696181 53.0195815,102.696181 L53.0195815,102.696181 Z" id="Rectangle-4-Copy-39" transform="translate(72.199653, 123.376736) rotate(-90.000000) translate(-72.199653, -123.376736) "></path>
                    <path d="M142.213057,102.696181 C142.626512,102.696181 143.000639,102.865509 143.271906,103.136776 C143.544318,103.409188 143.713542,103.784703 143.713542,104.196665 L143.713542,104.196665 L143.713542,142.556807 C143.713542,142.970262 143.544214,143.344389 143.272946,143.615656 C143.000534,143.888068 142.625019,144.057292 142.213057,144.057292 L142.213057,144.057292 L103.852915,144.057292 C103.43946,144.057292 103.065334,143.887964 102.794066,143.616696 C102.521654,143.344284 102.352431,142.968769 102.352431,142.556807 L102.352431,142.556807 L102.352431,104.196665 C102.352431,103.78321 102.521759,103.409084 102.793026,103.137816 C103.065438,102.865404 103.440953,102.696181 103.852915,102.696181 L103.852915,102.696181 Z" id="Rectangle-4-Copy-38" transform="translate(123.032986, 123.376736) rotate(-90.000000) translate(-123.032986, -123.376736) "></path>
                    <path d="M40.5463907,102.696181 C40.9598454,102.696181 41.333972,102.865509 41.6052397,103.136776 C41.8776515,103.409188 42.046875,103.784703 42.046875,104.196665 L42.046875,104.196665 L42.046875,142.556807 C42.046875,142.970262 41.877547,143.344389 41.6062793,143.615656 C41.3338675,143.888068 40.9583527,144.057292 40.5463907,144.057292 L40.5463907,144.057292 L2.18624815,144.057292 C1.77279353,144.057292 1.39866692,143.887964 1.12739917,143.616696 C0.85498738,143.344284 0.685763889,142.968769 0.685763889,142.556807 L0.685763889,142.556807 L0.685763889,104.196665 C0.685763889,103.78321 0.855091853,103.409084 1.1263596,103.137816 C1.39877139,102.865404 1.7742862,102.696181 2.18624815,102.696181 L2.18624815,102.696181 Z" id="Rectangle-4-Copy-37" transform="translate(21.366319, 123.376736) rotate(-90.000000) translate(-21.366319, -123.376736) "></path>
                    <rect id="Rectangle-4-Copy-62" transform="translate(322.130208, 72.543403) rotate(-90.000000) translate(-322.130208, -72.543403) " x="301.449653" y="51.8628472" width="41.3611111" height="41.3611111" rx="2"></rect>
                    <path d="M290.476946,51.3333333 C290.890401,51.3333333 291.264528,51.5026613 291.535795,51.773929 C291.808207,52.0463408 291.977431,52.4218556 291.977431,52.8338176 L291.977431,52.8338176 L291.977431,91.1939602 C291.977431,91.6074148 291.808103,91.9815414 291.536835,92.2528092 C291.264423,92.525221 290.888908,92.6944444 290.476946,92.6944444 L290.476946,92.6944444 L252.116804,92.6944444 C251.703349,92.6944444 251.329222,92.5251165 251.057955,92.2538487 C250.785543,91.9814369 250.616319,91.6059221 250.616319,91.1939602 L250.616319,91.1939602 L250.616319,52.8338176 C250.616319,52.420363 250.785647,52.0462364 251.056915,51.7749686 C251.329327,51.5025568 251.704842,51.3333333 252.116804,51.3333333 L252.116804,51.3333333 Z" id="Rectangle-4-Copy-61" transform="translate(271.296875, 72.013889) rotate(-90.000000) translate(-271.296875, -72.013889) "></path>
                    <path d="M189.869307,51.8628472 C190.282762,51.8628472 190.656889,52.0321752 190.928156,52.3034429 C191.200568,52.5758547 191.369792,52.9513695 191.369792,53.3633315 L191.369792,53.3633315 L191.369792,91.7234741 C191.369792,92.1369287 191.200464,92.5110553 190.929196,92.7823231 C190.656784,93.0547348 190.281269,93.2239583 189.869307,93.2239583 L189.869307,93.2239583 L151.509165,93.2239583 C151.09571,93.2239583 150.721584,93.0546304 150.450316,92.7833626 C150.177904,92.5109508 150.008681,92.135436 150.008681,91.7234741 L150.008681,91.7234741 L150.008681,53.3633315 C150.008681,52.9498769 150.178009,52.5757503 150.449276,52.3044825 C150.721688,52.0320707 151.097203,51.8628472 151.509165,51.8628472 L151.509165,51.8628472 Z" id="Rectangle-4-Copy-60" transform="translate(170.689236, 72.543403) rotate(-90.000000) translate(-170.689236, -72.543403) "></path>
                    <path d="M240.702641,51.8628472 C241.116095,51.8628472 241.490222,52.0321752 241.76149,52.3034429 C242.033902,52.5758547 242.203125,52.9513695 242.203125,53.3633315 L242.203125,53.3633315 L242.203125,91.7234741 C242.203125,92.1369287 242.033797,92.5110553 241.762529,92.7823231 C241.490117,93.0547348 241.114603,93.2239583 240.702641,93.2239583 L240.702641,93.2239583 L202.342498,93.2239583 C201.929044,93.2239583 201.554917,93.0546304 201.283649,92.7833626 C201.011237,92.5109508 200.842014,92.135436 200.842014,91.7234741 L200.842014,91.7234741 L200.842014,53.3633315 C200.842014,52.9498769 201.011342,52.5757503 201.28261,52.3044825 C201.555021,52.0320707 201.930536,51.8628472 202.342498,51.8628472 L202.342498,51.8628472 Z" id="Rectangle-4-Copy-59" transform="translate(221.522569, 72.543403) rotate(-90.000000) translate(-221.522569, -72.543403) "></path>
                    <path d="M139.035974,51.8628472 C139.449429,51.8628472 139.823555,52.0321752 140.094823,52.3034429 C140.367235,52.5758547 140.536458,52.9513695 140.536458,53.3633315 L140.536458,53.3633315 L140.536458,91.7234741 C140.536458,92.1369287 140.36713,92.5110553 140.095863,92.7823231 C139.823451,93.0547348 139.447936,93.2239583 139.035974,93.2239583 L139.035974,93.2239583 L100.675831,93.2239583 C100.262377,93.2239583 99.8882503,93.0546304 99.6169825,92.7833626 C99.3445707,92.5109508 99.1753472,92.135436 99.1753472,91.7234741 L99.1753472,91.7234741 L99.1753472,53.3633315 C99.1753472,52.9498769 99.3446752,52.5757503 99.6159429,52.3044825 C99.8883547,52.0320707 100.26387,51.8628472 100.675831,51.8628472 L100.675831,51.8628472 Z" id="Rectangle-4-Copy-58" transform="translate(119.855903, 72.543403) rotate(-90.000000) translate(-119.855903, -72.543403) "></path>
                </g>
                <path d="M951.504724,52.2864583 C951.918179,52.2864583 952.292305,52.4557863 952.563573,52.727054 C952.835985,52.9994658 953.005208,53.3749806 953.005208,53.7869426 L953.005208,53.7869426 L953.005208,92.1470852 C953.005208,92.5605398 952.83588,92.9346664 952.564613,93.2059342 C952.292201,93.478346 951.916686,93.6475694 951.504724,93.6475694 L951.504724,93.6475694 L913.144581,93.6475694 C912.731127,93.6475694 912.357,93.4782415 912.085733,93.2069737 C911.813321,92.9345619 911.644097,92.5590471 911.644097,92.1470852 L911.644097,92.1470852 L911.644097,53.7869426 C911.644097,53.373488 911.813425,52.9993614 912.084693,52.7280936 C912.357105,52.4556818 912.73262,52.2864583 913.144581,52.2864583 L913.144581,52.2864583 Z" id="Rectangle-4-Copy-33" stroke="#D81505" transform="translate(932.324653, 72.967014) rotate(-90.000000) translate(-932.324653, -72.967014) "></path>
            </g>
        </g>
    </g>
</svg>