<?xml version="1.0" encoding="UTF-8"?>
<svg width="851px" height="839px" viewBox="0 0 851 839" version="1.1" xmlns="http://www.w3.org/2000/svg" xmlns:xlink="http://www.w3.org/1999/xlink">
    <title>Group 17</title>
    <defs>
        <circle id="path-1" cx="434.479554" cy="425" r="250.065963"></circle>
        <mask id="mask-2" maskContentUnits="userSpaceOnUse" maskUnits="objectBoundingBox" x="0" y="0" width="500.131926" height="500.131926" fill="white">
            <use xlink:href="#path-1"></use>
        </mask>
        <circle id="path-3" cx="434.479554" cy="425" r="184.58798"></circle>
        <mask id="mask-4" maskContentUnits="userSpaceOnUse" maskUnits="objectBoundingBox" x="0" y="0" width="369.17596" height="369.17596" fill="white">
            <use xlink:href="#path-3"></use>
        </mask>
        <circle id="path-5" cx="434.479554" cy="425" r="322.304833"></circle>
        <mask id="mask-6" maskContentUnits="userSpaceOnUse" maskUnits="objectBoundingBox" x="0" y="0" width="644.609665" height="644.609665" fill="white">
            <use xlink:href="#path-5"></use>
        </mask>
        <circle id="path-7" cx="434.479554" cy="425" r="425"></circle>
        <mask id="mask-8" maskContentUnits="userSpaceOnUse" maskUnits="objectBoundingBox" x="0" y="0" width="850" height="850" fill="white">
            <use xlink:href="#path-7"></use>
        </mask>
        <circle id="path-9" cx="434.479554" cy="425" r="124.752639"></circle>
        <mask id="mask-10" maskContentUnits="userSpaceOnUse" maskUnits="objectBoundingBox" x="0" y="0" width="249.505277" height="249.505277" fill="white">
            <use xlink:href="#path-9"></use>
        </mask>
        <filter id="filter-11">
            <feColorMatrix in="SourceGraphic" type="matrix" values="0 0 0 0 0.847059 0 0 0 0 0.082353 0 0 0 0 0.019608 0 0 0 1.000000 0"></feColorMatrix>
        </filter>
    </defs>
    <g id="Page-1" stroke="none" stroke-width="1" fill="none" fill-rule="evenodd">
        <g id="Team-Copy" transform="translate(-667.000000, 0.000000)">
            <g id="Group-17" transform="translate(658.057554, -11.257932)">
                <g id="Group-6">
                    <use id="Oval-5-Copy-5" stroke-opacity="0.375081949" stroke="#000000" mask="url(#mask-2)" stroke-width="2.42" opacity="0.54540308" stroke-dasharray="4.3,7.3" xlink:href="#path-1"></use>
                    <use id="Oval-5-Copy-6" stroke-opacity="0.512702142" stroke="#000000" mask="url(#mask-4)" stroke-width="1.782" opacity="0.692651721" stroke-dasharray="4.3,7.3" xlink:href="#path-3"></use>
                    <use id="Oval-5-Copy-7" stroke-opacity="0.350060096" stroke="#000000" mask="url(#mask-6)" stroke-width="3.3" opacity="0.381000906" stroke-dasharray="4.3,7.3" xlink:href="#path-5"></use>
                    <use id="Oval-5-Copy-8" stroke-opacity="0.134314904" stroke="#000000" mask="url(#mask-8)" stroke-width="3.3" stroke-dasharray="4.3,7.3" xlink:href="#path-7"></use>
                    <use id="Oval-5-Copy-9" stroke-opacity="0.512702142" stroke="#000000" mask="url(#mask-10)" stroke-width="1.44" opacity="0.83129529" stroke-dasharray="4.3,7.3" xlink:href="#path-9"></use>
                    <circle id="Oval-6-Copy-15" fill="#D81505" cx="550.254616" cy="385.501859" r="5.26641884"></circle>
                    <circle id="Oval-6-Copy-16" fill="#D81505" cx="388.66171" cy="604.05824" r="5.26641884"></circle>
                    <circle id="Oval-6-Copy-17" fill="#D81505" cx="314.76371" cy="460.421666" r="8.12994723"></circle>
                    <circle id="Oval-6-Copy-18" fill="#D81505" cx="309.497291" cy="208.225724" r="5.26641884"></circle>
                    <circle id="Oval-6-Copy-19" stroke="#D81505" fill="#D81505" cx="244.361834" cy="684.634449" r="4.76641884"></circle>
                    <circle id="Oval-6-Copy-20" fill="#D81505" cx="684.624722" cy="410.099786" r="5.26641884"></circle>
                    <circle id="Oval-6-Copy-21" fill="#D81505" cx="132.713755" cy="315.98513" r="5.26641884"></circle>
                    <circle id="Oval-6-Copy-23" stroke="#000000" transform="translate(121.879201, 496.381441) rotate(-190.000000) translate(-121.879201, -496.381441) " cx="121.879201" cy="496.381441" r="7.62994723"></circle>
                    <circle id="Oval-6-Copy-25" stroke="#000000" transform="translate(604.340705, 605.841312) rotate(-190.000000) translate(-604.340705, -605.841312) " cx="604.340705" cy="605.841312" r="8.19063325"></circle>
                    <circle id="Oval-6-Copy-24" stroke="#D81505" transform="translate(135.246114, 244.365310) rotate(-190.000000) translate(-135.246114, -244.365310) " cx="135.246114" cy="244.36531" r="5.3459094"></circle>
                    <circle id="Oval-6-Copy-26" stroke="#000000" transform="translate(440.844614, 240.148699) rotate(-190.000000) translate(-440.844614, -240.148699) " cx="440.844614" cy="240.148699" r="7.62994723"></circle>
                    <circle id="Oval-6-Copy-27" stroke="#D81505" fill="#D81505" transform="translate(120.675107, 139.005297) rotate(-190.000000) translate(-120.675107, -139.005297) " cx="120.675107" cy="139.005297" r="5.3459094"></circle>
                    <circle id="Oval-6-Copy-28" stroke="#D81505" transform="translate(618.162424, 445.519490) rotate(-190.000000) translate(-618.162424, -445.519490) " cx="618.162424" cy="445.51949" r="5.3459094"></circle>
                    <circle id="Oval-6-Copy-29" stroke="#D81505" transform="translate(708.572307, 257.732223) rotate(-190.000000) translate(-708.572307, -257.732223) " cx="708.572307" cy="257.732223" r="7.62994723"></circle>
                </g>
                <g filter="url(#filter-11)" id="icon-stimulating">
                    <g transform="translate(399.769129, 382.396993)">
                        <path d="M28.650406,88.7706275 C28.650406,90.6703301 30.0782639,92.2338454 31.7486328,92.2607305 L31.7993231,92.2610736 L37.9407706,92.2466875 C39.6146428,92.2428178 41.0470381,90.7107596 41.0755186,88.8277933 L41.0759508,88.7706275 L44.0156712,88.7706275 C44.0156712,92.2175763 41.36551,95.1200426 38.0483343,95.1852934 L37.9476117,95.1863999 L31.806522,95.200804 C28.4663306,95.2093202 25.7651889,92.3237032 25.7115001,88.8752946 L25.7106856,88.7706275 L28.650406,88.7706275 Z" id="Stroke-3" fill="#FFFFFF" fill-rule="nonzero"></path>
                        <path d="M50.2727027,82.3613838 L50.2727027,83.6679262 L19.4539154,83.6679262 L19.4539154,82.3613838 L50.2727027,82.3613838 Z M51.6543713,77.2345115 L51.6543713,78.5410539 L18.0718548,78.5410539 L18.0718548,77.2345115 L51.6543713,77.2345115 Z" id="Stroke-4" fill="#FFFFFF" fill-rule="nonzero"></path>
                        <path d="M51.7752169,4.72218817 L51.8401386,4.70514733 C52.4303777,4.55332801 53.0394484,4.45536769 53.6619509,4.41577008 C59.3242384,4.05547054 64.1556946,8.5955291 64.490101,14.5081051 C64.5261581,15.144197 64.5087573,15.7710185 64.4419304,16.383636 C67.7287923,17.5775923 70.1731188,20.7265135 70.3813171,24.4040834 C70.4399957,25.4428964 70.2885751,26.7866941 69.9681835,27.9953639 C69.758944,28.7847151 69.4893551,29.4940507 69.1502699,30.0950457 C70.8269068,31.7967331 71.9217804,34.1380298 72.0706607,36.7675498 C72.2574269,40.0628361 70.7648611,43.3263889 68.3146719,45.3938829 C68.4163282,45.6844692 68.5044441,45.9823321 68.5782938,46.2865256 C69.6270158,50.6041232 67.6058186,54.9901164 63.8849622,56.7758747 C64.0137799,57.3428879 64.0973903,57.929517 64.131461,58.5312408 C64.4458876,64.0850962 60.4262423,68.8889989 55.1041363,69.2276714 C51.7934964,69.4381442 48.6779275,67.8583145 46.7606076,65.1168741 L46.7028748,65.0334452 L49.1285256,63.3726701 C50.4677416,65.3286667 52.6316654,66.4392027 54.9175329,66.2938794 C58.5886378,66.0602685 61.4216043,62.6745728 61.1964411,58.6974157 C60.9739626,54.7682184 57.8529665,51.7983315 54.2366648,51.9654796 L54.1269308,51.9715071 L53.9402391,49.0377208 C57.6915075,48.7990087 61.0543399,50.8440032 62.8272916,54.0148913 C65.1527278,52.7632101 66.4243502,49.873481 65.7215941,46.9802278 C65.3175325,45.3158618 64.3032698,43.9497936 62.933953,43.1470918 L62.8923501,43.1229402 L64.3574752,40.5743397 C65.3236556,41.129772 66.1708541,41.8661686 66.8616539,42.7408766 C68.3564388,41.2518723 69.2574388,39.0827186 69.1356457,36.9338119 C68.9109171,32.9646586 65.7288076,29.9743642 62.0661007,30.2073875 C59.2692417,30.3852989 56.8867504,32.4125215 56.0696964,35.2549554 L56.0454175,35.3413382 L53.210706,34.562643 C54.3281155,30.494898 57.7688227,27.5350803 61.8794652,27.2735976 C63.6310023,27.1621639 65.2978493,27.5486198 66.7577108,28.3150994 C67.2000138,27.3186966 67.5126651,25.7451995 67.4462859,24.5700582 C67.3120025,22.1981049 65.7853002,20.1392359 63.7313943,19.2624036 C62.3026609,22.882923 59.0369914,25.5465909 55.0676372,25.8671203 L54.8984388,25.8793332 L54.7117577,22.9455463 C58.714658,22.6908359 61.8004506,19.0028977 61.5550817,14.6742917 C61.3107157,10.3537016 57.843256,7.09537337 53.8486012,7.34955903 C51.2950358,7.51199227 49.0398545,9.08447536 47.848934,11.4703577 L47.813172,11.5429055 L45.1699659,10.2562752 C46.0614223,8.42489987 47.4187944,6.9220832 49.0633518,5.89690059 C47.972443,4.05156105 46.0142848,2.93273152 43.9149583,3.06632117 C43.0596421,3.12072753 42.2438702,3.37570825 41.5100411,3.8096932 C39.9620295,4.72534012 38.9800149,6.59017732 38.9615743,8.64330619 L38.9613108,8.70557907 L38.9613108,73.2266927 L36.0215894,73.2266927 L36.0215894,8.70634103 C36.0199954,5.62902819 37.5160904,2.75662711 40.0135081,1.27940769 C41.1426225,0.611651846 42.4064903,0.21661257 43.7283046,0.132532438 C47.0950083,-0.0817061572 50.1846217,1.76647517 51.7752169,4.72218817 Z" id="Stroke-5" fill="#FFFFFF" fill-rule="nonzero"></path>
                        <path d="M43.2025392,48.0284589 C45.8760967,48.4904926 47.9809928,50.6213029 48.4306207,53.302282 C48.5100657,53.7758467 48.5346251,54.2406457 48.5096524,54.6952586 C48.6455199,55.0565595 48.8260269,55.4296515 49.0828284,55.823974 C49.4988182,56.4627324 50.0310494,57.0099183 50.6973058,57.4217718 C51.4983307,57.9171364 52.3036451,58.1171111 53.0901399,58.1429112 L53.1338145,58.1441661 L53.101583,59.4503109 C52.0874409,59.4252851 51.046457,59.173885 50.0102124,58.5330574 C49.2182382,58.0434901 48.5810269,57.40712 48.0788005,56.6730246 C47.9674374,56.9626257 47.8363705,57.2463664 47.6874017,57.5238071 C47.4429677,57.9790429 47.1647496,58.3884573 46.8723617,58.7486182 L46.8273905,58.8035001 L46.7833266,58.8562813 L46.7402607,58.9069149 L46.6982834,58.9553539 L46.6574854,59.0015515 C46.6507891,59.0090617 46.6441457,59.0164766 46.6375571,59.0237951 L46.5986982,59.0665426 C46.5923364,59.0734719 46.5860332,59.0803029 46.5797904,59.0870347 L46.5430748,59.1262264 L46.5079013,59.1629889 L46.4743607,59.1972754 L46.4425437,59.2290389 C46.4373896,59.23412 46.432311,59.239094 46.4273099,59.2439599 L46.3982484,59.271851 L45.5004594,58.3226261 L45.5200941,58.3035993 L45.5453769,58.278229 L45.5757085,58.2469478 L45.5984386,58.2230235 L45.6104898,58.2101884 C45.6871849,58.1281837 45.7705313,58.0328789 45.8580012,57.9251343 C46.1007649,57.6261 46.3330161,57.2843285 46.5362983,56.9057343 C47.0991396,55.8574944 47.3436612,54.7200279 47.1420791,53.5184155 C46.7874969,51.4041615 45.1383568,49.7171652 43.0436569,49.3273327 L42.9800456,49.3159175 L43.2025392,48.0284589 Z M43.0152274,36.5510637 L44.2988232,36.3072712 L44.3070008,36.3482567 L44.3138097,36.3802569 L44.3260643,36.4348953 L44.3407751,36.4970481 L44.3519504,36.542407 C44.3901786,36.6952269 44.4382065,36.8639506 44.4968587,37.0452948 C44.6575883,37.5422479 44.8715546,38.054479 45.1450804,38.5573962 C45.8983348,39.942365 46.9651452,41.0197481 48.401659,41.6243016 C50.8071562,42.636615 53.6131342,42.0277414 55.5671351,40.0615784 L55.6260852,40.0015826 L56.563226,40.9119781 C54.238488,43.3050114 50.8294887,44.0635369 47.8948631,42.8285486 C46.1586029,42.0978476 44.8823906,40.8089873 43.9973129,39.181642 C43.6829575,38.6036535 43.4381421,38.0175704 43.2537199,37.4473633 L43.2410138,37.407811 L43.216571,37.3301472 L43.1934106,37.2544672 L43.1715202,37.1808461 C43.167977,37.1687517 43.1644861,37.1567462 43.1610474,37.1448312 L43.1410388,37.0744397 L43.1222692,37.0062953 L43.1047262,36.9404732 L43.0883974,36.8770486 L43.0732703,36.8160969 L43.0593326,36.7576932 L43.0465719,36.7019128 L43.0349757,36.6488309 C43.0331393,36.640213 43.031351,36.6317107 43.0296104,36.6233254 L43.0197378,36.5744324 L43.0152274,36.5510637 Z M63.3271194,34.2149391 L64.5903491,34.5485613 C64.4944321,34.911742 64.3402739,35.3114432 64.0736921,35.7586638 C63.6626972,36.4481535 63.0912599,37.0389722 62.3335176,37.4641966 C61.552879,37.9020403 60.7256971,38.079466 59.898509,38.0577684 C59.5953942,38.0498175 59.3079031,38.0151512 59.0388132,37.9608966 C58.8671854,37.9262926 58.7284404,37.8896228 58.6015336,37.8499725 L58.5724479,37.8407691 L58.9710739,36.5965222 C59.0629762,36.6259654 59.1643399,36.6533712 59.297045,36.6801276 C59.4952256,36.7200852 59.7083963,36.7457898 59.9327686,36.7516752 C60.5368556,36.7675208 61.132623,36.6397322 61.6942469,36.3247292 C62.2396548,36.0186611 62.6514497,35.5928993 62.9514079,35.0896862 C63.0631178,34.9022804 63.1530395,34.7140698 63.2237559,34.5307163 C63.2476198,34.4688421 63.2673391,34.4130764 63.2841533,34.3611899 L63.3000449,34.3105139 C63.3100549,34.2774819 63.3189574,34.2458438 63.3271194,34.2149391 Z M42.8933204,24.5172438 L44.1829395,24.3076357 L44.1936696,24.3718279 L44.2055006,24.4388906 L44.2185174,24.508966 C44.2207904,24.5209042 44.2231163,24.5329739 44.2254969,24.545178 L44.2404514,24.6200395 L44.2568036,24.6982697 C44.2596502,24.7115967 44.2625585,24.72507 44.2655304,24.7386925 L44.2841384,24.8222426 L44.3043562,24.9095174 C44.3078648,24.9243814 44.3114439,24.9394066 44.3150954,24.9545959 C44.4076378,25.3395487 44.5249798,25.7326901 44.669783,26.1191088 C45.054039,27.144526 45.5723769,27.9684195 46.2226312,28.473217 C46.8408658,28.9532884 47.437515,29.0439088 48.0442,28.8612471 C48.2736082,28.7921765 48.4928252,28.6861646 48.6948119,28.5561935 C48.8205439,28.4752894 48.9183888,28.3998137 48.9936589,28.3337917 L49.0094446,28.3197903 L49.8818781,29.2923707 C49.7563675,29.4049575 49.6003982,29.5271387 49.4018064,29.6549254 C49.1031173,29.8471211 48.7755628,30.0055243 48.4208734,30.1123147 C47.423595,30.4125769 46.3871347,30.2551571 45.4213691,29.5052209 C44.5485208,28.8276219 43.9079218,27.8093954 43.4463212,26.5775784 C43.2815607,26.1379021 43.1491385,25.6942359 43.0447454,25.2599874 L43.0221381,25.1642958 C43.0185084,25.148652 43.0149466,25.1331586 43.0114511,25.1178129 L42.9912607,25.0274869 C42.9847869,24.9979534 42.9785651,24.9689875 42.9725821,24.9405663 L42.9553357,24.8569141 L42.9394422,24.7763928 L42.924822,24.6988653 C42.922487,24.686186 42.9202017,24.6736256 42.9179645,24.6611814 L42.9051052,24.5878873 L42.8933204,24.5172438 Z M54.7843224,12.8392 L55.131605,14.0987427 C54.6843684,14.2220553 54.2129003,14.4074227 53.6906578,14.7138432 C52.9229626,15.1642806 52.2388124,15.7790791 51.6869421,16.589916 C51.0652411,17.5039432 50.7173002,18.511693 50.5863781,19.5596351 C50.5019755,20.2352203 50.5152323,20.7986388 50.5765364,21.3011323 L50.5822405,21.3466471 L49.2863759,21.5133438 C49.2073332,20.8988832 49.1875816,20.2167676 49.2899142,19.3976646 C49.3083903,19.249776 49.3305544,19.1024399 49.356525,18.9557701 C48.983151,19.0752556 48.5862433,19.1283734 48.1688125,19.1001142 C47.6488563,19.0649127 47.1746246,18.9078964 46.7491688,18.6633697 C46.4735362,18.5049525 46.2554138,18.3343421 46.0655792,18.1534055 L46.0358361,18.124751 L46.9473019,17.188651 C47.2806461,17.513223 47.7090708,17.7594561 48.2570626,17.7965557 C48.6807714,17.8252398 49.0747785,17.7106758 49.4377081,17.4891923 C49.5746487,17.4056221 49.6990936,17.3114246 49.8093038,17.2127671 C49.8471412,17.1788959 49.8796856,17.1479138 49.9080348,17.1193894 C50.0975343,16.6855009 50.3292708,16.2628582 50.6067275,15.8549403 C51.2729951,14.8760247 52.1017422,14.1312868 53.0294669,13.5869538 C53.661199,13.2162914 54.2352546,12.9905896 54.7843224,12.8392 Z" id="Stroke-6" fill="#FFFFFF" fill-rule="nonzero"></path>
                        <path d="M31.3488579,0.198993068 C32.5971047,0.0680595516 33.6825915,1.04105151 33.7041764,2.28659957 L33.7045039,2.32442602 L33.7045039,73.2266927 L30.7647835,73.2266927 L30.7647835,3.2238498 L30.6779193,3.23444313 C22.9882513,4.18755687 16.4745206,6.76363258 11.7449586,10.963901 L11.5961978,11.0970809 C6.03965913,16.1118481 3.04406957,23.3271222 3.04406957,32.8856285 C3.04406957,37.311276 4.40327387,41.8918673 6.90189867,46.3129607 C9.15054983,50.2917481 12.2557139,54.0039227 15.7208261,56.9634774 L15.8273437,57.0539882 L15.8551813,57.077225 C18.1791489,59.0428224 19.535129,61.9035854 19.5620076,64.9297245 L19.5624149,65.0214755 L19.5204184,77.1339077 C19.5204184,82.776731 23.4857063,87.2977399 28.3177325,87.3875958 L28.4644197,87.388959 L41.2621331,87.388959 C46.1112968,87.388959 50.125068,82.9243683 50.2048585,77.3045553 L50.206069,77.1339077 L50.206069,67.2348893 L53.1457894,67.2348893 L53.1457894,77.1339077 C53.1457894,84.3122344 47.9716668,90.2096699 41.4598659,90.3269008 L41.2621331,90.3286793 L28.4644197,90.3286793 C21.9259333,90.3286793 16.6864143,84.5030395 16.5822864,77.3460925 L16.5807068,77.1288125 L16.6227033,65.0163803 C16.6227033,62.8528632 15.6666692,60.7931753 14.0072628,59.3648544 L13.9529862,59.3186735 L13.9312832,59.300664 L13.9247279,59.2951056 C10.1580808,56.101247 6.7884214,52.0869795 4.34262434,47.75936 C1.60808422,42.9208355 0.104349186,37.8531678 0.104349186,32.8856285 C0.104349186,22.5200665 3.43175363,14.5055723 9.62661808,8.91471717 C15.0734304,3.99897787 22.5762054,1.11870868 31.3488579,0.198993068 Z" id="Stroke-7" fill="#FFFFFF" fill-rule="nonzero"></path>
                        <path d="M16.8919777,24.564535 C18.8315576,22.7067972 22.3790768,22.5002436 24.5494983,24.0259771 C27.1710662,25.8689158 28.2979175,28.1686156 28.4652118,32.4852912 L28.4703644,32.6278001 L28.4703644,38.9300202 L28.5357351,38.9362012 C29.6225229,39.0366119 30.8399894,39.0853044 32.1535114,39.0893549 L32.2357313,39.0895499 L32.2335561,40.3960905 C32.0301612,40.3957519 31.8289321,40.3943927 31.6299601,40.391981 L31.392283,40.3885796 C30.3670945,40.3716331 29.4039283,40.3258794 28.5156366,40.2468211 L28.4703644,40.2427034 L28.4703644,73.2266927 L27.163822,73.2266927 L27.163822,40.0917324 L27.1438913,40.0888692 C26.4493998,39.9883282 25.8160057,39.8611024 25.2520029,39.7042896 L25.1993311,39.6895017 C23.4992343,39.2075073 21.9660221,38.475123 20.6087498,37.5637961 C19.61304,36.8952367 18.7778871,36.1746812 18.1443927,35.4985988 L18.1131416,35.4650698 L18.0749316,35.4276821 C16.4129948,33.7882444 15.4363337,31.7474436 15.2415286,29.6889164 L15.2358095,29.6258951 C15.0608425,27.6116192 15.6597424,25.7447312 16.8919777,24.564535 Z M23.7981101,25.0948404 C22.1308604,23.9228198 19.2773692,24.0889638 17.7957124,25.5081009 C16.8682127,26.3964309 16.3949066,27.8718187 16.5374505,29.51283 C16.691125,31.2819791 17.533719,33.0587303 18.9929077,34.4979655 L19.0494072,34.5532455 L19.0608764,34.5656246 C19.6324958,35.1825943 20.4061361,35.8540167 21.3370697,36.4790827 C22.5841858,37.3164464 23.9932592,37.9895321 25.5556995,38.4324994 C25.9997676,38.5583942 26.4995327,38.6645875 27.0483541,38.7524367 L27.163822,38.7704914 L27.163822,32.6519534 L27.1598704,32.5413108 C27.0106088,28.649762 26.0869196,26.7295275 23.8664881,25.1432959 L23.7981101,25.0948404 Z" id="Stroke-8" fill="#FFFFFF" fill-rule="nonzero"></path>
                        <polygon id="Stroke-9" fill="#FFFFFF" fill-rule="nonzero" points="51.6759292 71.7568325 51.6759292 74.6965529 18.0505582 74.6965529 18.0505582 71.7568325"></polygon>
                        <path d="M49.411349,42.406216 L50.5657104,43.0181822 L50.5549267,43.0391339 L50.5429328,43.0636785 L50.5298688,43.0916865 L50.5158753,43.1230281 L50.5010923,43.1575737 L50.4856602,43.1951935 L50.4697193,43.2357579 C50.4106528,43.3893568 50.3619006,43.5555233 50.3300819,43.7276175 C50.2466829,44.1786891 50.2916773,44.5923031 50.4977473,44.9454277 C50.6348384,45.1801307 50.8233224,45.3601016 51.0438252,45.4990866 L51.0727665,45.5169838 L50.3950578,46.6340174 C49.9895059,46.3879674 49.6337469,46.0566952 49.3694292,45.6041774 C48.9881858,44.9508733 48.9093008,44.2257191 49.0453147,43.4900756 C49.0926479,43.2340697 49.1637695,42.9916596 49.2502371,42.7668058 C49.2732268,42.7070224 49.2960588,42.6516013 49.3181985,42.6009261 L49.3400876,42.551847 L49.3613963,42.506017 L49.3820057,42.4635213 C49.3853758,42.4567213 49.3887117,42.4500638 49.3920111,42.4435505 L49.411349,42.406216 Z" id="Stroke-10" fill="#FFFFFF" fill-rule="nonzero"></path>
                    </g>
                </g>
            </g>
        </g>
    </g>
</svg>