<?xml version="1.0" encoding="UTF-8"?>
<svg width="1878px" height="1146px" viewBox="0 0 1878 1146" version="1.1" xmlns="http://www.w3.org/2000/svg" xmlns:xlink="http://www.w3.org/1999/xlink">
    <title>Group 5</title>
    <g id="Webpages" stroke="none" stroke-width="1" fill="none" fill-rule="evenodd">
        <g id="Get-Started-Copy-2" transform="translate(357.000000, -102.000000)">
            <g id="Group-5" transform="translate(-356.967337, 102.406456)">
                <g id="network-copy" transform="translate(938.308921, 0.000000)">
                    <path d="M885.810467,163.538756 C824.882459,199.569308 769.281209,245.403407 724.594674,282.232545 C700.861911,301.794679 680.368451,318.689152 663.47826,330.537335 C628.490365,355.08153 586.525016,375.673475 531.409769,395.342658 C455.038872,422.595192 383.881261,435.526712 319.921625,433.777531 C284.381358,432.805526 249.108713,427.849157 214.996478,423.057644 C179.128641,418.017777 142.038304,412.808773 105.635221,412.500472 C66.9584177,412.202876 32.5592924,417.546762 0.686523437,428.88111 L0.686523437,429.457033 C72.9103421,403.658225 141.939819,413.333313 214.932249,423.588607 C249.05947,428.382261 284.349243,433.340771 319.917343,434.312776 C355.989805,435.054531 392.036318,431.8816 427.424512,424.849644 C462.831068,417.820769 497.655572,408.125189 531.600316,395.845789 C586.762665,376.148773 628.768692,355.546122 663.797266,330.974095 C680.711008,319.113066 701.204468,302.21217 724.943654,282.643613 C781.615394,235.92743 856.870841,173.898958 938.654135,136.440372 L938.654135,135.716721 C920.566618,144.0632 902.927974,153.349893 885.810467,163.538756 L885.810467,163.538756 Z" id="Path_105" fill="#CDCDCD" fill-rule="nonzero"></path>
                    <path d="M930.685407,133.860491 C920.455805,144.681004 910.19837,156.083864 900.283492,167.114192 C865.143587,206.180654 828.804734,246.578805 783.214706,273.50377 C706.462715,318.830457 606.515347,329.531075 518.332663,338.970655 C510.381063,339.827047 502.519385,340.678444 494.747628,341.524844 C407.485566,351.159254 334.332562,357.24606 260.952614,355.655312 C251.018467,355.441214 240.983693,355.051556 231.27649,354.674744 C175.76302,352.533764 123.32828,350.499833 72.494992,377.264223 C46.504199,391.262716 22.3784758,408.476571 0.686523437,428.500015 L0.686523437,429.069516 C22.4368755,408.98408 46.6459877,391.737282 72.7347817,377.741662 C123.441752,351.045782 175.803699,353.075431 231.248658,355.21427 C240.955861,355.591083 250.994916,355.980741 260.931204,356.194839 C334.353971,357.787728 407.521962,351.698781 494.801152,342.064371 C502.565773,341.207979 510.427451,340.357297 518.386188,339.512323 C606.622396,330.06632 706.629711,319.359279 783.482329,273.972644 C829.143009,246.996296 865.507554,206.578876 900.677432,167.4803 C910.594451,156.454253 920.847604,145.053535 931.079348,134.235163 C933.616409,131.550374 936.138483,128.895559 938.658417,126.240744 L938.658417,125.463568 C936.006456,128.245414 933.348786,131.044389 930.685407,133.860491 Z" id="Path_106" fill="#A9A9A9" fill-rule="nonzero"></path>
                    <path d="M913.399135,8.74376224 C872.292319,27.9997362 843.945744,64.7132609 823.850506,94.5478169 C789.686889,145.271915 764.675961,188.855844 745.130954,231.718263 C734.85425,254.282051 725.082818,277.321137 715.638955,299.617302 C683.181699,376.245117 652.525006,448.629509 598.764999,512.724027 C575.096465,540.942143 545.647286,569.530648 505.932107,569.530648 C504.688198,569.530648 503.429301,569.500675 502.168264,569.445009 C459.155976,567.505281 402.415725,536.737258 368.596805,507.35659 C294.015768,442.546985 216.754223,396.28683 138.955293,369.858574 C128.702764,366.326947 119.499806,363.141316 109.054418,360.305025 L105.594567,360.279626 C183.207937,380.913996 272.177759,424.270553 368.245684,507.752671 C402.135257,537.201851 459.01039,568.036244 502.142572,569.980254 C503.414315,570.03592 504.681061,570.065893 505.942812,570.065893 C523.430336,570.065893 540.132121,564.557152 556.874585,553.282751 C574.522683,541.398172 589.468864,524.63858 599.173926,513.066583 C652.985317,448.901413 683.659137,376.489189 716.133521,299.824977 C725.573102,277.539517 735.335971,254.496149 745.619098,231.938784 C765.149117,189.106339 790.151481,145.54596 824.293689,94.8475541 C844.352531,65.0708045 872.630594,28.4279322 913.623938,9.2297647 C921.661633,5.52478026 930.043858,2.61835914 938.649853,0.552372835 L938.649853,0 C929.965684,2.07642738 921.507751,5.00522182 913.399135,8.74376224 Z" id="Path_107" fill="#C2C2C2" fill-rule="nonzero"></path>
                    <path d="M916.83969,137.455197 C860.379907,99.0074782 801.986819,59.247339 725.232686,64.0474161 C683.826134,66.6337199 640.835256,81.6848092 593.80863,110.063499 C540.887887,141.998356 484.37458,189.78717 421.031546,256.159691 C284.884488,398.828174 150.161182,464.744665 20.623329,452.059359 C13.8621142,451.397796 7.22079434,450.500725 0.677959518,449.434517 L0.677959518,449.984749 C7.29144668,451.055239 13.9220617,451.941605 20.5676635,452.592463 C30.9014602,453.603005 41.2916361,454.110418 51.7381911,454.110418 C101.374671,454.110418 152.135165,442.694712 203.054092,420.03458 C274.954623,388.037635 348.426633,333.029436 421.416922,256.534362 C685.057197,-19.7419764 802.73188,60.3970452 916.537812,137.89838 C923.847117,142.876158 931.21637,147.888192 938.654135,152.823151 L938.654135,152.180857 C931.400495,147.363652 924.142572,142.428693 916.83969,137.455197 Z" id="Path_108" fill="#A9A9A9" fill-rule="nonzero"></path>
                    <path d="M722.434426,88.2576177 C688.544853,58.8084381 631.66972,27.9761854 588.537538,26.0321756 C587.265796,25.9736555 585.999049,25.9464854 584.737298,25.9464854 C567.249774,25.9464854 550.547989,31.4552779 533.805525,42.7296784 C516.155286,54.6121173 501.211246,71.3738496 491.506184,82.9458464 C437.694793,147.111016 407.020973,219.523241 374.546589,296.187452 C365.107008,318.475054 355.344139,341.516281 345.061012,364.073646 C325.528852,406.906091 300.528629,450.468611 266.38428,501.167017 C246.32758,530.943766 218.049516,567.586639 177.056172,586.784806 C156.027467,596.633314 129.004018,601.437673 100.91436,600.322223 C67.041916,598.971264 33.4949007,592.693911 0.686523437,585.485231 L0.686523437,586.033322 C33.4820548,593.235579 67.0162242,599.506509 100.895091,600.857468 C129.036132,601.981482 156.177335,597.155713 177.280975,587.270809 C218.387791,568.014835 246.734366,531.299169 266.827463,501.464613 C300.993221,450.742656 326.004149,407.158727 345.549156,364.296308 C355.836565,341.73252 365.597292,318.693434 375.039014,296.395127 C407.498411,219.769454 438.155104,147.382921 491.915111,83.2905442 C515.583645,55.0702871 545.032824,26.4839224 584.748003,26.4839224 C585.991912,26.4839224 587.250809,26.5117551 588.511846,26.5695616 C631.524134,28.5092894 688.264385,59.2751717 722.083305,88.657981 C792.48515,149.847189 865.276328,194.469494 938.649853,221.510071 L938.649853,220.638692 C872.656286,196.321441 799.45618,155.199639 722.434426,88.2576177 Z" id="Path_109" stroke="#CD2023" fill="#CD2023" fill-rule="nonzero" opacity="0.338617369"></path>
                    <g id="Group_3" transform="translate(0.000000, 169.095513)" fill-rule="nonzero">
                        <path d="M928.772102,10.8299048 C894.644881,6.03625058 859.355108,1.07774094 823.787008,0.10573603 C787.71451,-0.637098504 751.667881,2.53584337 716.279839,9.56886754 C680.874065,16.5971487 646.050282,26.2920121 612.106176,38.5705824 C556.943827,58.2568933 514.9378,78.8702485 479.909227,103.442276 C462.995485,115.303305 442.502024,132.20206 418.762838,151.772758 C331.926831,223.352142 201.466216,330.893566 70.7486834,330.893566 C68.4920906,330.893566 66.2269337,330.861451 63.9703408,330.797222 C42.4681896,329.846528 20.9383289,331.892221 0,336.875464 L0,337.342198 C17.9364176,333.038543 36.3371011,330.974605 54.7812548,331.197585 C57.7786267,331.197585 60.8359461,331.242546 63.953213,331.332467 C122.789484,333.025982 186.237426,313.251891 257.893885,270.879756 C318.821893,234.849204 374.423143,189.015105 419.109677,152.183826 C442.84244,132.623833 463.3359,115.72936 480.226092,103.881177 C515.213986,79.3369822 557.179335,58.7450367 612.294583,39.0758536 C688.665479,11.8233195 759.82309,-1.10819962 823.782726,0.640981026 C859.322994,1.61298594 894.595639,6.56935459 928.707873,11.3608678 C931.786602,11.7890638 934.87675,12.2208281 937.978316,12.6561607 L937.978316,12.1187747 L928.772102,10.8299048 Z" id="Path_110" fill="#D9D9D9"></path>
                        <path d="M912.455694,79.2042414 C902.748491,78.8274289 892.709436,78.4377706 882.773147,78.2236726 C809.35038,76.6286425 736.182389,82.7197305 648.903199,92.3541404 C641.137151,93.2105324 633.275473,94.0605015 625.318164,94.9040476 C537.081956,104.352192 437.07464,115.059233 360.222023,160.445868 C314.561343,187.40937 278.194657,227.839636 243.02692,266.938212 C233.1099,277.962118 222.856747,289.364977 212.625004,300.181208 C159.766349,356.105746 111.200359,405.286197 52.0879019,440.766518 C35.7803068,450.75519 18.280078,458.651117 0,464.268055 L0,464.826851 C18.3801822,459.199403 35.9756575,451.272087 52.3683703,441.233251 C111.545057,405.716534 160.132457,356.510391 213.027508,300.558021 C223.25711,289.737508 233.514545,278.332507 243.429424,267.30432 C278.569328,228.237858 314.908181,187.839707 360.498209,160.914742 C437.2502,115.588055 537.197569,104.887437 625.380252,95.4457155 C633.330425,94.5893235 641.192103,93.7386408 648.965288,92.8936674 C736.22735,83.2592575 809.380354,77.1703104 882.760302,78.7631995 C892.692308,78.9772975 902.729222,79.3669559 912.436425,79.7437684 C921.017473,80.0734793 929.525727,80.4010492 937.967611,80.6215702 L937.967611,80.0863252 C929.534291,79.8615223 921.03246,79.5339523 912.455694,79.2042414 Z" id="Path_111" fill="#DDDDDD"></path>
                    </g>
                    <g id="Group_4" transform="translate(809.075603, 239.840290)" fill="#333333">
                        <path d="M6.70983126,0.00513291163 C5.4436423,-0.0676659647 4.26111657,0.639188193 3.72568548,1.78890455 C3.19025439,2.93862091 3.41022771,4.29862886 4.280796,5.22093304 C5.15136429,6.14323723 6.49642446,6.44126917 7.67510323,5.97302725 C8.85378201,5.50478532 9.62765012,4.36498796 9.62798697,3.096708 C9.65333477,2.29912326 9.35959409,1.52435537 8.81184237,0.944052015 C8.26409066,0.363748659 7.50755049,0.0258198957 6.70983126,0.00513291163 Z" id="Path_113"></path>
                        <path d="M7.58121011,6.86697375 L7.02241434,7.74477554 L7.02241434,12.7503867 C6.98823791,12.8953987 6.85881611,12.9978641 6.70983126,12.9978641 C6.56084641,12.9978641 6.43142461,12.8953987 6.39724818,12.7503867 L6.39724818,7.74477554 L5.83845241,6.86697375 C0.768611813,8.95442923 1.53294167,8.45343991 0,14.9598781 L13.4196625,14.9598781 C11.8867209,8.45343991 12.6510507,8.95442923 7.58121011,6.86697375 Z" id="Path_114"></path>
                    </g>
                    <path d="M768.268525,63.6233397 C766.442265,65.4957178 766.47965,68.4940561 768.352027,70.3203173 C770.224404,72.1465785 773.222742,72.1091951 775.049005,70.2368192 C776.875267,68.3644433 776.837885,65.3661048 774.96551,63.5398415 C774.066363,62.6628376 772.855653,62.1789389 771.599725,62.1945978 C770.343796,62.2102568 769.145527,62.7241907 768.268525,63.6233397 L768.268525,63.6233397 Z" id="Path_115" fill="#CD2023"></path>
                    <path d="M645.395543,442.62406 C644.727451,443.304763 644.53589,444.321216 644.910382,445.198404 C645.284874,446.075592 646.151467,446.640295 647.105178,446.628611 C648.05889,446.616928 648.91139,446.031166 649.264281,445.145068 C649.617173,444.258969 649.400769,443.247514 648.716203,442.583382 C647.786487,441.681418 646.302885,441.699592 645.395543,442.62406 L645.395543,442.62406 Z" id="Path_119" fill="#4C4C4C"></path>
                    <path d="M670.241925,400.257864 C667.242195,398.747069 663.627642,399.192915 661.084943,401.387354 C658.542243,403.581792 657.572584,407.092281 658.628443,410.280704 C659.684302,413.469128 662.557559,415.70702 665.907453,415.950104 C669.257348,416.193187 672.423586,414.393548 673.928693,411.390959 C675.981528,407.298319 674.331729,402.316346 670.241925,400.257864 Z" id="Path_120" fill="#E5E5E5"></path>
                    <g id="Group_6" transform="translate(687.868752, 60.166673)" fill="#000000">
                        <path d="M9.55753568,1.2880166 C5.98218052,0.296328798 2.27983727,2.39069809 1.28797361,5.96600447 C0.296109954,9.54131084 2.39029714,13.2437571 5.96555473,14.2357966 C9.54081232,15.2278361 13.2433616,13.1338311 14.2355769,9.55862226 C15.2266604,5.98307191 13.1326004,2.28085047 9.55753568,1.2880166 L9.55753568,1.2880166 Z" id="Path_121"></path>
                        <path d="M9.83586308,0.283896988 C5.70540019,-0.860864524 1.42895919,1.55940302 0.283997611,5.68981046 C-0.860963969,9.8202179 1.55909643,14.0967761 5.68944841,15.2419378 C9.81980038,16.3870994 14.0964758,13.9672462 15.2418375,9.83694966 C15.7925248,7.85323912 15.5322532,5.73199369 14.518328,3.94025724 C13.5044027,2.14852078 11.8199572,0.833200787 9.83586308,0.283896988 L9.83586308,0.283896988 Z M14.2355769,9.55862226 C13.2433616,13.1338311 9.54081232,15.2278361 5.96555473,14.2357966 C2.39029714,13.2437571 0.296109954,9.54131084 1.28797361,5.96600447 C2.27983727,2.39069809 5.98218052,0.296328798 9.55753568,1.2880166 C11.2750267,1.76380328 12.7329975,2.90270112 13.6104061,4.45392732 C14.4878146,6.00515352 14.7127122,7.84150538 14.2355769,9.55862226 L14.2355769,9.55862226 Z" id="Path_122"></path>
                    </g>
                    <path d="M829.318569,83.9585299 C828.31779,84.9842583 828.337983,86.6270575 829.363671,87.6278772 C830.38936,88.628697 832.03216,88.6085693 833.033021,87.5829202 C834.033881,86.5572711 834.013818,84.9144703 832.988209,83.9135693 C832.495642,83.432869 831.83228,83.1675466 831.144077,83.1759785 C830.455873,83.1844104 829.799211,83.4659058 829.318569,83.9585299 L829.318569,83.9585299 Z" id="Path_124" fill="#4C4C4C"></path>
                    <g id="Group_7" transform="translate(461.463953, 202.234551)" fill="#333333">
                        <path d="M5.68001989,0.00455938739 C4.60687101,-0.058624437 3.60382537,0.539472885 3.14922164,1.51362697 C2.69461792,2.48778105 2.88051719,3.64071748 3.61826665,4.42261674 C4.35601612,5.20451599 5.49621529,5.45703689 6.49511887,5.05975568 C7.49402245,4.66247448 8.14934405,3.69584396 8.14856981,2.62083692 C8.18817068,1.21715491 7.08363341,0.0465178401 5.68001989,0.00455938739 Z" id="Path_125"></path>
                        <path d="M6.41865798,5.81303807 L5.94336043,6.55381715 L5.94336043,10.7929575 C5.91593382,10.9163864 5.80645926,11.0042052 5.68001989,11.0042052 C5.55358052,11.0042052 5.44410596,10.9163864 5.41667935,10.7929575 L5.41667935,6.55381715 L4.94352277,5.81303807 C0.661562814,7.57934656 1.30385681,7.15543252 6.08503109e-14,12.664174 L11.3600398,12.664174 C10.0626059,7.15543252 10.7091819,7.57934656 6.41865798,5.81303807 Z" id="Path_126"></path>
                    </g>
                    <path d="M229.1141,400.256207 C225.019449,398.198256 220.031772,399.849006 217.973341,403.943416 C215.91491,408.037827 217.565076,413.025697 221.659245,415.084607 C225.753415,417.143518 230.741478,415.493936 232.800868,411.400008 C234.859664,407.30463 233.20914,402.315677 229.1141,400.256207 Z" id="Path_127" fill="#E5E5E5"></path>
                    <path d="M637.975784,80.0019538 C636.222995,86.3246954 639.927584,92.871226 646.250285,94.6241628 C652.572985,96.3770996 659.119602,92.6726641 660.872687,86.3500046 C662.624618,80.0270827 658.920213,73.4808766 652.5978,71.7271113 C646.275017,69.9744704 639.728573,73.6792123 637.975784,80.0019538 Z" id="Path_128" fill="#CD2023"></path>
                    <polygon id="Path" fill="#FFFFFF" fill-rule="nonzero" points="644.31295 84.1757115 645.81295 82.6757115 648.31295 85.1757115 654.31295 79.1757115 655.81295 80.6757115 648.31295 88.1757115"></polygon>
                    <g id="Group_8" transform="translate(617.945071, 318.548000)" fill="#4C4C4C">
                        <path d="M9.55187908,1.29299943 C6.93322474,0.567295296 4.13526694,1.4904966 2.46270029,3.6321123 C0.790133639,5.77372801 0.572345042,8.71199904 1.91088986,11.0768024 C3.24943467,13.4416057 5.88070659,14.7672288 8.57773703,14.4355304 C11.2747675,14.1038319 13.5064167,12.180135 14.2320613,9.56146412 C15.2203553,5.98611207 13.1259471,2.28592699 9.55187908,1.29299943 Z" id="Path_130"></path>
                        <path d="M9.83448843,0.282456884 C6.80939605,-0.556190216 3.57699069,0.510098069 1.64464918,2.98407648 C-0.287692339,5.45805489 -0.539393589,8.85247113 1.00692199,11.5843974 C2.55323757,14.3163236 5.5930217,15.8477045 8.7087232,15.4644069 C11.8244247,15.0811092 14.4024033,12.8586238 15.2404629,9.83336858 C16.3846086,5.70319351 13.9644412,1.4274047 9.83448843,0.282456884 Z M14.2363433,9.55504118 C13.5106987,12.173712 11.2790494,14.097409 8.58201899,14.4291074 C5.88498855,14.7608059 3.25371663,13.4351828 1.91517182,11.0703794 C0.576627002,8.7055761 0.794415599,5.76730507 2.46698225,3.62568936 C4.1395489,1.48407366 6.9375067,0.560872356 9.55616104,1.28657649 C13.1292847,2.28038043 15.2219225,5.98082325 14.2320613,9.55504118 L14.2363433,9.55504118 Z" id="Path_131"></path>
                    </g>
                    <path d="M922.042271,140.814394 C921.409106,141.463537 921.229407,142.430211 921.586992,143.263528 C921.944578,144.096845 922.769002,144.63264 923.675726,144.620999 C924.58245,144.609359 925.392848,144.052577 925.728923,143.210355 C926.064998,142.368133 925.860543,141.40639 925.210921,140.773716 C924.785502,140.358601 924.212507,140.12964 923.618165,140.13727 C923.023822,140.1449 922.456893,140.388496 922.042271,140.814394 Z" id="Path_135" fill="#4C4C4C"></path>
                    <path d="M447.134374,225.509421 C444.134938,224.00095 440.522154,224.447906 437.980764,226.641862 C435.439374,228.835817 434.4699,232.344677 435.524434,235.532162 C436.578968,238.719647 439.449822,240.957989 442.798237,241.203386 C446.146652,241.448784 449.313164,239.652907 450.821141,236.653222 C452.878661,232.557751 451.228445,227.569727 447.134374,225.509421 L447.134374,225.509421 Z" id="Path_138" fill="#E5E5E5"></path>
                    <path d="M562.016463,376.814303 C560.263674,383.137045 563.968263,389.683575 570.290963,391.436512 C576.613664,393.189449 583.160281,389.485013 584.913366,383.162354 C585.755279,380.125916 585.356432,376.879391 583.804573,374.137037 C582.252714,371.394683 579.674975,369.381161 576.638478,368.539461 C570.315696,366.78682 563.769252,370.491562 562.016463,376.814303 Z" id="Path_139" fill="#CD2023"></path>
                    <g id="Group_11" transform="translate(461.559190, 410.386885)" fill="#89807B">
                        <path d="M8.26314851,0.685391061 C5.55749087,-0.793767404 2.16502945,0.200341612 0.685629601,2.90586727 C-0.793770253,5.61139293 0.200036089,9.00394303 2.90542975,10.4835843 C5.6108234,11.9632255 9.00346215,10.9697218 10.4833448,8.26446019 C11.1947609,6.96515857 11.360506,5.43634812 10.9440723,4.01477132 C10.5276387,2.59319451 9.56318587,1.39546181 8.26314851,0.685391061 Z" id="Path_143"></path>
                    </g>
                    <g id="Group_12" transform="translate(28.326575, 435.357465)" fill="#333333">
                        <path d="M11.1330959,0.0086730459 C9.03201953,-0.113215924 7.06903297,1.05848441 6.17911539,2.965688 C5.28919781,4.87289159 5.65229107,7.12996075 7.09545224,8.66184346 C8.53861342,10.1937262 10.7700345,10.6906749 12.7268797,9.91599067 C14.6837249,9.14130647 15.9703191,7.25163098 15.9738516,5.147025 C16.0136225,3.82362883 15.5258893,2.53866544 14.6180075,1.57496956 C13.7101256,0.611273684 12.4565102,0.0478351493 11.1330959,0.0086730459 L11.1330959,0.0086730459 Z" id="Path_144"></path>
                        <path d="M12.5782574,11.3944046 L11.6490721,12.850271 L11.6490721,21.1594143 C11.5929565,21.3996665 11.378744,21.569611 11.1320254,21.569611 C10.8853068,21.569611 10.6710943,21.3996665 10.6149787,21.1594143 L10.6149787,12.850271 L9.68579343,11.3944046 C1.27602407,14.8606512 2.54348422,14.02781 7.60628886e-15,24.824772 L22.2661918,24.824772 C19.7227076,14.02781 20.9901677,14.8692151 12.5782574,11.3944046 Z" id="Path_145"></path>
                    </g>
                    <path d="M901.840778,119.695971 C898.655685,118.095159 894.775938,119.379222 893.174754,122.564127 C891.573569,125.749032 892.857178,129.628929 896.041895,131.230487 C899.226613,132.832044 903.10666,131.54889 904.708591,128.36436 C905.478105,126.834618 905.608261,125.0618 905.070413,123.436075 C904.532564,121.810349 903.370791,120.464948 901.840778,119.695971 L901.840778,119.695971 Z" id="Path_149" fill="#CD2023"></path>
                    <polygon id="Path" fill="#FFFFFF" fill-rule="nonzero" points="895.387168 125.772624 896.314336 124.845455 897.859617 126.390736 901.568292 122.682062 902.49546 123.609231 897.859617 128.245074"></polygon>
                    <path d="M378.223184,281.869636 C368.283724,279.116027 357.993867,284.940892 355.23957,294.880161 C352.485272,304.81943 358.309424,315.109691 368.248502,317.864677 C378.18758,320.619663 388.478245,314.796225 391.23392,304.857338 C393.988865,294.916658 388.163805,284.624793 378.223184,281.869636 Z" id="Path_150" fill="#CD2023"></path>
                    <g id="Group_14" transform="translate(105.594567, 356.408117)">
                        <path d="M8.51465332,0.244892225 C5.89609122,-0.481652343 3.097716,0.440819921 1.424527,2.58212164 C-0.248662004,4.72342336 -0.467120844,7.66181317 0.871026967,10.0269971 C2.20917478,12.392181 4.84037353,13.7183228 7.53758527,13.3869871 C10.234797,13.0556514 12.4667908,11.1320967 13.1926946,8.51335691 C14.183675,4.9383379 12.0894297,1.23674741 8.51465332,0.244892225 Z" id="Path_153" fill="#CD2023"></path>
                        <polygon id="Path" fill="#FFFFFF" fill-rule="nonzero" points="3.16511627 7.02770571 4.0922849 6.10053707 5.63756596 7.64581813 9.34624049 3.9371436 10.2734091 4.86431223 5.63756596 9.50015539"></polygon>
                    </g>
                    <g id="Group_16" transform="translate(680.333354, 306.919055)" fill="#CD2023">
                        <path d="M8.35708568,0.692666603 C5.61983272,-0.802964051 2.18840306,0.203533321 0.692719171,2.9407572 C-0.802964714,5.67798108 0.203465926,9.10943031 2.94066072,10.6051674 C5.67785551,12.1009045 9.10932431,11.0945406 10.6051147,8.35737493 C11.3234558,7.04287343 11.4901697,5.49684401 11.0685787,4.05941952 C10.6469877,2.62199502 9.67162909,1.41093102 8.35708568,0.692666603 L8.35708568,0.692666603 Z" id="Path_159"></path>
                    </g>
                    <path d="M425.985774,244.778241 C424.159513,246.650619 424.196899,249.648958 426.069276,251.475219 C427.941653,253.30148 430.939991,253.264097 432.766253,251.391721 C434.592515,249.519345 434.555134,246.521006 432.682759,244.694743 C430.809907,242.869664 427.812541,242.907035 425.985774,244.778241 Z" id="Path_160" fill="#4C4C4C"></path>
                    <path d="M17.8657468,398.644049 C16.7939377,399.744988 16.8170174,401.506191 17.9173081,402.578666 C19.0175988,403.65114 20.7788155,403.629125 21.8519548,402.529483 C22.925094,401.42984 22.9041434,399.668611 21.80515,398.594807 C21.2765436,398.078317 20.5642237,397.793267 19.8252368,397.802505 C19.0862499,397.811742 18.3812778,398.114507 17.8657468,398.644049 L17.8657468,398.644049 Z" id="Path_161" fill="#CD2023"></path>
                    <path d="M883.444684,76.5336114 C882.372875,77.6345501 882.395955,79.3957532 883.496245,80.4682276 C884.596536,81.540702 886.357753,81.5186867 887.430892,80.4190445 C888.504031,79.3194022 888.483081,77.5581725 887.384087,76.4843688 C886.855481,75.9678785 886.143161,75.6828293 885.404174,75.6920667 C884.665187,75.701304 883.960215,76.0040693 883.444684,76.5336114 L883.444684,76.5336114 Z" id="Path_162" fill="#4C4C4C"></path>
                    <path d="M246.014996,476.905432 C244.943187,478.00637 244.966267,479.767573 246.066558,480.840048 C247.166848,481.912522 248.928065,481.890507 250.001204,480.790865 C251.074344,479.691222 251.053393,477.929993 249.9544,476.856189 C249.425793,476.339699 248.713473,476.05465 247.974486,476.063887 C247.2355,476.073124 246.530527,476.37589 246.014996,476.905432 Z" id="Path_163" fill="#CD2023"></path>
                    <path d="M266.266851,382.5867 C265.195042,383.687638 265.218121,385.448841 266.318412,386.521316 C267.418703,387.59379 269.17992,387.571775 270.253059,386.472133 C271.326198,385.37249 271.305247,383.611261 270.206254,382.537457 C269.677648,382.020967 268.965328,381.735918 268.226341,381.745155 C267.487354,381.754392 266.782382,382.057157 266.266851,382.5867 L266.266851,382.5867 Z" id="Path_164" fill="#CD2023"></path>
                    <path d="M860.126946,206.101438 C859.055137,207.202377 859.078217,208.96358 860.178508,210.036054 C861.278798,211.108528 863.040015,211.086513 864.113154,209.986871 C865.186294,208.887229 865.165343,207.125999 864.06635,206.052195 C863.537743,205.535705 862.825423,205.250656 862.086436,205.259893 C861.347449,205.26913 860.642477,205.571896 860.126946,206.101438 L860.126946,206.101438 Z" id="Path_165" fill="#4C4C4C"></path>
                    <path d="M357.167102,367.903903 C356.095293,369.004842 356.118373,370.766045 357.218664,371.83852 C358.318954,372.910994 360.080171,372.888979 361.15331,371.789337 C362.22645,370.689694 362.205499,368.928465 361.106506,367.854661 C360.577899,367.338171 359.865579,367.053121 359.126592,367.062359 C358.387606,367.071596 357.682633,367.374361 357.167102,367.903903 Z" id="Path_166" fill="#4C4C4C"></path>
                    <path d="M847.630371,168.075168 C846.558562,169.176106 846.581642,170.93731 847.681932,172.009784 C848.782223,173.082258 850.54344,173.060243 851.616579,171.960601 C852.689718,170.860959 852.668767,169.099729 851.569774,168.025925 C851.041168,167.509435 850.328848,167.224386 849.589861,167.233623 C848.850874,167.24286 848.145902,167.545626 847.630371,168.075168 L847.630371,168.075168 Z" id="Path_167" fill="#CD2023"></path>
                    <g id="Group_17" transform="translate(793.108175, 124.001001)" fill="#B2B2B2">
                        <path d="M5.68001989,0.00455940852 C4.6070659,-0.0586132158 3.60416771,0.539257165 3.14944759,1.51314148 C2.69472746,2.48702579 2.88023501,3.63977933 3.61753125,4.4218377 C4.35482749,5.20389607 5.49466056,5.45694615 6.49362578,5.0603487 C7.49259099,4.66375125 8.14846649,3.69779002 8.14856981,2.62297792 C8.18818308,1.2189245 7.08397018,0.0476735192 5.68001989,0.00455940852 L5.68001989,0.00455940852 Z" id="Path_168"></path>
                        <path d="M6.41865798,5.8130381 L5.94336043,6.55595815 L5.94336043,10.7950985 C5.91593382,10.9185274 5.80645926,11.0063462 5.68001989,11.0063462 C5.55358052,11.0063462 5.44410596,10.9185274 5.41667935,10.7950985 L5.41667935,6.55595815 L4.94138179,5.8130381 C0.659421834,7.58148756 1.30171583,7.15543254 0,12.664174 L11.3600398,12.664174 C10.0626059,7.15543254 10.7091819,7.58148756 6.41865798,5.8130381 Z" id="Path_169"></path>
                    </g>
                    <g id="Group_20" transform="translate(368.823749, 506.187857)" fill="#CD2023">
                        <path d="M4.40827778,0.00355283841 C3.57521414,-0.0455876484 2.79650601,0.418593092 2.44347494,1.17475371 C2.09044387,1.93091433 2.23457355,2.82594324 2.80713674,3.43305214 C3.37969992,4.04016104 4.26476086,4.23641915 5.0402844,3.92824218 C5.81580795,3.6200652 6.3247618,2.86985451 6.32445486,2.03534284 C6.35565795,0.94541676 5.49816205,0.0361836722 4.40827778,0.00355283841 L4.40827778,0.00355283841 Z" id="Path_185"></path>
                        <path d="M4.97991943,4.51245668 L4.61167088,5.08838029 L4.61167088,8.37692554 C4.58385475,8.46648684 4.50098875,8.52752083 4.40720729,8.52752083 C4.31342583,8.52752083 4.23055983,8.46648684 4.2027437,8.37692554 L4.2027437,5.08838029 L3.83449514,4.51245668 C0.505271275,5.88268386 1.00840157,5.55297295 0,9.82850997 L8.81441458,9.82850997 C7.81885889,5.55297295 8.3091433,5.88268386 4.97991943,4.51245668 Z" id="Path_186"></path>
                    </g>
                    <g id="Group_26" transform="translate(182.967418, 341.547189)" fill="#333333">
                        <path d="M7.38209897,0.00548860259 C5.99002499,-0.0734344904 4.69056273,0.704531744 4.10265633,1.96883585 C3.51474992,3.23313996 3.75727545,4.72813661 4.71471609,5.74174711 C5.67215674,6.75535761 7.15091569,7.08262747 8.44664841,6.56767547 C9.74238113,6.05272348 10.5930873,4.79967417 10.5935689,3.40536481 C10.6451498,1.57986206 9.20757659,0.0579512251 7.38209897,0.00548860259 L7.38209897,0.00548860259 Z" id="Path_230"></path>
                        <path d="M8.33911702,7.54816107 L7.72465577,8.51160206 L7.72465577,14.0160616 C7.68511177,14.1730161 7.54395832,14.2830176 7.38209897,14.2830176 C7.22023962,14.2830176 7.07908617,14.1730161 7.03954218,14.0160616 L7.03954218,8.51160206 L6.42293994,7.54816107 C0.856391992,9.84329161 1.69137418,9.29091878 0,16.4439329 L14.7492111,16.4439329 C13.0706828,9.29091878 13.9099469,9.84329161 8.33911702,7.54816107 Z" id="Path_231"></path>
                    </g>
                </g>
                <g id="network-copy-2" transform="translate(469.493440, 732.273158) scale(-1, -1) translate(-469.493440, -732.273158) translate(0.000000, 319.149048)">
                    <path d="M71.8170325,665.317738 C122.65032,638.553347 175.085061,640.587278 230.598531,642.728258 C235.98914,642.93751 241.480765,643.150723 247.000078,643.335633 L247.000101,643.875997 C241.470831,643.690893 235.969442,643.477353 230.570698,643.267785 C175.125739,641.128946 122.763792,639.099297 72.0568222,665.795176 C45.9680282,679.790796 21.758916,697.037595 0.00856391992,717.12303 L0.00856391992,717.12303 L0.00856391992,716.55353 C21.7005163,696.530085 45.8262395,679.316231 71.8170325,665.317738 Z" id="Combined-Shape" fill="#A9A9A9" fill-rule="nonzero"></path>
                    <rect id="Rectangle" fill="#ABABAB" x="847.163414" y="817.236464" width="2.78327534" height="9.0117558"></rect>
                    <path d="M916.16173,383.508711 C859.701947,345.060993 801.308859,305.300854 724.554727,310.100931 C683.148174,312.687235 640.157296,327.738324 593.130671,356.117013 C540.209928,388.051871 483.69662,435.840685 420.353586,502.213205 C284.206528,644.881688 149.483222,710.79818 19.9453695,698.112874 C13.1841547,697.451311 6.54283482,696.55424 3.41060513e-13,695.488032 L3.41060513e-13,696.038264 C6.61348716,697.108754 13.2441022,697.99512 19.889704,698.645978 C30.2235007,699.65652 40.6136766,700.163932 51.0602316,700.163932 C100.696711,700.163932 151.457206,688.748227 202.376133,666.088095 C274.276663,634.091149 347.748673,579.082951 420.738963,502.587877 C684.379238,226.311538 802.05392,306.45056 915.859852,383.951894 C923.169158,388.929673 930.538411,393.941707 937.976175,398.876666 L937.976175,398.234372 C930.722535,393.417167 923.464613,388.482208 916.16173,383.508711 Z" id="Path_108" fill="#AEAEAE" fill-rule="nonzero"></path>
                    <path d="M722.756466,62.3111323 C688.866894,32.8619527 631.991761,2.0297 588.859578,0.0856901749 C587.587836,0.0271700555 586.321089,0 585.059339,0 C567.571814,0 550.870029,5.50879247 534.127566,16.783193 C516.477327,28.6656319 501.533287,45.4273642 491.828224,56.999361 C438.016834,121.164531 407.343013,193.576756 374.868629,270.240967 C365.429048,292.528569 355.66618,315.569795 345.383053,338.12716 C325.850892,380.959606 300.850669,424.522125 266.70632,475.220531 C246.64962,504.997281 218.371556,541.640153 177.378213,560.838321 C156.349507,570.686829 129.326058,575.491188 101.236401,574.375737 C67.3639564,573.024779 33.8169411,566.747425 1.00856392,559.538746 L1.00856392,560.086837 C33.8040953,567.289093 67.3382647,573.560024 101.217132,574.910982 C129.358173,576.034997 156.499376,571.209228 177.603016,561.324323 C218.709831,542.068349 247.056406,505.352684 267.149503,475.518128 C301.315262,424.796171 326.32619,381.212241 345.871196,338.349822 C356.158605,315.786034 365.919333,292.746949 375.361054,270.448642 C407.820452,193.822969 438.477144,121.436435 492.237152,57.3440588 C515.905685,29.1238016 545.354865,0.537436951 585.070044,0.537436951 C586.313953,0.537436951 587.572849,0.565269691 588.833886,0.62307615 C631.846174,2.56280401 688.586426,33.3286863 722.405345,62.7114956 C792.80719,123.900703 865.598368,168.523008 938.971893,195.563585 L938.971893,194.692206 C872.978326,170.374956 799.778221,129.253153 722.756466,62.3111323 Z" id="Path_109" fill="#CD2023" fill-rule="nonzero"></path>
                    <g id="Group_3" transform="translate(1.008564, 303.226664)" fill="#DECACC" fill-rule="nonzero">
                        <path d="M928.772102,10.8299048 C894.644881,6.03625058 859.355108,1.07774094 823.787008,0.10573603 C787.71451,-0.637098504 751.667881,2.53584337 716.279839,9.56886754 C680.874065,16.5971487 646.050282,26.2920121 612.106176,38.5705824 C556.943827,58.2568933 514.9378,78.8702485 479.909227,103.442276 C462.995485,115.303305 442.502024,132.20206 418.762838,151.772758 C331.926831,223.352142 201.466216,330.893566 70.7486834,330.893566 C68.4920906,330.893566 66.2269337,330.861451 63.9703408,330.797222 C42.4681896,329.846528 20.9383289,331.892221 0,336.875464 L0,337.342198 C17.9364176,333.038543 36.3371011,330.974605 54.7812548,331.197585 C57.7786267,331.197585 60.8359461,331.242546 63.953213,331.332467 C122.789484,333.025982 186.237426,313.251891 257.893885,270.879756 C318.821893,234.849204 374.423143,189.015105 419.109677,152.183826 C442.84244,132.623833 463.3359,115.72936 480.226092,103.881177 C515.213986,79.3369822 557.179335,58.7450367 612.294583,39.0758536 C688.665479,11.8233195 759.82309,-1.10819962 823.782726,0.640981026 C859.322994,1.61298594 894.595639,6.56935459 928.707873,11.3608678 C931.786602,11.7890638 934.87675,12.2208281 937.978316,12.6561607 L937.978316,12.1187747 L928.772102,10.8299048 Z" id="Path_110"></path>
                    </g>
                </g>
                <g id="Group" transform="translate(1291.745186, 280.887025)" fill-rule="nonzero">
                    <circle id="Oval" fill="#CD2023" cx="20.5" cy="20.5" r="20.5"></circle>
                    <path d="M23.455814,25.6403383 L23.455814,23.7929784 L21.4668491,23.5444119 C21.3420188,23.0176103 21.1332209,22.5143313 20.8484642,22.0538792 L22.0796045,20.4728405 L20.7731148,19.1641856 L19.1899109,20.3953259 C18.7294588,20.1105692 18.2261798,19.9017713 17.6993782,19.776941 L17.4508117,17.7879762 L15.6034518,17.7879762 L15.3548854,19.776941 C14.8280837,19.9017713 14.3248048,20.1105692 13.8643526,20.3953259 L12.283314,19.1641856 L10.9746591,20.4728405 L12.2057993,22.0538792 C11.9210426,22.5143313 11.7122447,23.0176103 11.5874144,23.5444119 L9.59844961,23.7929784 L9.59844961,25.6403383 L11.5874144,25.8889047 C11.7122447,26.4157064 11.9210426,26.9189853 12.2057993,27.3794375 L10.9746591,28.9626414 L12.283314,30.269131 L13.8665178,29.0379908 C14.32697,29.3227475 14.830249,29.5315454 15.3570506,29.6563757 L15.6034518,31.6453405 L17.4508117,31.6453405 L17.6993782,29.6563757 C18.2261798,29.5315454 18.7294588,29.3227475 19.1899109,29.0379908 L20.7731148,30.269131 L22.0796045,28.9626414 L20.8484642,27.3794375 C21.1332209,26.9189853 21.3420188,26.4157064 21.4668491,25.8889047 L23.455814,25.6403383 Z M16.5271318,26.8818715 C15.3313176,26.8818715 14.3619186,25.9124725 14.3619186,24.7166583 C14.3619186,23.5208441 15.3313176,22.5514451 16.5271318,22.5514451 C17.722946,22.5514451 18.692345,23.5208441 18.692345,24.7166583 C18.692345,25.2909086 18.4642249,25.841639 18.0581687,26.2476952 C17.6521125,26.6537515 17.101382,26.8818715 16.5271318,26.8818715 Z" id="Shape" fill="#FFFFFF" transform="translate(16.527132, 24.716658) rotate(17.000000) translate(-16.527132, -24.716658) "></path>
                    <path d="M32.9440602,15.6749396 L32.9440602,13.8275797 L30.9550954,13.5790133 C30.8302651,13.0522116 30.6214672,12.5489327 30.3367105,12.0884805 L31.5678507,10.5074419 L30.2613611,9.19878702 L28.6781572,10.4299272 C28.2177051,10.1451705 27.7144261,9.93637263 27.1876244,9.81154234 L26.939058,7.82257752 L25.0916981,7.82257752 L24.8431316,9.81154234 C24.31633,9.93637263 23.813051,10.1451705 23.3525989,10.4299272 L21.7715602,9.19878702 L20.4629054,10.5074419 L21.6940456,12.0884805 C21.4092889,12.5489327 21.200491,13.0522116 21.0756607,13.5790133 L19.0866959,13.8275797 L19.0866959,15.6749396 L21.0756607,15.9235061 C21.200491,16.4503077 21.4092889,16.9535867 21.6940456,17.4140389 L20.4629054,18.9972427 L21.7715602,20.3037324 L23.3547641,19.0725922 C23.8152162,19.3573488 24.3184952,19.5661467 24.8452968,19.690977 L25.0916981,21.6799419 L26.939058,21.6799419 L27.1876244,19.690977 C27.7144261,19.5661467 28.2177051,19.3573488 28.6781572,19.0725922 L30.2613611,20.3037324 L31.5678507,18.9972427 L30.3367105,17.4140389 C30.6214672,16.9535867 30.8302651,16.4503077 30.9550954,15.9235061 L32.9440602,15.6749396 Z M26.015378,16.9164729 C24.8195638,16.9164729 23.8501649,15.9470739 23.8501649,14.7512597 C23.8501649,13.5554455 24.8195638,12.5860465 26.015378,12.5860465 C27.2111923,12.5860465 28.1805912,13.5554455 28.1805912,14.7512597 C28.1805912,15.3255099 27.9524712,15.8762404 27.546415,16.2822966 C27.1403587,16.6883528 26.5896283,16.9164729 26.015378,16.9164729 Z" id="Shape-Copy" fill="#FFFFFF" transform="translate(26.015378, 14.751260) rotate(1.000000) translate(-26.015378, -14.751260) "></path>
                </g>
                <polygon id="Path" fill="#FFFFFF" fill-rule="nonzero" points="1507.01214 381.026269 1508.34548 379.692936 1510.5677 381.915158 1515.90103 376.581825 1517.23436 377.915158 1510.5677 384.581825"></polygon>
            </g>
        </g>
    </g>
</svg>