<?xml version="1.0" encoding="UTF-8"?>
<svg width="1066px" height="1050px" viewBox="0 0 1066 1050" version="1.1" xmlns="http://www.w3.org/2000/svg" xmlns:xlink="http://www.w3.org/1999/xlink">
    <title>Combined Shape Copy 2</title>
    <g id="Page-1" stroke="none" stroke-width="1" fill="none" fill-rule="evenodd">
        <g id="10x" transform="translate(-267.000000, 0.000000)" fill-rule="nonzero" stroke="#D9D9D9">
            <path d="M495.152678,1.21865571 L495.152678,987.602171 L651.283822,987.602171 L651.283822,1049.79 L267.571688,1049.79 L267.571688,987.602171 L423.702832,987.602171 L423.702832,64.7296296 L267.571688,64.7296296 L267.571688,1.21865571 L495.152678,1.21865571 Z M1332.22114,342.204946 L1332.42831,356.304019 L1332.42831,692.855567 C1332.42831,1162.81184 651.068763,1168.78259 637.441572,706.99239 L637.234404,692.855567 L637.234404,356.304019 C637.234404,-114.936284 1318.59395,-118.377494 1332.22114,342.204946 Z M706.141791,344.786624 L705.975593,356.304019 L705.975593,692.855567 C705.975593,1078.06562 1252.58866,1080.64653 1263.52093,704.373732 L1263.68712,692.855567 L1263.68712,356.304019 C1263.68712,-26.3379708 717.074052,-31.4355839 706.141791,344.786624 Z" id="Combined-Shape-Copy-2"></path>
        </g>
    </g>
</svg>