<?xml version="1.0" encoding="UTF-8"?>
<svg width="779px" height="539px" viewBox="0 0 779 539" version="1.1" xmlns="http://www.w3.org/2000/svg" xmlns:xlink="http://www.w3.org/1999/xlink">
    <title>Group 21</title>
    <g id="Webpages" stroke="none" stroke-width="1" fill="none" fill-rule="evenodd">
        <g id="Group-21" transform="translate(0.811555, 1.378389)">
            <g id="file-folder" transform="translate(192.878369, 352.970480)" stroke="#212121" stroke-linecap="square" stroke-width="2">
                <path d="M40.9090909,45 L4.09090909,45 C1.83156239,45 0,43.1684376 0,40.9090909 L0,8.18181818 L14.3181818,8.18181818 L20.4545455,16.3636364 L45,16.3636364 L45,40.9090909 C45,43.1684376 43.1684376,45 40.9090909,45 Z" id="Path"></path>
                <polyline id="Path" points="4.09090909 0 40.9090909 0 40.9090909 8.18181818"></polyline>
            </g>
            <g id="decentralize" transform="translate(419.809516, 202.755961) rotate(-90.000000) translate(-419.809516, -202.755961) translate(394.459816, 179.821961)" fill="#CD2023" fill-rule="nonzero">
                <path d="M10.1408594,45.6265198 C10.674168,46.0265013 11.4307491,45.9184183 11.8307305,45.3851097 C12.230712,44.8518011 12.122629,44.09522 11.5893204,43.6952386 C3.69213964,37.772353 0.470995042,27.4606144 3.59262982,18.0957101 C6.71426459,8.73080573 15.4782235,2.41410158 25.3496994,2.41410158 C35.2211753,2.41410158 43.9851341,8.73080573 47.1067689,18.0957101 C50.2284037,27.4606144 47.0072591,37.772353 39.1100784,43.6952386 C38.7650882,43.9539812 38.5843417,44.3771193 38.6359243,44.8052609 C38.6875069,45.2334024 38.963582,45.6015026 39.3601547,45.7709015 C39.7567275,45.9403004 40.2135491,45.8852624 40.5585393,45.6265198 C49.2870022,39.0801726 52.8472147,27.6829878 49.3969868,17.3323041 C45.9467588,6.98162038 36.260278,2.33814713e-13 25.3496994,2.33814713e-13 C14.4391207,2.33814713e-13 4.75263988,6.98162038 1.30241197,17.3323041 C-2.14781594,27.6829878 1.41239651,39.0801726 10.1408594,45.6265198 L10.1408594,45.6265198 Z" id="Path" transform="translate(25.349699, 22.934001) rotate(-180.000000) translate(-25.349699, -22.934001) "></path>
                <circle id="Oval" cx="24.87509" cy="20.5121291" r="12.0705079"></circle>
            </g>
            <g id="logo-github" transform="translate(393.593444, 339.970480)" fill="#191717">
                <path d="M24.0934454,1.00315595e-15 C10.7889084,1.00315595e-15 0,10.7875731 0,24.096397 C0,34.7409462 6.90327817,43.7720138 16.4788326,46.9585778 C17.6836228,47.1795691 18.1233767,46.4356962 18.1233767,45.7971385 C18.1233767,45.2251432 18.1025244,43.7098788 18.0908384,41.6991008 C11.3884322,43.1551918 9.97420619,38.4691859 9.97420619,38.4691859 C8.87857636,35.6856811 7.29896829,34.9446193 7.29896829,34.9446193 C5.11127267,33.4496248 7.46449091,33.4799444 7.46449091,33.4799444 C9.88249459,33.6503462 11.1551625,35.9630246 11.1551625,35.9630246 C13.304547,39.6451224 16.7944972,38.5818903 18.1674605,37.9650783 C18.3863736,36.4079589 19.0088178,35.3462127 19.697222,34.7438878 C14.3467763,34.1358003 8.72193877,32.06866 8.72193877,22.8353951 C8.72193877,20.204984 9.66077038,18.0541336 11.2020574,16.3698027 C10.9543005,15.7602393 10.1274404,13.3104403 11.4382787,9.99311073 C11.4382787,9.99311073 13.4613352,9.3452363 18.0642134,12.4631797 C19.986101,11.9287526 22.0473179,11.6614687 24.0964171,11.652152 C26.1425546,11.6614687 28.2039221,11.9287526 30.1286208,12.4631797 C34.7286879,9.3452363 36.7480498,9.99311073 36.7480498,9.99311073 C38.0625827,13.3104403 37.2355821,15.7602393 36.9878252,16.3698027 C38.5320738,18.0541336 39.4645404,20.204994 39.4645404,22.8353951 C39.4645404,32.091741 33.8309784,34.1285517 28.4632245,34.7251038 C29.3283856,35.4689767 30.0990341,36.9395649 30.0990341,39.1871667 C30.0990341,42.4083472 30.0694475,45.0071035 30.0694475,45.7971284 C30.0694475,46.4414488 30.5034386,47.1910945 31.72627,46.9557567 C41.2924775,43.7632794 48.190003,34.7381351 48.190003,24.096397 C48.190003,10.7875731 37.400944,1.00315595e-15 24.0934454,1.00315595e-15 Z" id="Path"></path>
            </g>
            <g id="mobile-dev" transform="translate(611.570376, 0.000000)" stroke="#212121" stroke-linecap="square" stroke-width="2">
                <polyline id="Path" points="15.1547093 21.216593 9.09282559 27.2784768 15.1547093 33.3403605"></polyline>
                <polyline id="Path" points="27.2784768 21.216593 33.3403605 27.2784768 27.2784768 33.3403605"></polyline>
                <path d="M36.3713024,66.680721 L6.06188373,66.680721 C2.72784768,66.680721 0,63.9528733 0,60.6188373 L0,6.06188373 C0,2.72784768 2.72784768,0 6.06188373,0 L36.3713024,0 C39.7053384,0 42.4331861,2.72784768 42.4331861,6.06188373 L42.4331861,60.6188373 C42.4331861,63.9528733 39.7053384,66.680721 36.3713024,66.680721 Z" id="Path"></path>
                <circle id="Oval" fill="#000000" cx="21.216593" cy="54.5569536" r="3.03094186"></circle>
                <line x1="0" y1="12.1237675" x2="42.4331861" y2="12.1237675" id="Path"></line>
                <line x1="0" y1="42.4331861" x2="42.4331861" y2="42.4331861" id="Path"></line>
            </g>
            <text id="Mobile-apps" font-family="Poppins-SemiBold, Poppins" font-size="16" font-weight="500" fill="#000000">
                <tspan x="679.174196" y="40.8403605">Mobile apps</tspan>
            </text>
            <text id="Web-apps" font-family="Poppins-SemiBold, Poppins" font-size="16" font-weight="500" fill="#000000">
                <tspan x="679.534196" y="382.47048">Web apps</tspan>
            </text>
            <text id="BI,-ML" font-family="Poppins-SemiBold, Poppins" font-size="16" font-weight="500" fill="#000000">
                <tspan x="678.894196" y="209.730571">BI, ML</tspan>
            </text>
            <text id="APIs" font-family="Poppins-SemiBold, Poppins" font-size="16" font-weight="500" fill="#000000">
                <tspan x="131.16" y="38.4155108">APIs</tspan>
            </text>
            <text id="Files:-CSV,-XML,-JSO" font-family="Poppins-SemiBold, Poppins" font-size="16" font-weight="500" fill="#000000">
                <tspan x="46.552" y="353.47048">Files: CSV, XML, </tspan>
                <tspan x="71.016" y="376.47048">JSON, Excel, </tspan>
                <tspan x="89.784" y="399.47048">Parquet…</tspan>
            </text>
            <text id="RDMBS:-Oracle,-mySQL" font-family="Poppins-SemiBold, Poppins" font-size="16" font-weight="500" fill="#000000">
                <tspan x="44.696" y="184.730571">RDMBS: Oracle, </tspan>
                <tspan x="7.032" y="207.730571">mySQL, PostgreSQL, </tspan>
                <tspan x="79.368" y="230.730571">Teradata…</tspan>
            </text>
            <g id="icon-databases" transform="translate(188.386186, 175.730571)" stroke="#000000" stroke-width="2">
                <g id="database">
                    <path d="M0,5.25807874 L0,34.1775117 C0,37.2009072 8.01857009,39.4355906 17.0887559,39.4355906" id="Path"></path>
                    <path d="M34.1775117,5.25807874 C34.1775117,8.28147401 26.1589418,10.5161575 17.0887559,10.5161575 C8.01857009,10.5161575 0,8.28147401 0,5.25807874 C0,2.23468346 8.01857009,0 17.0887559,0 C26.1589418,0 34.1775117,2.23468346 34.1775117,5.25807874 Z" id="Path"></path>
                    <path d="M17.0887559,24.975874 C16.1957434,24.975874 15.3129248,24.954212 14.4469492,24.9122679 C6.51734882,24.5281936 0,22.4435197 0,19.7177953" id="Path"></path>
                </g>
                <g id="database-copy" transform="translate(19.806853, 13.564409)">
                    <path d="M0,5.25807874 L0,34.1775117 C0,37.2009072 8.01857009,39.4355906 17.0887559,39.4355906 C26.1589418,39.4355906 34.1775117,37.2009072 34.1775117,34.1775117 L34.1775117,5.25807874" id="Path"></path>
                    <path d="M34.1775117,5.25807874 C34.1775117,8.28147401 26.1589418,10.5161575 17.0887559,10.5161575 C8.01857009,10.5161575 0,8.28147401 0,5.25807874 C0,2.23468346 8.01857009,0 17.0887559,0 C26.1589418,0 34.1775117,2.23468346 34.1775117,5.25807874 Z" id="Path"></path>
                    <path d="M34.1775117,19.7177953 C34.1775117,22.7411906 26.1589418,24.975874 17.0887559,24.975874 C8.01857009,24.975874 0,22.7411906 0,19.7177953" id="Path"></path>
                </g>
            </g>
            <g id="cloud-mining" transform="translate(183.878634, 1.840361)" stroke="#212121" stroke-width="2">
                <circle id="Oval" stroke-linecap="square" cx="5.24995581" cy="57.7500442" r="5.24995581"></circle>
                <circle id="Oval" stroke-linecap="square" cx="31.4997348" cy="57.7500442" r="5.24995581"></circle>
                <circle id="Oval" stroke-linecap="square" cx="57.7495139" cy="57.7500442" r="5.24995581"></circle>
                <line x1="31.4997348" y1="52.5000884" x2="31.4997348" y2="37.8002121" id="Path"></line>
                <polyline id="Path" points="54.0388451 54.0393754 48.2995934 48.3001237 48.2995934 37.8002121"></polyline>
                <polyline id="Path" points="8.96272455 54.0372754 14.6998763 48.3001237 14.6998763 37.8002121"></polyline>
                <path d="M50.3995757,12.6004243 C50.0362788,12.6004243 49.6771818,12.6256241 49.3201848,12.6550238 C46.6751937,5.07659428 39.5264759,0 31.4997348,0 C23.4729938,0 16.3242759,5.07659428 13.6792848,12.6550238 C13.3222879,12.6256241 12.9631909,12.6004243 12.5998939,12.6004243 C5.64116466,12.6004243 0,18.2415889 0,25.2003182 C0,32.1590475 5.64116466,37.8002121 12.5998939,37.8002121 L50.3995757,37.8002121 C57.358305,37.8002121 62.9994697,32.1590475 62.9994697,25.2003182 C62.9994697,18.2415889 57.358305,12.6004243 50.3995757,12.6004243 Z" id="Path" stroke-linecap="square"></path>
            </g>
            <g id="icon-bi-users" transform="translate(612.036969, 178.730571)" fill-rule="nonzero">
                <path d="M27.8510638,26.8333333 L19.893617,26.8333333 C18.7954894,26.8333333 17.9042553,27.6546666 17.9042553,28.6666667 L17.9042553,45.1666667 C17.9042553,46.1786667 18.7954894,47 19.893617,47 L27.8510638,47 C28.9491915,47 29.8404255,46.1786667 29.8404255,45.1666667 L29.8404255,28.6666667 C29.8404255,27.6546666 28.9491915,26.8333333 27.8510638,26.8333333 Z" id="Path" stroke="#000000"></path>
                <path d="M9.94680851,34.1666667 L1.9893617,34.1666667 C0.891234043,34.1666667 0,34.988 0,36 L0,45.1666667 C0,46.1786667 0.891234043,47 1.9893617,47 L9.94680851,47 C11.0449362,47 11.9361702,46.1786667 11.9361702,45.1666667 L11.9361702,36 C11.9361702,34.988 11.0449362,34.1666667 9.94680851,34.1666667 Z" id="Path" stroke="#000000"></path>
                <path d="M45.7553191,19.5 L37.7978723,19.5 C36.6997447,19.5 35.8085106,20.3213333 35.8085106,21.3333333 L35.8085106,45.1666667 C35.8085106,46.1786667 36.6997447,47 37.7978723,47 L45.7553191,47 C46.8534468,47 47.7446809,46.1786667 47.7446809,45.1666667 L47.7446809,21.3333333 C47.7446809,20.3213333 46.8534468,19.5 45.7553191,19.5 Z" id="Path" stroke="#000000"></path>
                <path d="M25.2788192,17.7961667 L37.7978723,6.25900001 L37.7978723,12.8333333 L41.7765957,12.8333333 L41.7765957,1.83333333 C41.7765957,0.821333333 40.8853617,0 39.787234,0 L27.8510638,0 L27.8510638,3.66666667 L34.9849149,3.66666667 L23.8723404,13.9076667 L17.3213723,7.8705 C16.5435319,7.15366667 15.2862553,7.15366667 14.5084149,7.8705 L4.56160638,17.0371667 L7.37456383,19.6295001 L15.9148936,11.759 L22.4658616,17.7961667 C23.2437021,18.513 24.5009787,18.513 25.2788192,17.7961667 Z" id="Path" fill="#000000"></path>
            </g>
            <g id="icon-enterprise-apps" transform="translate(611.740439, 352.970480)" fill="#000000" fill-rule="nonzero">
                <g id="widget">
                    <path d="M48.7142857,0 L1.57142857,0 C0.703552536,0 0,0.703552536 0,1.57142857 L0,42.4285715 C0,43.2964474 0.703552536,44 1.57142857,44 L48.7142857,44 C49.5821617,44 50.2857143,43.2964474 50.2857143,42.4285715 L50.2857143,1.57142857 C50.2857143,0.703552536 49.5821617,0 48.7142857,0 Z M12.5714286,4.71428572 C13.4393046,4.71428572 14.1428572,5.41783825 14.1428572,6.28571428 C14.1428572,7.15359032 13.4393046,7.85714285 12.5714286,7.85714285 C11.7035525,7.85714285 11,7.15359032 11,6.28571428 C11,5.41783825 11.7035525,4.71428572 12.5714286,4.71428572 Z M6.28571428,4.71428572 C7.15359032,4.71428572 7.85714285,5.41783825 7.85714285,6.28571428 C7.85714285,7.15359032 7.15359032,7.85714285 6.28571428,7.85714285 C5.41783825,7.85714285 4.71428572,7.15359032 4.71428572,6.28571428 C4.71428572,5.41783825 5.41783825,4.71428572 6.28571428,4.71428572 Z M48.9510764,42.7084149 L1.33463799,42.7084149 L1.33463799,10.4618395 L48.9510764,10.4618395 L48.9510764,42.7084149 Z" id="Shape"></path>
                </g>
                <g id="settings-gear" transform="translate(17.343429, 17.567313)">
                    <path d="M16.4518869,11.3990745 L14.6704421,10.0873584 C14.8400463,9.24445662 14.8400463,8.37621361 14.6704421,7.53331179 L16.4518869,6.22269707 C16.6763359,6.05679022 16.7411669,5.74919807 16.6027728,5.50681506 L15.3312563,3.30410125 C15.1911235,3.06068596 14.8902517,2.96173995 14.632996,3.07446834 L12.6037459,3.96491539 C11.9617211,3.3972781 11.2128545,2.96349712 10.401032,2.68899342 L10.1548788,0.490134353 C10.1239784,0.210925014 9.88786757,-0.000269584511 9.60695371,1.00548828e-05 L7.07107944,1.00548828e-05 C6.78911459,-0.00168000655 6.55141249,0.209874849 6.52040098,0.490134353 L6.27589976,2.69284817 C5.46407733,2.96735187 4.71521073,3.40113285 4.07318594,3.96877014 L2.04008107,3.07612038 C1.78382781,2.96443316 1.48454932,3.06245634 1.34402351,3.30410125 L0.0725069648,5.50681506 C-0.0658871295,5.74919807 -0.00105616861,6.05679022 0.22339286,6.22269707 L2.00483766,7.53441314 C1.83523287,8.37768566 1.83523287,9.24628864 2.00483766,10.0895612 L0.223943539,11.3990745 C-0.000697235031,11.5648195 -0.0657708774,11.8724403 0.0725069648,12.1149565 L1.34402351,14.3176703 C1.48430046,14.560591 1.78476235,14.6592431 2.04173312,14.5467526 L4.07153389,13.6568562 C4.71355868,14.2244935 5.46242528,14.6582745 6.27424771,14.9327782 L6.51874894,17.135492 C6.55164645,17.4148539 6.78980089,17.6245153 7.07107944,17.621795 L9.60970711,17.621795 C9.89041061,17.621795 10.1262041,17.4106373 10.1570815,17.1316372 L10.4015827,14.9289234 C11.2134712,14.6548281 11.9623806,14.2212096 12.6042965,13.6535521 L14.6357494,14.5445498 C14.8915813,14.6560974 15.1904106,14.5586171 15.3312563,14.3176703 L16.5978167,12.1149565 C16.7372648,11.8737708 16.6746149,11.566432 16.4518869,11.3990745 Z M8.33763989,11.5642781 C6.81698331,11.5642781 5.58424761,10.3315424 5.58424761,8.8108858 C5.58424761,7.29022922 6.81698331,6.05749352 8.33763989,6.05749352 C9.85829644,6.05749352 11.0910321,7.29022922 11.0910321,8.8108858 C11.0910321,9.54113082 10.8009434,10.2414669 10.2845822,10.7578281 C9.76822101,11.2741894 9.0678849,11.5642781 8.33763989,11.5642781 Z" id="Shape"></path>
                </g>
            </g>
            <path d="M261.188445,27.6216105 L297.188445,27.6216105 C310.995564,27.6216105 322.188445,38.8144918 322.188445,52.6216105 L322.188445,202.621611 L322.188445,202.621611 L261.188445,202.621611" id="Path-6" stroke="#CD2023" stroke-width="1.5" stroke-dasharray="4,6"></path>
            <path d="M261.188445,202.621611 L322.188445,202.621611 L322.188445,352.621611 C322.188445,366.428729 310.995564,377.621611 297.188445,377.621611 L261.188445,377.621611 L261.188445,377.621611" id="Path-6-Copy" stroke="#CD2023" stroke-width="1.5" stroke-dasharray="4,6"></path>
            <path d="M518.113503,203.387236 L554.113503,203.387236 C567.920622,203.387236 579.113503,214.580117 579.113503,228.387236 L579.113503,378.387236 L579.113503,378.387236" id="Path-6-Copy-3" stroke="#CD2023" stroke-width="1.5" stroke-dasharray="4,6" transform="translate(548.613503, 290.887236) rotate(-180.000000) translate(-548.613503, -290.887236) "></path>
            <path d="M579.113503,28.3872355 L579.113503,178.387236 C579.113503,192.194354 567.920622,203.387236 554.113503,203.387236 L518.113503,203.387236 L518.113503,203.387236" id="Path-6-Copy-2" stroke="#CD2023" stroke-width="1.5" stroke-dasharray="4,6" transform="translate(548.613503, 115.887236) rotate(-180.000000) translate(-548.613503, -115.887236) "></path>
            <text id="API" font-family="Poppins-Bold, Poppins" font-size="16" font-weight="bold" fill="#CD2023">
                <tspan x="403.584445" y="163.621611">API</tspan>
            </text>
            <path d="M308.602067,379.434111 L324.602067,379.434111 C338.409186,379.434111 349.602067,390.626992 349.602067,404.434111 L349.602067,554.434111 L349.602067,554.434111" id="Path-6-Copy-5" stroke="#CD2023" stroke-width="1.5" stroke-dasharray="4,6" transform="translate(329.102067, 466.934111) rotate(-90.000000) translate(-329.102067, -466.934111) "></path>
            <path d="M524.602067,379.434111 L524.602067,529.434111 C524.602067,543.241229 513.409186,554.434111 499.602067,554.434111 L483.602067,554.434111 L483.602067,554.434111" id="Path-6-Copy-4" stroke="#CD2023" stroke-width="1.5" stroke-dasharray="4,6" transform="translate(504.102067, 466.934111) rotate(-90.000000) translate(-504.102067, -466.934111) "></path>
            <path id="Line-9" d="M375.754526,197.371611 L387.754526,203.121611 L375.754526,208.871611 L375.754,203.871 L374.938445,203.871611 L374.938445,202.371611 L375.754,202.371 L375.754526,197.371611 Z M330.438445,202.371611 L330.438445,203.871611 L324.938445,203.871611 L324.938445,202.371611 L330.438445,202.371611 Z M340.438445,202.371611 L340.438445,203.871611 L334.938445,203.871611 L334.938445,202.371611 L340.438445,202.371611 Z M350.438445,202.371611 L350.438445,203.871611 L344.938445,203.871611 L344.938445,202.371611 L350.438445,202.371611 Z M360.438445,202.371611 L360.438445,203.871611 L354.938445,203.871611 L354.938445,202.371611 L360.438445,202.371611 Z M370.438445,202.371611 L370.438445,203.871611 L364.938445,203.871611 L364.938445,202.371611 L370.438445,202.371611 Z" fill="#CD2023" fill-rule="nonzero"></path>
            <path id="Line-9-Copy" d="M581.355112,196.480571 L593.355112,202.230571 L581.355112,207.980571 L581.355,202.98 L578.938445,202.980571 L578.938445,201.480571 L581.355,201.48 L581.355112,196.480571 Z M454.438445,201.480571 L454.438445,202.980571 L448.938445,202.980571 L448.938445,201.480571 L454.438445,201.480571 Z M464.438445,201.480571 L464.438445,202.980571 L458.938445,202.980571 L458.938445,201.480571 L464.438445,201.480571 Z M474.438445,201.480571 L474.438445,202.980571 L468.938445,202.980571 L468.938445,201.480571 L474.438445,201.480571 Z M484.438445,201.480571 L484.438445,202.980571 L478.938445,202.980571 L478.938445,201.480571 L484.438445,201.480571 Z M494.438445,201.480571 L494.438445,202.980571 L488.938445,202.980571 L488.938445,201.480571 L494.438445,201.480571 Z M504.438445,201.480571 L504.438445,202.980571 L498.938445,202.980571 L498.938445,201.480571 L504.438445,201.480571 Z M514.438445,201.480571 L514.438445,202.980571 L508.938445,202.980571 L508.938445,201.480571 L514.438445,201.480571 Z M524.438445,201.480571 L524.438445,202.980571 L518.938445,202.980571 L518.938445,201.480571 L524.438445,201.480571 Z M534.438445,201.480571 L534.438445,202.980571 L528.938445,202.980571 L528.938445,201.480571 L534.438445,201.480571 Z M544.438445,201.480571 L544.438445,202.980571 L538.938445,202.980571 L538.938445,201.480571 L544.438445,201.480571 Z M554.438445,201.480571 L554.438445,202.980571 L548.938445,202.980571 L548.938445,201.480571 L554.438445,201.480571 Z M564.438445,201.480571 L564.438445,202.980571 L558.938445,202.980571 L558.938445,201.480571 L564.438445,201.480571 Z M574.438445,201.480571 L574.438445,202.980571 L568.938445,202.980571 L568.938445,201.480571 L574.438445,201.480571 Z" fill="#CD2023" fill-rule="nonzero"></path>
            <path id="Line-9-Copy-2" d="M581.355112,22.3716105 L593.355112,28.1216105 L581.355112,33.8716105 L581.355112,22.3716105 Z M578.438445,27.3716105 L578.438445,28.8716105 L572.938445,28.8716105 L572.938445,27.3716105 L578.438445,27.3716105 Z" fill="#CD2023" fill-rule="nonzero"></path>
            <path id="Line-9-Copy-3" d="M582.355112,372.371611 L594.355112,378.121611 L582.355112,383.871611 L582.355112,372.371611 Z M579.438445,377.371611 L579.438445,378.871611 L573.938445,378.871611 L573.938445,377.371611 L579.438445,377.371611 Z" fill="#CD2023" fill-rule="nonzero"></path>
            <path id="Line-10" d="M418.438445,323.371611 L418.438445,328.871611 L416.938445,328.871611 L416.938445,323.371611 L418.438445,323.371611 Z M418.438445,313.371611 L418.438445,318.871611 L416.938445,318.871611 L416.938445,313.371611 L418.438445,313.371611 Z M418.438445,303.371611 L418.438445,308.871611 L416.938445,308.871611 L416.938445,303.371611 L418.438445,303.371611 Z M418.438445,293.371611 L418.438445,298.871611 L416.938445,298.871611 L416.938445,293.371611 L418.438445,293.371611 Z M418.438445,283.371611 L418.438445,288.871611 L416.938445,288.871611 L416.938445,283.371611 L418.438445,283.371611 Z M418.438445,273.371611 L418.438445,278.871611 L416.938445,278.871611 L416.938445,273.371611 L418.438445,273.371611 Z M418.438445,263.371611 L418.438445,268.871611 L416.938445,268.871611 L416.938445,263.371611 L418.438445,263.371611 Z M418.438445,253.371611 L418.438445,258.871611 L416.938445,258.871611 L416.938445,253.371611 L418.438445,253.371611 Z M417.688445,234.454944 L423.438445,246.454944 L418.438,246.454 L418.438445,248.871611 L416.938445,248.871611 L416.938,246.454 L411.938445,246.454944 L417.688445,234.454944 Z" fill="#CD2023" fill-rule="nonzero"></path>
            <path id="Line-10-Copy" d="M418.438445,477.371611 L418.438445,482.871611 L416.938445,482.871611 L416.938445,477.371611 L418.438445,477.371611 Z M418.438445,467.371611 L418.438445,472.871611 L416.938445,472.871611 L416.938445,467.371611 L418.438445,467.371611 Z M418.438445,457.371611 L418.438445,462.871611 L416.938445,462.871611 L416.938445,457.371611 L418.438445,457.371611 Z M418.438445,447.371611 L418.438445,452.871611 L416.938445,452.871611 L416.938445,447.371611 L418.438445,447.371611 Z M418.438445,437.371611 L418.438445,442.871611 L416.938445,442.871611 L416.938445,437.371611 L418.438445,437.371611 Z M418.438445,427.371611 L418.438445,432.871611 L416.938445,432.871611 L416.938445,427.371611 L418.438445,427.371611 Z M418.438445,417.371611 L418.438445,422.871611 L416.938445,422.871611 L416.938445,417.371611 L418.438445,417.371611 Z M417.688445,396.454944 L423.438445,408.454944 L418.438,408.454 L418.438445,412.871611 L416.938445,412.871611 L416.938,408.454 L411.938445,408.454944 L417.688445,396.454944 Z" fill="#CD2023" fill-rule="nonzero"></path>
            <circle id="Oval" fill="#CD2023" cx="322.188445" cy="202.621611" r="4.68524996"></circle>
            <circle id="Oval-Copy-32" fill="#CD2023" cx="518.188445" cy="202.621611" r="4.68524996"></circle>
            <circle id="Oval-Copy-33" fill="#CD2023" cx="418.188445" cy="446.621611" r="4.68524996"></circle>
            <g id="532707_api_coding_developer_development_man_icon-copy-2" transform="translate(566.415718, 492.897741)" fill-rule="nonzero">
                <g id="_x33_">
                    <g id="Group">
                        <path d="M47.0018672,0 L1.34380543,0 C0.603694022,0 0,0.603522858 0,1.34380543 L0,28.2413096 L0,28.8727321 L0,32.0178633 C0,32.8471509 0.603522858,33.5259857 1.34380543,33.5259857 L11.6812311,33.5259857 C12.041017,33.38392 12.4083341,33.2409984 12.7840382,33.095167 C13.5111412,32.8129182 14.2623782,32.5221112 15.0117325,32.2081972 C16.7096754,31.5006069 17.7414496,31.0335014 18.3381259,30.748514 L18.3552423,28.9749168 C18.0916503,28.6471385 17.7850963,28.1725018 17.4977126,27.5299536 L2.70010581,27.5299536 L2.70010581,3.34214048 L45.5365356,3.34214048 L45.5365356,27.5299536 L30.8476177,27.5299536 C30.5607475,28.172673 30.2533377,28.6471385 29.9914574,28.9749168 L30.0073756,30.748514 C30.6026826,31.0326456 31.6332586,31.500778 33.332742,32.2081972 C34.0820963,32.5210842 34.8341892,32.812747 35.5595805,33.09414 C35.9366539,33.2408272 36.3026017,33.3837488 36.6646127,33.5259857 L47.0022096,33.5259857 C47.741294,33.5259857 48.344988,32.8469797 48.344988,32.0176921 L48.344988,28.8725609 L48.344988,28.2411384 L48.344988,1.34363427 C48.344988,0.603522858 47.7409517,0 47.0018672,0 Z" id="Path" stroke="#000000"></path>
                        <path d="M40.6835341,37.6443532 C39.6509041,36.0342172 36.1843276,35.0341082 32.7511281,33.6031805 C32.6879688,33.5771637 32.6294308,33.5530296 32.5672984,33.5259857 C29.2948215,32.1573616 28.5055862,31.6770765 28.5055862,31.6770765 L28.4749479,28.3842312 C28.4749479,28.3842312 28.7859521,28.1418635 29.1500171,27.5299536 C29.5269194,26.8976753 29.9560265,25.8732611 30.1602247,24.2992407 C30.9626397,24.5323655 31.8076744,23.1000685 31.8521769,22.3440388 C31.8968506,21.6179628 31.7409205,19.599944 30.7601531,19.802944 C30.9607569,18.2836959 31.1057324,16.9190085 31.0358977,16.1966981 C30.7805216,13.5510223 28.1767809,10.7624249 24.1724084,10.7624249 C20.1678648,10.7624249 17.5639529,13.5510223 17.3084057,16.1966981 C17.2383998,16.9191797 17.38406,18.2836959 17.5846637,19.802944 C16.603554,19.599944 16.4474528,21.6179628 16.4921265,22.3440388 C16.537656,23.1000685 17.3811502,24.5323655 18.1868173,24.2992407 C18.3893038,25.8732611 18.8190956,26.8976753 19.1953132,27.5299536 C19.5593782,28.1418635 19.870896,28.3842312 19.870896,28.3842312 L19.8392307,31.6770765 C19.8392307,31.6770765 19.0489684,32.1573616 15.7770049,33.5259857 C15.7138456,33.5530296 15.6563346,33.5771637 15.5923194,33.6031805 C12.1606604,35.0341082 8.69357047,36.0342172 7.66179628,37.6443532 C6.73699935,39.0857218 7.01462671,44 7.01462671,44 L24.1725796,44 L41.3296767,44 C41.3296767,44 41.608331,39.0857218 40.6835341,37.6443532 Z" id="Path" fill="#000000"></path>
                    </g>
                    <g id="Group" transform="translate(6.219058, 8.014051)" fill="#000000">
                        <polygon id="Path" points="0 0.826891358 1.92456353 2.75042791 0 4.67499144 0.826549031 5.50154047 3.57800392 2.75042791 0.826549031 0"></polygon>
                        <rect id="Rectangle" x="5.08886503" y="1.58223633" width="3.50645754" height="1.16819158"></rect>
                    </g>
                </g>
            </g>
            <g id="532707_api_coding_developer_development_man_icon-copy-3" transform="translate(395.415718, 492.897741)" fill-rule="nonzero">
                <g id="_x33_">
                    <g id="Group">
                        <path d="M47.0018672,0 L1.34380543,0 C0.603694022,0 0,0.603522858 0,1.34380543 L0,28.2413096 L0,28.8727321 L0,32.0178633 C0,32.8471509 0.603522858,33.5259857 1.34380543,33.5259857 L11.6812311,33.5259857 C12.041017,33.38392 12.4083341,33.2409984 12.7840382,33.095167 C13.5111412,32.8129182 14.2623782,32.5221112 15.0117325,32.2081972 C16.7096754,31.5006069 17.7414496,31.0335014 18.3381259,30.748514 L18.3552423,28.9749168 C18.0916503,28.6471385 17.7850963,28.1725018 17.4977126,27.5299536 L2.70010581,27.5299536 L2.70010581,3.34214048 L45.5365356,3.34214048 L45.5365356,27.5299536 L30.8476177,27.5299536 C30.5607475,28.172673 30.2533377,28.6471385 29.9914574,28.9749168 L30.0073756,30.748514 C30.6026826,31.0326456 31.6332586,31.500778 33.332742,32.2081972 C34.0820963,32.5210842 34.8341892,32.812747 35.5595805,33.09414 C35.9366539,33.2408272 36.3026017,33.3837488 36.6646127,33.5259857 L47.0022096,33.5259857 C47.741294,33.5259857 48.344988,32.8469797 48.344988,32.0176921 L48.344988,28.8725609 L48.344988,28.2411384 L48.344988,1.34363427 C48.344988,0.603522858 47.7409517,0 47.0018672,0 Z" id="Path" stroke="#000000"></path>
                        <path d="M40.6835341,37.6443532 C39.6509041,36.0342172 36.1843276,35.0341082 32.7511281,33.6031805 C32.6879688,33.5771637 32.6294308,33.5530296 32.5672984,33.5259857 C29.2948215,32.1573616 28.5055862,31.6770765 28.5055862,31.6770765 L28.4749479,28.3842312 C28.4749479,28.3842312 28.7859521,28.1418635 29.1500171,27.5299536 C29.5269194,26.8976753 29.9560265,25.8732611 30.1602247,24.2992407 C30.9626397,24.5323655 31.8076744,23.1000685 31.8521769,22.3440388 C31.8968506,21.6179628 31.7409205,19.599944 30.7601531,19.802944 C30.9607569,18.2836959 31.1057324,16.9190085 31.0358977,16.1966981 C30.7805216,13.5510223 28.1767809,10.7624249 24.1724084,10.7624249 C20.1678648,10.7624249 17.5639529,13.5510223 17.3084057,16.1966981 C17.2383998,16.9191797 17.38406,18.2836959 17.5846637,19.802944 C16.603554,19.599944 16.4474528,21.6179628 16.4921265,22.3440388 C16.537656,23.1000685 17.3811502,24.5323655 18.1868173,24.2992407 C18.3893038,25.8732611 18.8190956,26.8976753 19.1953132,27.5299536 C19.5593782,28.1418635 19.870896,28.3842312 19.870896,28.3842312 L19.8392307,31.6770765 C19.8392307,31.6770765 19.0489684,32.1573616 15.7770049,33.5259857 C15.7138456,33.5530296 15.6563346,33.5771637 15.5923194,33.6031805 C12.1606604,35.0341082 8.69357047,36.0342172 7.66179628,37.6443532 C6.73699935,39.0857218 7.01462671,44 7.01462671,44 L24.1725796,44 L41.3296767,44 C41.3296767,44 41.608331,39.0857218 40.6835341,37.6443532 Z" id="Path" fill="#000000"></path>
                    </g>
                    <g id="Group" transform="translate(6.219058, 8.014051)" fill="#000000">
                        <polygon id="Path" points="0 0.826891358 1.92456353 2.75042791 0 4.67499144 0.826549031 5.50154047 3.57800392 2.75042791 0.826549031 0"></polygon>
                        <rect id="Rectangle" x="5.08886503" y="1.58223633" width="3.50645754" height="1.16819158"></rect>
                    </g>
                </g>
            </g>
            <g id="532707_api_coding_developer_development_man_icon-copy-4" transform="translate(221.415718, 492.897741)" fill-rule="nonzero">
                <g id="_x33_">
                    <g id="Group">
                        <path d="M47.0018672,0 L1.34380543,0 C0.603694022,0 0,0.603522858 0,1.34380543 L0,28.2413096 L0,28.8727321 L0,32.0178633 C0,32.8471509 0.603522858,33.5259857 1.34380543,33.5259857 L11.6812311,33.5259857 C12.041017,33.38392 12.4083341,33.2409984 12.7840382,33.095167 C13.5111412,32.8129182 14.2623782,32.5221112 15.0117325,32.2081972 C16.7096754,31.5006069 17.7414496,31.0335014 18.3381259,30.748514 L18.3552423,28.9749168 C18.0916503,28.6471385 17.7850963,28.1725018 17.4977126,27.5299536 L2.70010581,27.5299536 L2.70010581,3.34214048 L45.5365356,3.34214048 L45.5365356,27.5299536 L30.8476177,27.5299536 C30.5607475,28.172673 30.2533377,28.6471385 29.9914574,28.9749168 L30.0073756,30.748514 C30.6026826,31.0326456 31.6332586,31.500778 33.332742,32.2081972 C34.0820963,32.5210842 34.8341892,32.812747 35.5595805,33.09414 C35.9366539,33.2408272 36.3026017,33.3837488 36.6646127,33.5259857 L47.0022096,33.5259857 C47.741294,33.5259857 48.344988,32.8469797 48.344988,32.0176921 L48.344988,28.8725609 L48.344988,28.2411384 L48.344988,1.34363427 C48.344988,0.603522858 47.7409517,0 47.0018672,0 Z" id="Path" stroke="#000000"></path>
                        <path d="M40.6835341,37.6443532 C39.6509041,36.0342172 36.1843276,35.0341082 32.7511281,33.6031805 C32.6879688,33.5771637 32.6294308,33.5530296 32.5672984,33.5259857 C29.2948215,32.1573616 28.5055862,31.6770765 28.5055862,31.6770765 L28.4749479,28.3842312 C28.4749479,28.3842312 28.7859521,28.1418635 29.1500171,27.5299536 C29.5269194,26.8976753 29.9560265,25.8732611 30.1602247,24.2992407 C30.9626397,24.5323655 31.8076744,23.1000685 31.8521769,22.3440388 C31.8968506,21.6179628 31.7409205,19.599944 30.7601531,19.802944 C30.9607569,18.2836959 31.1057324,16.9190085 31.0358977,16.1966981 C30.7805216,13.5510223 28.1767809,10.7624249 24.1724084,10.7624249 C20.1678648,10.7624249 17.5639529,13.5510223 17.3084057,16.1966981 C17.2383998,16.9191797 17.38406,18.2836959 17.5846637,19.802944 C16.603554,19.599944 16.4474528,21.6179628 16.4921265,22.3440388 C16.537656,23.1000685 17.3811502,24.5323655 18.1868173,24.2992407 C18.3893038,25.8732611 18.8190956,26.8976753 19.1953132,27.5299536 C19.5593782,28.1418635 19.870896,28.3842312 19.870896,28.3842312 L19.8392307,31.6770765 C19.8392307,31.6770765 19.0489684,32.1573616 15.7770049,33.5259857 C15.7138456,33.5530296 15.6563346,33.5771637 15.5923194,33.6031805 C12.1606604,35.0341082 8.69357047,36.0342172 7.66179628,37.6443532 C6.73699935,39.0857218 7.01462671,44 7.01462671,44 L24.1725796,44 L41.3296767,44 C41.3296767,44 41.608331,39.0857218 40.6835341,37.6443532 Z" id="Path" fill="#000000"></path>
                    </g>
                    <g id="Group" transform="translate(6.219058, 8.014051)" fill="#000000">
                        <polygon id="Path" points="0 0.826891358 1.92456353 2.75042791 0 4.67499144 0.826549031 5.50154047 3.57800392 2.75042791 0.826549031 0"></polygon>
                        <rect id="Rectangle" x="5.08886503" y="1.58223633" width="3.50645754" height="1.16819158"></rect>
                    </g>
                </g>
            </g>
        </g>
    </g>
</svg>