<?xml version="1.0" encoding="UTF-8"?>
<svg width="787px" height="629px" viewBox="0 0 787 629" version="1.1" xmlns="http://www.w3.org/2000/svg" xmlns:xlink="http://www.w3.org/1999/xlink">
    <title>Group 25</title>
    <defs>
        <path d="M14.1013686,1.78600541 L311.178176,1.78600541 C316.081529,1.78600541 317.859604,2.29654627 319.652196,3.25523528 C321.444789,4.21392429 322.851626,5.62076145 323.810315,7.41335404 C324.769004,9.20594663 325.279545,10.9840209 325.279545,15.887374 L325.279545,163.288449 C325.279545,168.191802 324.769004,169.969877 323.810315,171.762469 C322.851626,173.555062 321.444789,174.961899 319.652196,175.920588 C317.859604,176.879277 316.081529,177.389818 311.178176,177.389818 L14.1013686,177.389818 C9.19801553,177.389818 7.41994122,176.879277 5.62734863,175.920588 C3.83475604,174.961899 2.42791888,173.555062 1.46922987,171.762469 C0.510540861,169.969877 2.32922703e-13,168.191802 2.17823327e-13,163.288449 L2.27753484e-13,15.887374 C2.27152996e-13,10.9840209 0.510540861,9.20594663 1.46922987,7.41335404 C2.42791888,5.62076145 3.83475604,4.21392429 5.62734863,3.25523528 C7.41994122,2.29654627 9.19801553,1.78600541 14.1013686,1.78600541 Z" id="path-1"></path>
        <filter x="-18.9%" y="-30.5%" width="140.9%" height="175.7%" filterUnits="objectBoundingBox" id="filter-2">
            <feMorphology radius="1" operator="erode" in="SourceAlpha" result="shadowSpreadOuter1"></feMorphology>
            <feOffset dx="5" dy="13" in="shadowSpreadOuter1" result="shadowOffsetOuter1"></feOffset>
            <feGaussianBlur stdDeviation="21" in="shadowOffsetOuter1" result="shadowBlurOuter1"></feGaussianBlur>
            <feColorMatrix values="0 0 0 0 0   0 0 0 0 0   0 0 0 0 0  0 0 0 0.366777753 0" type="matrix" in="shadowBlurOuter1"></feColorMatrix>
        </filter>
        <path d="M14.1013686,1.24395611e-15 L311.178176,5.69712169e-16 C316.081529,-3.31019177e-16 317.859604,0.510540861 319.652196,1.46922987 C321.444789,2.42791888 322.851626,3.83475604 323.810315,5.62734863 C324.769004,7.41994122 325.279545,9.19801553 325.279545,14.1013686 L325.279545,161.502444 C325.279545,166.405797 324.769004,168.183871 323.810315,169.976464 C322.851626,171.769056 321.444789,173.175893 319.652196,174.134582 C317.859604,175.093271 316.081529,175.603812 311.178176,175.603812 L14.1013686,175.603812 C9.19801553,175.603812 7.41994122,175.093271 5.62734863,174.134582 C3.83475604,173.175893 2.42791888,171.769056 1.46922987,169.976464 C0.510540861,168.183871 5.54902736e-15,166.405797 -9.55034824e-15,161.502444 L3.79808113e-16,14.1013686 C-2.20679451e-16,9.19801553 0.510540861,7.41994122 1.46922987,5.62734863 C2.42791888,3.83475604 3.83475604,2.42791888 5.62734863,1.46922987 C7.41994122,0.510540861 9.19801553,-7.22774323e-16 14.1013686,1.24395611e-15 Z" id="path-3"></path>
        <filter x="-18.9%" y="-30.5%" width="140.9%" height="175.7%" filterUnits="objectBoundingBox" id="filter-4">
            <feMorphology radius="1" operator="erode" in="SourceAlpha" result="shadowSpreadOuter1"></feMorphology>
            <feOffset dx="5" dy="13" in="shadowSpreadOuter1" result="shadowOffsetOuter1"></feOffset>
            <feGaussianBlur stdDeviation="21" in="shadowOffsetOuter1" result="shadowBlurOuter1"></feGaussianBlur>
            <feColorMatrix values="0 0 0 0 0   0 0 0 0 0   0 0 0 0 0  0 0 0 0.366777753 0" type="matrix" in="shadowBlurOuter1"></feColorMatrix>
        </filter>
        <path d="M14.1013686,1.24395611e-15 L311.178176,5.69712169e-16 C316.081529,-3.31019177e-16 317.859604,0.510540861 319.652196,1.46922987 C321.444789,2.42791888 322.851626,3.83475604 323.810315,5.62734863 C324.769004,7.41994122 325.279545,9.19801553 325.279545,14.1013686 L325.279545,161.502444 C325.279545,166.405797 324.769004,168.183871 323.810315,169.976464 C322.851626,171.769056 321.444789,173.175893 319.652196,174.134582 C317.859604,175.093271 316.081529,175.603812 311.178176,175.603812 L14.1013686,175.603812 C9.19801553,175.603812 7.41994122,175.093271 5.62734863,174.134582 C3.83475604,173.175893 2.42791888,171.769056 1.46922987,169.976464 C0.510540861,168.183871 5.54902736e-15,166.405797 -9.55034824e-15,161.502444 L3.79808113e-16,14.1013686 C-2.20679451e-16,9.19801553 0.510540861,7.41994122 1.46922987,5.62734863 C2.42791888,3.83475604 3.83475604,2.42791888 5.62734863,1.46922987 C7.41994122,0.510540861 9.19801553,-7.22774323e-16 14.1013686,1.24395611e-15 Z" id="path-5"></path>
        <filter x="-18.9%" y="-30.5%" width="140.9%" height="175.7%" filterUnits="objectBoundingBox" id="filter-6">
            <feMorphology radius="1" operator="erode" in="SourceAlpha" result="shadowSpreadOuter1"></feMorphology>
            <feOffset dx="5" dy="13" in="shadowSpreadOuter1" result="shadowOffsetOuter1"></feOffset>
            <feGaussianBlur stdDeviation="21" in="shadowOffsetOuter1" result="shadowBlurOuter1"></feGaussianBlur>
            <feColorMatrix values="0 0 0 0 0   0 0 0 0 0   0 0 0 0 0  0 0 0 0.366777753 0" type="matrix" in="shadowBlurOuter1"></feColorMatrix>
        </filter>
    </defs>
    <g id="Webpages" stroke="none" stroke-width="1" fill="none" fill-rule="evenodd">
        <g id="Group-25" transform="translate(35.257008, 27.777981)">
            <g id="Rectangle-Copy-53">
                <use fill="black" fill-opacity="1" filter="url(#filter-2)" xlink:href="#path-1"></use>
                <use fill="#141414" fill-rule="evenodd" xlink:href="#path-1"></use>
            </g>
            <g id="decentralize-copy" transform="translate(356.353146, 224.275205) rotate(-270.000000) translate(-356.353146, -224.275205) translate(344.664648, 215.927288)">
                <path d="M0,16.6958336 C0.00424791636,15.2202423 0.288011763,13.7324972 0.867898121,12.3124857 C2.66320158,7.91619064 6.93992692,5.04308188 11.6886662,5.04308188 C16.4374056,5.04308188 20.7141309,7.91619064 22.5094344,12.3124857 C23.0828297,13.7166021 23.3666947,15.1869442 23.3769956,16.6462774" id="Path" stroke="#CD2023" stroke-linecap="square" transform="translate(11.688498, 10.869458) rotate(-180.000000) translate(-11.688498, -10.869458) "></path>
                <circle id="Oval" fill="#D30E00" transform="translate(11.688329, 5.009251) rotate(-180.000000) translate(-11.688329, -5.009251) " cx="11.6883294" cy="5.00925105" r="5.00925105"></circle>
            </g>
            <g id="decentralize-copy-2" transform="translate(292.538176, 296.310842) rotate(313.000000) translate(-292.538176, -296.310842) translate(280.849678, 288.364960)">
                <path d="M3.5464652e-13,11.6527517 C0.00424791636,10.1771604 0.288011763,8.68941537 0.867898121,7.26940387 C2.66320158,2.87310877 6.93992692,-3.04501891e-13 11.6886662,-3.04501891e-13 C16.4374056,-3.04501891e-13 20.7141309,2.87310877 22.5094344,7.26940387 C23.0828297,8.67352026 23.3666947,10.1438623 23.3769956,11.6031955" id="Path" stroke="#CD2023" stroke-linecap="square"></path>
                <circle id="Oval" fill="#D30E00" cx="12.2685704" cy="10.8917631" r="5"></circle>
            </g>
            <g id="window-dev" transform="translate(225.267038, 66.606205)" stroke="#E5E5E5" stroke-linecap="square">
                <polyline id="Path" points="14.4372262 20.6246088 10.3123044 24.7495306 14.4372262 28.8744524"></polyline>
                <polyline id="Path" points="30.9369132 20.6246088 35.061835 24.7495306 30.9369132 28.8744524"></polyline>
                <line x1="20.6246088" y1="32.9993741" x2="24.7495306" y2="16.4996871" id="Path"></line>
                <rect id="Rectangle" x="0" y="0" width="45.3741394" height="41.2492177"></rect>
                <line x1="0" y1="8.24984353" x2="45.3741394" y2="8.24984353" id="Path"></line>
                <line x1="10.3123044" y1="0" x2="10.3123044" y2="8.24984353" id="Path"></line>
            </g>
            <g id="folder-chart-bar" transform="translate(142.309801, 66.606205)" stroke="#E5E5E5" stroke-linecap="square">
                <line x1="27.1325683" y1="20.7692167" x2="10.6353943" y2="20.4812575" id="Path"></line>
                <line x1="20.8021484" y1="28.909819" x2="10.4914146" y2="28.7298445" id="Path"></line>
                <path d="M41.2492177,41.2492177 L4.12492177,41.2492177 C1.84679038,41.2492177 0,39.4024273 0,37.1242959 L0,0 L16.4996871,0 L22.6870697,8.24984353 L45.3741394,8.24984353 L45.3741394,37.1242959 C45.3741394,39.4024273 43.527349,41.2492177 41.2492177,41.2492177 Z" id="Path"></path>
            </g>
            <text id="Finance-Domain" font-family="Poppins-Bold, Poppins" font-size="14" font-weight="bold" fill="#FFFFFF">
                <tspan x="103.718871" y="36.3810294">FINANCE DOMAIN</tspan>
            </text>
            <circle id="Oval" fill="#D30E00" cx="164.996871" cy="170.889616" r="29.0057495"></circle>
            <g id="Group-2-Copy-4" transform="translate(150.326535, 164.514851)" fill="#FFFFFF" fill-rule="nonzero">
                <g id="Group-3">
                    <path d="M5.62576176,0.186218595 C6.18441754,0.323432296 6.64506354,0.656665571 7.00769975,1.18591842 C7.36053498,1.71517127 7.5369526,2.56785641 7.5369526,3.73417287 C7.5369526,4.80247955 7.40953988,5.51795099 7.16451541,5.8805872 C6.90968997,6.24322342 6.41964103,6.46864592 5.67476665,6.53725278 C6.3412332,6.71367039 6.8018792,6.94889388 7.02730171,7.24292324 C7.25272422,7.5369526 7.3997389,7.80157902 7.45854477,8.05640447 C7.50404931,8.28392719 7.53265217,8.87483619 7.53650613,9.84482591 L7.5369526,13.6919672 L4.40063942,13.6919672 L4.40063942,9.13451212 C4.40063942,8.39943872 4.34183355,7.9485937 4.23402279,7.77217609 C4.12621202,7.59575847 3.84198364,7.50754966 3.38133764,7.50754966 L3.38133764,13.6919672 L0,13.6919672 L0,0 L2.3914388,0 C3.97919734,0 5.057305,0.058805872 5.62576176,0.186218595 Z M14.6720651,0 L16.6126589,13.6919672 L13.1529134,13.6919672 L12.9764958,11.2319216 L11.7513734,11.2319216 L11.5749558,13.6919672 L8.07600643,13.6919672 L9.7911777,0 L14.6720651,0 Z M19.5039476,0 L19.8665838,4.78287759 L20.209618,9.40893953 C20.3370307,7.01750073 20.6506621,3.87138658 21.140711,0 L24.6396604,0 C24.6788643,0.401840126 24.806277,1.91119084 25.0022966,4.51825117 L25.3845348,9.73237182 C25.5805543,6.41964103 25.8941857,3.17551709 26.3254287,0 L29.6087566,0 L28.1092068,13.6919672 L23.894786,13.6919672 C23.5125478,11.5847568 23.1695136,9.193318 22.8656832,6.49804886 C22.7284695,7.65456434 22.4148382,10.0558041 21.9247893,13.6919672 L17.7397714,13.6919672 L16.2206197,0 L19.5039476,0 Z M12.3688351,3.03830339 C12.0356018,5.67476665 11.8297813,7.59575847 11.7317715,8.81107983 L12.878486,8.81107983 C12.7216703,7.2625252 12.5550537,5.3317324 12.3688351,3.03830339 Z M3.38133764,2.33263292 L3.38133764,5.38073729 C3.76357581,5.38073729 4.01840126,5.3317324 4.17521692,5.21412065 C4.3222316,5.10630989 4.40063942,4.75347466 4.40063942,4.14581398 L4.40063942,3.39113862 C4.40063942,2.95989556 4.3222316,2.67566718 4.18501789,2.53845348 C4.03800321,2.40123978 3.76357581,2.33263292 3.38133764,2.33263292 Z" id="Combined-Shape"></path>
                </g>
            </g>
            <g id="icon-databases" transform="translate(59.391211, 62.230813)">
                <g id="database" stroke="#FFFFFF">
                    <path d="M0,4.96045165 L0,32.2429356 C0,35.0951954 7.56468876,37.2033873 16.1214678,37.2033873" id="Path"></path>
                    <path d="M32.2429356,4.96045165 C32.2429356,7.81271133 24.678247,9.92090329 16.1214678,9.92090329 C7.56468876,9.92090329 0,7.81271133 0,4.96045165 C0,2.10819194 7.56468876,0 16.1214678,0 C24.678247,0 32.2429356,2.10819194 32.2429356,4.96045165 Z" id="Path"></path>
                    <path d="M16.1214678,23.5621453 C15.2790032,23.5621453 14.4461555,23.5417095 13.6291974,23.5021395 C6.14844229,23.1398052 0,21.1731318 0,18.6016936" id="Path"></path>
                </g>
                <g id="database-copy" transform="translate(18.685710, 12.796613)" stroke="#E8E8E8">
                    <path d="M0,4.96045165 L0,32.2429356 C0,35.0951954 7.56468876,37.2033873 16.1214678,37.2033873 C24.678247,37.2033873 32.2429356,35.0951954 32.2429356,32.2429356 L32.2429356,4.96045165" id="Path"></path>
                    <path d="M32.2429356,4.96045165 C32.2429356,7.81271133 24.678247,9.92090329 16.1214678,9.92090329 C7.56468876,9.92090329 0,7.81271133 0,4.96045165 C0,2.10819194 7.56468876,0 16.1214678,0 C24.678247,0 32.2429356,2.10819194 32.2429356,4.96045165 Z" id="Path"></path>
                    <path d="M32.2429356,18.6016936 C32.2429356,21.4539534 24.678247,23.5621453 16.1214678,23.5621453 C7.56468876,23.5621453 0,21.4539534 0,18.6016936" id="Path"></path>
                </g>
            </g>
            <g id="Rectangle-Copy-54" transform="translate(380.869891, 0.000000)">
                <use fill="black" fill-opacity="1" filter="url(#filter-4)" xlink:href="#path-3"></use>
                <use fill="#141414" fill-rule="evenodd" xlink:href="#path-3"></use>
            </g>
            <g id="window-dev-copy" transform="translate(606.136930, 65.998748)" stroke="#E5E5E5" stroke-linecap="square">
                <polyline id="Path" points="14.4372262 20.6246088 10.3123044 24.7495306 14.4372262 28.8744524"></polyline>
                <polyline id="Path" points="30.9369132 20.6246088 35.061835 24.7495306 30.9369132 28.8744524"></polyline>
                <line x1="20.6246088" y1="32.9993741" x2="24.7495306" y2="16.4996871" id="Path"></line>
                <rect id="Rectangle" x="0" y="0" width="45.3741394" height="41.2492177"></rect>
                <line x1="0" y1="8.24984353" x2="45.3741394" y2="8.24984353" id="Path"></line>
                <line x1="10.3123044" y1="0" x2="10.3123044" y2="8.24984353" id="Path"></line>
            </g>
            <g id="folder-chart-bar" transform="translate(523.179692, 65.998748)" stroke="#E5E5E5" stroke-linecap="square">
                <line x1="27.1325683" y1="20.7692167" x2="10.6353943" y2="20.4812575" id="Path"></line>
                <line x1="20.8021484" y1="28.909819" x2="10.4914146" y2="28.7298445" id="Path"></line>
                <path d="M41.2492177,41.2492177 L4.12492177,41.2492177 C1.84679038,41.2492177 0,39.4024273 0,37.1242959 L0,0 L16.4996871,0 L22.6870697,8.24984353 L45.3741394,8.24984353 L45.3741394,37.1242959 C45.3741394,39.4024273 43.527349,41.2492177 41.2492177,41.2492177 Z" id="Path"></path>
            </g>
            <text id="Customer-Domain" font-family="Poppins-Bold, Poppins" font-size="14" font-weight="bold" fill="#FFFFFF">
                <tspan x="474.714938" y="36.3810294">CUSTOMER DOMAIN</tspan>
            </text>
            <circle id="Oval-Copy-29" fill="#D30E00" cx="545.866762" cy="170.889616" r="29.0057495"></circle>
            <g id="Group-2-Copy-5" transform="translate(531.196426, 163.514851)" fill="#FFFFFF" fill-rule="nonzero">
                <g id="Group-3">
                    <path d="M5.62576176,0.186218595 C6.18441754,0.323432296 6.64506354,0.656665571 7.00769975,1.18591842 C7.36053498,1.71517127 7.5369526,2.56785641 7.5369526,3.73417287 C7.5369526,4.80247955 7.40953988,5.51795099 7.16451541,5.8805872 C6.90968997,6.24322342 6.41964103,6.46864592 5.67476665,6.53725278 C6.3412332,6.71367039 6.8018792,6.94889388 7.02730171,7.24292324 C7.25272422,7.5369526 7.3997389,7.80157902 7.45854477,8.05640447 C7.50404931,8.28392719 7.53265217,8.87483619 7.53650613,9.84482591 L7.5369526,13.6919672 L4.40063942,13.6919672 L4.40063942,9.13451212 C4.40063942,8.39943872 4.34183355,7.9485937 4.23402279,7.77217609 C4.12621202,7.59575847 3.84198364,7.50754966 3.38133764,7.50754966 L3.38133764,13.6919672 L0,13.6919672 L0,0 L2.3914388,0 C3.97919734,0 5.057305,0.058805872 5.62576176,0.186218595 Z M14.6720651,0 L16.6126589,13.6919672 L13.1529134,13.6919672 L12.9764958,11.2319216 L11.7513734,11.2319216 L11.5749558,13.6919672 L8.07600643,13.6919672 L9.7911777,0 L14.6720651,0 Z M19.5039476,0 L19.8665838,4.78287759 L20.209618,9.40893953 C20.3370307,7.01750073 20.6506621,3.87138658 21.140711,0 L24.6396604,0 C24.6788643,0.401840126 24.806277,1.91119084 25.0022966,4.51825117 L25.3845348,9.73237182 C25.5805543,6.41964103 25.8941857,3.17551709 26.3254287,0 L29.6087566,0 L28.1092068,13.6919672 L23.894786,13.6919672 C23.5125478,11.5847568 23.1695136,9.193318 22.8656832,6.49804886 C22.7284695,7.65456434 22.4148382,10.0558041 21.9247893,13.6919672 L17.7397714,13.6919672 L16.2206197,0 L19.5039476,0 Z M12.3688351,3.03830339 C12.0356018,5.67476665 11.8297813,7.59575847 11.7317715,8.81107983 L12.878486,8.81107983 C12.7216703,7.2625252 12.5550537,5.3317324 12.3688351,3.03830339 Z M3.38133764,2.33263292 L3.38133764,5.38073729 C3.76357581,5.38073729 4.01840126,5.3317324 4.17521692,5.21412065 C4.3222316,5.10630989 4.40063942,4.75347466 4.40063942,4.14581398 L4.40063942,3.39113862 C4.40063942,2.95989556 4.3222316,2.67566718 4.18501789,2.53845348 C4.03800321,2.40123978 3.76357581,2.33263292 3.38133764,2.33263292 Z" id="Combined-Shape"></path>
                </g>
            </g>
            <g id="database-copy" transform="translate(454.264837, 65.998748)" stroke="#E5E5E5">
                <path d="M0,5.49989569 L0,35.749322 C0,38.911762 8.38734092,41.2492177 17.874661,41.2492177 C27.3619811,41.2492177 35.749322,38.911762 35.749322,35.749322 L35.749322,5.49989569" id="Path"></path>
                <path d="M35.749322,5.49989569 C35.749322,8.66233571 27.3619811,10.9997914 17.874661,10.9997914 C8.38734092,10.9997914 0,8.66233571 0,5.49989569 C0,2.33745567 8.38734092,0 17.874661,0 C27.3619811,0 35.749322,2.33745567 35.749322,5.49989569 Z" id="Path" stroke-linecap="square"></path>
                <path d="M35.749322,20.6246088 C35.749322,23.7870489 27.3619811,26.1245045 17.874661,26.1245045 C8.38734092,26.1245045 0,23.7870489 0,20.6246088" id="Path" stroke-linecap="square"></path>
            </g>
            <g id="Rectangle-Copy-55" transform="translate(189.553072, 372.396188)">
                <use fill="black" fill-opacity="1" filter="url(#filter-6)" xlink:href="#path-5"></use>
                <use fill="#141414" fill-rule="evenodd" xlink:href="#path-5"></use>
            </g>
            <g id="newsletter" transform="translate(409.024597, 434.884609)" stroke="#E5E5E5">
                <polyline id="Path" points="6.87486961 13.7497392 0 17.7371636 0 41.2492177 41.2492177 41.2492177 41.2492177 17.7371636 34.3743481 13.7497392"></polyline>
                <polyline id="Path" points="6.87486961 21.5870906 6.87486961 0 34.3743481 0 34.3743481 21.4495932"></polyline>
                <line x1="0" y1="17.7371636" x2="41.2492177" y2="41.2492177" id="Path"></line>
                <line x1="41.2492177" y1="17.7371636" x2="20.0746193" y2="29.1494471" id="Path"></line>
                <line x1="13.7497392" y1="8.24984353" x2="27.4994784" y2="8.24984353" id="Path" stroke-linecap="square"></line>
                <line x1="13.7497392" y1="15.1247131" x2="27.4994784" y2="15.1247131" id="Path" stroke-linecap="square"></line>
            </g>
            <g id="folder-chart-bar" transform="translate(331.960104, 434.884609)" stroke="#E5E5E5" stroke-linecap="square">
                <line x1="27.1325683" y1="20.7692167" x2="10.6353943" y2="20.4812575" id="Path"></line>
                <line x1="20.8021484" y1="28.909819" x2="10.4914146" y2="28.7298445" id="Path"></line>
                <path d="M41.2492177,41.2492177 L4.12492177,41.2492177 C1.84679038,41.2492177 0,39.4024273 0,37.1242959 L0,0 L16.4996871,0 L22.6870697,8.24984353 L45.3741394,8.24984353 L45.3741394,37.1242959 C45.3741394,39.4024273 43.527349,41.2492177 41.2492177,41.2492177 Z" id="Path"></path>
            </g>
            <text id="Transaction-Domain" font-family="Poppins-Bold, Poppins" font-size="14" font-weight="bold" fill="#FFFFFF">
                <tspan x="271.777351" y="516.488532">TRANSACTION DOMAIN</tspan>
            </text>
            <circle id="Oval-Copy-30" fill="#D30E00" cx="354.647174" cy="370.06441" r="29.0057495"></circle>
            <g id="Group-2-Copy-6" transform="translate(339.976839, 363.689645)" fill="#FFFFFF" fill-rule="nonzero">
                <g id="Group-3">
                    <path d="M5.62576176,0.186218595 C6.18441754,0.323432296 6.64506354,0.656665571 7.00769975,1.18591842 C7.36053498,1.71517127 7.5369526,2.56785641 7.5369526,3.73417287 C7.5369526,4.80247955 7.40953988,5.51795099 7.16451541,5.8805872 C6.90968997,6.24322342 6.41964103,6.46864592 5.67476665,6.53725278 C6.3412332,6.71367039 6.8018792,6.94889388 7.02730171,7.24292324 C7.25272422,7.5369526 7.3997389,7.80157902 7.45854477,8.05640447 C7.50404931,8.28392719 7.53265217,8.87483619 7.53650613,9.84482591 L7.5369526,13.6919672 L4.40063942,13.6919672 L4.40063942,9.13451212 C4.40063942,8.39943872 4.34183355,7.9485937 4.23402279,7.77217609 C4.12621202,7.59575847 3.84198364,7.50754966 3.38133764,7.50754966 L3.38133764,13.6919672 L0,13.6919672 L0,0 L2.3914388,0 C3.97919734,0 5.057305,0.058805872 5.62576176,0.186218595 Z M14.6720651,0 L16.6126589,13.6919672 L13.1529134,13.6919672 L12.9764958,11.2319216 L11.7513734,11.2319216 L11.5749558,13.6919672 L8.07600643,13.6919672 L9.7911777,0 L14.6720651,0 Z M19.5039476,0 L19.8665838,4.78287759 L20.209618,9.40893953 C20.3370307,7.01750073 20.6506621,3.87138658 21.140711,0 L24.6396604,0 C24.6788643,0.401840126 24.806277,1.91119084 25.0022966,4.51825117 L25.3845348,9.73237182 C25.5805543,6.41964103 25.8941857,3.17551709 26.3254287,0 L29.6087566,0 L28.1092068,13.6919672 L23.894786,13.6919672 C23.5125478,11.5847568 23.1695136,9.193318 22.8656832,6.49804886 C22.7284695,7.65456434 22.4148382,10.0558041 21.9247893,13.6919672 L17.7397714,13.6919672 L16.2206197,0 L19.5039476,0 Z M12.3688351,3.03830339 C12.0356018,5.67476665 11.8297813,7.59575847 11.7317715,8.81107983 L12.878486,8.81107983 C12.7216703,7.2625252 12.5550537,5.3317324 12.3688351,3.03830339 Z M3.38133764,2.33263292 L3.38133764,5.38073729 C3.76357581,5.38073729 4.01840126,5.3317324 4.17521692,5.21412065 C4.3222316,5.10630989 4.40063942,4.75347466 4.40063942,4.14581398 L4.40063942,3.39113862 C4.40063942,2.95989556 4.3222316,2.67566718 4.18501789,2.53845348 C4.03800321,2.40123978 3.76357581,2.33263292 3.38133764,2.33263292 Z" id="Combined-Shape"></path>
                </g>
            </g>
            <g id="database-copy-2" transform="translate(255.973955, 434.884609)" stroke="#E5E5E5">
                <path d="M0,5.49989569 L0,35.749322 C0,38.911762 8.38734092,41.2492177 17.874661,41.2492177 C27.3619811,41.2492177 35.749322,38.911762 35.749322,35.749322 L35.749322,5.49989569" id="Path"></path>
                <path d="M35.749322,5.49989569 C35.749322,8.66233571 27.3619811,10.9997914 17.874661,10.9997914 C8.38734092,10.9997914 0,8.66233571 0,5.49989569 C0,2.33745567 8.38734092,0 17.874661,0 C27.3619811,0 35.749322,2.33745567 35.749322,5.49989569 Z" id="Path" stroke-linecap="square"></path>
                <path d="M35.749322,20.6246088 C35.749322,23.7870489 27.3619811,26.1245045 17.874661,26.1245045 C8.38734092,26.1245045 0,23.7870489 0,20.6246088" id="Path" stroke-linecap="square"></path>
            </g>
            <line x1="341.150515" y1="345.00573" x2="301.669121" y2="305.524336" id="Line-4" stroke="#CD2023" stroke-width="1.5" stroke-dasharray="4,6"></line>
            <line x1="284.386959" y1="288.77848" x2="189.553072" y2="196.222019" id="Line-4-Copy-3" stroke="#CD2023" stroke-width="1.5" stroke-dasharray="4,6"></line>
            <line x1="340.445152" y1="224.017557" x2="189.995054" y2="183.455237" id="Line-4-Copy-5" stroke="#CD2023" stroke-width="1.5" stroke-dasharray="4,6"></line>
            <line x1="516.861012" y1="185.942416" x2="368.52705" y2="224.088361" id="Line-4-Copy-6" stroke="#CD2023" stroke-width="1.5" stroke-dasharray="4,6"></line>
            <g id="decentralize-copy-3" transform="translate(423.180882, 296.532414) scale(-1, 1) rotate(139.000000) translate(-423.180882, -296.532414) translate(411.492384, 288.214960)">
                <path d="M-1.63952737e-13,11.6527517 C0.00424791636,10.1771604 0.288011763,8.68941537 0.867898121,7.26940387 C2.66320158,2.87310877 6.93992692,1.13272632e-13 11.6886662,1.13272632e-13 C16.4374056,1.13272632e-13 20.7141309,2.87310877 22.5094344,7.26940387 C23.0828297,8.67352026 23.3666947,10.1438623 23.3769956,11.6031955" id="Path" stroke="#CD2023" stroke-linecap="square"></path>
                <circle id="Oval" fill="#D30E00" cx="11.5994398" cy="11.6349079" r="5"></circle>
            </g>
            <line x1="373.81502" y1="347.193216" x2="414.323816" y2="306.481187" id="Line-4-Copy" stroke="#CD2023" stroke-width="1.5" stroke-dasharray="4,6"></line>
            <line x1="523.179692" y1="194.222019" x2="430.488237" y2="288.762395" id="Line-4-Copy-4" stroke="#CD2023" stroke-width="1.5" stroke-dasharray="4,6"></line>
            <line x1="354.82988" y1="349.647529" x2="354.647174" y2="306.684421" id="Line-4-Copy-2" stroke="#CD2023" stroke-width="1.5" stroke-dasharray="4,6"></line>
            <circle id="Oval" fill="#D30E00" transform="translate(164.961339, 252.757708) scale(-1, -1) rotate(180.000000) translate(-164.961339, -252.757708) " cx="164.961339" cy="252.757708" r="5"></circle>
            <circle id="Oval-Copy-35" fill="#D30E00" transform="translate(354.647174, 296.920028) scale(-1, -1) rotate(180.000000) translate(-354.647174, -296.920028) " cx="354.647174" cy="296.920028" r="5"></circle>
            <circle id="Oval-Copy-36" fill="#D30E00" transform="translate(546.179364, 257.757708) scale(-1, -1) rotate(180.000000) translate(-546.179364, -257.757708) " cx="546.179364" cy="257.757708" r="5"></circle>
            <circle id="Oval-Copy-31" fill="#D30E00" transform="translate(89.855533, 247.757708) scale(-1, -1) rotate(180.000000) translate(-89.855533, -247.757708) " cx="89.8555335" cy="247.757708" r="5"></circle>
            <line x1="144.030421" y1="191.087021" x2="95.6905414" y2="241.101751" id="Line-4-Copy-8" stroke="#CD2023" stroke-width="1.5" stroke-dasharray="4,6"></line>
            <line x1="165.528471" y1="198.732535" x2="164.961339" y2="241.692289" id="Line-4-Copy-7" stroke="#CD2023" stroke-width="1.5" stroke-dasharray="4,6"></line>
            <line x1="546.270717" y1="245.757012" x2="546.088011" y2="202.793904" id="Line-4-Copy-9" stroke="#CD2023" stroke-width="1.5" stroke-dasharray="4,6"></line>
            <line x1="144.52705" y1="149.722019" x2="100.52705" y2="116.722019" id="Line-6" stroke="#C3C3C3" stroke-width="1.5" stroke-dasharray="4,6"></line>
            <line x1="165.52705" y1="141.222019" x2="165.52705" y2="112.722019" id="Line-7" stroke="#C3C3C3" stroke-width="1.5" stroke-dasharray="4,6"></line>
            <line x1="187.52705" y1="150.722019" x2="225.52705" y2="116.722019" id="Line-8" stroke="#C3C3C3" stroke-width="1.5" stroke-dasharray="4,6"></line>
            <line x1="525.02705" y1="148.722019" x2="481.02705" y2="115.722019" id="Line-6-Copy" stroke="#C3C3C3" stroke-width="1.5" stroke-dasharray="4,6"></line>
            <line x1="546.02705" y1="140.222019" x2="546.02705" y2="111.722019" id="Line-7-Copy" stroke="#C3C3C3" stroke-width="1.5" stroke-dasharray="4,6"></line>
            <line x1="568.02705" y1="149.722019" x2="606.02705" y2="115.722019" id="Line-8-Copy" stroke="#C3C3C3" stroke-width="1.5" stroke-dasharray="4,6"></line>
            <g id="Group-24" transform="translate(356.845409, 409.876316) rotate(-180.000000) translate(-356.845409, -409.876316) translate(293.845409, 390.376316)" stroke="#E0E0E0" stroke-dasharray="4,6" stroke-width="1.5">
                <line x1="44.5" y1="37.5" x2="0.5" y2="4.5" id="Line-6-Copy-2"></line>
                <line x1="65.5" y1="29" x2="65.5" y2="0.5" id="Line-7-Copy-2"></line>
                <line x1="87.5" y1="38.5" x2="125.5" y2="4.5" id="Line-8-Copy-2"></line>
            </g>
        </g>
    </g>
</svg>