<?xml version="1.0" encoding="UTF-8"?>
<svg width="34px" height="29px" viewBox="0 0 34 29" version="1.1" xmlns="http://www.w3.org/2000/svg" xmlns:xlink="http://www.w3.org/1999/xlink">
    <title>migration</title>
    <g id="Page-1" stroke="none" stroke-width="1" fill="none" fill-rule="evenodd">
        <g id="Features-+-Footer" transform="translate(-1028.000000, -662.000000)" fill-rule="nonzero">
            <g id="Check-icon-badge-Copy-3" transform="translate(1015.000000, 646.139336)">
                <g id="migration" transform="translate(13.500000, 16.000000)">
                    <path d="M26.831,9.137 C25.9913954,4.22373954 21.9492087,0.491442959 16.984709,0.045564945 C12.0202093,-0.400313069 7.37765778,2.55197865 5.676,7.237 C2.02603955,8.17671926 -0.359586423,11.6792412 0.102566212,15.4197891 C0.564718846,19.160337 3.73108107,21.976899 7.5,22.000001 L15,22.000001 L15,16 L10.5,16 C10.3017644,15.9998213 10.1223547,15.8825455 10.0426482,15.7010399 C9.96294174,15.5195344 9.9979926,15.3080801 10.132,15.162 L15.632,9.162 C15.728739,9.06279378 15.8614348,9.00684816 16,9.00684816 C16.1385652,9.00684816 16.271261,9.06279378 16.368,9.162 L21.868,15.162 C22.0020074,15.3080801 22.0370583,15.5195344 21.9573518,15.7010399 C21.8776453,15.8825455 21.6982356,15.9998213 21.5,16 L17,16 L17,22.000001 L25.5,22.000001 C28.8321726,22.0018015 31.6260273,19.483493 31.968993,16.1690169 C32.3119587,12.8545408 30.0929416,9.81752506 26.831,9.137 L26.831,9.137 Z" id="Path" fill="#D81505"></path>
                    <path d="M15,22 L15,27 C15,27.5522847 15.4477153,28 16,28 C16.5522847,28 17,27.5522847 17,27 L17,22 L15,22 Z" id="Path" fill="#FFFFFF"></path>
                </g>
            </g>
        </g>
    </g>
</svg>