<?xml version="1.0" encoding="UTF-8"?>
<svg width="24px" height="25px" viewBox="0 0 24 25" version="1.1" xmlns="http://www.w3.org/2000/svg" xmlns:xlink="http://www.w3.org/1999/xlink">
    <title>file-sql</title>
    <g id="Page-1" stroke="none" stroke-width="1" fill="none" fill-rule="evenodd">
        <g id="Features-+-Footer" transform="translate(-153.000000, -470.000000)" fill="#D81505" fill-rule="nonzero">
            <g id="Check-icon-badge" transform="translate(135.000000, 452.139336)">
                <g id="file-sql" transform="translate(18.000000, 18.000000)">
                    <path d="M2.205,21.315 L2.205,22.785 C2.205,23.226 2.499,23.52 2.94,23.52 L20.58,23.52 C21.021,23.52 21.315,23.226 21.315,22.785 L21.315,21.315 L2.205,21.315 Z" id="Path"></path>
                    <polygon id="Path" points="16.17 1.176 16.17 5.145 20.139 5.145"></polygon>
                    <path d="M22.785,9.555 L21.315,9.555 L21.315,6.615 L15.435,6.615 C14.994,6.615 14.7,6.321 14.7,5.88 L14.7,0 L2.94,0 C2.499,0 2.205,0.294 2.205,0.735 L2.205,9.555 L0.735,9.555 C0.294,9.555 0,9.849 0,10.29 L0,19.11 C0,19.551 0.294,19.845 0.735,19.845 L22.785,19.845 C23.226,19.845 23.52,19.551 23.52,19.11 L23.52,10.29 C23.52,9.849 23.226,9.555 22.785,9.555 Z M7.5705,14.0385 C7.644,14.112 7.8645,14.1855 8.232,14.406 C8.5995,14.553 8.82,14.7735 8.967,14.9205 C9.114,15.0675 9.1875,15.3615 9.1875,15.6555 C9.1875,15.9495 9.114,16.17 8.967,16.317 C8.82,16.5375 8.673,16.6845 8.379,16.758 C8.085,16.8315 7.8645,16.905 7.497,16.905 C7.203,16.905 6.9825,16.905 6.762,16.8315 C6.5415,16.758 6.3945,16.758 6.174,16.611 L6.174,15.582 C6.3945,15.729 6.615,15.8025 6.8355,15.876 C7.056,15.9495 7.2765,15.9495 7.497,15.9495 C7.644,15.9495 7.791,15.9495 7.8645,15.876 C7.938,15.8025 8.0115,15.729 8.0115,15.6555 C8.0115,15.582 8.0115,15.582 7.938,15.5085 C7.8645,15.435 7.8645,15.435 7.791,15.3615 C7.7175,15.288 7.5705,15.2145 7.203,15.0675 C6.909,14.9205 6.6885,14.847 6.615,14.7 C6.5415,14.553 6.3945,14.4795 6.321,14.3325 C6.2475,14.1855 6.2475,14.0385 6.2475,13.818 C6.2475,13.4505 6.3945,13.1565 6.6885,12.936 C6.9825,12.7155 7.35,12.642 7.8645,12.642 C8.3055,12.642 8.7465,12.7155 9.1875,12.936 L8.82,13.818 C8.4525,13.671 8.085,13.524 7.791,13.524 C7.644,13.524 7.5705,13.524 7.497,13.5975 C7.4235,13.671 7.4235,13.7445 7.4235,13.818 C7.4235,13.8915 7.497,13.965 7.5705,14.0385 Z M12.495,17.934 L11.76,16.9785 L11.76,16.9785 L11.76,16.9785 L11.76,16.9785 C11.0985,16.9785 10.584,16.758 10.2165,16.3905 C9.849,16.023 9.702,15.5085 9.702,14.7735 C9.702,14.0385 9.849,13.524 10.2165,13.1565 C10.584,12.789 11.0985,12.5685 11.76,12.5685 C12.4215,12.5685 12.936,12.7155 13.3035,13.083 C13.671,13.4505 13.818,13.965 13.818,14.7 C13.818,15.6555 13.524,16.317 12.936,16.611 L13.965,17.787 L12.495,17.787 L12.495,17.934 Z M17.2725,16.905 L14.553,16.905 L14.553,12.7155 L15.6555,12.7155 L15.6555,16.023 L17.2725,16.023 L17.2725,16.905 Z" id="Shape"></path>
                    <path d="M11.76,13.5975 C11.172,13.5975 10.878,14.0385 10.878,14.847 C10.878,15.6555 11.172,16.0965 11.76,16.0965 C12.054,16.0965 12.2745,16.023 12.4215,15.8025 C12.5685,15.582 12.642,15.288 12.642,14.847 C12.642,14.406 12.5685,14.112 12.4215,13.8915 C12.2745,13.671 12.054,13.5975 11.76,13.5975 Z" id="Path"></path>
                </g>
            </g>
        </g>
    </g>
</svg>