<?xml version="1.0" encoding="UTF-8"?>
<svg width="812px" height="813px" viewBox="0 0 812 813" version="1.1" xmlns="http://www.w3.org/2000/svg" xmlns:xlink="http://www.w3.org/1999/xlink">
    <title>Group 11</title>
    <g id="Page-1" stroke="none" stroke-width="1" fill="none" fill-rule="evenodd" opacity="0.146906334" stroke-linecap="round">
        <g id="Team-Copy" transform="translate(-654.000000, -49.000000)" stroke="#2E557B">
            <g id="Group-11" transform="translate(1060.119314, 455.670686) rotate(-14.000000) translate(-1060.119314, -455.670686) translate(726.119314, 121.670686)">
                <path d="M334.005127,167.308969 C381.63289,167.308969 420.243697,140.009882 420.243697,106.343203 C420.243697,72.671459 381.63289,45.3774378 334.005127,45.3774378 C286.377364,45.3774378 247.761491,72.671459 247.761491,106.343203 C247.761491,140.009882 286.377364,167.308969 334.005127,167.308969 Z" id="Stroke-1" stroke-width="1.5"></path>
                <path d="M80.8186332,117.354528 C58.048287,146.553254 45.095278,180.113553 45.095278,215.81158 C45.095278,328.599513 174.448068,420.040563 334.002594,420.040563 C493.567252,420.040563 622.920042,328.599513 622.920042,215.81158 C622.920042,178.568513 608.812052,143.650605 584.177526,113.585643 L80.8186332,117.354528 Z M334.002594,334.014752 C464.363459,334.014752 570.044208,259.300661 570.044208,167.150413 C570.044208,75.0001639 464.363459,0.291139126 334.002594,0.291139126 C203.646794,0.291139126 97.971112,75.0001639 97.971112,167.150413 C97.971112,259.300661 203.646794,334.014752 334.002594,334.014752 Z M334.002594,247.892693 C426.127514,247.892693 500.811211,195.148567 500.811211,130.089711 C500.811211,65.0308554 426.127514,12.2917955 334.002594,12.2917955 C241.88274,12.2917955 167.199043,65.0308554 167.199043,130.089711 C167.199043,195.148567 241.88274,247.892693 334.002594,247.892693 Z" id="Stroke-3"></path>
                <path d="M667.188735,335.397689 C667.188735,464.831531 518.018906,569.757489 334.007153,569.757489 C149.995401,569.757489 0.825571057,464.831531 0.825571057,335.397689" id="Stroke-5" stroke-width="1.5"></path>
                <path d="M640.534513,467.115657 C598.023112,557.842443 476.846371,623.311621 334.003607,623.311621 C191.155778,623.311621 69.9790366,557.842443 27.4727017,467.115657 M641.167726,203.389963 C651.309268,225.425782 656.790362,248.945853 656.790362,273.352422 C656.790362,398.738764 512.275915,500.387211 334.003607,500.387211 C155.741431,500.387211 11.2219185,398.738764 11.2219185,273.352422 C11.2219185,248.945853 16.7030118,225.425782 26.8394885,203.389963" id="Stroke-7"></path>
                <path d="M250.455433,90.8289738 C122.04993,88.8634801 39.570113,160.968732 24.8643699,208.986555 M81.0987667,117.125051 C114.552686,81.6549812 173.968346,59.158183 259.219104,76.0573766 M143.356287,60.5309892 C168.487252,42.7199687 220.978093,36.9501301 271.908696,64.0668517 M290.601149,53.6770897 C265.247293,30.278596 233.37894,18.495765 210.264126,24.5138231 M311.36041,47.6792944 C299.714353,24.8380283 288.752167,8.11106871 274.446614,5.91761823 M333.97372,45.3743984 L333.97372,0.613824567 M333.97372,167.427507 L333.97372,667.407574 M557.386529,581.270318 C504.677864,626.88193 424.193935,656.040131 334.004114,656.040131 C245.394793,656.040131 166.141831,627.895071 113.412902,583.646133" id="Stroke-9"></path>
                <path d="M334.005127,667.6563 C518.270165,667.6563 667.652754,518.278776 667.652754,334.013739 C667.652754,149.748701 518.270165,0.355980157 334.005127,0.355980157 C149.740089,0.355980157 0.357499868,149.748701 0.357499868,334.013739 C0.357499868,518.278776 149.740089,667.6563 334.005127,667.6563 Z" id="Stroke-11" stroke-width="1.5"></path>
                <path d="M667.144157,323.771895 C662.534365,207.113763 532.75099,124.05139 420.378445,106.74694 M649.03426,442.679201 C682.143711,342.084421 599.365018,191.389813 416.918568,121.974451 M603.807641,529.890386 C659.069423,434.948934 591.579028,252.102294 408.848899,136.974005 M534.128862,600.268233 C618.69575,525.508551 545.435517,295.940909 394.999261,149.658532 M465.144085,640.419015 C534.128862,600.268233 502.756948,363.998663 377.005875,159.121269 M356.241548,165.12413 C398.509795,292.35439 452.023907,636.477896 397.425734,661.401167 M417.61257,90.8304935 C546.013007,88.8649998 628.49789,160.965186 643.203633,208.988074 M586.969236,117.126571 C553.510251,81.6565009 494.099657,59.1597028 408.848899,76.0588963 M524.70665,60.5274432 C499.580751,42.7214884 447.08991,36.9516498 396.159307,64.0633057 M377.466854,53.6786094 C402.815644,30.27505 434.683998,18.492219 457.798812,24.5153428 M356.707593,47.6808141 C368.35365,24.8344823 379.315836,8.11258842 393.621389,5.91913794 M0.917766897,323.771895 C5.53769031,207.113763 135.321065,124.05139 247.683479,106.74694 M19.0377955,442.679201 C-14.0767214,342.084421 68.6969065,191.389813 251.148422,121.974451 M64.2542828,529.890386 C8.99756717,434.948934 76.4828959,252.102294 259.223156,136.974005 M133.933062,600.268233 C49.3763057,525.508551 122.631473,295.940909 273.062664,149.658532 M202.922905,640.419015 C133.933062,600.268233 165.320173,363.998663 291.061115,159.121269 M311.820376,165.12413 C269.562261,292.35439 216.038017,636.477896 270.641256,661.401167" id="Stroke-13"></path>
            </g>
        </g>
    </g>
</svg>