<?xml version="1.0" encoding="UTF-8"?>
<svg width="14px" height="14px" viewBox="0 0 14 14" version="1.1" xmlns="http://www.w3.org/2000/svg" xmlns:xlink="http://www.w3.org/1999/xlink">
    <title>ico-linkedin</title>
    <g id="Assets" stroke="none" stroke-width="1" fill="none" fill-rule="evenodd">
        <g id="Artboard" transform="translate(-807.000000, -948.000000)" fill="#FFFFFF" fill-rule="nonzero">
            <path d="M820.304348,948 L807.608696,948 C807.26087,948 807,948.26087 807,948.608696 L807,961.391304 C807,961.652174 807.26087,961.913043 807.608696,961.913043 L820.391304,961.913043 C820.73913,961.913043 821,961.652174 821,961.304348 L821,948.608696 C820.913043,948.26087 820.652174,948 820.304348,948 Z M811.086957,959.826087 L809.086957,959.826087 L809.086957,953.217391 L811.173913,953.217391 L811.173913,959.826087 L811.086957,959.826087 Z M810.130435,952.347826 C809.434783,952.347826 808.913043,951.73913 808.913043,951.130435 C808.913043,950.434783 809.434783,949.913043 810.130435,949.913043 C810.826087,949.913043 811.347826,950.434783 811.347826,951.130435 C811.26087,951.73913 810.73913,952.347826 810.130435,952.347826 Z M818.826087,959.826087 L816.73913,959.826087 L816.73913,956.608696 C816.73913,955.826087 816.73913,954.869565 815.695652,954.869565 C814.652174,954.869565 814.478261,955.73913 814.478261,956.608696 L814.478261,959.913043 L812.391304,959.913043 L812.391304,953.217391 L814.391304,953.217391 L814.391304,954.086957 L814.391304,954.086957 C814.652174,953.565217 815.347826,953.043478 816.304348,953.043478 C818.391304,953.043478 818.73913,954.434783 818.73913,956.173913 L818.73913,959.826087 L818.826087,959.826087 Z" id="ico-linkedin"></path>
        </g>
    </g>
</svg>