<?xml version="1.0" encoding="UTF-8"?>
<svg width="17px" height="14px" viewBox="0 0 17 14" version="1.1" xmlns="http://www.w3.org/2000/svg" xmlns:xlink="http://www.w3.org/1999/xlink">
    <title>ico-twitter</title>
    <g id="Assets" stroke="none" stroke-width="1" fill="none" fill-rule="evenodd">
        <g id="Artboard" transform="translate(-763.000000, -948.000000)" fill="#FFFFFF" fill-rule="nonzero">
            <path d="M780,949.841667 C779.3625,950.125 778.725,950.3375 778.016667,950.408333 C778.725,949.983333 779.291667,949.275 779.575,948.495833 C778.866667,948.920833 778.158333,949.204167 777.379167,949.345833 C776.741667,948.6375 775.820833,948.2125 774.829167,948.2125 C772.916667,948.2125 771.358333,949.770833 771.358333,951.683333 C771.358333,951.966667 771.358333,952.25 771.429167,952.4625 C768.454167,952.320833 765.904167,950.904167 764.204167,948.779167 C763.85,949.345833 763.708333,949.9125 763.708333,950.55 C763.708333,951.754167 764.345833,952.816667 765.266667,953.454167 C764.7,953.454167 764.133333,953.3125 763.708333,953.029167 C763.708333,953.029167 763.708333,953.029167 763.708333,953.1 C763.708333,954.8 764.9125,956.216667 766.470833,956.5 C766.1875,956.570833 765.904167,956.641667 765.55,956.641667 C765.3375,956.641667 765.125,956.641667 764.9125,956.570833 C765.3375,957.9875 766.6125,958.979167 768.170833,958.979167 C766.966667,959.9 765.479167,960.466667 763.85,960.466667 C763.566667,960.466667 763.283333,960.466667 763,960.395833 C764.558333,961.3875 766.4,961.954167 768.3125,961.954167 C774.758333,961.954167 778.229167,956.641667 778.229167,952.0375 C778.229167,951.895833 778.229167,951.754167 778.229167,951.6125 C778.9375,951.116667 779.504167,950.479167 780,949.841667 Z" id="ico-twitter"></path>
        </g>
    </g>
</svg>