<?xml version="1.0" encoding="UTF-8"?>
<svg width="55px" height="61px" viewBox="0 0 55 61" version="1.1" xmlns="http://www.w3.org/2000/svg" xmlns:xlink="http://www.w3.org/1999/xlink">
    <title>icon-equity</title>
    <g id="Page-1" stroke="none" stroke-width="1" fill="none" fill-rule="evenodd">
        <g id="Jobs" transform="translate(-583.000000, -712.000000)" fill="#000000">
            <g id="icon-equity" transform="translate(583.433628, 712.500000)">
                <path d="M33.7264377,4.63309735 C33.7264377,5.41557522 33.5981191,6.16831858 33.3644908,6.87327434 C37.0986501,7.97026549 40.4595351,9.94831858 43.2037828,12.5679646 C43.6991811,12.0093805 44.2894466,11.5185841 44.9706855,11.1251327 C45.0427209,11.0835398 45.1170572,11.0467257 45.1903315,11.0077876 C42.0298005,7.90849558 38.101482,5.5900885 33.719889,4.36831858 C33.7228979,4.45646018 33.7264377,4.54442478 33.7264377,4.63309735" id="Fill-10"></path>
                <path d="M7.98502178,11.0076106 C8.05829612,11.0467257 8.1326324,11.0835398 8.20449081,11.1249558 C8.88590674,11.5184071 9.47617223,12.0092035 9.97157046,12.5679646 C12.7158182,9.94831858 16.0767032,7.97026549 19.8108625,6.87327434 C19.5772342,6.16831858 19.4489156,5.41557522 19.4489156,4.63309735 C19.4489156,4.54442478 19.4522784,4.45646018 19.4556413,4.36831858 C15.0738713,5.5900885 11.1455528,7.90831858 7.98502178,11.0076106" id="Fill-11"></path>
                <path d="M3.1867917,35.6676106 C2.74360585,33.8437168 2.50696869,31.94 2.50696869,29.9817699 C2.50696869,28.0235398 2.74360585,26.119823 3.1867917,24.2959292 C2.44449081,24.1421239 1.72732267,23.8718584 1.06590674,23.4899115 C0.988738598,23.4453097 0.913517359,23.3982301 0.838473111,23.3511504 C0.29210143,25.4715044 0.0014819606,27.6932743 0.0014819606,29.9817699 C0.0014819606,32.2702655 0.29210143,34.4920354 0.838473111,36.6123894 C0.913517359,36.5653097 0.988561607,36.5182301 1.06572975,36.4736283 C1.72714568,36.0916814 2.44449081,35.8214159 3.1867917,35.6676106" id="Fill-12"></path>
                <path d="M19.4489156,55.3302655 C19.4489156,54.5479646 19.5772342,53.7953982 19.8108625,53.0902655 C16.0775882,51.9936283 12.7174112,50.0162832 9.97369435,47.3976991 C9.47139347,47.9621239 8.87794214,48.4497345 8.20449081,48.8384071 C8.1326324,48.88 8.05829612,48.9168142 7.98502178,48.9557522 C11.1455528,52.0552212 15.0738713,54.3736283 19.4556413,55.5953982 C19.4522784,55.5072566 19.4489156,55.419292 19.4489156,55.3302655" id="Fill-13"></path>
                <path d="M45.1903315,48.9557522 C45.1172342,48.9166372 45.0430749,48.879823 44.9710395,48.8384071 C44.2977651,48.4497345 43.7039598,47.9621239 43.201659,47.3976991 C40.4579421,50.0162832 37.0977651,51.9936283 33.3644908,53.0902655 C33.5981191,53.7953982 33.7264377,54.5479646 33.7264377,55.3302655 C33.7264377,55.419292 33.7228979,55.5072566 33.719889,55.5953982 C38.101482,54.3736283 42.0298005,52.0552212 45.1903315,48.9557522" id="Fill-14"></path>
                <path d="M52.3368802,23.3511504 C52.2620129,23.3982301 52.1869687,23.4453097 52.1096236,23.4897345 C51.4482076,23.8716814 50.7308625,24.1421239 49.9885616,24.2959292 C50.4317474,26.119823 50.6685616,28.0235398 50.6685616,29.9817699 C50.6685616,31.94 50.4317474,33.8437168 49.9885616,35.6676106 C50.7308625,35.8212389 51.4482076,36.0916814 52.1096236,36.4738053 C52.1869687,36.5184071 52.2620129,36.5653097 52.3368802,36.6125664 C52.8832519,34.4920354 53.1740483,32.2702655 53.1740483,29.9817699 C53.1740483,27.6932743 52.8832519,25.4715044 52.3368802,23.3511504" id="Fill-15"></path>
                <path d="M48.5365262,15.180177 C48.1758182,15.180177 47.8105085,15.2718584 47.4763492,15.4647788 C46.460243,16.0515044 46.1110395,17.3553982 46.6975882,18.3713274 C47.2843138,19.3872566 48.5878536,19.7366372 49.6041368,19.1500885 C50.0961722,18.8658407 50.4483846,18.4072566 50.5954643,17.8580531 C50.7425439,17.3092035 50.6669687,16.7359292 50.3827209,16.2435398 C49.9890926,15.5619469 49.2724554,15.180177 48.5365262,15.180177 Z M48.5478536,21.939823 C46.9453758,21.939823 45.3848448,21.1088496 44.5276767,19.6240708 C43.2505085,17.4116814 44.0110395,14.5725664 46.2234289,13.2950442 C48.4361722,12.0173451 51.2754643,12.7784071 52.5526324,14.9907965 C53.1713935,16.0624779 53.3358182,17.3111504 53.0154643,18.5067257 C52.6952873,19.7019469 51.9287386,20.7010619 50.8568802,21.32 C50.1290926,21.740177 49.3335174,21.939823 48.5478536,21.939823 Z M48.5437828,40.5288496 C47.8080306,40.5288496 47.0913935,40.9102655 46.6975882,41.5922124 C46.4135174,42.0844248 46.3379421,42.6576991 46.4850218,43.2067257 C46.6321014,43.7555752 46.9841368,44.2145133 47.4763492,44.4985841 C47.9687386,44.7826549 48.5420129,44.8582301 49.0910395,44.7113274 C49.639889,44.5642478 50.0986501,44.2120354 50.3827209,43.719823 C50.6669687,43.2276106 50.7425439,42.6543363 50.5954643,42.1053097 C50.4483846,41.5564602 50.0961722,41.0975221 49.6041368,40.8134513 C49.2698005,40.620531 48.9044908,40.5288496 48.5437828,40.5288496 Z M48.5326324,47.2913274 C47.7298005,47.2913274 46.9375882,47.080531 46.2234289,46.6684956 C45.1517474,46.0497345 44.3851988,45.0506195 44.0648448,43.8553982 C43.7446678,42.659823 43.9087386,41.4111504 44.5276767,40.339469 C45.8048448,38.1270796 48.6441368,37.3660177 50.8568802,38.6435398 C51.9287386,39.2624779 52.6952873,40.2614159 53.0154643,41.4569912 C53.3358182,42.6525664 53.1713935,43.9010619 52.5526324,44.9725664 C51.9338713,46.0444248 50.9347563,46.8109735 49.7393581,47.1315044 C49.340243,47.2384071 48.9352873,47.2913274 48.5326324,47.2913274 Z M26.5876767,53.2024779 C25.4144023,53.2024779 24.460066,54.1569912 24.460066,55.3302655 C24.460066,56.5035398 25.4144023,57.4578761 26.5876767,57.4578761 C27.760951,57.4578761 28.7152873,56.5035398 28.7152873,55.3302655 C28.7152873,54.1569912 27.760951,53.2024779 26.5876767,53.2024779 Z M26.5876767,59.9635398 C24.0328094,59.9635398 21.9544023,57.8851327 21.9544023,55.3302655 C21.9544023,52.7753982 24.0328094,50.6969912 26.5876767,50.6969912 C29.1425439,50.6969912 31.220951,52.7753982 31.220951,55.3302655 C31.220951,57.8851327 29.1425439,59.9635398 26.5876767,59.9635398 Z M4.63157046,40.5288496 C4.27086249,40.5288496 3.90555276,40.620354 3.57139347,40.8134513 C3.07900408,41.0975221 2.72714568,41.5564602 2.57988904,42.1053097 C2.43280939,42.6543363 2.50838462,43.2276106 2.79245541,43.719823 C3.0767032,44.2120354 3.53546426,44.5642478 4.08431382,44.7113274 C4.63351736,44.8585841 5.20696869,44.7826549 5.69900408,44.4985841 C6.19121647,44.2145133 6.54325187,43.7555752 6.69033152,43.2067257 C6.83741116,42.6576991 6.76201293,42.0844248 6.47776515,41.5922124 C6.08413683,40.9104425 5.36749966,40.5288496 4.63157046,40.5288496 Z M4.64254391,47.2913274 C4.24006603,47.2913274 3.83528727,47.2384071 3.43599523,47.1315044 C2.240597,46.8109735 1.24130497,46.0444248 0.622720899,44.9725664 C0.00395983671,43.9010619 -0.160464942,42.6525664 0.15988904,41.4569912 C0.480066031,40.2614159 1.2467917,39.2624779 2.31847311,38.6435398 C4.53086249,37.3663717 7.37015453,38.1269027 8.64767665,40.339469 C9.26643771,41.4111504 9.43086249,42.659823 9.11050851,43.8553982 C8.79033152,45.0506195 8.02360585,46.0497345 6.95174745,46.6684956 C6.23794214,47.080531 5.44537577,47.2913274 4.64254391,47.2913274 Z M4.63882709,15.180177 C3.90289789,15.180177 3.18626072,15.5617699 2.7926324,16.2435398 C2.50838462,16.7359292 2.43280939,17.3092035 2.57988904,17.8580531 C2.72714568,18.4072566 3.07900408,18.8658407 3.57139347,19.1500885 C4.58732267,19.7371681 5.89103948,19.3874336 6.47776515,18.3713274 C7.06431382,17.3553982 6.71511028,16.0515044 5.69900408,15.4647788 C5.36484479,15.2718584 4.99953506,15.180177 4.63882709,15.180177 Z M4.62732267,21.939823 C3.84183594,21.939823 3.04643771,21.740354 2.31847311,21.32 C1.2467917,20.7010619 0.480066031,19.7019469 0.15988904,18.5067257 C-0.160464942,17.3111504 0.00395983671,16.0624779 0.622720899,14.9907965 C1.89988904,12.7784071 4.7386501,12.0171681 6.95174745,13.2948673 L6.95174745,13.2950442 C9.16431382,14.5725664 9.92502178,17.4116814 8.64767665,19.6240708 C7.79050851,21.1088496 6.22980054,21.939823 4.62732267,21.939823 Z M26.5876767,2.50548673 C25.4144023,2.50548673 24.460066,3.46 24.460066,4.63309735 C24.460066,5.80637168 25.4144023,6.76088496 26.5876767,6.76088496 C27.760951,6.76088496 28.7152873,5.80637168 28.7152873,4.63309735 C28.7152873,3.46 27.760951,2.50548673 26.5876767,2.50548673 Z M26.5876767,9.26637168 C24.0328094,9.26637168 21.9544023,7.1879646 21.9544023,4.63309735 C21.9544023,2.07840708 24.0328094,0 26.5876767,0 C29.1425439,0 31.220951,2.07840708 31.220951,4.63309735 C31.220951,7.1879646 29.1425439,9.26637168 26.5876767,9.26637168 L26.5876767,9.26637168 Z" id="Fill-16"></path>
                <path d="M29.0678536,42.0237168 L29.0678536,46.0355752 L25.2112165,46.0355752 L25.2112165,42.299115 C22.5729864,42.179823 20.0168802,41.4720354 18.521128,40.6058407 L19.701482,36.0026549 C21.3554643,36.9076106 23.6772342,37.7345133 26.2324554,37.7345133 C28.4770572,37.7345133 30.0108625,36.8684956 30.0108625,35.2946903 C30.0108625,33.7987611 28.7522784,32.8546903 25.840774,31.8704425 C21.6317474,30.4548673 18.7574112,28.4874336 18.7574112,24.6707965 C18.7574112,21.2077876 21.1972342,18.4934513 25.4074997,17.6663717 L25.4074997,13.9279646 L29.2639598,13.9279646 L29.2639598,17.3911504 C31.900243,17.5102655 33.6703315,18.060885 34.9689156,18.6897345 L33.8283846,23.1359292 C32.8043138,22.7035398 30.9940483,21.799469 28.160774,21.799469 C25.6036059,21.799469 24.7784731,22.900708 24.7784731,24.0019469 C24.7784731,25.300531 26.1561722,26.1267257 29.4993581,27.3860177 C34.1839598,29.0380531 36.0701545,31.2026549 36.0701545,34.7438938 C36.0701545,38.2451327 33.5912165,41.2357522 29.0678536,42.0237168" id="Fill-17"></path>
            </g>
        </g>
    </g>
</svg>