<?xml version="1.0" encoding="UTF-8"?>
<svg width="25px" height="25px" viewBox="0 0 25 25" version="1.1" xmlns="http://www.w3.org/2000/svg" xmlns:xlink="http://www.w3.org/1999/xlink">
    <title>Group</title>
    <g id="PPT" stroke="none" stroke-width="1" fill="none" fill-rule="evenodd">
        <g id="Slide8-Copy-2" transform="translate(-954.000000, -361.000000)">
            <g id="Group" transform="translate(954.000000, 361.000000)">
                <path d="M10.1820683,11.9466045 C10.6920892,11.9466045 11.0515061,11.7710538 11.260319,11.4199524 C11.4691319,11.0688511 11.5735384,10.5791571 11.5735384,9.95087051 C11.5735384,9.3299755 11.4691319,8.84397732 11.260319,8.49287598 C11.0515061,8.14177463 10.6920892,7.96622396 10.1820683,7.96622396 C9.67204739,7.96622396 9.31355443,8.14085068 9.10658943,8.49010412 C8.89962443,8.83935757 8.79614193,9.32627969 8.79614193,9.95087051 C8.79614193,10.5791571 8.89962443,11.0688511 9.10658943,11.4199524 C9.31355443,11.7710538 9.67204739,11.9466045 10.1820683,11.9466045 Z M10.1822522,11.3668541 C9.95796205,11.3668541 9.78543118,11.3064683 9.66465957,11.1856967 C9.54388796,11.0649251 9.46193579,10.9036087 9.41880308,10.7017476 C9.37567036,10.4998865 9.354104,10.248854 9.354104,9.94865032 C9.354104,9.65189723 9.37567036,9.40345277 9.41880308,9.20331696 C9.46193579,9.00318115 9.54388796,8.8435901 9.66465957,8.7245438 C9.78543118,8.6054975 9.95796205,8.54597435 10.1822522,8.54597435 C10.4099929,8.54597435 10.5842491,8.6054975 10.7050207,8.7245438 C10.8257923,8.8435901 10.9077445,9.00318115 10.9508772,9.20331696 C10.9940099,9.40345277 11.0155763,9.65189723 11.0155763,9.94865032 C11.0155763,10.248854 10.9940099,10.4998865 10.9508772,10.7017476 C10.9077445,10.9036087 10.8257923,11.0649251 10.7050207,11.1856967 C10.5842491,11.3064683 10.4099929,11.3668541 10.1822522,11.3668541 Z" id="0" fill="#CD2023" fill-rule="nonzero"></path>
                <path d="M14.8630986,6.82441208 C15.3731195,6.82441208 15.7325364,6.64886141 15.9413493,6.29776006 C16.1501622,5.94665872 16.2545686,5.45696474 16.2545686,4.82867812 C16.2545686,4.20778311 16.1501622,3.72178494 15.9413493,3.37068359 C15.7325364,3.01958225 15.3731195,2.84403158 14.8630986,2.84403158 C14.3530777,2.84403158 13.9945847,3.0186583 13.7876197,3.36791174 C13.5806547,3.71716518 13.4771722,4.20408731 13.4771722,4.82867812 C13.4771722,5.45696474 13.5806547,5.94665872 13.7876197,6.29776006 C13.9945847,6.64886141 14.3530777,6.82441208 14.8630986,6.82441208 Z M14.8632825,6.24466169 C14.6389923,6.24466169 14.4664614,6.18427589 14.3456898,6.06350428 C14.2249182,5.94273267 14.1429661,5.78141631 14.0998333,5.57955519 C14.0567006,5.37769407 14.0351343,5.12666165 14.0351343,4.82645794 C14.0351343,4.52970484 14.0567006,4.28126039 14.0998333,4.08112458 C14.1429661,3.88098877 14.2249182,3.72139772 14.3456898,3.60235142 C14.4664614,3.48330512 14.6389923,3.42378196 14.8632825,3.42378196 C15.0910232,3.42378196 15.2652794,3.48330512 15.386051,3.60235142 C15.5068226,3.72139772 15.5887748,3.88098877 15.6319075,4.08112458 C15.6750402,4.28126039 15.6966066,4.52970484 15.6966066,4.82645794 C15.6966066,5.12666165 15.6750402,5.37769407 15.6319075,5.57955519 C15.5887748,5.78141631 15.5068226,5.94273267 15.386051,6.06350428 C15.2652794,6.18427589 15.0910232,6.24466169 14.8632825,6.24466169 Z" id="0-copy" fill="#CD2023" fill-rule="nonzero"></path>
                <path d="M19.5385136,10.8047926 C20.0485345,10.8047926 20.4079514,10.6292419 20.6167643,10.2781406 C20.8255772,9.92703923 20.9299837,9.43734525 20.9299837,8.80905863 C20.9299837,8.18816362 20.8255772,7.70216544 20.6167643,7.3510641 C20.4079514,6.99996275 20.0485345,6.82441208 19.5385136,6.82441208 C19.0284927,6.82441208 18.6699997,6.9990388 18.4630347,7.34829225 C18.2560697,7.69754569 18.1525872,8.18446782 18.1525872,8.80905863 C18.1525872,9.43734525 18.2560697,9.92703923 18.4630347,10.2781406 C18.6699997,10.6292419 19.0284927,10.8047926 19.5385136,10.8047926 Z M19.5386975,10.2250422 C19.3144074,10.2250422 19.1418765,10.1646564 19.0211049,10.0438848 C18.9003333,9.92311318 18.8183811,9.76179681 18.7752484,9.55993569 C18.7321157,9.35807458 18.7105493,9.10704216 18.7105493,8.80683845 C18.7105493,8.51008535 18.7321157,8.2616409 18.7752484,8.06150509 C18.8183811,7.86136928 18.9003333,7.70177822 19.0211049,7.58273192 C19.1418765,7.46368562 19.3144074,7.40416247 19.5386975,7.40416247 C19.7664382,7.40416247 19.9406944,7.46368562 20.061466,7.58273192 C20.1822376,7.70177822 20.2641898,7.86136928 20.3073225,8.06150509 C20.3504552,8.2616409 20.3720216,8.51008535 20.3720216,8.80683845 C20.3720216,9.10704216 20.3504552,9.35807458 20.3073225,9.55993569 C20.2641898,9.76179681 20.1822376,9.92311318 20.061466,10.0438848 C19.9406944,10.1646564 19.7664382,10.2250422 19.5386975,10.2250422 Z" id="0-copy-2" fill="#CD2023" fill-rule="nonzero"></path>
                <polygon id="1" fill="#CD2023" fill-rule="nonzero" points="10.4141472 6.79733038 10.4141472 2.81694987 9.27366936 2.81694987 9.27366936 3.2968539 9.87213792 3.2968539 9.87213792 6.79733038"></polygon>
                <polygon id="1-copy" fill="#CD2023" fill-rule="nonzero" points="5.90259119 10.7777109 5.90259119 6.79733038 4.76211337 6.79733038 4.76211337 7.27723441 5.36058193 7.27723441 5.36058193 10.7777109"></polygon>
                <polygon id="1-copy-2" fill="#CD2023" fill-rule="nonzero" points="15.7441625 12.1890065 15.7441625 8.20862595 14.6036847 8.20862595 14.6036847 8.68852998 15.2021532 8.68852998 15.2021532 12.1890065"></polygon>
                <g id="water-surface" transform="translate(1.947912, 13.115498)" stroke="#CD2023" stroke-linecap="round" stroke-linejoin="round" stroke-width="1.5">
                    <path d="M3.0225767,7.73494101 C4.49267914,7.73496801 5.8810672,7.0586968 6.78733221,5.90116283 C7.69357456,7.0587389 9.08196611,7.73505316 10.5520877,7.73505316 C12.0222093,7.73505316 13.4106009,7.0587389 14.3168432,5.90116283 C15.2231082,7.0586968 16.6114963,7.73496801 18.0815987,7.73494101" id="Path"></path>
                    <path d="M0,2.569913 C2.06024665,2.56995084 4.00597628,1.62220362 5.27604386,0 C6.37154835,1.39931588 7.97806858,2.30612155 9.74217609,2.52092314 C11.5062836,2.73572472 13.2834662,2.24092611 14.6827504,1.14538116 C15.1096524,0.811530536 15.494281,0.426901989 15.8281316,0 C17.0981992,1.62220362 19.0439288,2.56995084 21.1041754,2.569913" id="Path"></path>
                </g>
                <circle id="Oval" stroke="#CD2023" stroke-width="1.5" cx="12.5" cy="12.5" r="11.75"></circle>
            </g>
        </g>
    </g>
</svg>