<?xml version="1.0" encoding="UTF-8"?>
<svg width="22px" height="22px" viewBox="0 0 22 22" version="1.1" xmlns="http://www.w3.org/2000/svg" xmlns:xlink="http://www.w3.org/1999/xlink">
    <title>icon-xlsx</title>
    <g id="PPT" stroke="none" stroke-width="1" fill="none" fill-rule="evenodd">
        <g id="Slide8-Copy-2" transform="translate(-837.000000, -252.000000)">
            <g id="icon-xlsx" transform="translate(837.752733, 252.438437)">
                <polyline id="Path" stroke="#D81505" stroke-width="1.5" stroke-linecap="round" stroke-linejoin="round" points="12.9556452 0.33219603 12.9556452 5.64733251 18.2707816 5.64733251"></polyline>
                <polyline id="Path" stroke="#D81505" stroke-width="1.5" stroke-linecap="round" stroke-linejoin="round" points="18.2707816 8.30490074 18.2707816 5.64733251 12.9556452 0.33219603 2.32537221 0.33219603 2.32537221 8.30490074"></polyline>
                <polyline id="Path" stroke="#D81505" stroke-width="1.5" stroke-linecap="round" stroke-linejoin="round" points="2.32537221 17.6063896 2.32537221 20.2639578 18.2707816 20.2639578 18.2707816 17.6063896"></polyline>
                <polygon id="Path" fill="#D81505" fill-rule="nonzero" points="7.17543424 14.9488213 6.04596774 14.9488213 5.31513648 13.7529156 4.517866 14.9488213 3.3883995 14.9488213 4.65074442 13.0220844 3.45483871 11.1617866 4.58430521 11.1617866 5.24869727 12.3576923 5.91308933 11.1617866 7.10899504 11.1617866 5.91308933 13.0885236"></polygon>
                <polygon id="Path" fill="#D81505" fill-rule="nonzero" points="7.64050868 14.9488213 7.64050868 11.1617866 8.63709677 11.1617866 8.63709677 14.1515509 10.0987593 14.1515509 10.0987593 14.9488213"></polygon>
                <path d="M13.221402,13.8193548 C13.221402,14.0851117 13.1549628,14.2844293 13.0220844,14.4173077 C12.889206,14.5501861 12.7563275,14.7495037 12.4905707,14.8159429 C12.2248139,14.8823821 12.0254963,14.9488213 11.6933002,14.9488213 C11.4275434,14.9488213 11.2282258,14.9488213 11.0289082,14.8823821 C10.8295906,14.8159429 10.6967122,14.8159429 10.4973945,14.6830645 L10.4973945,13.7529156 C10.6967122,13.885794 10.8960298,13.9522333 11.0953474,14.0186725 C11.294665,14.0851117 11.4939826,14.0851117 11.6933002,14.0851117 C11.8261787,14.0851117 11.9590571,14.0851117 12.0254963,14.0186725 C12.0919355,13.9522333 12.1583747,13.885794 12.1583747,13.8193548 C12.1583747,13.7529156 12.1583747,13.7529156 12.0919355,13.6864764 C12.0254963,13.6200372 12.0254963,13.6200372 11.9590571,13.553598 C11.8926179,13.4871588 11.7597395,13.4207196 11.4275434,13.2878412 C11.1617866,13.1549628 10.962469,13.0885236 10.8960298,12.9556452 C10.8295906,12.8227667 10.6967122,12.7563275 10.630273,12.6234491 C10.5638337,12.4905707 10.5638337,12.3576923 10.5638337,12.1583747 C10.5638337,11.8261787 10.6967122,11.5604218 10.962469,11.3611042 C11.2282258,11.1617866 11.5604218,11.0953474 12.0254963,11.0953474 C12.4241315,11.0953474 12.8227667,11.1617866 13.221402,11.3611042 L12.889206,12.1583747 C12.5570099,12.0254963 12.2248139,11.8926179 11.9590571,11.8926179 C11.8261787,11.8926179 11.7597395,11.8926179 11.6933002,11.9590571 C11.626861,12.0254963 11.626861,12.0919355 11.626861,12.1583747 C11.626861,12.2248139 11.6933002,12.2912531 11.7597395,12.3576923 C11.8261787,12.4241315 12.0254963,12.4905707 12.3576923,12.6898883 C12.6898883,12.8227667 12.889206,13.0220844 13.0220844,13.1549628 C13.1549628,13.2878412 13.221402,13.553598 13.221402,13.8193548 Z" id="Path" fill="#D81505" fill-rule="nonzero"></path>
                <polygon id="Path" fill="#D81505" fill-rule="nonzero" points="17.2077543 14.9488213 16.0118486 14.9488213 15.2810174 13.7529156 14.5501861 14.9488213 13.4207196 14.9488213 14.6830645 13.0220844 13.4871588 11.1617866 14.6166253 11.1617866 15.2810174 12.3576923 15.9454094 11.1617866 17.1413151 11.1617866 15.9454094 13.0885236"></polygon>
                <rect id="Rectangle" stroke="#D81505" stroke-width="1.5" stroke-linecap="round" stroke-linejoin="round" x="0.33219603" y="8.30490074" width="19.9317618" height="9.30148883"></rect>
            </g>
        </g>
    </g>
</svg>