<?xml version="1.0" encoding="UTF-8"?>
<svg width="26px" height="26px" viewBox="0 0 26 26" version="1.1" xmlns="http://www.w3.org/2000/svg" xmlns:xlink="http://www.w3.org/1999/xlink">
    <title>excel-seeklogo.com</title>
    <defs>
        <polygon id="path-1" points="0 0 25 0 25 24.9636332 0 24.9636332"></polygon>
    </defs>
    <g id="PPT" stroke="none" stroke-width="1" fill="none" fill-rule="evenodd">
        <g id="Slide8-Copy-2" transform="translate(-837.000000, -514.000000)">
            <g id="excel-seeklogo.com" transform="translate(837.752733, 514.913125)">
                <g id="Group-3">
                    <mask id="mask-2" fill="white">
                        <use xlink:href="#path-1"></use>
                    </mask>
                    <g id="Clip-2"></g>
                    <path d="M24.0542991,20.9948369 L14.8367732,20.9948369 L14.8216883,19.3078559 L17.0418594,19.3078559 L17.0418594,17.3436389 L14.8043203,17.3436389 L14.7939647,16.1821832 L17.0418594,16.1821832 L17.0418594,14.2179662 L14.7764336,14.2179662 L14.7661596,13.0565105 L17.0418594,13.0565105 L17.0418594,11.0922935 L14.7587395,11.0922935 L14.7587395,9.93083777 L17.0418594,9.93083777 L17.0418594,7.96662079 L14.7587395,7.96662079 L14.7587395,6.80516507 L17.0418594,6.80516507 L17.0418594,4.84094808 L14.7587395,4.84094808 L14.7587395,3.05628217 L24.0542991,3.05628217 L24.0542991,20.9948369 Z M23.9113595,2.13194476 L14.8673507,2.13194476 L14.8673507,0 L0,2.2951063 L0,22.4082512 L14.8673507,24.9685256 L14.8673507,21.8102369 L23.9113595,21.8102369 C24.5126354,21.8102369 25,21.3721225 25,20.8317569 L25,3.11042473 C25,2.57005917 24.5126354,2.13194476 23.9113595,2.13194476 L23.9113595,2.13194476 Z" id="Fill-1" fill="#CD2023" mask="url(#mask-2)"></path>
                </g>
                <polygon id="Fill-4" fill="#CD2023" points="18.2921121 6.80516507 22.1516448 6.80516507 22.1516448 4.84094808 18.2921121 4.84094808"></polygon>
                <polygon id="Fill-5" fill="#CD2023" points="18.2921121 9.93083777 22.1516448 9.93083777 22.1516448 7.96662079 18.2921121 7.96662079"></polygon>
                <polygon id="Fill-6" fill="#CD2023" points="18.2921121 13.0565105 22.1516448 13.0565105 22.1516448 11.0922935 18.2921121 11.0922935"></polygon>
                <polygon id="Fill-7" fill="#CD2023" points="18.2921121 16.1821832 22.1516448 16.1821832 22.1516448 14.2179662 18.2921121 14.2179662"></polygon>
                <polygon id="Fill-8" fill="#CD2023" points="18.2921121 19.3078559 22.1516448 19.3078559 22.1516448 17.3436389 18.2921121 17.3436389"></polygon>
                <polyline id="Fill-9" fill="#FFFFFE" points="3.88154848 7.72762706 5.79749379 7.61820038 7.001758 10.9300289 8.42503865 7.48129472 10.340984 7.37178651 8.01448477 12.0737089 10.340984 16.787373 8.31553043 16.6504674 6.94704466 13.057489 5.57847735 16.5135617 3.71732692 16.3494217 5.87952302 12.1858264 3.88154848 7.72762706"></polyline>
            </g>
        </g>
    </g>
</svg>