<?xml version="1.0" encoding="UTF-8"?>
<svg width="27px" height="27px" viewBox="0 0 27 27" version="1.1" xmlns="http://www.w3.org/2000/svg" xmlns:xlink="http://www.w3.org/1999/xlink">
    <title>icon-databases</title>
    <g id="PPT" stroke="none" stroke-width="1" fill="none" fill-rule="evenodd" stroke-linecap="round" stroke-linejoin="round">
        <g id="Slide8-Copy-2" transform="translate(-837.000000, -475.000000)" stroke="#CD2023" stroke-width="1.5">
            <g id="icon-databases" transform="translate(837.752733, 476.413125)">
                <g id="database" transform="translate(0.000000, 0.000000)">
                    <path d="M0,2.43500076 L0,15.8275049 C0,17.2276304 3.71337616,18.2625057 7.91375246,18.2625057" id="Path"></path>
                    <path d="M15.8275049,2.43500076 C15.8275049,3.83512619 12.1141288,4.87000152 7.91375246,4.87000152 C3.71337616,4.87000152 0,3.83512619 0,2.43500076 C0,1.03487532 3.71337616,0 7.91375246,0 C12.1141288,0 15.8275049,1.03487532 15.8275049,2.43500076 Z" id="Path"></path>
                    <path d="M7.91375246,11.5662536 C7.50020101,11.5662536 7.09137031,11.556222 6.69033959,11.5367978 C3.01816502,11.3589341 0,10.3935278 0,9.13125284" id="Path"></path>
                </g>
                <g id="database-copy" transform="translate(9.172495, 6.281638)">
                    <path d="M0,2.43500076 L0,15.8275049 C0,17.2276304 3.71337616,18.2625057 7.91375246,18.2625057 C12.1141288,18.2625057 15.8275049,17.2276304 15.8275049,15.8275049 L15.8275049,2.43500076" id="Path"></path>
                    <path d="M15.8275049,2.43500076 C15.8275049,3.83512619 12.1141288,4.87000152 7.91375246,4.87000152 C3.71337616,4.87000152 0,3.83512619 0,2.43500076 C0,1.03487532 3.71337616,0 7.91375246,0 C12.1141288,0 15.8275049,1.03487532 15.8275049,2.43500076 Z" id="Path"></path>
                    <path d="M15.8275049,9.13125284 C15.8275049,10.5313783 12.1141288,11.5662536 7.91375246,11.5662536 C3.71337616,11.5662536 0,10.5313783 0,9.13125284" id="Path"></path>
                </g>
            </g>
        </g>
    </g>
</svg>