<?xml version="1.0" encoding="UTF-8"?>
<svg width="77px" height="61px" viewBox="0 0 77 61" version="1.1" xmlns="http://www.w3.org/2000/svg" xmlns:xlink="http://www.w3.org/1999/xlink">
    <title>icon-flexible-work</title>
    <g id="Page-1" stroke="none" stroke-width="1" fill="none" fill-rule="evenodd">
        <g id="Jobs" transform="translate(-85.000000, -712.000000)" fill="#000000">
            <g id="icon-flexible-work" transform="translate(85.057554, 712.500000)">
                <path d="M19.1059034,27.6880552 C19.1059034,20.214499 25.1861466,14.1342558 32.6597028,14.1342558 C40.133563,14.1342558 46.2138062,20.214499 46.2138062,27.6880552 C46.2138062,35.1619154 40.133563,41.2421585 32.6597028,41.2421585 C25.1861466,41.2421585 19.1059034,35.1619154 19.1059034,27.6880552 Z M49.6113746,27.6880552 C49.6113746,18.3409427 42.0071192,10.7363835 32.6597028,10.7363835 C23.3125904,10.7363835 15.7080311,18.3409427 15.7080311,27.6880552 C15.7080311,37.0354716 23.3125904,44.6397269 32.6597028,44.6397269 C42.0071192,44.6397269 49.6113746,37.0354716 49.6113746,27.6880552 L49.6113746,27.6880552 Z" id="Fill-3"></path>
                <path d="M35.7955691,33.2263531 L30.9609186,28.3917026 L30.9609186,18.3178424 C30.9609186,17.3795446 31.7217089,16.6190582 32.6597028,16.6190582 C33.596177,16.6190582 34.358487,17.3777209 34.358487,18.3178424 L34.358487,26.9844078 L38.1980007,30.8239215 C38.8612226,31.4871433 38.8612226,32.5628272 38.1980007,33.2263531 C37.5350828,33.889271 36.4593989,33.8901829 35.7955691,33.2263531" id="Fill-4"></path>
                <path d="M29.8943533,27.6880552 C29.8943533,26.1606996 31.1323472,24.9227057 32.6597028,24.9227057 C34.1870584,24.9227057 35.4253563,26.1606996 35.4253563,27.6880552 C35.4253563,29.2154108 34.1870584,30.4537087 32.6597028,30.4537087 C31.1323472,30.4537087 29.8943533,29.2154108 29.8943533,27.6880552" id="Fill-5"></path>
                <path d="M54.471253,53.6798485 L54.471253,53.6798485 C54.471253,54.6181464 55.2317393,55.3786327 56.1700372,55.3786327 L57.7344749,55.3786327 C58.6727727,55.3786327 59.433563,54.6181464 59.433563,53.6798485 C59.433563,52.7418546 58.6727727,51.9810643 57.7344749,51.9810643 L56.1700372,51.9810643 C55.2317393,51.9810643 54.471253,52.7418546 54.471253,53.6798485" id="Fill-6"></path>
                <path d="M69.6031679,48.0597877 C69.271253,47.7278728 68.8362986,47.5622193 68.4019521,47.5622193 C66.902256,47.5622193 66.12718,49.3886631 67.2007363,50.4619154 L68.7198852,51.9810643 L65.1353867,51.9810643 C64.1970888,51.9810643 63.4366025,52.7418546 63.4366025,53.6798485 C63.4366025,54.6181464 64.1970888,55.3786327 65.1353867,55.3786327 L68.9141101,55.3786327 L67.2040797,57.0844078 C66.1293077,58.1555324 66.9007363,59.9859275 68.4031679,59.9859275 C68.8375144,59.9859275 69.271253,59.820578 69.6031679,59.4901829 L75.3259642,53.7825841 L69.6031679,48.0597877" id="Fill-7"></path>
                <path d="M10.3253563,10.6409427 C9.92505236,11.1531008 9.5448092,11.6762011 9.18523473,12.2093318 C8.59678488,13.0810643 8.92505236,14.2716418 9.88128336,14.7099397 L9.89708884,14.7172345 C10.6518001,15.0631312 11.5466329,14.8132832 12.0113746,14.1254412 C12.3323472,13.6500613 12.6697332,13.1868394 13.0226208,12.7360795 C13.5843229,12.0187543 13.4736846,10.9847117 12.7779399,10.3965658 L12.7642621,10.3850157 C12.0265721,9.76161143 10.9204931,9.88015246 10.3253563,10.6409427" id="Fill-8"></path>
                <path d="M59.8466329,27.6883591 L59.8466329,27.6883591 C59.8466329,23.9479336 59.1144141,20.3196661 57.671253,16.9050765 C50.6326511,0.246413861 30.0800676,-4.95291745 16.0414657,5.15097313 C15.1448092,5.79626188 15.0949612,7.11328316 15.9384262,7.82635307 L15.9572712,7.84215854 C16.5502803,8.34337435 17.408335,8.38045641 18.039642,7.92817678 C22.020797,5.07589714 26.895873,3.39504608 32.1560554,3.39504608 C42.202256,3.39504608 50.8442013,9.52513726 54.5369065,18.2415506 C61.2989125,34.2005172 49.5049916,51.9810643 32.1560554,51.9810643 L1.7323168,51.9810643 C0.779611632,51.9810643 -0.0180479423,52.7606996 -6.91105396e-15,53.7132832 C0.0181222704,54.6363835 0.771617711,55.3786327 1.69842622,55.3786327 L48.7691253,55.3786327 C49.7074232,55.3786327 50.4679095,54.6181464 50.4679095,53.6798485 C50.4679095,52.7418546 49.7074232,51.9810643 48.7691253,51.9810643 L45.4657818,51.9810643 C54.1472408,47.2293926 59.8466329,38.0388151 59.8466329,27.6883591" id="Fill-9"></path>
                <path d="M6.60559947,30.0695142 L12.5730767,24.1023409 C13.2286998,23.4467178 13.2362986,22.3889671 12.5964809,21.7236175 C11.9359946,21.0372953 10.8204931,21.0500613 10.1469369,21.7236175 L8.19435327,23.6762011 C8.38432288,22.5388151 8.65331984,21.4278728 8.99617698,20.3494534 C9.2560554,19.5312163 8.86547789,18.6479336 8.08523473,18.2904868 L8.0779399,18.2871433 C7.14906452,17.8613075 6.05787911,18.3461099 5.74967242,19.3199701 C5.32110099,20.6755932 4.9998244,22.0555324 4.78705844,23.4461099 L3.04076665,21.6999093 C2.70903412,21.3682984 2.27414051,21.2023409 1.83958124,21.2023409 C0.340037164,21.2023409 -0.435038824,23.0287847 0.638395827,24.1023409 L6.60559947,30.0695142" id="Fill-10"></path>
            </g>
        </g>
    </g>
</svg>