<?xml version="1.0" encoding="UTF-8"?>
<svg width="48px" height="63px" viewBox="0 0 48 63" version="1.1" xmlns="http://www.w3.org/2000/svg" xmlns:xlink="http://www.w3.org/1999/xlink">
    <title>icon-stimulating</title>
    <g id="Page-1" stroke="none" stroke-width="1" fill="none" fill-rule="evenodd">
        <g id="Jobs" transform="translate(-1093.000000, -711.000000)" fill="#000000" fill-rule="nonzero">
            <g id="icon-stimulating" transform="translate(1094.135906, 712.500000)">
                <path d="M17.6360482,56.742068 C17.6360482,57.9777555 18.5648178,58.9947654 19.6513321,59.0122531 L19.6843043,59.0124763 L23.6790928,59.0031187 C24.7678859,59.0006016 25.699607,58.0040534 25.7181325,56.7792523 L25.7184136,56.742068 L27.6305949,56.742068 C27.6305949,58.9841829 25.9067614,60.8721318 23.7490591,60.9145751 L23.6835427,60.9152948 L19.688987,60.9246642 C17.5163138,60.9302036 15.7593193,59.0532146 15.7243967,56.8101501 L15.7238669,56.742068 L17.6360482,56.742068 Z" id="Stroke-3"></path>
                <path d="M31.7005666,52.5730878 L31.7005666,53.4229462 L11.6540652,53.4229462 L11.6540652,52.5730878 L31.7005666,52.5730878 Z M32.5992918,49.2382436 L32.5992918,50.088102 L10.755085,50.088102 L10.755085,49.2382436 L32.5992918,49.2382436 Z" id="Stroke-4"></path>
                <path d="M32.6778975,2.07161184 L32.7201267,2.06052739 C33.1040558,1.96177444 33.5002341,1.89805481 33.9051494,1.872298 C37.5882617,1.63793625 40.7309484,4.59107939 40.9484676,8.43699527 C40.9719215,8.85074991 40.9606029,9.25847456 40.9171344,9.65695998 C43.0551186,10.4335851 44.6450642,12.481844 44.7804897,14.8739696 C44.818658,15.5496797 44.7201643,16.4237713 44.5117613,17.2099671 C44.3756586,17.7234114 44.2003008,18.1848084 43.9797382,18.5757338 C45.0703296,19.6826196 45.7825051,21.2055481 45.8793463,22.9159553 C46.000831,25.0594193 45.0299711,27.1822418 43.4362121,28.5270716 C43.5023358,28.7160874 43.559652,28.9098364 43.6076885,29.1077032 C44.2898441,31.9161436 42.9751287,34.7690728 40.5548469,35.9306437 C40.638638,36.2994652 40.6930236,36.6810461 40.7151853,37.0724456 C40.9197084,40.6850267 38.3050752,43.8097909 34.8432386,44.030085 C32.6897876,44.1669899 30.6632233,43.1393681 29.4160763,41.3561607 L29.3785232,41.3018933 L30.956321,40.2216194 C31.8274323,41.4939242 33.2349861,42.2162875 34.7218598,42.12176 C37.1097802,41.9698046 38.952522,39.7675325 38.8060615,37.1805363 C38.6613473,34.6247362 36.6312528,32.6929327 34.2789799,32.8016564 L34.2076019,32.8055771 L34.0861658,30.8972557 C36.5262296,30.7419822 38.7136299,32.0721768 39.8668705,34.1347243 C41.3794823,33.3205512 42.2066265,31.4408873 41.7495091,29.5589313 C41.4866817,28.4763217 40.8269407,27.5877439 39.9362499,27.0656156 L39.9091887,27.0499058 L40.8621994,25.3921338 C41.4906646,25.7534224 42.0417364,26.2324216 42.4910766,26.8013873 C43.4633799,25.8328442 44.0494477,24.4218885 43.9702257,23.0241028 C43.8240479,20.4423127 41.7542013,18.4972349 39.3717435,18.648808 C37.5524884,18.764533 36.0027643,20.0831676 35.4713004,21.9320676 L35.4555078,21.9882565 L33.611631,21.4817435 C34.3384653,18.8358232 36.5765203,16.9105693 39.2503439,16.7404843 C40.3896551,16.6680007 41.4738786,16.9193763 42.4234654,17.4179434 C42.7111675,16.7698196 42.9145358,15.7463169 42.8713585,14.9819302 C42.784012,13.4390607 41.7909477,12.0998413 40.4549565,11.5294937 C39.5256173,13.88451 37.401418,15.6171292 34.8194973,15.825622 L34.7094398,15.833566 L34.5880106,13.9252442 C37.1917518,13.7595644 39.1989478,11.3606946 39.0393442,8.54509357 C38.880393,5.73470669 36.6249365,3.61528259 34.0265586,3.78062112 C32.3655571,3.88627805 30.8986436,4.90912117 30.1239931,6.46105093 L30.1007313,6.50824066 L28.3814217,5.67133441 C28.9612817,4.48009127 29.8442029,3.50256363 30.9139278,2.83571958 C30.2043312,1.63539326 28.9306205,0.907635302 27.5650849,0.994530513 C27.0087327,1.02991987 26.4781028,1.19577557 26.0007736,1.47806701 C24.9938483,2.07366207 24.3550835,3.28667091 24.3430885,4.62215665 L24.3429172,4.66266289 L24.3429172,46.6313031 L22.4307351,46.6313031 L22.4307351,4.66315852 C22.4296983,2.66147832 23.4028538,0.793085779 25.0273332,-0.167791779 C25.7617811,-0.602142697 26.5838812,-0.859101393 27.4436734,-0.913792465 C29.6335918,-1.05314689 31.6432731,0.149027915 32.6778975,2.07161184 Z" id="Stroke-5"></path>
                <path d="M27.1016821,30.2407676 C28.8407341,30.5413037 30.2098926,31.9273184 30.5023592,33.6711979 C30.5540353,33.9792345 30.5700103,34.2815693 30.5537664,34.5772785 C30.6421433,34.8122916 30.7595566,35.0549744 30.9265966,35.3114669 C31.1971829,35.726956 31.5433799,36.0828805 31.9767555,36.3507763 C32.4977931,36.6729929 33.0216208,36.8030692 33.5332071,36.8198513 L33.5616159,36.8206676 L33.5406504,37.6702673 C32.8809879,37.6539889 32.2038657,37.4904623 31.5298262,37.0736272 C31.0146758,36.7551815 30.6001929,36.3412459 30.2735129,35.8637435 C30.2010753,36.0521185 30.115821,36.2366815 30.0189222,36.4171466 C29.8599268,36.7132609 29.678956,36.9795701 29.4887683,37.2138417 L29.4595162,37.2495404 L29.4308542,37.2838726 L29.4028414,37.3168079 L29.3755367,37.3483158 L29.3489991,37.3783656 C29.3446434,37.3832507 29.3403221,37.3880738 29.3360364,37.3928343 L29.3107602,37.4206399 C29.306622,37.4251472 29.302522,37.4295905 29.2984613,37.4339693 L29.2745791,37.4594621 L29.2517001,37.4833748 L29.2298831,37.5056769 L29.2091873,37.5263379 C29.2058347,37.529643 29.2025313,37.5328783 29.1992783,37.5360435 L29.1803748,37.5541856 L28.5963957,36.9367493 L28.6091674,36.924373 L28.6256129,36.9078706 L28.6453425,36.8875233 L28.6601276,36.8719614 L28.6679665,36.8636127 C28.7178539,36.8102716 28.7720677,36.7482793 28.8289636,36.6781953 C28.9868726,36.4836844 29.1379436,36.2613745 29.2701713,36.0151127 C29.6362791,35.3332707 29.7953315,34.5933901 29.6642097,33.8117849 C29.4335668,32.4365394 28.3608611,31.3392096 26.998335,31.0856378 L26.9569581,31.0782126 L27.1016821,30.2407676 Z M26.9798426,22.7751389 L27.814775,22.6165608 L27.8200942,22.6432204 L27.8245232,22.6640353 L27.8324944,22.6995757 L27.8420632,22.7400038 L27.8493324,22.7695081 C27.8741984,22.8689119 27.9054388,22.9786605 27.9435899,23.0966183 C28.0481387,23.4198683 28.187316,23.753056 28.3652346,24.0801854 C28.8551992,24.9810572 29.5491206,25.6818558 30.4835207,26.0750959 C32.0482092,26.733569 33.8733959,26.3375188 35.1444025,25.0586012 L35.1827474,25.0195761 L35.7923234,25.6117553 C34.2801659,27.1683366 32.0627357,27.6617298 30.1538683,26.8584148 C29.0244942,26.3831203 28.1943644,25.5447635 27.6186535,24.4862346 C27.4141767,24.110274 27.2549332,23.7290483 27.1349733,23.3581493 L27.1267084,23.332422 L27.1108093,23.2819045 L27.0957443,23.2326774 L27.0815054,23.1847895 C27.0792006,23.1769226 27.07693,23.1691134 27.0746932,23.1613631 L27.0616784,23.115576 L27.0494694,23.0712506 L27.0380583,23.0284357 L27.027437,22.9871803 L27.0175974,22.9475334 L27.0085314,22.909544 L27.000231,22.8732608 L26.9926881,22.838733 C26.9914937,22.8331273 26.9903304,22.8275969 26.9891982,22.8221426 L26.9827764,22.7903395 L26.9798426,22.7751389 Z M40.1919904,21.2555748 L41.0136754,21.4725839 C40.9512849,21.7088198 40.8510106,21.9688109 40.6776088,22.2597116 C40.4102715,22.7081996 40.0385723,23.0925057 39.5456885,23.3690987 C39.0379115,23.6539002 38.4998596,23.7693092 37.9618038,23.7551956 C37.7646387,23.7500238 37.5776362,23.7274747 37.402603,23.692184 C37.2909653,23.6696754 37.2007167,23.645823 37.1181685,23.6200319 L37.0992493,23.6140455 L37.3585411,22.8047081 C37.4183202,22.8238598 37.4842536,22.8416863 37.5705734,22.8590903 C37.6994826,22.8850813 37.8381424,22.9018012 37.9840885,22.9056295 C38.3770251,22.9159364 38.7645502,22.8328146 39.1298661,22.6279166 C39.4846342,22.4288304 39.7524918,22.1518878 39.9476037,21.824566 C40.0202669,21.7026654 40.0787577,21.5802411 40.1247562,21.4609764 C40.1402787,21.4207295 40.1531055,21.3844559 40.1640425,21.3507056 L40.1743794,21.3177427 C40.1808905,21.2962566 40.1866813,21.2756772 40.1919904,21.2555748 Z M26.9005465,14.9475763 L27.7393969,14.8112339 L27.7463764,14.8529886 L27.7540721,14.8966104 L27.762539,14.9421919 C27.7640175,14.9499573 27.7655304,14.9578082 27.767079,14.9657465 L27.7768063,15.0144412 L27.7874428,15.0653271 C27.7892944,15.0739958 27.7911862,15.0827597 27.7931193,15.0916207 L27.8052231,15.145967 L27.8183741,15.202736 C27.8206562,15.2124046 27.8229843,15.2221779 27.8253595,15.232058 C27.885555,15.4824558 27.9618816,15.73818 28.0560709,15.9895313 C28.3060155,16.656528 28.6431754,17.1924407 29.0661422,17.5207931 C29.4682814,17.8330622 29.85638,17.8920074 30.2510066,17.7731927 C30.4002283,17.7282648 30.542821,17.6593079 30.674206,17.5747663 C30.75599,17.5221412 30.8196346,17.473047 30.868595,17.4301021 L30.8788631,17.4209947 L31.4463494,18.0536229 C31.3647093,18.1268565 31.2632569,18.2063309 31.1340802,18.2894515 C30.9397938,18.4144678 30.7267315,18.5175034 30.4960189,18.5869667 C29.8473256,18.7822763 29.1731458,18.6798804 28.5449503,18.1920742 C27.9771942,17.7513207 27.5605078,17.0890013 27.2602535,16.2877491 C27.1530827,16.0017556 27.0669469,15.7131669 26.999043,15.4307041 L26.9843378,15.3684602 C26.9819768,15.3582844 26.9796599,15.3482065 26.9773863,15.3382247 L26.9642531,15.2794709 C26.9600422,15.2602605 26.9559951,15.2414192 26.9521033,15.2229323 L26.9408852,15.1685195 L26.9305471,15.1161434 L26.9210371,15.0657145 C26.9195183,15.0574671 26.9180318,15.049297 26.9165766,15.0412025 L26.9082121,14.9935273 L26.9005465,14.9475763 Z M34.6352113,7.3514331 L34.861106,8.17071987 C34.5701948,8.25093024 34.263522,8.37150503 33.9238222,8.57082041 C33.4244643,8.86381355 32.9794495,9.26371767 32.620478,9.79113764 C32.216084,10.3856791 31.9897611,11.0411837 31.904601,11.722832 C31.8497002,12.1622756 31.8583233,12.5287589 31.8981994,12.8556126 L31.9019097,12.8852183 L31.0589968,12.9936485 C31.0075825,12.5939642 30.9947347,12.1502728 31.0612984,11.6174761 C31.0733164,11.5212799 31.0877333,11.4254431 31.1046263,11.3300398 C30.86176,11.4077607 30.603586,11.4423119 30.3320625,11.4239304 C29.9938498,11.401033 29.6853793,11.2988997 29.4086358,11.1398439 C29.2293468,11.0367992 29.0874661,10.9258234 28.9639856,10.8081307 L28.9446388,10.789492 L29.5375142,10.180593 C29.7543425,10.3917153 30.0330172,10.5518809 30.3894659,10.5760129 C30.6650731,10.5946709 30.9213604,10.5201511 31.157433,10.3760841 C31.2465078,10.3217248 31.3274547,10.2604527 31.3991424,10.1962796 C31.4237543,10.1742477 31.4449233,10.1540949 31.4633634,10.1355408 C31.5866259,9.8533121 31.7373621,9.57839841 31.9178376,9.3130626 C32.3512204,8.67631362 32.8902904,8.19188866 33.4937415,7.83781982 C33.9046603,7.5967174 34.2780627,7.44990653 34.6352113,7.3514331 Z" id="Stroke-6"></path>
                <path d="M19.3912931,-0.870562239 C20.2032323,-0.955729734 20.909302,-0.322833817 20.9233422,0.487349942 L20.9235552,0.511954674 L20.9235552,46.6313031 L19.0113739,46.6313031 L19.0113739,1.09699717 L18.9548719,1.10388774 C13.9530223,1.7238536 9.71607711,3.39949725 6.63966887,6.13161924 L6.54290537,6.21824796 C2.92857883,9.48017181 0.980056657,14.1734454 0.980056657,20.3909065 C0.980056657,23.2696294 1.86416967,26.2491376 3.48943433,29.1248983 C4.9521002,31.7129549 6.97189659,34.1275896 9.22582623,36.0526724 L9.29511204,36.1115464 L9.31321935,36.1266611 C10.8248759,37.4052108 11.7068916,39.2660332 11.7243752,41.2344267 L11.7246401,41.2941075 L11.6973229,49.1728045 C11.6973229,52.843256 14.2765986,55.7840081 17.4196562,55.8424561 L17.5150708,55.8433428 L25.8395184,55.8433428 C28.9937232,55.8433428 31.6045356,52.9392888 31.6564364,49.2838046 L31.6572238,49.1728045 L31.6572238,42.7338527 L33.5694051,42.7338527 L33.5694051,49.1728045 C33.5694051,53.8420452 30.2038263,57.6781128 25.9681364,57.7543672 L25.8395184,57.7555241 L17.5150708,57.7555241 C13.262023,57.7555241 9.85390628,53.966157 9.78617482,49.310823 L9.78514739,49.1694903 L9.81246459,41.2907932 C9.81246459,39.883504 9.19059913,38.5437518 8.11121552,37.6146809 L8.07591057,37.584642 L8.06179356,37.5729274 L8.05752959,37.5693119 C5.60746249,35.4918229 3.41562148,32.8806877 1.82471936,30.0657285 C0.0460003602,26.9184441 -0.932124646,23.6221104 -0.932124646,20.3909065 C-0.932124646,13.648485 1.23223106,8.43534776 5.26176531,4.79869963 C8.80471883,1.60118981 13.6850014,-0.272320647 19.3912931,-0.870562239 Z" id="Stroke-7"></path>
                <path d="M9.98761779,14.9783375 C11.2492441,13.7699466 13.5567764,13.6355909 14.9685567,14.6280252 C16.6737914,15.8267899 17.4067672,17.322661 17.5155861,20.1305017 L17.5189377,20.2231985 L17.5189377,24.3225637 L17.5614589,24.3265842 C18.2683749,24.3918978 19.0602926,24.4235705 19.914691,24.4262051 L19.968172,24.426332 L19.9667572,25.2761892 C19.8344562,25.275969 19.7035639,25.2750848 19.5741398,25.2735161 L19.4195395,25.2713036 C18.7526917,25.2602806 18.1261871,25.2305194 17.5483856,25.1790949 L17.5189377,25.1764164 L17.5189377,46.6313031 L16.6690793,46.6313031 L16.6690793,25.0782153 L16.6561151,25.0763529 C16.2043736,25.0109546 15.7923737,24.9281989 15.4255104,24.8261979 L15.3912494,24.8165788 C14.2853981,24.503059 13.2880993,24.0266696 12.405243,23.4338846 C11.7575699,22.999011 11.2143333,22.5303158 10.8022682,22.0905488 L10.7819405,22.0687394 L10.7570863,22.04442 C9.67605679,20.9780254 9.04077424,19.6505586 8.91406061,18.3115614 L8.91034055,18.2705684 C8.79653086,16.9603551 9.18609348,15.7460123 9.98761779,14.9783375 Z M14.479806,15.3232819 C13.3953206,14.5609251 11.5392283,14.6689957 10.5754643,15.5920929 C9.97215953,16.1699193 9.66429107,17.1296054 9.75701073,18.1970237 C9.85697037,19.3477908 10.4050472,20.5035029 11.3541964,21.4396732 L11.3909473,21.4756308 L11.3984076,21.483683 C11.7702252,21.8849993 12.2734501,22.3217352 12.8789886,22.728318 C13.6901924,23.2729926 14.6067434,23.7108104 15.6230541,23.9989445 C15.9119042,24.0808345 16.2369833,24.1499094 16.5939716,24.2070521 L16.6690793,24.218796 L16.6690793,20.2389093 L16.6665089,20.1669404 C16.5694197,17.6356293 15.9685934,16.3865865 14.5242834,15.3548005 L14.479806,15.3232819 Z" id="Stroke-8"></path>
                <polygon id="Stroke-9" points="32.6133144 45.6752125 32.6133144 47.5873938 10.7412323 47.5873938 10.7412323 45.6752125"></polygon>
                <path d="M31.1402873,26.5837028 L31.8911575,26.9817646 L31.8841431,26.9953929 L31.8763414,27.0113583 L31.8678438,27.0295765 L31.8587415,27.049963 L31.8491257,27.0724337 L31.8390877,27.096904 L31.8287187,27.1232897 C31.7902981,27.2232002 31.7585866,27.3312854 31.7378897,27.4432264 C31.6836416,27.7366322 31.7129089,28.0056731 31.8469499,28.2353677 C31.9361227,28.3880335 32.0587247,28.5050981 32.2021538,28.5955028 L32.220979,28.6071442 L31.7801541,29.333734 C31.5163574,29.1736874 31.2849491,28.9582069 31.11302,28.6638605 C30.865035,28.2389099 30.8137232,27.7672235 30.9021953,27.2887141 C30.9329838,27.1221915 30.9792458,26.9645126 31.0354898,26.8182534 C31.0504438,26.7793664 31.0652952,26.743317 31.0796963,26.7103546 L31.0939343,26.6784305 L31.1077949,26.6486197 L31.1212006,26.6209778 C31.1233927,26.6165547 31.1255626,26.6122242 31.1277087,26.6079875 L31.1402873,26.5837028 Z" id="Stroke-10"></path>
            </g>
        </g>
    </g>
</svg>