<?xml version="1.0" encoding="UTF-8"?>
<svg width="24px" height="24px" viewBox="0 0 24 24" version="1.1" xmlns="http://www.w3.org/2000/svg" xmlns:xlink="http://www.w3.org/1999/xlink">
    <title>chart-bar-33</title>
    <g id="PPT" stroke="none" stroke-width="1" fill="none" fill-rule="evenodd">
        <g id="Slide8-Copy-2" transform="translate(-871.000000, -217.000000)" fill="#CD2023" fill-rule="nonzero">
            <g id="chart-bar-33" transform="translate(871.616077, 217.637695)">
                <path d="M13.204716,12.261522 L9.43194,12.261522 C8.91129691,12.261522 8.488746,12.6840729 8.488746,13.204716 L8.488746,21.693462 C8.488746,22.2141051 8.91129691,22.636656 9.43194,22.636656 L13.204716,22.636656 C13.7253591,22.636656 14.14791,22.2141051 14.14791,21.693462 L14.14791,13.204716 C14.14791,12.6840729 13.7253591,12.261522 13.204716,12.261522 Z" id="Path"></path>
                <path d="M4.71597,16.034298 L0.943194,16.034298 C0.422550912,16.034298 0,16.4568489 0,16.977492 L0,21.693462 C0,22.2141051 0.422550912,22.636656 0.943194,22.636656 L4.71597,22.636656 C5.23661309,22.636656 5.659164,22.2141051 5.659164,21.693462 L5.659164,16.977492 C5.659164,16.4568489 5.23661309,16.034298 4.71597,16.034298 Z" id="Path"></path>
                <path d="M21.693462,8.488746 L17.920686,8.488746 C17.4000429,8.488746 16.977492,8.91129691 16.977492,9.43194 L16.977492,21.693462 C16.977492,22.2141051 17.4000429,22.636656 17.920686,22.636656 L21.693462,22.636656 C22.2141051,22.636656 22.636656,22.2141051 22.636656,21.693462 L22.636656,9.43194 C22.636656,8.91129691 22.2141051,8.488746 21.693462,8.488746 Z" id="Path"></path>
                <path d="M11.9851662,9.15558416 L17.920686,3.22006432 L17.920686,6.602358 L19.807074,6.602358 L19.807074,0.943194 C19.807074,0.422550912 19.3845231,0 18.86388,0 L13.204716,0 L13.204716,1.886388 L16.5870097,1.886388 L11.318328,7.15506968 L8.21239016,4.04913184 C7.8436013,3.68034299 7.2475027,3.68034299 6.87871384,4.04913184 L2.16274384,8.76510184 L3.49642016,10.0987782 L7.545552,6.04964632 L10.6514898,9.15558416 C11.0202787,9.52437301 11.6163773,9.52437301 11.9851662,9.15558416 Z" id="Path"></path>
            </g>
        </g>
    </g>
</svg>