<?xml version="1.0" encoding="UTF-8"?>
<svg width="26px" height="27px" viewBox="0 0 26 27" version="1.1" xmlns="http://www.w3.org/2000/svg" xmlns:xlink="http://www.w3.org/1999/xlink">
    <title>ungroup</title>
    <g id="PPT" stroke="none" stroke-width="1" fill="none" fill-rule="evenodd" stroke-linecap="round" stroke-linejoin="round">
        <g id="Slide8-Copy-2" transform="translate(-880.000000, -491.000000)" stroke="#CD2023" stroke-width="1.5">
            <g id="ungroup" transform="translate(881.230598, 492.272786)">
                <line x1="8.18181818" y1="20.7272727" x2="8.18181818" y2="15.8181818" id="Path"></line>
                <line x1="20.7272727" y1="22.3636364" x2="9.81818182" y2="22.3636364" id="Path"></line>
                <line x1="22.3636364" y1="9.81818182" x2="22.3636364" y2="20.7272727" id="Path"></line>
                <line x1="15.8181818" y1="8.18181818" x2="20.7272727" y2="8.18181818" id="Path"></line>
                <line x1="1.63636364" y1="14.1818182" x2="1.63636364" y2="3.27272727" id="Path"></line>
                <line x1="14.1818182" y1="15.8181818" x2="3.27272727" y2="15.8181818" id="Path"></line>
                <line x1="15.8181818" y1="3.27272727" x2="15.8181818" y2="14.1818182" id="Path"></line>
                <line x1="3.27272727" y1="1.63636364" x2="14.1818182" y2="1.63636364" id="Path"></line>
                <rect id="Rectangle" x="0" y="0" width="3.27272727" height="3.27272727"></rect>
                <rect id="Rectangle" x="14.1818182" y="0" width="3.27272727" height="3.27272727"></rect>
                <rect id="Rectangle-Copy-12" x="7.09090909" y="7.09090909" width="3.27272727" height="3.27272727"></rect>
                <rect id="Rectangle" x="0" y="14.1818182" width="3.27272727" height="3.27272727"></rect>
                <rect id="Rectangle" x="14.1818182" y="14.1818182" width="3.27272727" height="3.27272727"></rect>
                <rect id="Rectangle" x="20.7272727" y="6.54545455" width="3.27272727" height="3.27272727"></rect>
                <rect id="Rectangle" x="20.7272727" y="20.7272727" width="3.27272727" height="3.27272727"></rect>
                <rect id="Rectangle" x="6.54545455" y="20.7272727" width="3.27272727" height="3.27272727"></rect>
            </g>
        </g>
    </g>
</svg>