<?xml version="1.0" encoding="UTF-8"?>
<svg width="14px" height="14px" viewBox="0 0 14 14" version="1.1" xmlns="http://www.w3.org/2000/svg" xmlns:xlink="http://www.w3.org/1999/xlink">
    <title>ico-linkedin</title>
    <g id="Page-1" stroke="none" stroke-width="1" fill="none" fill-rule="evenodd">
        <g id="ico-linkedin" fill="#0A66C2" fill-rule="nonzero">
            <path d="M13.304348,0 L0.608696,0 C0.26087,0 0,0.26087 0,0.608696 L0,13.391304 C0,13.652174 0.26087,13.913043 0.608696,13.913043 L13.391304,13.913043 C13.73913,13.913043 14,13.652174 14,13.304348 L14,0.608696 C13.913043,0.26087 13.652174,0 13.304348,0 Z M4.086957,11.826087 L2.086957,11.826087 L2.086957,5.217391 L4.173913,5.217391 L4.173913,11.826087 L4.086957,11.826087 Z M3.130435,4.347826 C2.434783,4.347826 1.913043,3.73913 1.913043,3.130435 C1.913043,2.434783 2.434783,1.913043 3.130435,1.913043 C3.826087,1.913043 4.347826,2.434783 4.347826,3.130435 C4.26087,3.73913 3.73913,4.347826 3.130435,4.347826 Z M11.826087,11.826087 L9.73913,11.826087 L9.73913,8.608696 C9.73913,7.826087 9.73913,6.869565 8.695652,6.869565 C7.652174,6.869565 7.478261,7.73913 7.478261,8.608696 L7.478261,11.913043 L5.391304,11.913043 L5.391304,5.217391 L7.391304,5.217391 L7.391304,6.086957 L7.391304,6.086957 C7.652174,5.565217 8.347826,5.043478 9.304348,5.043478 C11.391304,5.043478 11.73913,6.434783 11.73913,8.173913 L11.73913,11.826087 L11.826087,11.826087 Z"></path>
        </g>
    </g>
</svg>