<?xml version="1.0" encoding="UTF-8"?>
<svg width="26px" height="23px" viewBox="0 0 26 23" version="1.1" xmlns="http://www.w3.org/2000/svg" xmlns:xlink="http://www.w3.org/1999/xlink">
    <title>icon-enterprise-apps</title>
    <g id="PPT" stroke="none" stroke-width="1" fill="none" fill-rule="evenodd">
        <g id="Slide8-Copy-2" transform="translate(-835.000000, -436.000000)" fill="#D81505" fill-rule="nonzero">
            <g id="icon-enterprise-apps" transform="translate(835.752733, 436.082559)">
                <g id="widget">
                    <path d="M23.8035714,0 L0.767857143,0 C0.343781353,0 0,0.343781353 0,0.767857143 L0,20.7321429 C0,21.1562186 0.343781353,21.5 0.767857143,21.5 L23.8035714,21.5 C24.2276472,21.5 24.5714286,21.1562186 24.5714286,20.7321429 L24.5714286,0.767857143 C24.5714286,0.343781353 24.2276472,0 23.8035714,0 Z M6.14285714,2.30357143 C6.56693293,2.30357143 6.91071429,2.64735278 6.91071429,3.07142857 C6.91071429,3.49550436 6.56693293,3.83928571 6.14285714,3.83928571 C5.71878135,3.83928571 5.375,3.49550436 5.375,3.07142857 C5.375,2.64735278 5.71878135,2.30357143 6.14285714,2.30357143 Z M3.07142857,2.30357143 C3.49550436,2.30357143 3.83928571,2.64735278 3.83928571,3.07142857 C3.83928571,3.49550436 3.49550436,3.83928571 3.07142857,3.83928571 C2.64735278,3.83928571 2.30357143,3.49550436 2.30357143,3.07142857 C2.30357143,2.64735278 2.64735278,2.30357143 3.07142857,2.30357143 Z M23.0357143,19.9642857 L1.53571429,19.9642857 L1.53571429,6.14285714 L23.0357143,6.14285714 L23.0357143,19.9642857 Z" id="Shape"></path>
                </g>
                <g id="settings-gear" transform="translate(8.243400, 8.584043)">
                    <path d="M8.27022043,5.56998741 L7.39974172,4.92903523 C7.4826165,4.51716275 7.4826165,4.09290764 7.39974172,3.68103516 L8.27022043,3.04062115 C8.37989439,2.95955303 8.41157316,2.80925232 8.34394877,2.69081517 L7.72263955,1.6144891 C7.65416559,1.49554754 7.50714868,1.44719892 7.38144418,1.50228211 L6.38987879,1.93738692 C6.07616213,1.6600187 5.71023868,1.44805754 5.31355272,1.31392505 L5.19327328,0.23948255 C5.17817423,0.103050714 5.0628019,-0.00014664681 4.92553717,-5.0325196e-06 L3.68641679,-5.0325196e-06 C3.54863851,-0.000835830308 3.43248862,0.102537565 3.41733527,0.23948255 L3.29786308,1.31580862 C2.90117712,1.44994111 2.53525367,1.66190227 2.22153701,1.93927049 L1.22808804,1.50308936 C1.10287338,1.44851492 0.956635027,1.49641261 0.887969007,1.6144891 L0.266659784,2.69081517 C0.199035397,2.80925232 0.230714162,2.95955303 0.340388119,3.04062115 L1.21086683,3.68157332 C1.12799176,4.09362694 1.12799176,4.51805794 1.21086683,4.93011156 L0.340657201,5.56998741 C0.23088955,5.65097642 0.199092202,5.80129115 0.266659784,5.91979338 L0.887969007,6.99611945 C0.956513426,7.11481933 1.10333003,7.16302431 1.22889529,7.10805736 L2.22072976,6.67322163 C2.53444642,6.95058985 2.90036987,7.16255101 3.29705583,7.2966835 L3.41652802,8.37300957 C3.43260294,8.50951596 3.54897386,8.61196413 3.68641679,8.61062185 L4.92688258,8.61062185 C5.06404452,8.61062185 5.1792618,8.50745559 5.19434961,8.371126 L5.3138218,7.29479993 C5.71054002,7.160867 6.07648439,6.94898521 6.39014787,6.67160714 L7.38278959,7.10698103 C7.50779836,7.16148722 7.65381724,7.11385478 7.72263955,6.99611945 L8.34152704,5.91979338 C8.40966644,5.80194129 8.37905345,5.65176435 8.27022043,5.56998741 Z M4.30530428,5.65071186 C3.56225618,5.65071186 2.95989669,5.04835237 2.95989669,4.30530428 C2.95989669,3.56225618 3.56225618,2.95989669 4.30530428,2.95989669 C5.04835237,2.95989669 5.65071186,3.56225618 5.65071186,4.30530428 C5.65071186,4.66212855 5.50896397,5.00433824 5.2566511,5.2566511 C5.00433824,5.50896397 4.66212855,5.65071186 4.30530428,5.65071186 Z" id="Shape"></path>
                </g>
            </g>
        </g>
    </g>
</svg>