<?xml version="1.0" encoding="UTF-8"?>
<svg width="28px" height="29px" viewBox="0 0 28 29" version="1.1" xmlns="http://www.w3.org/2000/svg" xmlns:xlink="http://www.w3.org/1999/xlink">
    <title>Shape</title>
    <g id="Page-1" stroke="none" stroke-width="1" fill="none" fill-rule="evenodd">
        <g id="Features-+-Footer" transform="translate(-592.000000, -661.000000)" fill="#D81505" fill-rule="nonzero">
            <g id="Group" transform="translate(575.000000, 646.139336)">
                <path d="M44.391281,18.8263487 C40.7811102,18.8263487 35.4562451,17.8481756 31.3378139,15.1023519 C31.1332699,14.9658827 30.8667063,14.9658827 30.6621623,15.1023519 C26.543731,17.8481756 21.218866,18.8263487 17.6086951,18.8263487 C17.2725221,18.8263487 17,19.0988708 17,19.4350438 C17,30.4676431 22.1440826,39.2584182 30.7601622,42.9507629 C30.9133071,43.0164124 31.0866691,43.0164124 31.2398139,42.9507629 C39.8558936,39.2584182 44.9999761,30.4676431 44.9999761,19.4350438 C44.9999761,19.0988708 44.727454,18.8263487 44.391281,18.8263487 Z M30.3912929,16.7044375 L30.3912929,28.391384 L19.5431283,28.391384 C18.7037052,25.6837198 18.2590444,22.8691752 18.2228685,20.0346085 C22.4869211,19.9133774 26.6597324,18.771391 30.3912929,16.7044375 L30.3912929,16.7044375 Z M31.6086832,41.4302425 L31.6086832,29.6087743 L42.0368482,29.6087743 C40.2400264,34.7605049 36.4965029,39.0033252 31.6086832,41.4278077 L31.6086832,41.4302425 Z" id="Shape"></path>
            </g>
        </g>
    </g>
</svg>