<?xml version="1.0" encoding="UTF-8"?>
<svg width="33px" height="32px" viewBox="0 0 33 32" version="1.1" xmlns="http://www.w3.org/2000/svg" xmlns:xlink="http://www.w3.org/1999/xlink">
    <title>Group 7</title>
    <g id="Page-1" stroke="none" stroke-width="1" fill="none" fill-rule="evenodd">
        <g id="Features-+-Footer" transform="translate(-590.000000, -966.000000)" fill-rule="nonzero">
            <g id="Group-7" transform="translate(606.050781, 982.139336) scale(-1, 1) translate(-606.050781, -982.139336) translate(590.050781, 966.639336)">
                <path d="M9.90510691,30.8057433 C9.14551323,30.8057433 8.42811922,30.4681461 7.94282326,29.8562511 L0.557884814,20.6778276 C0.0725888586,20.0659328 -0.117309558,19.2852393 0.0725888586,18.5256456 L2.71006688,7.06844108 C2.87886547,6.30884742 3.38526125,5.69695252 4.08155545,5.35935533 L14.7580664,0.253197889 C15.0956637,0.0843992964 15.4754605,1.01662268e-13 15.8552573,1.01662268e-13 C16.2350541,1.01662268e-13 16.614851,0.0843992964 16.9524481,0.253197889 L27.6289592,5.3382555 C28.3252534,5.67585269 28.8316492,6.28774759 29.0004477,7.04734125 L31.6379257,18.5045457 C31.8067244,19.2641395 31.6379257,20.0448329 31.1526299,20.6567278 L23.7676914,29.8351513 C23.2823954,30.4259464 22.5650013,30.7846434 21.8054077,30.7846434 L9.90510691,30.8057433 L9.90510691,30.8057433 Z" id="Path" fill="#D81505"></path>
                <path d="M26.5317683,17.7238523 L26.5317683,17.7238523 L26.5317683,17.7238523 C26.5106685,17.7238523 26.5106685,17.7238523 26.5317683,17.7238523 L26.5106685,17.7238523 C26.4895686,17.7238523 26.4684688,17.7238523 26.4684688,17.7027524 C26.4262693,17.7027524 26.3840695,17.6816526 26.3418698,17.6816526 C26.1941711,17.6605528 26.0675722,17.6394529 25.9409733,17.6394529 C25.8776738,17.6394529 25.8143743,17.6394529 25.729975,17.6183531 L25.7088752,17.6183531 C25.2657789,17.5761536 24.9070819,17.5339539 24.5694847,17.4284547 C24.4217859,17.3651553 24.3795862,17.2807559 24.3373866,17.1963566 C24.3373866,17.1752568 24.3162868,17.1752568 24.3162868,17.1541571 L24.3162868,17.1541571 L24.0419891,17.0697578 C24.1685881,16.0991658 24.1263884,15.0863742 23.8942903,14.0946826 C23.6621923,13.1029908 23.2612956,12.1745985 22.7127002,11.3306056 L22.9236983,11.1407071 L22.9236983,11.0985075 C22.9236983,10.9930084 22.9447983,10.8875093 23.0291975,10.7820101 C23.2823954,10.5499121 23.5988928,10.3600136 23.9786896,10.1279156 L23.9786896,10.1279156 C24.0419891,10.0857159 24.1052886,10.0646161 24.1685881,10.0224165 C24.2951869,9.95911699 24.4006861,9.89581751 24.527285,9.81141822 C24.5483849,9.7903184 24.5905845,9.76921857 24.6327842,9.72701892 C24.6538839,9.7059191 24.6749839,9.7059191 24.6749839,9.68481927 L24.6749839,9.68481927 C24.9703814,9.43162139 25.0336808,9.0096249 24.8226826,8.73532719 C24.7171834,8.58762842 24.527285,8.50322913 24.3373866,8.50322913 C24.1685881,8.50322913 24.0208893,8.56652859 23.8731904,8.67202772 L23.8731904,8.67202772 L23.8731904,8.67202772 C23.8520906,8.69312754 23.8520906,8.69312754 23.8309908,8.71422737 C23.7887911,8.73532719 23.7676914,8.77752685 23.7254917,8.79862666 C23.6199926,8.90412578 23.5355933,8.98852509 23.451194,9.0940242 C23.4089943,9.13622385 23.3667948,9.19952333 23.3034953,9.24172297 L23.3034953,9.24172297 C23.0080977,9.55822033 22.7338,9.81141822 22.4595023,10.0013166 C22.3962028,10.0435163 22.3329033,10.0646161 22.2696038,10.0646161 C22.2274042,10.0646161 22.1852045,10.0646161 22.1430049,10.0435163 L22.1008052,10.0435163 L22.1008052,10.0435163 L21.8476074,10.2123149 C21.5733097,9.91691734 21.2779121,9.66371945 20.9825146,9.41052157 C19.7165251,8.41882983 18.176238,7.80693493 16.5726513,7.65923616 L16.5515515,7.38493845 C16.5304516,7.36383862 16.5304516,7.36383862 16.5093518,7.3427388 C16.4460523,7.27943932 16.3616531,7.21613986 16.3405533,7.06844108 C16.3194535,6.7308439 16.3616531,6.35104707 16.4038528,5.92905059 L16.4038528,5.90795076 C16.4038528,5.84465128 16.4249526,5.76025198 16.4460523,5.69695252 C16.4671523,5.57035357 16.4882521,5.44375463 16.5093518,5.29605585 L16.5093518,5.16945691 L16.5093518,5.10615744 L16.5093518,5.10615744 L16.5093518,5.10615744 C16.5093518,4.7263606 16.2139543,4.40986325 15.8552573,4.40986325 C15.6864587,4.40986325 15.5176602,4.49426254 15.3910612,4.62086149 C15.2644622,4.74746043 15.2011627,4.91625902 15.2011627,5.10615744 L15.2011627,5.10615744 L15.2011627,5.10615744 L15.2011627,5.14835709 L15.2011627,5.27495604 C15.2011627,5.4226548 15.2222625,5.54925374 15.2644622,5.67585269 C15.285562,5.73915216 15.285562,5.80245163 15.3066619,5.88685094 L15.3066619,5.90795076 C15.3488615,6.32994724 15.412161,6.70974407 15.3699613,7.04734125 C15.3488615,7.19504003 15.2644622,7.2583395 15.2011627,7.32163897 C15.180063,7.3427388 15.180063,7.3427388 15.1589632,7.36383862 L15.1589632,7.36383862 L15.1378633,7.63813634 C14.7580664,7.68033599 14.3782696,7.72253563 13.9984728,7.80693493 C12.3737863,8.16563194 10.9389983,8.98852509 9.8207076,10.1701152 L9.60970936,10.0224165 L9.56750971,10.0224165 C9.52531007,10.0224165 9.48311042,10.0435163 9.44091077,10.0435163 C9.3776113,10.0435163 9.31431183,10.0224165 9.25101236,9.98021681 C8.97671464,9.7903184 8.70241692,9.51602068 8.40701939,9.19952333 L8.40701939,9.19952333 C8.36481974,9.15732368 8.32262009,9.0940242 8.25932062,9.05182455 C8.17492133,8.94632544 8.09052203,8.86192613 7.98502291,8.75642702 C7.96392309,8.73532719 7.92172344,8.71422737 7.87952379,8.67202772 C7.85842396,8.65092789 7.83732413,8.65092789 7.83732413,8.62982807 L7.83732413,8.62982807 C7.7107252,8.52432895 7.5419266,8.46102948 7.37312801,8.46102948 C7.18322959,8.46102948 6.99333117,8.54542878 6.88783206,8.69312754 C6.67683382,8.96742526 6.74013328,9.38942174 7.03553082,9.64261963 L7.03553082,9.64261963 L7.03553082,9.64261963 C7.05663065,9.64261963 7.05663065,9.66371945 7.07773047,9.66371945 C7.11993012,9.68481927 7.14102995,9.72701892 7.18322959,9.74811875 C7.30982854,9.83251805 7.41532765,9.89581751 7.5419266,9.95911699 C7.60522607,9.98021681 7.66852554,10.0224165 7.73182502,10.0646161 L7.73182502,10.0646161 C8.11162185,10.2967142 8.42811922,10.4866126 8.68131711,10.7187107 C8.78681623,10.8242098 8.78681623,10.9297089 8.78681623,11.035208 L8.78681623,11.0774077 L8.78681623,11.0774077 L8.99781447,11.2673061 C8.95561482,11.3306056 8.91341516,11.3728052 8.89231535,11.4361047 C7.83732413,13.1029908 7.43642748,15.0652744 7.7107252,17.0064583 L7.43642748,17.0908576 C7.43642748,17.1119574 7.41532765,17.1119574 7.41532765,17.1330571 C7.37312801,17.2174565 7.30982854,17.3018558 7.18322959,17.3651553 C6.86673223,17.4706544 6.4869354,17.5128541 6.04383909,17.5550536 L6.02273927,17.5550536 C5.95943979,17.5550536 5.87504049,17.5550536 5.81174103,17.5761536 C5.68514207,17.5761536 5.55854314,17.5972534 5.41084437,17.6183531 C5.36864472,17.6183531 5.32644507,17.6394529 5.28424542,17.6394529 C5.26314559,17.6394529 5.24204577,17.6394529 5.22094594,17.6605528 L5.22094594,17.6605528 L5.22094594,17.6605528 C4.84114911,17.7449521 4.60905104,18.1036491 4.67235052,18.4412462 C4.73565,18.7366438 5.0099477,18.9265422 5.34754489,18.9265422 C5.41084437,18.9265422 5.45304401,18.9265422 5.51634348,18.9054424 L5.51634348,18.9054424 L5.51634348,18.9054424 C5.53744331,18.9054424 5.55854314,18.9054424 5.55854314,18.8843427 C5.60074279,18.8843427 5.64294242,18.8632427 5.68514207,18.8632427 C5.83284085,18.8210432 5.93833997,18.7788435 6.06493892,18.715544 C6.12823838,18.6944442 6.19153786,18.6522445 6.25483733,18.6311447 L6.27593716,18.6311447 C6.67683382,18.4834459 7.03553082,18.356847 7.37312801,18.3146474 L7.41532765,18.3146474 C7.5419266,18.3146474 7.62632589,18.3779469 7.68962537,18.4201465 C7.7107252,18.4201465 7.7107252,18.4412462 7.73182502,18.4412462 L7.73182502,18.4412462 L8.02722256,18.3990467 C8.53361833,19.9604336 9.50421025,21.353022 10.7912995,22.3658135 C11.086697,22.5979117 11.3820946,22.78781 11.698592,22.9777085 L11.571993,23.2520062 C11.571993,23.273106 11.5930928,23.273106 11.5930928,23.2942058 C11.6352925,23.3786051 11.6774921,23.4841043 11.6352925,23.631803 C11.5086935,23.9483004 11.3187951,24.2647978 11.086697,24.6234947 L11.086697,24.6445946 C11.0444974,24.7078941 11.0022978,24.7500937 10.9600981,24.8133932 C10.8756988,24.9188924 10.8123993,25.0243914 10.728,25.1509904 C10.7069002,25.1720902 10.6858004,25.2142899 10.6647006,25.2564895 C10.6647006,25.2775892 10.6436008,25.2986892 10.6436008,25.2986892 L10.6436008,25.2986892 L10.6436008,25.2986892 C10.4748022,25.6573862 10.6014011,26.0582828 10.9178985,26.2059815 C11.0022978,26.2481812 11.086697,26.269281 11.1710964,26.269281 C11.4242942,26.269281 11.6774921,26.1004825 11.8040911,25.8683844 L11.8040911,25.8683844 L11.8040911,25.8683844 C11.8040911,25.8472845 11.8251909,25.8261847 11.8251909,25.8261847 C11.8462907,25.783985 11.8673906,25.7417855 11.8884904,25.7206857 C11.9517899,25.5729869 11.9728897,25.4674877 12.0150893,25.3408887 C12.0361891,25.2775892 12.057289,25.2142899 12.0783888,25.1509904 L12.0783888,25.1509904 C12.2260875,24.7289939 12.3315867,24.3913967 12.5214851,24.0959991 C12.6058843,23.9694002 12.7113835,23.9483004 12.7957828,23.9061008 C12.8168826,23.9061008 12.8168826,23.9061008 12.8379825,23.8850009 L12.8379825,23.8850009 L12.9856813,23.6107033 C13.9140734,23.9694002 14.926865,24.1592986 15.9396566,24.1592986 C16.5515515,24.1592986 17.1845462,24.0959991 17.7753414,23.9483004 C18.1551382,23.8639011 18.5138352,23.758402 18.8725322,23.631803 L18.9991311,23.8639011 C19.020231,23.8639011 19.020231,23.8639011 19.0413308,23.8850009 C19.1468298,23.9061008 19.2312292,23.9483004 19.3156285,24.0748993 C19.484427,24.3702969 19.611026,24.7289939 19.7587248,25.1298905 L19.7587248,25.1509904 C19.7798246,25.2142899 19.8009244,25.2775892 19.8220243,25.3408887 C19.8642239,25.4674877 19.8853238,25.5940867 19.9486231,25.7206857 C19.969723,25.7628852 19.9908228,25.783985 20.0119226,25.8261847 C20.0119226,25.8472845 20.0330225,25.8683844 20.0330225,25.8683844 L20.0330225,25.8683844 L20.0330225,25.8683844 C20.1596214,26.1215823 20.4128193,26.269281 20.6660172,26.269281 C20.7504166,26.269281 20.8348158,26.2481812 20.9192151,26.2059815 C21.0669139,26.1215823 21.1935129,25.9949833 21.2357124,25.8261847 C21.2779121,25.6573862 21.2779121,25.4674877 21.1935129,25.2986892 L21.1935129,25.2986892 L21.1935129,25.2986892 C21.1935129,25.2775892 21.172413,25.2775892 21.172413,25.2564895 C21.1513132,25.2142899 21.1302134,25.1720902 21.1091135,25.1509904 C21.0458141,25.0243914 20.9614147,24.9188924 20.8770154,24.8133932 C20.8348158,24.7500937 20.7926161,24.7078941 20.7504166,24.6445946 L20.7504166,24.6234947 C20.5183184,24.2647978 20.3073201,23.9483004 20.2018211,23.631803 C20.1596214,23.4841043 20.2018211,23.399705 20.2229209,23.2942058 C20.2229209,23.273106 20.2440208,23.273106 20.2440208,23.2520062 L20.2440208,23.2520062 L20.1385216,22.9988083 C21.2568122,22.3447137 22.2063044,21.4163214 22.9236983,20.276931 C23.3034953,19.686136 23.5988928,19.0320414 23.8098911,18.3779469 L24.0630889,18.4201465 C24.0841887,18.4201465 24.0841887,18.3990467 24.1052886,18.3990467 C24.1896879,18.356847 24.2529874,18.2935475 24.3795862,18.2935475 L24.4217859,18.2935475 C24.7593831,18.3357472 25.1180802,18.4623462 25.5189767,18.6100449 L25.5400765,18.6100449 C25.603376,18.6311447 25.6666755,18.6733444 25.729975,18.6944442 C25.856574,18.7577437 25.962073,18.7999433 26.1097718,18.842143 C26.1519715,18.842143 26.1941711,18.8632427 26.2363708,18.8632427 C26.2574706,18.8632427 26.2785705,18.8632427 26.2996703,18.8843427 L26.2996703,18.8843427 C26.3629698,18.9054424 26.4051693,18.9054424 26.4684688,18.9054424 C26.7849663,18.9054424 27.0592639,18.6944442 27.1436632,18.4201465 C27.1436632,18.1669486 26.9115651,17.8293514 26.5317683,17.7238523 L26.5317683,17.7238523 Z M16.7625498,16.6899608 L15.8341575,17.1330571 L14.9057652,16.6899608 L14.6736672,15.6982692 L15.3066619,14.8964759 L16.3405533,14.8964759 L16.973548,15.6982692 L16.7625498,16.6899608 L16.7625498,16.6899608 Z M22.2696038,14.4955792 C22.4384025,15.2129732 22.480602,15.9303672 22.4173026,16.6266614 L19.1890295,15.6982692 C18.893632,15.6138699 18.7248334,15.3184723 18.7881329,15.0230747 C18.8092327,14.9386755 18.8514323,14.8542762 18.9147318,14.7909767 L21.4678105,12.4910959 C21.8265075,13.081891 22.1008052,13.7570853 22.2696038,14.4955792 L22.2696038,14.4955792 Z M20.4550189,11.2251064 L17.690942,13.1873901 C17.4588439,13.3350888 17.1423466,13.2928893 16.9524481,13.0607911 C16.8891486,12.9974917 16.8680489,12.9130923 16.8469491,12.828693 L16.6570506,9.38942174 C18.1129385,9.55822033 19.4422275,10.2123149 20.4550189,11.2251064 L20.4550189,11.2251064 Z M14.3360699,9.49492086 C14.568168,9.45272121 14.7791662,9.41052157 15.0112644,9.36832192 L14.8213659,12.7442938 C14.8002661,13.0396913 14.568168,13.2928893 14.2516707,13.2928893 C14.1672714,13.2928893 14.0617722,13.2717893 13.9984728,13.2295898 L11.1921962,11.2251064 C12.057289,10.3600136 13.13338,9.76921857 14.3360699,9.49492086 L14.3360699,9.49492086 Z M10.1794046,12.4910959 L12.6902837,14.7276772 C12.9223818,14.9175757 12.9434816,15.2762727 12.7535831,15.5083707 C12.6902837,15.59277 12.6058843,15.6560695 12.5003853,15.6771693 L9.22991253,16.6266614 C9.10331359,15.1918734 9.41981095,13.7359856 10.1794046,12.4910959 L10.1794046,12.4910959 Z M9.60970936,18.2091482 L12.9645814,17.6394529 C13.2388791,17.6183531 13.4920771,17.8082516 13.5553765,18.0825492 C13.5764763,18.2091482 13.5764763,18.3146474 13.5342766,18.4201465 L13.5342766,18.4201465 L12.2471874,21.5218206 C11.0655972,20.7622269 10.1161051,19.6017366 9.60970936,18.2091482 L9.60970936,18.2091482 Z M17.3111452,22.4080132 C16.8258493,22.5135123 16.3405533,22.5768118 15.8341575,22.5768118 C15.0956637,22.5768118 14.3782696,22.4502129 13.7030753,22.2392147 L15.3699613,19.2219398 C15.53876,19.0320414 15.8130577,18.947642 16.0451558,19.074241 C16.1506548,19.1375405 16.2350541,19.2219398 16.2983536,19.306339 L16.2983536,19.306339 L17.9230401,22.2392147 C17.7331417,22.3025142 17.5221434,22.3447137 17.3111452,22.4080132 L17.3111452,22.4080132 Z M21.4256109,19.4751377 C20.8981153,20.3191306 20.2018211,20.9943251 19.4000278,21.5218206 L18.0707389,18.3357472 C18.0074394,18.0825492 18.1129385,17.8082516 18.3661364,17.6816526 C18.4505357,17.6394529 18.5560348,17.6183531 18.6615339,17.6183531 L22.0375058,18.1880484 C21.9109068,18.6522445 21.6999086,19.074241 21.4256109,19.4751377 L21.4256109,19.4751377 Z" id="Shape" fill="#FFFFFF"></path>
            </g>
        </g>
    </g>
</svg>