<?xml version="1.0" encoding="UTF-8"?>
<svg width="65px" height="66px" viewBox="0 0 65 66" version="1.1" xmlns="http://www.w3.org/2000/svg" xmlns:xlink="http://www.w3.org/1999/xlink">
    <title>Group 2</title>
    <g id="Webpages" stroke="none" stroke-width="1" fill="none" fill-rule="evenodd">
        <g id="Home" transform="translate(-54.000000, -45.000000)">
            <g id="Group-2" transform="translate(54.028777, 45.290000)">
                <rect id="Rectangle" fill="#D30E00" x="0" y="0" width="64.8549107" height="64.8549107"></rect>
                <g id="Group-3" transform="translate(8.594122, 21.927455)" fill="#FFFFFF" fill-rule="nonzero">
                    <path d="M9.58100718,0.293440927 C10.46133,0.509660557 11.1872101,1.03476537 11.7586477,1.86875538 C12.3146411,2.70274538 12.5926377,4.04639594 12.5926377,5.8842628 C12.5926377,7.56768706 12.3918624,8.69511799 12.0057559,9.26655558 C11.6042052,9.83799318 10.8319922,10.1932111 9.65822848,10.301321 C10.7084381,10.5793176 11.4343183,10.9499798 11.7895363,11.4133076 C12.1447542,11.8766354 12.3764181,12.2936304 12.4690837,12.6951812 C12.5417625,13.0585755 12.58708,14.0102411 12.5921599,15.57593 L12.5926377,21.5756303 L7.65047477,21.5756303 L7.65047477,14.3940497 C7.65047477,13.2357302 7.55780921,12.5252943 7.38792236,12.2472976 C7.21803551,11.969301 6.77015199,11.8303026 6.0442718,11.8303026 L6.0442718,21.5756303 L0.716002339,21.5756303 L0.716002339,1.56319402e-13 L4.48440161,1.56319402e-13 C6.98637162,1.56319402e-13 8.68524014,0.0926655558 9.58100718,0.293440927 Z M23.8360585,1.56319402e-13 L26.8940219,21.5756303 L21.4421983,21.5756303 L21.1642017,17.6991212 L19.2336692,17.6991212 L18.9556726,21.5756303 L13.442072,21.5756303 L16.1448174,1.56319402e-13 L23.8360585,1.56319402e-13 Z M31.4500784,2.13162821e-14 L32.021516,7.53679854 L32.562065,14.8264889 C32.7628404,11.0580897 33.2570567,6.10048243 34.0292697,2.13162821e-14 L39.5428702,2.13162821e-14 C39.5508415,0.0817051138 39.5611269,0.192466649 39.5736603,0.332251426 L39.5941379,0.563691877 C39.6864167,1.61869016 39.8652069,3.80676082 40.1143078,7.11980354 L40.7160023,15.335 L40.8264598,13.6001003 C41.137633,8.98131346 41.5952407,4.44794668 42.1992828,2.13162821e-14 L47.3731097,2.13162821e-14 L45.010138,21.5756303 L38.3691065,21.5756303 C37.7667804,18.2551145 37.2262313,14.4867152 36.7474593,10.2395439 C36.5312397,12.0619665 36.0370234,15.84581 35.2648104,21.5756303 L28.6701117,21.5756303 L26.2762515,2.13162821e-14 L31.4500784,2.13162821e-14 Z M20.2066576,4.78772039 C19.8705905,7.44660407 19.616761,9.64369204 19.4370719,11.3830329 L19.3437628,12.3131608 C19.2866987,12.9010964 19.239847,13.424768 19.2027807,13.8843891 L21.0097591,13.8843891 C20.7626509,11.4441961 20.5000985,8.40167706 20.2066576,4.78772039 Z M6.0442718,3.67573372 L6.0442718,8.47889836 C6.64659791,8.47889836 7.04814865,8.40167706 7.2952568,8.21634595 C7.52692069,8.0464591 7.65047477,7.49046576 7.65047477,6.53292169 L7.65047477,5.34371372 C7.65047477,4.66416631 7.52692069,4.21628279 7.31070106,4.00006316 C7.07903717,3.78384353 6.64659791,3.67573372 6.0442718,3.67573372 Z" id="Combined-Shape"></path>
                </g>
            </g>
        </g>
    </g>
</svg>