<?xml version="1.0" encoding="UTF-8"?>
<svg width="32px" height="30px" viewBox="0 0 32 30" version="1.1" xmlns="http://www.w3.org/2000/svg" xmlns:xlink="http://www.w3.org/1999/xlink">
    <title>Group 4</title>
    <g id="Page-1" stroke="none" stroke-width="1" fill="none" fill-rule="evenodd">
        <g id="Features-+-Footer" transform="translate(-1030.000000, -824.000000)">
            <g id="Group" transform="translate(1015.000000, 809.139336)">
                <g id="Group-4" transform="translate(15.651733, 15.500000)">
                    <path d="M12.100646,6.45300417 C13.9402726,6.45300417 15.6593756,6.9696888 17.1196315,7.86737756 C18.8304159,8.91907811 20.1871359,10.4914133 20.9675405,12.36431 C21.4408152,13.5001242 21.701292,14.7464851 21.701292,16.0536501 C21.701292,18.7047953 20.626703,21.1049568 18.8893278,22.842332 C17.1519527,24.5797072 14.7517912,25.6542961 12.100646,25.6542961 C9.4495008,25.6542961 7.0493393,24.5797072 5.3119641,22.842332 C3.5745889,21.1049568 2.5,18.7047953 2.5,16.0536501 C2.5,13.402505 3.5745889,11.0023435 5.3119641,9.26496827 C7.0493393,7.52759307 9.4495008,6.45300417 12.100646,6.45300417 Z" id="Oval" stroke="#D81505" stroke-width="5"></path>
                    <circle id="Oval" fill="#D81505" cx="12.100646" cy="16.0516719" r="3.70572157"></circle>
                    <circle id="Oval-Copy" fill="#D81505" cx="26.5417365" cy="3.70572157" r="3.70572157"></circle>
                    <line x1="12.100646" y1="16.0516719" x2="24.3249333" y2="5.57371136" id="Path-4" stroke="#D81505" stroke-width="3"></line>
                </g>
            </g>
        </g>
    </g>
</svg>