<?xml version="1.0" encoding="UTF-8"?>
<svg width="28px" height="28px" viewBox="0 0 28 28" version="1.1" xmlns="http://www.w3.org/2000/svg" xmlns:xlink="http://www.w3.org/1999/xlink">
    <title>data-download</title>
    <g id="Page-1" stroke="none" stroke-width="1" fill="none" fill-rule="evenodd">
        <g id="Features-+-Footer" transform="translate(-1031.000000, -468.000000)" fill="#D81505" fill-rule="nonzero">
            <g id="Check-icon-badge-Copy-2" transform="translate(1015.000000, 452.139336)">
                <g id="data-download" transform="translate(16.000000, 16.500000)">
                    <path d="M13.608,21.7121897 C13.696446,21.8182503 13.8274174,21.8795665 13.9655172,21.8795665 C14.1036171,21.8795665 14.2345885,21.8182503 14.3230345,21.7121897 L21.3057931,13.3328793 C21.4216583,13.194141 21.4467363,13.0008729 21.3701166,12.8371582 C21.293497,12.6734435 21.1290328,12.5688825 20.9482759,12.5689655 L15.362069,12.5689655 L15.362069,1.39655172 C15.362069,0.625257505 14.7368115,0 13.9655172,0 C13.194223,0 12.5689655,0.625257505 12.5689655,1.39655172 L12.5689655,12.5689655 L6.98275862,12.5689655 C6.80200167,12.5688825 6.63753752,12.6734435 6.56091784,12.8371582 C6.48429816,13.0008729 6.50937614,13.194141 6.62524138,13.3328793 L13.608,21.7121897 Z" id="Path" transform="translate(13.965517, 10.939783) scale(1, -1) translate(-13.965517, -10.939783) "></path>
                    <path d="M27.4655172,18.6206897 C27.2084192,18.6206897 27,18.8291088 27,19.0862069 L27,24.2068966 C27,25.2352888 26.1663233,26.0689655 25.137931,26.0689655 L2.79310345,26.0689655 C1.76471116,26.0689655 0.931034483,25.2352888 0.931034483,24.2068966 L0.931034483,19.0862069 C0.931034483,18.8291088 0.722615315,18.6206897 0.465517241,18.6206897 C0.208419168,18.6206897 0,18.8291088 0,19.0862069 L0,24.2068966 C0.00153964194,25.7488468 1.2511532,26.9984604 2.79310345,27 L25.137931,27 C26.6798813,26.9984604 27.9294948,25.7488468 27.9310345,24.2068966 L27.9310345,19.0862069 C27.9310345,18.8291088 27.7226153,18.6206897 27.4655172,18.6206897 Z" id="Path"></path>
                </g>
            </g>
        </g>
    </g>
</svg>