<?xml version="1.0" encoding="UTF-8"?>
<svg width="28px" height="28px" viewBox="0 0 28 28" version="1.1" xmlns="http://www.w3.org/2000/svg" xmlns:xlink="http://www.w3.org/1999/xlink">
    <title>Group 2</title>
    <g id="Page-1" stroke="none" stroke-width="1" fill="none" fill-rule="evenodd">
        <g id="Features-+-Footer" transform="translate(-151.000000, -825.000000)" fill="#D81505" fill-rule="nonzero">
            <g id="Check-icon-badge-Copy-8" transform="translate(135.000000, 809.139336)">
                <g id="Group-2" transform="translate(16.500000, 16.642105)">
                    <path d="M13.3255823,0 C6.51074173,0 6.9362488,2.955319 6.9362488,2.955319 L6.94381711,6.01711989 L13.4470957,6.01711989 L13.4470957,6.93635392 L4.3608168,6.93635392 C4.3608168,6.93635392 0,6.44178604 0,13.3179088 C0,20.1942419 3.80622803,19.9503742 3.80622803,19.9503742 L6.07777147,19.9503742 L6.07777147,16.7594916 C6.07777147,16.7594916 5.95531205,12.9532636 9.82324281,12.9532636 L16.273333,12.9532636 C16.273333,12.9532636 19.8971858,13.0118128 19.8971858,9.45092412 L19.8971858,3.56320127 C19.8971858,3.56320127 20.44757,0 13.3255823,0 Z M9.73967608,2.05899966 C10.0500474,2.05872089 10.3477871,2.18189179 10.5672528,2.40135758 C10.7867186,2.62082337 10.9098895,2.91856298 10.9096108,3.22893435 C10.9098895,3.53930571 10.7867186,3.83704533 10.5672528,4.05651111 C10.3477871,4.2759769 10.0500474,4.3991478 9.73967608,4.39886904 C9.42930471,4.3991478 9.1315651,4.2759769 8.91209931,4.05651111 C8.69263353,3.83704533 8.56946263,3.53930571 8.56974139,3.22893435 C8.56946263,2.91856298 8.69263353,2.62082337 8.91209931,2.40135758 C9.1315651,2.18189179 9.42930471,2.05872089 9.73967608,2.05899966 L9.73967608,2.05899966 Z" id="Shape"></path>
                    <path d="M13.5190997,26.7049836 C20.3339402,26.7049836 19.9084332,23.7496646 19.9084332,23.7496646 L19.9008648,20.6879688 L13.3974812,20.6879688 L13.3974812,19.7687348 L22.48376,19.7687348 C22.48376,19.7687348 26.8445768,20.2633027 26.8445768,13.3869697 C26.8445768,6.51074173 23.0383488,6.75460942 23.0383488,6.75460942 L20.7668054,6.75460942 L20.7668054,9.94538688 C20.7668054,9.94538688 20.8892648,13.7516149 17.021334,13.7516149 L10.5712439,13.7516149 C10.5712439,13.7516149 6.94739103,13.6930656 6.94739103,17.2540595 L6.94739103,23.1418875 C6.94739103,23.1418875 6.397112,26.7049836 13.5189946,26.7049836 L13.5190997,26.7049836 Z M17.1050059,24.6461942 C16.7946345,24.6464729 16.4968949,24.523302 16.2774291,24.3038363 C16.0579633,24.0843705 15.9347924,23.7866309 15.9350711,23.4762595 C15.9347645,23.1658699 16.0579231,22.8681033 16.2773919,22.6486147 C16.4968607,22.4291262 16.7946163,22.3059409 17.1050059,22.3062197 C17.4153772,22.3059409 17.7131169,22.4291118 17.9325826,22.6485776 C18.1520484,22.8680434 18.2752193,23.165783 18.2749406,23.4761544 C18.2752193,23.7865257 18.1520484,24.0842654 17.9325826,24.3037311 C17.7131169,24.5231969 17.4153772,24.6463678 17.1050059,24.6460886 L17.1050059,24.6461942 Z" id="Shape"></path>
                </g>
            </g>
        </g>
    </g>
</svg>