<svg xmlns="http://www.w3.org/2000/svg" viewBox="0 0 652.22 385.5"><defs><style>.cls-1{fill:#fff;}</style></defs><title>SDL_Logotypo_W</title><g id="Layer_2" data-name="Layer 2"><g id="Helix"><g id="_Group_" data-name="&lt;Group&gt;"><g id="_Group_2" data-name="&lt;Group&gt;"><path class="cls-1" d="M181,2.05,39.58,184.1a5.29,5.29,0,0,0,4.18,8.54H326.58a5.29,5.29,0,0,0,4.18-8.54L189.35,2.05A5.29,5.29,0,0,0,181,2.05Z"/><path class="cls-1" d="M93.33,60.54,1.05,184.29a5.26,5.26,0,0,0,4.21,8.4H189.83a5.26,5.26,0,0,0,4.21-8.4L101.76,60.54A5.26,5.26,0,0,0,93.33,60.54Z"/><path class="cls-1" d="M214.91,365.89h0a9.51,9.51,0,0,1-9.5-9.62,9.64,9.64,0,0,1,9.64-9.63h19.58a9.64,9.64,0,0,0,0-19.27h-41a9.63,9.63,0,0,1,0-19.26h58.28a9.64,9.64,0,0,0,0-19.27H220a9.63,9.63,0,1,1,0-19.26l73,.1a9.63,9.63,0,0,0,0-19.26l-54-.11a9.63,9.63,0,0,1,0-19.26h83.68a9.64,9.64,0,1,0,0-19.27H9.77a9.64,9.64,0,0,0,0,19.27H48.82a9.63,9.63,0,1,1,0,19.26h0a9.64,9.64,0,0,0,0,19.27h68.46a9.63,9.63,0,1,1,0,19.26H87.87a9.64,9.64,0,0,0,0,19.27l48.93,0a9.63,9.63,0,0,1,0,19.26h0a9.64,9.64,0,1,0,0,19.27h14.56l24.5,0a9.64,9.64,0,0,1,0,19.27h0a9.63,9.63,0,0,0,.13,19.25l38.77.06a9.67,9.67,0,0,0,.15-19.33Zm-34.19-88.56a10.38,10.38,0,0,1,.55-1.8,9.21,9.21,0,0,1,.89-1.67,9.36,9.36,0,0,1,1.19-1.46,10,10,0,0,1,1.47-1.2,10.13,10.13,0,0,1,1.66-.88,10.26,10.26,0,0,1,1.81-.56,9.86,9.86,0,0,1,3.75,0,10.26,10.26,0,0,1,1.81.56,10.13,10.13,0,0,1,1.66.88,9.94,9.94,0,0,1,2.67,2.66,9.83,9.83,0,0,1,.88,1.67,9.58,9.58,0,0,1,.55,1.8,9.4,9.4,0,0,1,0,3.76,8.73,8.73,0,0,1-.56,1.8,9.16,9.16,0,0,1-.88,1.67,9.5,9.5,0,0,1-2.66,2.65,9.59,9.59,0,0,1-3.47,1.44,9.09,9.09,0,0,1-1.88.19,9.71,9.71,0,0,1-6.81-2.82,9.36,9.36,0,0,1-1.19-1.46,9.21,9.21,0,0,1-.89-1.67,10.12,10.12,0,0,1-.55-1.8,9.4,9.4,0,0,1,0-3.76Zm-83.4-34.77a10.38,10.38,0,0,1-.55,1.8,9.55,9.55,0,0,1-.89,1.67,9.92,9.92,0,0,1-1.2,1.46,8.83,8.83,0,0,1-1.46,1.19,9.46,9.46,0,0,1-1.66.89,9.81,9.81,0,0,1-1.8.55,9.45,9.45,0,0,1-3.77,0,9.36,9.36,0,0,1-1.8-.55,9.21,9.21,0,0,1-1.67-.89,8.83,8.83,0,0,1-1.46-1.19,9.92,9.92,0,0,1-1.2-1.46,10.22,10.22,0,0,1-.88-1.67,9.58,9.58,0,0,1-.55-1.8,9.4,9.4,0,0,1,0-3.76A9.36,9.36,0,0,1,79,237a9.83,9.83,0,0,1,.88-1.67,9.71,9.71,0,0,1,2.66-2.66,9.83,9.83,0,0,1,1.67-.88,9.39,9.39,0,0,1,1.8-.56,9.71,9.71,0,0,1,8.69,2.64,9.42,9.42,0,0,1,1.2,1.46,9.21,9.21,0,0,1,.89,1.67,10.12,10.12,0,0,1,.55,1.8,9.91,9.91,0,0,1,0,3.76Z"/></g><circle class="cls-1" cx="146.57" cy="375.73" r="9.76"/><circle class="cls-1" cx="107.52" cy="337.01" r="9.76"/></g><path class="cls-1" d="M407.76,123.59l1.93-2.81c1.41-1.94,2.91-2,5.11-.8,2,1.41,6.51,4.58,12.67,4.58,5.81,0,9.33-2.9,9.33-7.13,0-11.88-29.13-9.41-29.13-28.86,0-11,9.15-18.13,21-18.13a29.13,29.13,0,0,1,16.11,4.75,3.48,3.48,0,0,1,1.14,5l-1.58,2.9c-1.32,2.56-3.17,2.2-5,1.24a20.38,20.38,0,0,0-10.82-3.44c-5.81,0-9.51,2.82-9.51,7,0,11.71,29.13,8.72,29.13,28.6,0,10.12-7.57,18.48-20.68,18.48a33.16,33.16,0,0,1-19.18-6.33C406.88,127.46,406,126,407.76,123.59Z"/><path class="cls-1" d="M459.33,92.79c0-2.37,1.23-3.69,3.61-3.69h3.43c2.37,0,3.6,1.32,3.6,3.69v2.73a14.94,14.94,0,0,1-.17,2H470c2.2-4.4,7.66-9.51,14.7-9.51,6.78,0,11.26,3.17,13.11,9.24H498A17.78,17.78,0,0,1,513.27,88C522.6,88,528,93.32,528,105.11v25.17c0,2.46-1.31,3.7-3.69,3.7h-3.79c-2.46,0-3.69-1.24-3.69-3.7v-23c0-5.11-1-9-6.16-9-7.57,0-11.44,7.74-11.44,15.57v16.46c0,2.46-1.23,3.7-3.61,3.7h-3.87c-2.38,0-3.7-1.24-3.7-3.7v-23c0-4.85-.7-9-6-9-7.92,0-11.62,8.09-11.62,15.57v16.46c0,2.46-1.23,3.7-3.6,3.7h-3.87c-2.38,0-3.61-1.24-3.61-3.7Z"/><path class="cls-1" d="M565.1,106.26H567V105.2c0-5.89-3.78-7.92-8.36-7.92a20.34,20.34,0,0,0-9.33,2.55c-2.2,1-3.87.62-4.93-1.49l-.88-1.67c-1.05-2-.7-3.79,1.41-4.93a31.83,31.83,0,0,1,14.7-3.7c11.61,0,18.57,6.51,18.57,17.86v24.38c0,2.46-1.24,3.7-3.7,3.7h-3c-2.38,0-3.61-1.24-3.61-3.7v-1.76a8.69,8.69,0,0,1,.18-1.94h-.18S563.61,135,553.75,135c-8.18,0-14.87-5.28-14.87-13.46C538.88,108.46,555.07,106.26,565.1,106.26Zm-8.36,20.24c6.25,0,10.3-6.34,10.3-11.8V113h-1.85c-5.63,0-15.22.88-15.22,7.57C550,123.59,552.25,126.5,556.74,126.5Z"/><path class="cls-1" d="M590.71,92.79c0-2.37,1.23-3.69,3.61-3.69h3.43a3.34,3.34,0,0,1,3.69,3.69V97a19,19,0,0,1-.26,3.08h.18c1.76-5.37,6.68-11.35,13-11.35,2.46,0,3.34,1.23,3.34,3.69v3.43c0,2.38-1.4,3.7-3.78,3.7-8.18,0-12.14,8.1-12.14,16.28v14.43c0,2.46-1.24,3.7-3.61,3.7h-3.87c-2.38,0-3.61-1.24-3.61-3.7Z"/><path class="cls-1" d="M630.13,98.6h-2.37c-2.38,0-3.61-1.23-3.61-3.69v-1.5c0-2.38,1.23-3.7,3.7-3.7h2.55V80.56a3.34,3.34,0,0,1,3.69-3.69h3.52a3.34,3.34,0,0,1,3.7,3.69v9.15h6.51a3.34,3.34,0,0,1,3.7,3.7v1.5c0,2.46-1.32,3.69-3.61,3.69h-6.6V116c0,6.69,4.13,8,7.21,8.36,2.73.27,3.7,1.15,3.7,3.61v2.73c0,2.64-1.5,3.7-4.58,3.7-8,0-17.51-4.32-17.51-16.46Z"/><path class="cls-1" d="M410.49,171.69c0-2.37,1.23-3.69,3.61-3.69h17.68c19.27,0,31.86,11.44,31.86,31.15s-12.59,31.33-31.86,31.33H414.1c-2.38,0-3.61-1.24-3.61-3.7Zm20.68,49c12.67,0,20.76-7.48,20.76-21.56,0-13.9-8.27-21.38-20.76-21.38h-9.42v42.94Z"/><path class="cls-1" d="M497.25,202.76h1.85V201.7c0-5.89-3.78-7.92-8.36-7.92a20.37,20.37,0,0,0-9.33,2.55c-2.2,1-3.87.62-4.92-1.49l-.88-1.67c-1.06-2-.71-3.79,1.4-4.93a31.83,31.83,0,0,1,14.7-3.7c11.62,0,18.57,6.51,18.57,17.86v24.38c0,2.46-1.23,3.7-3.7,3.7h-3c-2.38,0-3.61-1.24-3.61-3.7V225a8.69,8.69,0,0,1,.18-1.94H500s-4.22,8.45-14.08,8.45c-8.18,0-14.87-5.28-14.87-13.46C471,205,487.22,202.76,497.25,202.76ZM488.89,223c6.25,0,10.3-6.34,10.3-11.8v-1.67h-1.85c-5.63,0-15.22.88-15.22,7.57C482.12,220.09,484.41,223,488.89,223Z"/><path class="cls-1" d="M526.56,195.1h-2.38c-2.37,0-3.61-1.23-3.61-3.69v-1.5c0-2.38,1.24-3.7,3.7-3.7h2.55v-9.15a3.34,3.34,0,0,1,3.7-3.69H534a3.34,3.34,0,0,1,3.69,3.69v9.15h6.52a3.34,3.34,0,0,1,3.69,3.7v1.5c0,2.46-1.32,3.69-3.61,3.69h-6.6v17.42c0,6.69,4.14,8,7.22,8.36,2.73.27,3.7,1.15,3.7,3.61v2.73c0,2.64-1.5,3.7-4.58,3.7-8,0-17.51-4.32-17.51-16.46Z"/><path class="cls-1" d="M582.88,202.76h1.85V201.7c0-5.89-3.79-7.92-8.37-7.92a20.29,20.29,0,0,0-9.32,2.55c-2.2,1-3.87.62-4.93-1.49l-.88-1.67c-1.06-2-.7-3.79,1.41-4.93a31.78,31.78,0,0,1,14.69-3.7c11.62,0,18.57,6.51,18.57,17.86v24.38c0,2.46-1.23,3.7-3.7,3.7h-3c-2.37,0-3.6-1.24-3.6-3.7V225a9.18,9.18,0,0,1,.17-1.94h-.17s-4.23,8.45-14.09,8.45c-8.18,0-14.87-5.28-14.87-13.46C556.65,205,572.85,202.76,582.88,202.76ZM574.52,223c6.25,0,10.29-6.34,10.29-11.8v-1.67H583c-5.64,0-15.23.88-15.23,7.57C567.74,220.09,570,223,574.52,223Z"/><path class="cls-1" d="M410.49,268.19c0-2.37,1.23-3.69,3.61-3.69h4c2.38,0,3.61,1.32,3.61,3.69v49h23.32c2.46,0,3.7,1.23,3.7,3.61v2.46c0,2.46-1.24,3.7-3.7,3.7h-31c-2.38,0-3.61-1.24-3.61-3.7Z"/><path class="cls-1" d="M484.93,299.26h1.85V298.2c0-5.89-3.78-7.92-8.36-7.92a20.37,20.37,0,0,0-9.33,2.55c-2.19,1-3.87.62-4.92-1.49l-.88-1.67c-1.06-2-.71-3.79,1.4-4.93a31.83,31.83,0,0,1,14.7-3.7C491,281,498,287.55,498,298.9v24.38c0,2.46-1.23,3.7-3.7,3.7h-3c-2.38,0-3.61-1.24-3.61-3.7v-1.76a8.69,8.69,0,0,1,.18-1.94h-.18S483.44,328,473.58,328c-8.18,0-14.87-5.28-14.87-13.46C458.71,301.46,474.9,299.26,484.93,299.26Zm-8.36,20.24c6.25,0,10.3-6.34,10.3-11.8V306H485c-5.63,0-15.22.88-15.22,7.57C469.8,316.59,472.09,319.5,476.57,319.5Z"/><path class="cls-1" d="M510.54,268.19a3.34,3.34,0,0,1,3.7-3.69H518c2.47,0,3.7,1.32,3.7,3.69v29.75h5.54l9.33-13.38a4.6,4.6,0,0,1,4.4-2.46h4.22c3,0,4,2,2.29,4.4l-11.17,15.66v.18l13.19,20.24c1.5,2.55.53,4.4-2.46,4.4h-4.75a4.47,4.47,0,0,1-4.31-2.56l-10.47-17.07h-5.81v15.93c0,2.46-1.23,3.7-3.7,3.7h-3.78c-2.38,0-3.7-1.24-3.7-3.7Z"/><path class="cls-1" d="M578,281c12.76,0,19.89,9.07,19.89,21.39a3.9,3.9,0,0,1-3.88,3.78H566.6c.7,8.09,6.68,12.32,13.46,12.32a18.53,18.53,0,0,0,9.68-2.91c2.2-1.05,3.78-.79,4.93,1.24l1.05,1.76c1.06,2,.71,3.78-1.23,4.92A28.32,28.32,0,0,1,579.27,328c-14.87,0-24.11-10.73-24.11-23.49C555.16,290.72,564.48,281,578,281Zm8.8,18.39c-.18-6.24-4-9.94-9.06-9.94-5.72,0-9.77,4-10.83,9.94Z"/></g></g></svg>