<?xml version="1.0" encoding="UTF-8"?>
<svg width="24px" height="26px" viewBox="0 0 24 26" version="1.1" xmlns="http://www.w3.org/2000/svg" xmlns:xlink="http://www.w3.org/1999/xlink">
    <title>drawer</title>
    <g id="Page-1" stroke="none" stroke-width="1" fill="none" fill-rule="evenodd">
        <g id="Features-+-Footer" transform="translate(-153.000000, -663.000000)" fill="#D81505" fill-rule="nonzero">
            <g id="Check-icon-badge-Copy-5" transform="translate(135.000000, 646.139336)">
                <g id="drawer" transform="translate(18.000000, 17.500000)">
                    <path d="M23.1683273,0 L0.79890784,0 C0.357683223,0 0,0.357683223 0,0.79890784 L0,10.3858019 L23.9672352,10.3858019 L23.9672352,0.79890784 C23.9672352,0.357683223 23.609552,0 23.1683273,0 Z M15.179249,5.59235488 L8.78798624,5.59235488 L8.78798624,3.9945392 L15.179249,3.9945392 L15.179249,5.59235488 Z" id="Shape"></path>
                    <path d="M0,21.5705117 C0,22.0117363 0.357683223,22.3694195 0.79890784,22.3694195 L3.9945392,22.3694195 L3.9945392,24.766143 L5.59235488,24.766143 L5.59235488,22.3694195 L18.3748803,22.3694195 L18.3748803,24.766143 L19.972696,24.766143 L19.972696,22.3694195 L23.1683273,22.3694195 C23.609552,22.3694195 23.9672352,22.0117363 23.9672352,21.5705117 L23.9672352,11.9836176 L0,11.9836176 L0,21.5705117 Z M8.78798624,15.9781568 L15.179249,15.9781568 L15.179249,17.5759725 L8.78798624,17.5759725 L8.78798624,15.9781568 Z" id="Shape"></path>
                </g>
            </g>
        </g>
    </g>
</svg>