<?xml version="1.0" encoding="UTF-8"?>
<svg width="703px" height="1050px" viewBox="0 0 703 1050" version="1.1" xmlns="http://www.w3.org/2000/svg" xmlns:xlink="http://www.w3.org/1999/xlink">
    <title>Group 36</title>
    <defs>
        <polygon id="path-1" points="0.0956641698 0.722269991 702.468142 0.722269991 702.468142 1049.94583 0.0956641698 1049.94583"></polygon>
    </defs>
    <g id="Page-1" stroke="none" stroke-width="1" fill="none" fill-rule="evenodd">
        <g id="A-query" transform="translate(-897.000000, 0.000000)">
            <g id="Group-36" transform="translate(1248.500000, 525.000000) scale(-1, 1) translate(-1248.500000, -525.000000) translate(897.000000, 0.000000)">
                <mask id="mask-2" fill="white">
                    <use xlink:href="#path-1"></use>
                </mask>
                <g id="Clip-2"></g>
                <path d="M0.0956641698,0.723172829 C732.407517,119.504987 259.619392,340.47356 511.05467,524.643379 C751.072562,700.450215 358.693243,1050.00903 23.7879051,1050.00903" id="Stroke-1" stroke="#E1E1E1" stroke-width="0.25" mask="url(#mask-2)"></path>
                <path d="M29.4689526,0.723172829 C714.776347,112.62356 247.393687,352.052451 498.500723,525.83693 C746.924774,697.764273 382.373197,1033.11694 52.3555081,1050.00903" id="Stroke-3" stroke="#E1E1E1" stroke-width="0.359" mask="url(#mask-2)"></path>
                <path d="M58.8404856,0.723172829 C697.145177,105.743035 235.450586,363.374033 485.947653,527.031384 C742.995522,694.967283 406.053151,1016.22485 80.9231111,1050.00903" id="Stroke-4" stroke="#E1E1E1" stroke-width="0.469" mask="url(#mask-2)"></path>
                <path d="M88.213774,0.723172829 C679.514007,98.8616079 223.765514,374.435598 473.394583,528.224936 C739.279539,692.030353 429.733105,999.33276 109.490714,1050.00903" id="Stroke-5" stroke="#E1E1E1" stroke-width="0.578" mask="url(#mask-2)"></path>
                <path d="M117.586185,0.723172829 C661.88196,91.9801806 212.313899,385.232631 460.840635,529.41939 C735.764539,688.92098 453.412181,982.440671 138.058317,1050.00903" id="Stroke-6" stroke="#E1E1E1" stroke-width="0.687" mask="url(#mask-2)"></path>
                <path d="M146.958596,0.723172829 C644.252546,85.0996561 201.068532,395.765133 448.286688,530.612941 C732.43999,685.608469 477.092135,965.548581 166.62592,1050.00903" id="Stroke-7" stroke="#E1E1E1" stroke-width="0.797" mask="url(#mask-2)"></path>
                <path d="M176.331006,0.723172829 C626.621376,78.2182287 190.005717,406.03491 435.734496,531.807395 C729.296237,682.063027 500.772089,948.656492 195.193523,1050.00903" id="Stroke-8" stroke="#E1E1E1" stroke-width="0.906" mask="url(#mask-2)"></path>
                <path d="M205.703417,0.723172829 C608.990206,71.3368014 179.096491,416.044669 423.180548,533.000946 C726.316605,678.253955 524.452042,931.764402 223.761126,1050.00903" id="Stroke-9" stroke="#E1E1E1" stroke-width="1.016" mask="url(#mask-2)"></path>
                <path d="M235.075828,0.723172829 C591.358159,64.4562769 168.318913,425.799828 410.6266,534.1954 C723.488808,674.153267 548.131996,914.881341 252.328729,1050.00903" id="Stroke-10" stroke="#E1E1E1" stroke-width="1.125" mask="url(#mask-2)"></path>
                <path d="M264.448238,0.723172829 C573.727866,57.5748495 157.644898,435.306707 398.073531,535.389854 C720.796169,669.727558 571.811072,897.986543 280.896332,1050.00903" id="Stroke-11" stroke="#E1E1E1" stroke-width="1.234" mask="url(#mask-2)"></path>
                <path d="M293.820649,0.723172829 C556.095819,50.6934222 147.051627,444.571625 385.520461,536.583405 C718.222012,664.953353 595.491026,881.095357 309.463935,1050.00903" id="Stroke-12" stroke="#E1E1E1" stroke-width="1.344" mask="url(#mask-2)"></path>
                <path d="M323.193938,0.723172829 C538.464649,43.8128977 136.51277,453.603611 372.966513,537.776956 C715.747031,659.80086 619.170102,864.20417 338.031538,1050.00903" id="Stroke-13" stroke="#E1E1E1" stroke-width="1.453" mask="url(#mask-2)"></path>
                <path d="M352.566348,0.723172829 C520.833479,36.9314703 126.007265,462.410791 360.413443,538.970507 C713.351916,654.244798 642.850934,847.312984 366.599141,1050.00903" id="Stroke-14" stroke="#E1E1E1" stroke-width="1.562" mask="url(#mask-2)"></path>
                <path d="M381.938759,0.723172829 C503.203187,30.050043 115.510536,471.004901 347.859496,540.164961 C711.016482,648.260791 666.53001,830.421797 395.166744,1050.00903" id="Stroke-15" stroke="#E1E1E1" stroke-width="1.672" mask="url(#mask-2)"></path>
                <path d="M411.310292,0.723172829 C485.572017,23.1695185 105.002397,479.393164 335.306426,541.358512 C708.717031,641.827171 690.209964,813.531513 423.734347,1050.00903" id="Stroke-16" stroke="#E1E1E1" stroke-width="1.781" mask="url(#mask-2)"></path>
                <path d="M440.682703,0.723172829 C467.940848,16.2880911 94.4591523,487.590026 322.752478,542.552966 C706.42899,634.926784 713.889918,796.640327 452.30195,1050.00903" id="Stroke-17" stroke="#E1E1E1" stroke-width="1.891" mask="url(#mask-2)"></path>
                <path d="M470.055991,0.723172829 C450.309678,9.40756664 83.8632484,495.603611 310.199408,543.746518 C704.127784,627.537962 737.569871,779.74914 480.869553,1050.00903" id="Stroke-18" stroke="#E1E1E1" stroke-width="2" mask="url(#mask-2)"></path>
                <path d="M859.283658,1049.80138 C126.97005,931.024076 599.758175,710.0546 348.323774,525.885684 C108.305005,350.078848 500.684323,0.523645744 835.587029,0.523645744" id="Stroke-19" stroke="#E1E1E1" stroke-width="0.25" mask="url(#mask-2)"></path>
                <path d="M817.163338,1049.80138 C141.178373,926.83491 612.918581,700.350903 357.746256,520.484007 C109.696085,345.63779 476.026664,11.2845658 807.022059,0.523645744" id="Stroke-20" stroke="#E1E1E1" stroke-width="0.359" mask="url(#mask-2)"></path>
                <path d="M775.043896,1049.80138 C155.385819,922.636715 626.00263,690.729364 367.168738,515.08233 C111.020463,341.259028 451.369005,22.0454858 778.454456,0.523645744" id="Stroke-21" stroke="#E1E1E1" stroke-width="0.469" mask="url(#mask-2)"></path>
                <path d="M732.925332,1049.80138 C169.594142,918.447549 639.014713,681.188177 376.59122,509.681556 C112.283406,336.943465 426.710468,32.8073087 749.88773,0.524548581" id="Stroke-22" stroke="#E1E1E1" stroke-width="0.578" mask="url(#mask-2)"></path>
                <path d="M690.80589,1049.80138 C183.802466,914.258383 651.962727,671.725537 386.013702,504.27988 C113.489301,332.694712 402.052809,43.5682287 721.31925,0.523645744" id="Stroke-23" stroke="#E1E1E1" stroke-width="0.687" mask="url(#mask-2)"></path>
                <path d="M648.686448,1049.80138 C198.009911,910.060189 664.855448,662.339639 395.436184,498.879106 C114.641659,328.517283 377.394272,54.3291488 692.751647,0.523645744" id="Stroke-24" stroke="#E1E1E1" stroke-width="0.797" mask="url(#mask-2)"></path>
                <path d="M606.567884,1049.80138 C212.217357,905.871023 677.698144,653.027773 404.858665,493.477429 C115.745747,324.410275 352.735735,65.0900688 664.184044,0.523645744" id="Stroke-25" stroke="#E1E1E1" stroke-width="0.906" mask="url(#mask-2)"></path>
                <path d="M564.44932,1049.80138 C226.42568,901.679149 690.497834,643.78994 414.281147,488.075752 C116.805074,320.378203 328.078076,75.850086 635.616441,0.523645744" id="Stroke-26" stroke="#E1E1E1" stroke-width="1.016" mask="url(#mask-2)"></path>
                <path d="M522.330755,1049.80138 C240.634004,897.486371 703.259785,634.621625 423.704507,482.674979 C117.824029,316.420163 303.420417,86.611006 607.049715,0.523645744" id="Stroke-27" stroke="#E1E1E1" stroke-width="1.125" mask="url(#mask-2)"></path>
                <path d="M480.211313,1049.80138 C254.841449,893.293594 715.987508,625.521023 433.126111,477.273302 C118.805245,312.538865 278.76188,97.3719261 578.481235,0.523645744" id="Stroke-28" stroke="#E1E1E1" stroke-width="1.234" mask="url(#mask-2)"></path>
                <path d="M438.091871,1049.80138 C269.049773,889.102623 728.687146,616.484523 442.548593,471.871625 C119.753988,308.732502 254.104221,108.133749 549.913632,0.523645744" id="Stroke-29" stroke="#E1E1E1" stroke-width="1.344" mask="url(#mask-2)"></path>
                <path d="M395.973307,1049.80138 C283.257218,884.908942 741.363087,607.512124 451.971075,466.470851 C120.67289,305.005589 229.445684,118.894669 521.346029,0.523645744" id="Stroke-30" stroke="#E1E1E1" stroke-width="1.453" mask="url(#mask-2)"></path>
                <path d="M353.853865,1049.80138 C297.464664,880.717971 754.020598,598.600215 461.393557,461.069175 C121.563708,301.353611 204.788025,129.655589 492.779303,0.523645744" id="Stroke-31" stroke="#E1E1E1" stroke-width="1.562" mask="url(#mask-2)"></path>
                <path d="M311.734423,1049.80138 C311.672988,876.526096 766.660556,589.746991 470.816039,455.667498 C122.432584,297.778375 180.129488,140.416509 464.2117,0.524548581" id="Stroke-32" stroke="#E1E1E1" stroke-width="1.672" mask="url(#mask-2)"></path>
                <path d="M269.615859,1049.80138 C325.881311,872.334222 779.289104,580.947936 480.239398,450.266724 C123.281275,294.27988 155.471829,151.177429 435.64322,0.523645744" id="Stroke-33" stroke="#E1E1E1" stroke-width="1.781" mask="url(#mask-2)"></path>
                <path d="M227.497295,1049.80138 C340.088757,868.141445 791.721935,572.668014 489.661002,444.865047 C123.887733,291.41969 130.813292,161.938349 407.075617,0.523645744" id="Stroke-34" stroke="#E1E1E1" stroke-width="1.891" mask="url(#mask-2)"></path>
                <path d="M185.377853,1049.80138 C354.29708,863.948667 804.51987,563.508727 499.083484,439.464273 C124.925996,287.509501 106.155633,172.699269 378.508014,0.523645744" id="Stroke-35" stroke="#E1E1E1" stroke-width="2" mask="url(#mask-2)"></path>
            </g>
        </g>
    </g>
</svg>