<?xml version="1.0" encoding="UTF-8"?>
<svg width="470px" height="302px" viewBox="0 0 470 302" version="1.1" xmlns="http://www.w3.org/2000/svg" xmlns:xlink="http://www.w3.org/1999/xlink">
    <title>Group 4</title>
    <g id="Page-1" stroke="none" stroke-width="1" fill="none" fill-rule="evenodd">
        <g id="Swiss-made" transform="translate(-214.000000, -586.000000)">
            <g id="Group-4" transform="translate(215.000000, 587.000000)">
                <g id="ch-01" stroke="#AEAEAE" stroke-dasharray="3,4" stroke-linecap="round" stroke-linejoin="round">
                    <g id="Switzerland">
                        <path d="M466.218139,143.609989 L465.671616,148.488265 L465.296947,149.849836 L464.686609,150.812096 L462.426592,153.542819 L462.619297,155.795255 L463.358525,157.996513 L463.615676,160.079621 L462.362778,161.990242 L460.606321,163.119303 L460.188688,164.502355 L460.285357,166.224694 L460.060429,168.368457 L459.064682,170.152715 L457.940044,171.226175 L457.447225,172.6623 L458.314713,175.549714 L460.188688,177.733913 L464.601314,178.209673 L466.764663,180.034367 L467.546223,182.941999 L467.471037,186.834637 L466.646513,190.569321 L466.012798,191.623195 L465.200278,192.975288 L463.326303,193.337321 L455.904322,191.379313 L452.294739,191.721759 L450.966655,191.503781 L449.799053,190.962312 L449.145752,190.269207 L448.599228,189.50976 L447.785445,188.785695 L443.51182,187.313556 L443.051224,185.677145 L443.618597,182.579335 L443.415152,180.87595 L441.765472,179.519434 L439.098563,179.542812 L429.288306,182.377153 L428.291927,182.926836 L427.842072,184.041365 L426.567692,188.95755 L425.710945,190.109988 L423.47241,192.352315 L422.58344,193.69114 L422.44444,194.772814 L422.422958,198.079756 L421.973103,199.682049 L422.101362,201.074579 L422.347772,202.166994 L422.851331,203.010473 L423.751042,203.624601 L421.919398,206.741997 L423.547596,208.777719 L426.589174,209.966171 L431.226727,210.867145 L433.015407,211.589314 L433.776118,213.259213 L432.994557,216.535827 L432.244588,217.544842 L430.070498,219.500323 L429.288938,220.959193 L428.763896,222.991756 L428.69945,224.364699 L429.117083,225.628969 L430.059757,227.303922 L434.333382,231.667266 L435.661466,234.339861 L434.301159,237.205161 L431.409323,239.032382 L427.039661,240.696594 L423.612674,240.627094 L423.526746,237.244334 L422.477295,234.696207 L418.386265,231.055033 L416.865476,228.993407 L416.190693,225.706683 L416.14773,222.736501 L415.462206,220.292624 L412.870483,218.585449 L410.739357,218.030711 L408.725749,217.879075 L404.206346,218.659372 L397.308776,222.212723 L395.156168,222.914674 L393.828084,222.627828 L391.300807,221.099457 L390.18691,221.072289 L389.062271,222.348564 L388.858826,224.062689 L389.019308,225.76481 L388.976344,226.946944 L387.39111,229.148202 L385.441947,229.938608 L373.564378,229.798976 L371.154619,228.915693 L368.959047,227.419545 L367.641704,225.597378 L365.574392,220.183319 L364.653199,219.422609 L362.360959,218.146334 L361.61099,217.409001 L361.407544,216.566786 L361.557285,214.276442 L360.936207,199.852641 L360.60387,198.907439 L359.790087,199.090035 L358.119557,200.326505 L357.412551,201.28687 L357.048623,202.355908 L356.545063,203.258146 L355.420425,203.709265 L354.638865,203.367451 L351.993438,200.840174 L351.918251,198.977571 L349.86168,198.429152 L344.817235,199.051494 L342.83585,200.895142 L341.036429,204.518626 L340.222646,208.202763 L341.218393,210.234694 L342.600181,211.193796 L342.803627,212.700684 L342.535736,214.59551 L342.546477,216.7418 L343.939006,222.068668 L344.078007,224.000139 L343.435446,227.30329 L340.40461,233.657496 L338.862339,239.024169 L337.919665,240.541167 L336.71984,241.663278 L335.477683,242.251501 L334.353045,243.087398 L333.774931,244.572805 L333.292852,246.297671 L332.535301,247.737587 L332.479069,247.844997 L324.94968,252.946937 L323.03274,255.829296 L322.625849,257.760136 L322.850776,261.1271 L322.518439,262.964431 L321.693915,264.361383 L320.708277,264.940129 L318.437519,265.657876 L315.781351,267.717607 L315.331496,269.414673 L317.17388,274.611386 L313.767743,277.763532 L313.542815,278.133147 L313.467629,278.518556 L313.542815,278.896384 L313.767743,279.27358 L314.88164,280.4058 L315.738387,283.116305 L316.681061,284.51768 L317.68755,285.095163 L319.947567,285.549441 L320.922464,286.173046 L322.100807,288.643459 L321.704656,291.174527 L319.123675,296.21139 L315.814206,300.284728 L312.697441,299.700927 L309.302045,298.187089 L305.200274,299.439986 L305.585684,297.149641 L306.206762,295.381179 L306.624395,293.535636 L306.453172,290.959077 L305.875057,289.012442 L305.00757,287.065807 L303.208148,283.855533 L302.190919,281.476102 L301.516137,280.529005 L300.819872,279.98185 L294.875717,276.784844 L293.290482,276.222525 L291.512543,276.106902 L291.683766,275.706329 L292.079917,274.989846 L293.90082,270.79583 L296.867211,267.178665 L298.398741,263.675227 L295.764054,260.18569 L294.200302,259.637271 L291.019092,259.714353 L289.359303,259.482475 L288.567002,258.941638 L287.806923,257.544054 L287.477745,257.422113 L286.950176,257.22688 L286.307616,257.528258 L284.7009,258.957433 L283.961671,259.374434 L282.140768,259.281556 L277.31051,256.454797 L275.307643,255.759796 L274.301155,255.242336 L267.757404,245.548334 L264.811863,242.515602 L261.952249,241.068736 L259.242376,239.977584 L257.336178,238.398668 L256.200798,235.990805 L255.793907,232.334467 L256.147094,228.475315 L257.828365,220.700779 L258.181552,216.374081 L258.127847,211.839515 L257.699474,208.44475 L256.274721,206.377438 L253.297589,205.853028 L251.924646,206.149983 L247.524657,207.100871 L244.708007,208.63935 L242.501694,210.985927 L241.634206,212.892757 L242.030357,213.529631 L242.715881,214.054041 L242.758845,215.575462 L242.137766,216.949669 L241.109796,218.187403 L239.920713,219.099118 L236.985912,220.588947 L231.887763,227.336145 L229.745896,228.832293 L225.247343,229.840044 L223.008808,230.878755 L220.984459,232.93975 L219.945748,234.403675 L219.506634,235.666049 L219.870561,236.246691 L222.291061,238.360758 L225.35412,244.289118 L225.643494,249.780259 L223.394217,254.626312 L218.864073,258.566337 L217.739435,258.944797 L215.597568,259.176674 L214.558857,259.979717 L213.819629,261.516301 L213.594701,263.229795 L213.58396,264.904748 L213.037437,269.155627 L212.844732,269.456373 L211.838244,271.677218 L211.763057,272.001341 L210.467196,273.689562 L209.727967,274.306218 L208.731589,274.614545 L201.384163,276.279389 L199.889279,277.484268 L198.763377,279.643826 L198.482217,282.477536 L196.349196,282.575467 L196.221568,282.81935 L195.900604,284.351511 L195.986531,285.129281 L195.740122,285.629682 L194.444261,286.337951 L193.844664,286.306992 L191.991538,285.737723 L189.142665,285.791427 L184.162666,283.966733 L183.145437,284.082356 L182.363877,284.451971 L181.496389,284.659839 L180.22201,284.220725 L180.072269,283.843529 L178.123106,280.994024 L176.570095,279.545894 L174.941897,278.605747 L164.38167,275.955266 L162.646695,276.856872 L161.640207,278.552043 L160.504827,280.038713 L158.330738,280.316082 L155.246196,281.656171 L149.120077,286.152828 L145.799867,287.322957 L138.013327,286.491483 L136.65302,286.960925 L133.739702,288.769191 L127.345691,291.400718 L124.218186,291.985151 L120.83353,292.046438 L117.652321,291.392505 L115.242562,289.946271 L110.594268,284.728076 L109.876522,283.526987 L109.319889,282.025153 L108.591401,279.298853 L107.402317,276.201675 L107.027649,274.613913 L106.524089,274.274627 L99.5089999,266.331395 L97.1529461,265.289525 L96.2854583,265.644608 L95.5462298,266.408477 L94.7539285,267.009969 L93.7689223,266.870969 L92.8584708,266.1766 L92.7940253,265.713476 L93.008212,265.088607 L92.9652483,263.931114 L93.1149894,263.784532 L93.0827667,262.225202 L92.9008027,260.742954 L92.6114295,260.889536 L93.0827667,260.117453 L93.9180317,259.098329 L94.6465192,257.955368 L94.7532967,256.812407 L93.1680622,255.275191 L84.9215578,253.451761 L84.0218472,250.939647 L84.9752624,245.813066 L86.7746836,240.450816 L90.4480805,233.288514 L88.0920266,229.22023 L84.4186297,225.309269 L82.4372446,221.881018 L82.9945092,220.147306 L85.7258637,216.934505 L86.4650921,214.419233 L86.3488374,212.946462 L86.2401645,211.569096 L85.2722175,210.075476 L83.7128876,209.300865 L68.274385,205.2945 L61.3660736,205.072731 L54.7256536,206.393865 L45.8896618,212.469439 L42.5264881,213.33124 L39.1209825,213.490458 L35.9290318,214.527274 L32.5658581,217.45007 L29.6095759,221.364821 L27.4247451,224.343217 L26.8681123,226.390311 L27.2964858,227.886459 L28.249901,230.436482 L28.3036056,231.041133 L29.2993527,233.520391 L29.7384671,234.15537 L30.8201416,234.720848 L32.5551172,233.92286 L33.2836047,234.240665 L33.8193874,237.694821 L31.1417376,240.536112 L24.5120585,244.93926 L19.2212043,251.148779 L15.8580306,252.879964 L12.3343748,251.303575 L7.61089433,251.48933 L2.90889569,252.610177 L0.41320977,254.101903 L1.79499841,250.855615 L2.58729971,249.348095 L2.90889569,248.06487 L1.07725177,245.759993 L6.19922793e-14,243.708476 L0.385409724,241.905264 L2.91331843,240.295389 L9.125365,237.244966 L9.29658801,237.190629 L9.46781102,237.174834 L9.66051588,237.190629 L10.474299,237.454098 L11.0953773,237.53118 L11.6949738,237.46168 L13.976473,236.748988 L14.4263283,235.750081 L14.3296599,234.36387 L14.3833646,232.745149 L15.122593,228.498692 L15.4650391,227.327931 L16.9731915,223.943276 L18.81684,219.804228 L18.6778398,218.143807 L17.4142014,215.869258 L15.8934125,214.223369 L10.7984223,211.084491 L10.3024442,210.779322 L11.491528,209.637625 L11.6842328,208.646932 L11.4700461,207.629072 L11.4700461,206.482951 L11.3948596,206.02046 L11.1484501,205.39875 L10.9235225,204.691112 L10.9235225,203.921556 L11.3304141,203.004155 L12.5087569,201.729144 L16.1183401,195.520888 L19.7809962,190.881439 L17.2745693,188.069844 L16.9536051,186.083404 L18.3461347,184.252392 L32.2802758,171.461212 L39.7022562,167.373974 L40.730226,166.503327 L43.4615805,163.413731 L46.8993089,161.585246 L47.9917243,160.768304 L49.1593263,159.298692 L49.5554769,158.043899 L49.5125132,155.490718 L48.7416938,154.638394 L48.1951701,153.895374 L47.9057969,153.042418 L48.0555381,152.306981 L49.6837362,147.380054 L50.4014829,146.076611 L50.6017695,145.575579 L50.9802293,144.62785 L51.1514523,142.528946 L50.8197472,140.85273 L49.4379585,138.211726 L49.0095851,136.840046 L50.5518558,131.515706 L55.5748186,128.597333 L66.7239006,125.081259 L73.6372665,119.800514 L76.0040613,116.370999 L74.7619047,113.549294 L76.1544343,111.131954 L77.1293313,110.16843 L79.7317947,109.232705 L80.1172044,108.26539 L80.5026142,107.998131 L81.9911802,107.227311 L81.8629209,104.622952 L84.9689442,103.536855 L91.5303868,97.4499086 L91.7591054,97.2376174 L93.7297495,93.9755347 L96.7391045,90.8663523 L103.775675,85.6892257 L103.358043,81.9021012 L104.022085,78.7682779 L105.971247,76.7546701 L106.913921,76.635888 L107.471186,76.4147513 L108.981234,74.3651298 L110.062908,73.7295196 L111.123101,73.4369873 L112.097998,72.8127499 L112.90104,71.1333745 L111.819366,69.5803628 L110.266354,68.1650878 L108.724083,66.9039766 L106.817885,67.825169 L94.4904599,69.0426847 L95.0047607,67.0859405 L96.289881,64.693873 L97.8214108,62.6846878 L100.48832,61.1101943 L100.648802,58.2215169 L103.369415,57.6118113 L105.050686,56.6381779 L106.592957,55.320203 L107.374517,54.0293963 L106.870958,52.2034388 L105.800024,50.0843171 L105.542874,48.3765098 L107.470554,47.7857588 L108.391746,47.0604303 L109.32368,46.8184436 L110.266354,47.0604303 L111.209028,47.7857588 L113.897419,48.1781185 L119.060014,47.2746171 L121.501995,47.7857588 L122.851561,48.5666874 L123.043634,48.5976465 L124.23335,48.7884559 L127.05,48.5035054 L125.164651,52.8529489 L125.753507,55.3555849 L128.002783,56.7095735 L131.044361,57.6674114 L131.472734,58.0117529 L131.762108,58.5620674 L132.17974,59.1161729 L132.982782,59.4567234 L133.679047,59.3145641 L137.598853,57.6048613 L140.340949,57.0267467 L143.225835,57.1505833 L147.538633,57.3357063 L148.540699,56.9307102 L150.419097,56.1718953 L151.891868,54.2391603 L152.464296,53.4879273 L152.796001,52.0543295 L152.624778,51.1906326 L152.121218,50.4735178 L151.778772,50.1013762 L151.25373,49.1542792 L151.24299,48.2109731 L152.452923,47.8546271 L154.05964,48.417578 L154.526554,48.7164285 L155.409205,49.2812749 L156.74803,49.4796661 L158.333265,48.0454365 L158.515229,47.7876543 L158.654229,47.351699 L158.66497,46.9517574 L158.649174,46.8942619 L158.558192,46.5669795 L157.818964,45.5244778 L157.594036,44.9059268 L157.733037,44.4219533 L158.332633,44.0965664 L159.403567,44.3265486 L160.238832,44.0491799 L160.688687,43.1728467 L160.656464,41.6381578 L160.303277,41.6457396 L158.579043,40.3208147 L158.332633,40.2178282 L162.284662,36.9702774 L162.852036,36.5039948 L165.336981,35.1146243 L168.980682,33.7347312 L169.036914,33.7132493 L174.322082,32.1216967 L176.667395,31.8752872 L175.307088,35.7218026 L174.203932,36.7895771 L171.762582,36.7680952 L171.494059,36.765568 L175.344366,38.8082395 L176.849359,39.6062272 L179.130858,39.9113959 L183.678061,38.9649307 L187.762772,38.114502 L189.711935,37.0037638 L191.361615,35.0236424 L193.246331,32.0660966 L194.702675,32.8122751 L201.386058,33.2172712 L202.017878,33.8762587 L202.349583,35.3168065 L202.553028,36.7573543 L202.831661,37.4081281 L216.315947,37.4081281 L220.974981,36.3605718 L221.982101,35.6737843 L222.442697,35.0072151 L222.86033,34.2294456 L223.738559,33.2172712 L224.584565,32.5582838 L226.833841,31.3395045 L228.729299,30.771499 L229.436304,30.0208978 L229.950605,29.2702965 L230.486388,28.9209005 L236.077356,27.975699 L237.951332,27.9681171 L240.639723,28.7945367 L241.839548,28.9215323 L242.39618,29.5887334 L242.953445,31.0703495 L243.681932,32.5513338 L244.699161,33.2185349 L248.629709,34.2667229 L255.259388,34.3065276 L255.573402,34.2534547 L258.450707,33.7669539 L258.578966,33.0365709 L259.7889,30.408203 L262.959369,28.3029813 L266.065392,27.9851763 L267.661367,29.4863787 L268.892783,31.5675912 L269.108233,31.8335871 L270.038271,32.9809708 L271.430801,32.512161 L271.655728,32.1160103 L272.105584,31.3249726 L272.223102,30.1731662 L272.169397,29.0807508 L272.297657,28.0319309 L272.254693,27.50373 L272.008284,26.9035017 L271.837061,26.2040779 L272.072729,25.3536492 L272.447398,25.0276305 L272.993921,24.8210256 L273.443777,24.8052301 L273.540445,25.0516396 L273.604891,25.997473 L274.279674,26.3392872 L274.868529,22.6949539 L273.925855,22.6033401 L273.446304,22.4062125 L272.265434,21.9197117 L270.819832,21.6733022 L265.786128,22.5319446 L264.233116,23.3147686 L262.797623,24.3440021 L261.266093,25.1388307 L259.423708,25.2184399 L257.281841,23.9946061 L254.625673,21.9633073 L254.111372,21.883698 L252.483174,21.2834698 L253.147216,19.6173625 L252.890066,18.305074 L252.450951,17.1791721 L252.56847,16.0412657 L253.585699,14.8755592 L256.209644,13.4312205 L257.3128,12.3963006 L258.094361,9.31491829 L258.576439,8.19217553 L259.979709,6.12107213 L260.793492,5.63520315 L261.950353,5.66679411 L267.530581,4.55163318 L269.094333,3.75490915 L268.130177,1.32366879 L269.779857,0.375308136 L272.360839,0.518731099 L274.277778,1.38748253 L274.43826,2.51148892 L274.534929,4.50361492 L274.898856,6.37569527 L275.916085,7.13640561 L277.201206,6.29166332 L277.736988,2.92912142 L278.679663,1.94095616 L280.018488,2.38765235 L281.014867,3.90591394 L281.82865,5.69080324 L282.599469,6.91779616 L283.670403,7.16104656 L284.816523,6.9222189 L285.833752,7.12124195 L286.519276,8.67867633 L286.240643,9.25995001 L284.858855,11.3424262 L284.515777,12.349546 L284.954891,13.6074981 L285.779415,14.6304134 L286.036566,15.8043335 L286.240011,16.8070306 L291.71283,16.7274214 L290.866824,15.7765335 L291.798757,12.7564376 L294.583184,12.8840651 L297.96784,14.8616592 L300.64549,17.4040998 L298.739291,17.8495323 L298.750032,18.9192023 L300.216484,20.3900774 L300.292303,20.4665275 L303.301658,22.7208585 L305.840307,23.3886914 L309.899114,23.0032817 L313.669179,21.7946115 L315.318227,19.9977177 L317.278131,19.2180527 L328.834736,20.5221276 L334.564705,20.5221276 L335.967975,22.7208585 L339.844818,22.7170676 L343.872033,23.6508964 L372.293789,41.4050165 L372.871904,44.1142573 L373.067768,45.0335543 L376.130827,49.6622619 L379.986188,51.4288284 L382.95258,54.0508782 L382.866652,60.5421889 L381.860164,62.8685472 L377.843689,67.9572192 L377.361611,69.3288988 L376.825829,72.0236077 L376.429678,73.0743231 L372.895281,77.3473165 L369.56433,83.0071531 L367.850837,85.918576 L366.062156,91.0641118 L365.815747,96.1982747 L366.608048,98.7186016 L367.732686,100.915437 L368.600174,103.356155 L368.653879,106.606233 L367.668241,108.635636 L366.083006,110.271416 L364.873073,111.903405 L364.990591,113.322471 L367.325163,114.014313 L373.654728,115.071347 L375.785854,114.391509 L377.724275,114.906442 L383.15413,114.230395 L384.889105,114.493864 L404.467288,120.685692 L404.296065,122.417509 L404.735179,122.794073 L405.377739,122.742896 L405.77389,123.214233 L405.77389,124.109521 L405.345516,125.562073 L405.088366,129.124902 L404.756661,130.760682 L404.927884,132.18417 L406.245227,134.058146 L408.815468,136.033845 L419.900736,139.619419 L423.90647,143.438766 L426.241042,144.793386 L430.718113,146.233934 L432.157397,146.288903 L432.85998,146.316071 L435.53763,145.552833 L440.057032,143.246693 L441.117225,141.699368 L441.395857,140.539979 L441.481785,139.263073 L441.974604,137.342974 L443.549097,134.68112 L445.230368,134.367737 L447.243976,134.897202 L449.824958,134.775893 L449.878662,131.94092 L451.688824,128.457701 L454.302029,125.451505 L457.311384,123.72032 L457.878757,123.606593 L458.456872,123.72032 L459.003395,124.077298 L459.014136,124.077298 L459.014136,124.100675 L460.08507,125.254377 L462.248419,128.747074 L465.772075,131.55551 L466.693267,132.661194 L467.2499,135.221325 L465.96478,140.374443 L466.218139,143.609989 Z" id="Path"></path>
                    </g>
                </g>
                <g id="Group-2" transform="translate(63.254049, 168.657951)" fill="#D30E00">
                    <g id="flag-points-31" transform="translate(2.353267, 0.000000)" fill-rule="nonzero">
                        <path d="M1.02213352,0 C0.457915816,0 0,0.457915816 0,1.02213352 L0,23.5090709 C0,24.0732886 0.457915816,24.5312044 1.02213352,24.5312044 C1.58635122,24.5312044 2.04426704,24.0732886 2.04426704,23.5090709 L2.04426704,1.02213352 C2.04426704,0.457915816 1.58635122,0 1.02213352,0 Z" id="Path"></path>
                        <path d="M22.4869374,2.04426704 L5.11066759,2.04426704 C4.54644989,2.04426704 4.08853407,2.50218285 4.08853407,3.06640055 L4.08853407,15.3320028 C4.08853407,15.8962205 4.54644989,16.3541363 5.11066759,16.3541363 L22.4869374,16.3541363 L19.4205368,9.19920166 L22.4869374,2.04426704 Z" id="Path"></path>
                    </g>
                    <ellipse id="Oval" cx="3.40758682" cy="25.0833333" rx="3.40758682" ry="1.14565099"></ellipse>
                </g>
            </g>
        </g>
    </g>
</svg>